<svg width="199" height="49" viewBox="0 0 199 49" fill="none" xmlns="http://www.w3.org/2000/svg">
<path d="M72.9285 13.3663H70.7473L68.1345 20.3187L65.4989 13.3663H63.2951V22H64.681V15.0021L67.3166 22H68.907L71.5426 15.0021V22H72.9285V13.3663ZM75.3369 14.2296H76.8364V12.8664H75.3369V14.2296ZM75.405 22H76.7682V15.1839H75.405V22ZM82.6983 15.0703C81.6758 15.0703 80.8125 15.5247 80.2899 16.2517L80.199 15.1839H79.0176V22H80.3808V18.0921C80.3808 17.0015 81.2442 16.229 82.312 16.229C83.2435 16.229 83.8116 16.8879 83.8116 18.0467V22H85.1748V17.6831C85.1748 16.1154 84.1524 15.0703 82.6983 15.0703ZM87.2423 14.2296H88.7419V12.8664H87.2423V14.2296ZM87.3105 22H88.6737V15.1839H87.3105V22ZM93.1496 22.1136C94.8537 22.1136 95.9215 21.3184 95.9215 20.0688C95.9215 19.0009 95.2172 18.4329 93.3541 17.9558C92.1954 17.6604 91.8318 17.4332 91.8318 17.0015C91.8318 16.5244 92.3544 16.229 93.1269 16.229C93.854 16.229 94.4674 16.479 95.0127 16.9334L95.7852 15.9109C95.0354 15.3657 94.1493 15.0703 93.1951 15.0703C91.5819 15.0703 90.5141 15.8655 90.5141 17.0924C90.5141 18.1375 91.2184 18.7055 92.9906 19.16C94.2402 19.4553 94.6037 19.7052 94.6037 20.1369C94.6037 20.6595 94.0584 20.9321 93.1951 20.9321C92.2863 20.9321 91.5365 20.6368 90.9685 20.0915L90.2187 21.0685C90.9685 21.7501 91.9909 22.1136 93.1496 22.1136ZM101.306 16.3426V15.1839H99.216V13.3663H98.0345L97.8527 15.1839H96.5122V16.3426H97.8527V20.2051C97.8527 21.4547 98.5798 22.1136 99.9203 22.1136C100.375 22.1136 100.852 22.0682 101.306 21.9546V20.7049C100.852 20.8185 100.556 20.8413 100.193 20.8413C99.5341 20.8413 99.216 20.6368 99.216 19.9324V16.3426H101.306ZM106.577 15.0703C105.555 15.0703 104.692 15.5474 104.192 16.2745L104.101 15.1839H102.919V22H104.283V18.183C104.283 17.0924 105.101 16.3881 106.191 16.3881C106.486 16.3881 106.805 16.4108 107.1 16.4335V15.1384C106.918 15.093 106.759 15.0703 106.577 15.0703ZM113.166 15.1839L111.417 20.8185H110.872L108.895 15.1839H107.395L109.599 20.8185H108.622C108.168 21.2729 107.941 21.7955 107.941 22.409C107.941 23.6131 108.713 24.3856 109.849 24.3856C111.008 24.3856 111.78 23.6359 112.348 21.9091L114.62 15.1839H113.166ZM109.895 23.2496C109.44 23.2496 109.122 22.9315 109.122 22.4544C109.122 22.2499 109.167 22.0682 109.281 21.9091H110.985L110.849 22.3181C110.644 22.9088 110.304 23.2496 109.895 23.2496ZM122.436 22.1136C124.481 22.1136 125.89 20.6822 125.89 18.5919C125.89 16.4562 124.526 15.0703 122.436 15.0703C120.391 15.0703 118.983 16.5017 118.983 18.5919C118.983 20.7277 120.346 22.1136 122.436 22.1136ZM122.436 20.9549C121.187 20.9549 120.369 20.0233 120.369 18.5919C120.369 17.1606 121.187 16.229 122.436 16.229C123.686 16.229 124.504 17.1606 124.504 18.5919C124.504 20.0233 123.686 20.9549 122.436 20.9549ZM130.116 13.9115C130.616 13.9115 131.024 14.0706 131.388 14.3432L132.024 13.3208C131.479 12.9573 130.865 12.7528 130.161 12.7528C128.798 12.7528 127.957 13.5026 127.957 14.7068V15.1839H126.549V16.3426H127.957V22H129.32V16.3426H131.274V15.1839H129.32V14.7295C129.32 14.2296 129.616 13.9115 130.116 13.9115ZM140.976 12.9119V16.0927C140.453 15.4338 139.658 15.0703 138.727 15.0703C136.977 15.0703 135.75 16.5017 135.75 18.5919C135.75 20.7277 136.932 22.1136 138.727 22.1136C139.704 22.1136 140.522 21.6819 141.067 20.9321L141.158 22H142.339V12.9119H140.976ZM139.09 20.9549C137.886 20.9549 137.136 20.0233 137.136 18.5919C137.136 17.1606 137.886 16.229 139.09 16.229C140.294 16.229 141.067 17.1606 141.067 18.5919C141.067 20.0233 140.294 20.9549 139.09 20.9549ZM145.338 19.0236H150.587C150.632 18.8646 150.632 18.751 150.632 18.5919C150.632 16.4562 149.337 15.0703 147.338 15.0703C145.338 15.0703 143.975 16.5017 143.975 18.5919C143.975 20.6141 145.202 22.1136 147.451 22.1136C148.883 22.1136 149.837 21.5683 150.405 20.8867L149.473 20.0688C149.087 20.5686 148.451 20.9549 147.451 20.9549C146.247 20.9549 145.497 20.2051 145.338 19.0236ZM147.338 16.2063C148.36 16.2063 149.064 16.8652 149.246 17.9785H145.361C145.566 16.8879 146.27 16.2063 147.338 16.2063ZM154.813 13.9115C155.313 13.9115 155.722 14.0706 156.085 14.3432L156.721 13.3208C156.176 12.9573 155.562 12.7528 154.858 12.7528C153.495 12.7528 152.654 13.5026 152.654 14.7068V15.1839H151.246V16.3426H152.654V22H154.017V16.3426H155.971V15.1839H154.017V14.7295C154.017 14.2296 154.313 13.9115 154.813 13.9115ZM157.835 19.0236H163.083C163.128 18.8646 163.128 18.751 163.128 18.5919C163.128 16.4562 161.833 15.0703 159.834 15.0703C157.835 15.0703 156.471 16.5017 156.471 18.5919C156.471 20.6141 157.698 22.1136 159.948 22.1136C161.379 22.1136 162.333 21.5683 162.901 20.8867L161.97 20.0688C161.583 20.5686 160.947 20.9549 159.948 20.9549C158.743 20.9549 157.994 20.2051 157.835 19.0236ZM159.834 16.2063C160.856 16.2063 161.561 16.8652 161.742 17.9785H157.857C158.062 16.8879 158.766 16.2063 159.834 16.2063ZM168.399 15.0703C167.377 15.0703 166.514 15.5247 165.991 16.2517L165.9 15.1839H164.719V22H166.082V18.0921C166.082 17.0015 166.945 16.229 168.013 16.229C168.945 16.229 169.513 16.8879 169.513 18.0467V22H170.876V17.6831C170.876 16.1154 169.854 15.0703 168.399 15.0703ZM175.806 22.1136C177.26 22.1136 178.465 21.3638 178.851 20.0688L177.556 19.6598C177.26 20.455 176.624 20.9549 175.806 20.9549C174.557 20.9549 173.784 20.0233 173.784 18.5919C173.784 17.1606 174.557 16.229 175.806 16.229C176.647 16.229 177.26 16.7289 177.556 17.5241L178.851 17.1151C178.465 15.8201 177.283 15.0703 175.806 15.0703C173.784 15.0703 172.398 16.5017 172.398 18.5919C172.398 20.6822 173.784 22.1136 175.806 22.1136ZM181.055 19.0236H186.303C186.349 18.8646 186.349 18.751 186.349 18.5919C186.349 16.4562 185.054 15.0703 183.054 15.0703C181.055 15.0703 179.692 16.5017 179.692 18.5919C179.692 20.6141 180.918 22.1136 183.168 22.1136C184.599 22.1136 185.553 21.5683 186.121 20.8867L185.19 20.0688C184.804 20.5686 184.167 20.9549 183.168 20.9549C181.964 20.9549 181.214 20.2051 181.055 19.0236ZM183.054 16.2063C184.077 16.2063 184.781 16.8652 184.963 17.9785H181.077C181.282 16.8879 181.986 16.2063 183.054 16.2063ZM66.0215 37.1136C68.0663 37.1136 69.475 35.6822 69.475 33.5919C69.475 31.4562 68.1118 30.0703 66.0215 30.0703C63.9767 30.0703 62.568 31.5017 62.568 33.5919C62.568 35.7277 63.9312 37.1136 66.0215 37.1136ZM66.0215 35.9549C64.7719 35.9549 63.954 35.0233 63.954 33.5919C63.954 32.1606 64.7719 31.229 66.0215 31.229C67.2711 31.229 68.0891 32.1606 68.0891 33.5919C68.0891 35.0233 67.2711 35.9549 66.0215 35.9549ZM73.701 28.9115C74.2008 28.9115 74.6098 29.0706 74.9733 29.3432L75.6095 28.3208C75.0642 27.9573 74.4508 27.7528 73.7464 27.7528C72.3832 27.7528 71.5426 28.5026 71.5426 29.7068V30.1839H70.1339V31.3426H71.5426V37H72.9058V31.3426H74.8597V30.1839H72.9058V29.7295C72.9058 29.2296 73.2011 28.9115 73.701 28.9115ZM83.5843 37.1136C85.8109 37.1136 87.2196 35.7277 87.2196 33.5919V28.3663H85.7882V33.5692C85.7882 34.9779 84.9476 35.8413 83.5843 35.8413C82.2211 35.8413 81.3805 34.9779 81.3805 33.5692V28.3663H79.9491V33.5919C79.9491 35.7277 81.3578 37.1136 83.5843 37.1136ZM95.149 35.7958C94.9445 35.7958 94.8082 35.6595 94.8082 35.455V32.9558H93.5586L95.2853 30.1839H93.8312L92.2181 32.8876H90.8321V27.9119H89.4689V37H90.8321V34.1372H93.4677V35.7504C93.4677 36.5683 93.9448 37 94.7855 37H95.3989V35.7958H95.149ZM100.647 30.0703C99.6249 30.0703 98.7616 30.5474 98.2617 31.2745L98.1708 30.1839H96.9894V37H98.3526V33.183C98.3526 32.0924 99.1705 31.3881 100.261 31.3881C100.556 31.3881 100.875 31.4108 101.17 31.4335V30.1384C100.988 30.093 100.829 30.0703 100.647 30.0703ZM107.759 35.8185C107.463 35.8185 107.327 35.6822 107.327 35.3869V32.3196C107.327 30.9109 106.327 30.0703 104.692 30.0703C103.51 30.0703 102.533 30.4793 101.738 31.229L102.579 32.1151C103.124 31.5471 103.851 31.2063 104.623 31.2063C105.487 31.2063 106.055 31.5698 106.055 32.1151C106.055 32.6377 105.555 32.7286 104.533 32.8649C103.215 33.0694 101.602 33.4329 101.602 35.1142C101.602 36.2957 102.488 37.1136 103.828 37.1136C104.828 37.1136 105.737 36.6592 106.214 35.9549C106.305 36.7501 106.691 37.0454 107.532 37.0454C107.759 37.0454 107.941 37.0227 108.009 37V35.8185H107.759ZM104.055 36.0003C103.351 36.0003 102.942 35.6595 102.942 35.0233C102.942 34.1372 103.828 34.0009 104.692 33.8646C105.35 33.751 105.759 33.6828 106.009 33.5238V34.4099C106.009 35.2733 105.101 36.0003 104.055 36.0003ZM109.576 29.2296H111.076V27.8664H109.576V29.2296ZM109.645 37H111.008V30.1839H109.645V37ZM116.938 30.0703C115.915 30.0703 115.052 30.5247 114.529 31.2517L114.439 30.1839H113.257V37H114.62V33.0921C114.62 32.0015 115.484 31.229 116.552 31.229C117.483 31.229 118.051 31.8879 118.051 33.0467V37H119.414V32.6831C119.414 31.1154 118.392 30.0703 116.938 30.0703ZM122.3 34.0236H127.548C127.594 33.8646 127.594 33.751 127.594 33.5919C127.594 31.4562 126.299 30.0703 124.299 30.0703C122.3 30.0703 120.937 31.5017 120.937 33.5919C120.937 35.6141 122.164 37.1136 124.413 37.1136C125.844 37.1136 126.798 36.5683 127.366 35.8867L126.435 35.0688C126.049 35.5686 125.413 35.9549 124.413 35.9549C123.209 35.9549 122.459 35.2051 122.3 34.0236ZM124.299 31.2063C125.322 31.2063 126.026 31.8652 126.208 32.9785H122.323C122.527 31.8879 123.231 31.2063 124.299 31.2063Z" fill="white"/>
<g clip-path="url(#clip0_1005_183)">
<path d="M14.668 14.8701L15.8593 13.6788L35.2312 33.0507L34.0398 34.2421L14.668 14.8701Z" fill="black" stroke="white" stroke-width="0.290821"/>
<path d="M15.6841 9.11832C16.0502 9.48444 16.3406 9.91908 16.5387 10.3974C16.7369 10.8758 16.8389 11.3885 16.8389 11.9063C16.8389 12.424 16.7369 12.9367 16.5387 13.4151C16.3406 13.8934 16.0502 14.3281 15.6841 14.6942C15.318 15.0603 14.8833 15.3507 14.405 15.5489C13.9266 15.747 13.4139 15.849 12.8961 15.849C12.3784 15.849 11.8657 15.747 11.3873 15.5489C10.909 15.3507 10.4743 15.0603 10.1082 14.6942C9.36883 13.9548 8.95344 12.9519 8.95344 11.9063C8.95344 10.8606 9.36883 9.85773 10.1082 9.11832C10.8476 8.37892 11.8505 7.96353 12.8962 7.96353C13.9418 7.96353 14.9447 8.37892 15.6841 9.11832Z" fill="black" stroke="white" stroke-width="0.290821" stroke-linecap="round" stroke-linejoin="round"/>
<path d="M40.5043 40.0289C40.5071 40.032 40.5099 40.0351 40.5128 40.0381C40.5471 40.0725 40.5877 40.0998 40.6324 40.1185C40.6771 40.1373 40.725 40.1471 40.7733 40.1473C40.8216 40.1476 40.8693 40.1384 40.9138 40.1202C40.9583 40.1019 40.9987 40.0751 41.0326 40.0412C41.0666 40.0072 41.0934 39.9668 41.1117 39.9223C41.1299 39.8778 41.1391 39.8301 41.1388 39.7818C41.1385 39.7335 41.1288 39.6857 41.11 39.641C41.0913 39.5963 41.064 39.5556 41.0296 39.5213C41.0266 39.5184 41.0235 39.5156 41.0204 39.5128L40.5043 40.0289Z" fill="black" stroke="white" stroke-width="0.290821" stroke-linecap="round" stroke-linejoin="round"/>
<path d="M39.9074 40.035C39.9202 40.0802 39.942 40.1186 39.9722 40.149C40.0551 40.2319 40.1959 40.2501 40.3636 40.1995C40.5314 40.149 40.7123 40.034 40.8666 39.8796C41.0209 39.7253 41.136 39.5444 41.1865 39.3767C41.237 39.2089 41.2188 39.0681 41.1359 38.9852C41.1055 38.9551 41.067 38.9333 41.0218 38.9206L39.9074 40.035Z" fill="black" stroke="white" stroke-width="0.290821" stroke-linecap="round" stroke-linejoin="round"/>
<path d="M34.0394 34.2419L35.2307 33.0505L40.949 38.5886L39.5774 39.9602L34.0394 34.2419Z" fill="black" stroke="white" stroke-width="0.290821"/>
<path d="M33.7555 33.9308C33.7555 33.9308 34.155 33.6133 34.3794 33.389C34.6038 33.1646 34.9212 32.7651 34.9212 32.7651C35.0203 32.6404 35.1895 32.6266 35.3022 32.7393C35.4149 32.852 35.4149 33.0334 35.3022 33.1461C35.3022 33.1461 34.9868 33.5253 34.7512 33.7608C34.5157 33.9964 34.1365 34.3118 34.1365 34.3118C34.0179 34.4181 33.8424 34.4245 33.7297 34.3118C33.6171 34.1991 33.6429 34.0435 33.7555 33.9308Z" fill="black" stroke="white" stroke-width="0.290821"/>
<path d="M39.5915 39.7667C39.5915 39.7667 39.9909 39.4493 40.2153 39.2249C40.4397 39.0005 40.7572 38.6011 40.7572 38.6011C40.8563 38.4763 41.0255 38.4626 41.1382 38.5753C41.2508 38.6879 41.2508 38.8694 41.1381 38.982C41.1381 38.982 40.8227 39.3612 40.5872 39.5968C40.3516 39.8323 39.9725 40.1477 39.9725 40.1477C39.8538 40.2541 39.6784 40.2604 39.5657 40.1477C39.453 40.0351 39.4788 39.8794 39.5915 39.7667Z" fill="black" stroke="white" stroke-width="0.290821"/>
<path d="M15.1861 8.69721C14.9836 8.99224 14.7396 9.06485 14.5136 9.00719C14.5254 9.58857 14.1415 9.94076 13.6061 9.8907C13.6383 10.4447 13.2263 10.8142 12.679 10.7126C12.679 10.7126 12.7719 11.1005 12.4312 11.4412C12.0906 11.7818 11.7026 11.689 11.7026 11.689C11.8042 12.2362 11.4347 12.6482 10.8807 12.616C10.9308 13.1515 10.5786 13.5354 9.99723 13.5236C10.0549 13.7496 9.98228 13.9936 9.68726 14.196" stroke="white" stroke-width="0.290821" stroke-linecap="round" stroke-linejoin="round"/>
<path d="M16.103 9.61611C15.808 9.81857 15.7354 10.0626 15.793 10.2886C15.2117 10.2767 14.8595 10.6606 14.9095 11.1961C14.3555 11.1639 13.986 11.5759 14.0876 12.1232C14.0876 12.1232 13.6997 12.0303 13.359 12.371C13.0184 12.7116 13.1113 13.0996 13.1113 13.0996C12.564 12.9979 12.152 13.3675 12.1842 13.9215C11.6487 13.8714 11.2648 14.2236 11.2767 14.805C11.0506 14.7473 10.8067 14.8199 10.6042 15.1149" stroke="white" stroke-width="0.290821" stroke-linecap="round" stroke-linejoin="round"/>
<path d="M9.99661 13.524C9.37012 12.4208 8.72939 10.7207 10.1098 9.12068C9.2743 10.0213 10.1486 11.7846 10.8801 12.6164" stroke="white" stroke-width="0.290821" stroke-linecap="round" stroke-linejoin="round"/>
<path d="M10.1093 9.12019C9.88421 9.77112 11.2293 11.1506 11.7015 11.6888" stroke="white" stroke-width="0.290821" stroke-linecap="round" stroke-linejoin="round"/>
<path d="M10.1094 9.12109C10.7603 8.89601 12.1398 10.2411 12.678 10.7133" stroke="white" stroke-width="0.290821" stroke-linecap="round" stroke-linejoin="round"/>
<path d="M14.5126 9.00792C13.4095 8.38143 11.7094 7.7407 10.1094 9.12109C11.01 8.28562 12.7733 9.15987 13.6051 9.89143" stroke="white" stroke-width="0.290821" stroke-linecap="round" stroke-linejoin="round"/>
<path d="M11.2773 14.8047C12.3805 15.4312 14.0806 16.0719 15.6806 14.6915C14.78 15.527 13.0166 14.6527 12.1849 13.9212" stroke="white" stroke-width="0.290821" stroke-linecap="round" stroke-linejoin="round"/>
<path d="M15.6819 14.6918C15.031 14.9169 13.6515 13.5719 13.1133 13.0996" stroke="white" stroke-width="0.290821" stroke-linecap="round" stroke-linejoin="round"/>
<path d="M15.6781 14.6927C15.9032 14.0418 14.5581 12.6623 14.0859 12.1241" stroke="white" stroke-width="0.290821" stroke-linecap="round" stroke-linejoin="round"/>
<path d="M15.7895 10.2887C16.416 11.3918 17.0567 13.0919 15.6763 14.6919C16.5118 13.7913 15.6375 12.028 14.906 11.1962" stroke="white" stroke-width="0.290821" stroke-linecap="round" stroke-linejoin="round"/>
<path fill-rule="evenodd" clip-rule="evenodd" d="M9.74005 8.93793C9.70711 8.96682 9.67571 8.99937 9.64821 9.03654C9.58988 9.11535 9.54706 9.2118 9.53646 9.33086C9.52672 9.44018 9.5092 9.54655 9.45889 9.64283C9.40353 9.74878 9.40334 9.87294 9.39447 9.99574C9.39428 9.99806 9.39377 10.0003 9.39295 10.0025C9.38485 10.0249 9.396 10.0489 9.41831 10.0572C9.41889 10.0573 9.41918 10.0576 9.41966 10.0577C9.42005 10.0579 9.42043 10.058 9.42081 10.0581C9.42129 10.0582 9.42206 10.0584 9.42235 10.0585C9.4228 10.0586 9.42325 10.0586 9.4237 10.0587C9.42427 10.0589 9.42563 10.0591 9.42745 10.0594C9.42793 10.0595 9.42739 10.0593 9.4286 10.0594L9.42879 10.0596C9.43033 10.0598 9.43096 10.0597 9.43161 10.0598C9.4426 10.0604 9.45332 10.0568 9.46166 10.0497C9.46289 10.0486 9.46421 10.0477 9.46562 10.0469C9.48095 10.0381 9.87173 9.81393 10.3367 9.34893C10.8004 8.88529 11.0244 8.49629 11.0343 8.47895C11.0343 8.47895 11.0371 8.47501 11.0378 8.47386C11.0442 8.46613 11.0477 8.45682 11.0478 8.447L11.048 8.44681C11.048 8.44604 11.048 8.44527 11.048 8.44456L11.0478 8.4436C11.0478 8.44321 11.0478 8.44283 11.0478 8.44245L11.0476 8.44225L11.0476 8.44186C11.0475 8.44142 11.0475 8.44097 11.0474 8.44052C11.0472 8.43801 11.0468 8.43562 11.0461 8.4332L11.0459 8.43301C11.0456 8.43195 11.0453 8.43103 11.045 8.43017C11.0449 8.42992 11.0447 8.42966 11.0446 8.4294C11.0359 8.40784 11.0122 8.39717 10.9903 8.40517C10.9882 8.40599 10.9859 8.40649 10.9836 8.40669C10.8608 8.41555 10.7366 8.41574 10.6307 8.47111C10.5344 8.52142 10.4282 8.53876 10.3189 8.54849C10.0872 8.56911 9.94137 8.7125 9.8497 8.85389C9.84775 8.85689 9.84519 8.85945 9.84219 8.8614C9.80764 8.88379 9.77315 8.90896 9.7402 8.93784L9.74005 8.93793Z" fill="black"/>
<path d="M11.0027 8.44594C10.8733 8.45625 10.746 8.45792 10.6487 8.50874C10.5447 8.5631 10.4323 8.58091 10.321 8.59081C10.0986 8.61061 9.96097 8.74872 9.87407 8.88743C9.73536 8.97433 9.59725 9.11196 9.57745 9.3344C9.56755 9.44561 9.54974 9.55804 9.49538 9.66207C9.44456 9.75933 9.44289 9.88666 9.43258 10.016M9.43241 10.0164C9.43241 10.0164 9.83414 9.78896 10.3049 9.31823C10.7756 8.8475 11.003 8.44577 11.003 8.44577" stroke="white" stroke-width="0.290821" stroke-linecap="round" stroke-linejoin="round"/>
<path d="M9.8768 8.32817C9.91347 8.36485 9.94256 8.40838 9.96241 8.45629C9.98226 8.50421 9.99248 8.55557 9.99248 8.60743C9.99248 8.65929 9.98226 8.71064 9.96241 8.75855C9.94257 8.80647 9.91348 8.85 9.87681 8.88668C9.84014 8.92335 9.7966 8.95243 9.74869 8.97228C9.70077 8.99213 9.64942 9.00234 9.59756 9.00234C9.5457 9.00234 9.49434 8.99212 9.44643 8.97228C9.39852 8.95243 9.35498 8.92334 9.31831 8.88667C9.24425 8.81261 9.20264 8.71216 9.20264 8.60742C9.20264 8.50268 9.24425 8.40224 9.31831 8.32817C9.39237 8.25411 9.49282 8.21251 9.59756 8.21251C9.70229 8.21251 9.80274 8.25411 9.8768 8.32817Z" fill="black" stroke="white" stroke-width="0.290821" stroke-linecap="round" stroke-linejoin="round"/>
<path d="M34.3125 13.6768L35.5038 14.8681L16.132 34.24L14.9406 33.0487L34.3125 13.6768Z" fill="black" stroke="white" stroke-width="0.290821"/>
<path d="M40.0614 14.6929C39.6952 15.059 39.2606 15.3494 38.7822 15.5476C38.3039 15.7457 37.7912 15.8477 37.2734 15.8477C36.7557 15.8477 36.243 15.7457 35.7646 15.5476C35.2863 15.3494 34.8516 15.059 34.4855 14.6929C34.1194 14.3268 33.829 13.8921 33.6308 13.4138C33.4327 12.9354 33.3307 12.4227 33.3307 11.905C33.3307 11.3872 33.4327 10.8745 33.6308 10.3961C33.829 9.91779 34.1194 9.48315 34.4855 9.11703C35.2249 8.37763 36.2278 7.96223 37.2734 7.96223C38.3191 7.96223 39.322 8.37762 40.0614 9.11703C40.8008 9.85643 41.2161 10.8593 41.2161 11.905C41.2161 12.9506 40.8008 13.9535 40.0614 14.6929Z" fill="black" stroke="white" stroke-width="0.290821" stroke-linecap="round" stroke-linejoin="round"/>
<path d="M9.15663 39.5111C9.15351 39.5139 9.15043 39.5167 9.1474 39.5196C9.11306 39.5539 9.08575 39.5946 9.06701 39.6393C9.04828 39.684 9.0385 39.7318 9.03822 39.7801C9.03794 39.8284 9.04716 39.8761 9.06538 39.9207C9.0836 39.9652 9.11045 40.0055 9.14439 40.0395C9.17834 40.0734 9.21872 40.1003 9.26322 40.1185C9.30772 40.1367 9.35548 40.1459 9.40376 40.1457C9.45204 40.1454 9.49989 40.1356 9.54459 40.1169C9.58929 40.0981 9.62996 40.0708 9.66428 40.0365C9.66715 40.0334 9.66998 40.0304 9.67275 40.0272L9.15663 39.5111Z" fill="black" stroke="white" stroke-width="0.290821" stroke-linecap="round" stroke-linejoin="round"/>
<path d="M9.1496 38.9182C9.10438 38.9309 9.06598 38.9528 9.0356 38.983C8.95271 39.0658 8.93452 39.2066 8.98503 39.3744C9.03554 39.5421 9.15061 39.723 9.30493 39.8774C9.45925 40.0317 9.64018 40.1468 9.80791 40.1973C9.97564 40.2478 10.1164 40.2296 10.1993 40.1467C10.2295 40.1162 10.2512 40.0778 10.2639 40.0325L9.1496 38.9182Z" fill="black" stroke="white" stroke-width="0.290821" stroke-linecap="round" stroke-linejoin="round"/>
<path d="M14.9417 33.0491L16.1331 34.2405L10.595 39.9588L9.2234 38.5872L14.9417 33.0491Z" fill="black" stroke="white" stroke-width="0.290821"/>
<path d="M15.2528 32.7634C15.2528 32.7634 15.5702 33.1628 15.7946 33.3872C16.019 33.6116 16.4185 33.929 16.4185 33.929C16.5432 34.0282 16.5569 34.1973 16.4443 34.31C16.3316 34.4227 16.1502 34.4227 16.0375 34.31C16.0375 34.31 15.6583 33.9946 15.4228 33.7591C15.1872 33.5235 14.8718 33.1443 14.8718 33.1443C14.7655 33.0257 14.7591 32.8502 14.8718 32.7376C14.9845 32.6249 15.1401 32.6507 15.2528 32.7634Z" fill="black" stroke="white" stroke-width="0.290821"/>
<path d="M9.41685 38.5993C9.41685 38.5993 9.7343 38.9987 9.95869 39.2231C10.1831 39.4475 10.5825 39.765 10.5825 39.765C10.7073 39.8641 10.721 40.0333 10.6083 40.146C10.4956 40.2586 10.3142 40.2586 10.2015 40.146C10.2015 40.146 9.82239 39.8305 9.58683 39.595C9.35128 39.3594 9.03587 38.9803 9.03587 38.9803C8.92951 38.8616 8.92319 38.6862 9.03587 38.5735C9.14854 38.4608 9.30417 38.4866 9.41685 38.5993Z" fill="black" stroke="white" stroke-width="0.290821"/>
<path d="M40.4873 14.1949C40.1923 13.9924 40.1197 13.7484 40.1774 13.5224C39.596 13.5342 39.2438 13.1503 39.2939 12.6149C38.7399 12.6471 38.3703 12.2351 38.472 11.6878C38.472 11.6878 38.084 11.7807 37.7434 11.44C37.4027 11.0994 37.4956 10.7114 37.4956 10.7114C36.9483 10.813 36.5363 10.4435 36.5685 9.88953C36.0331 9.93959 35.6492 9.5874 35.661 9.00602C35.435 9.06368 35.191 8.99107 34.9885 8.69605" stroke="white" stroke-width="0.290821" stroke-linecap="round" stroke-linejoin="round"/>
<path d="M39.5665 15.1128C39.364 14.8178 39.12 14.7452 38.894 14.8028C38.9059 14.2214 38.522 13.8693 37.9865 13.9193C38.0187 13.3653 37.6067 12.9958 37.0594 13.0974C37.0594 13.0974 37.1523 12.7095 36.8116 12.3688C36.471 12.0282 36.0831 12.1211 36.0831 12.1211C36.1847 11.5738 35.8152 11.1618 35.2612 11.194C35.3112 10.6585 34.959 10.2746 34.3777 10.2864C34.4353 10.0604 34.3627 9.81643 34.0677 9.61396" stroke="white" stroke-width="0.290821" stroke-linecap="round" stroke-linejoin="round"/>
<path d="M35.6596 9.00638C36.7628 8.37989 38.4629 7.73916 40.0629 9.11955C39.1623 8.28407 37.3989 9.15833 36.5672 9.88989" stroke="white" stroke-width="0.290821" stroke-linecap="round" stroke-linejoin="round"/>
<path d="M40.0624 9.11906C39.4115 8.89398 38.032 10.239 37.4938 10.7113" stroke="white" stroke-width="0.290821" stroke-linecap="round" stroke-linejoin="round"/>
<path d="M40.0664 9.11914C40.2915 9.77007 38.9464 11.1495 38.4742 11.6878" stroke="white" stroke-width="0.290821" stroke-linecap="round" stroke-linejoin="round"/>
<path d="M40.1796 13.5224C40.8061 12.4193 41.4468 10.7191 40.0664 9.11914C40.9019 10.0198 40.0276 11.7831 39.2961 12.6149" stroke="white" stroke-width="0.290821" stroke-linecap="round" stroke-linejoin="round"/>
<path d="M34.3789 10.2861C33.7524 11.3893 33.1117 13.0894 34.4921 14.6894C33.6566 13.7888 34.5309 12.0254 35.2624 11.1937" stroke="white" stroke-width="0.290821" stroke-linecap="round" stroke-linejoin="round"/>
<path d="M34.4898 14.6897C34.2647 14.0388 35.6098 12.6593 36.082 12.1211" stroke="white" stroke-width="0.290821" stroke-linecap="round" stroke-linejoin="round"/>
<path d="M34.4899 14.6898C35.1408 14.9149 36.5203 13.5698 37.0585 13.0976" stroke="white" stroke-width="0.290821" stroke-linecap="round" stroke-linejoin="round"/>
<path d="M38.8949 14.8031C37.7918 15.4296 36.0917 16.0704 34.4917 14.69C35.3923 15.5254 37.1556 14.6512 37.9874 13.9196" stroke="white" stroke-width="0.290821" stroke-linecap="round" stroke-linejoin="round"/>
<path fill-rule="evenodd" clip-rule="evenodd" d="M40.2457 8.74982C40.2168 8.71688 40.1842 8.68548 40.147 8.65798C40.0682 8.59965 39.9718 8.55682 39.8527 8.54623C39.7434 8.53649 39.637 8.51896 39.5408 8.46866C39.4348 8.41329 39.3107 8.4131 39.1879 8.40423C39.1855 8.40404 39.1833 8.40353 39.1811 8.40272C39.1587 8.39462 39.1347 8.40576 39.1264 8.42808C39.1262 8.42865 39.126 8.42894 39.1259 8.42942C39.1257 8.42981 39.1256 8.4302 39.1255 8.43058C39.1254 8.43106 39.1252 8.43183 39.1251 8.43212C39.125 8.43257 39.125 8.43302 39.1249 8.43346C39.1247 8.43404 39.1245 8.4354 39.1242 8.43721C39.1241 8.43769 39.1243 8.43716 39.1241 8.43837L39.124 8.43856C39.1238 8.4401 39.1238 8.44072 39.1238 8.44138C39.1232 8.45237 39.1267 8.46309 39.1339 8.47143C39.135 8.47266 39.1359 8.47398 39.1367 8.47539C39.1455 8.49072 39.3697 8.8815 39.8347 9.3465C40.2983 9.81014 40.6873 10.0341 40.7046 10.0441C40.7046 10.0441 40.7086 10.0468 40.7097 10.0476C40.7175 10.054 40.7268 10.0575 40.7366 10.0576L40.7368 10.0578C40.7375 10.0578 40.7383 10.0578 40.739 10.0578L40.74 10.0576C40.7404 10.0576 40.7408 10.0576 40.7411 10.0576L40.7413 10.0574L40.7417 10.0574C40.7422 10.0573 40.7426 10.0572 40.7431 10.0572C40.7456 10.0569 40.748 10.0565 40.7504 10.0559L40.7506 10.0557C40.7516 10.0554 40.7526 10.055 40.7534 10.0548C40.7537 10.0546 40.7539 10.0545 40.7542 10.0544C40.7758 10.0456 40.7864 10.022 40.7784 10.0001C40.7776 9.99792 40.7771 9.99565 40.7769 9.99334C40.768 9.87053 40.7678 9.74638 40.7125 9.64042C40.6622 9.54413 40.6448 9.43794 40.6351 9.32864C40.6145 9.09699 40.4711 8.95114 40.3297 8.85947C40.3267 8.85752 40.3241 8.85496 40.3222 8.85196C40.2998 8.81741 40.2746 8.78291 40.2458 8.74997L40.2457 8.74982Z" fill="black"/>
<path d="M40.7357 10.0144C40.7254 9.88502 40.7237 9.75769 40.6729 9.66043C40.6185 9.5564 40.6007 9.44398 40.5908 9.33276C40.571 9.11033 40.4329 8.97269 40.2942 8.88579C40.2073 8.74708 40.0697 8.60897 39.8472 8.58917C39.736 8.57927 39.6236 8.56146 39.5196 8.5071C39.4223 8.45628 39.295 8.45461 39.1656 8.4443M39.1652 8.44413C39.1652 8.44413 39.3927 8.84586 39.8634 9.31659C40.3341 9.78732 40.7359 10.0148 40.7359 10.0148" stroke="white" stroke-width="0.290821" stroke-linecap="round" stroke-linejoin="round"/>
<path d="M40.8535 8.88852C40.8168 8.9252 40.7733 8.95429 40.7253 8.97413C40.6774 8.99398 40.6261 9.0042 40.5742 9.0042C40.5224 9.0042 40.471 8.99398 40.4231 8.97414C40.3752 8.95429 40.3316 8.9252 40.295 8.88853C40.2583 8.85186 40.2292 8.80832 40.2094 8.76041C40.1895 8.71249 40.1793 8.66114 40.1793 8.60928C40.1793 8.55742 40.1895 8.50606 40.2094 8.45815C40.2292 8.41024 40.2583 8.3667 40.295 8.33003C40.369 8.25597 40.4695 8.21436 40.5742 8.21436C40.679 8.21436 40.7794 8.25597 40.8535 8.33003C40.9275 8.40409 40.9691 8.50454 40.9691 8.60928C40.9691 8.71402 40.9275 8.81446 40.8535 8.88852Z" fill="black" stroke="white" stroke-width="0.290821" stroke-linecap="round" stroke-linejoin="round"/>
<path d="M16.6685 0.0673828L21.7633 20.776L1.05469 15.6812V32.5108L21.7635 27.4157L16.6685 48.1246H33.498L28.4026 27.4154L49.1117 32.5108V15.6812L28.4029 20.7763L33.498 0.0673828H16.6685Z" fill="white" stroke="white" stroke-width="0.0830916"/>
<path d="M23.0173 22.0301L17.8397 0.985352H32.3267L27.1491 22.0301L48.1937 16.8524V31.3395L27.1491 26.1619L32.3267 47.2066H17.8397L23.0173 26.1619L1.97266 31.3395V16.8524L23.0173 22.0301Z" fill="black" stroke="white" stroke-width="0.0830916"/>
<path d="M25.0849 3.42969L26.7558 5.18361V38.6738H23.4141V5.18361L25.0849 3.42969Z" fill="black" stroke="white" stroke-width="0.290821" stroke-linecap="round" stroke-linejoin="round"/>
<path d="M24.0039 38.8105H26.1616L25.9746 43.2894H24.1909L24.0039 38.8105Z" fill="black" stroke="white" stroke-width="0.290821" stroke-linecap="round" stroke-linejoin="round"/>
<path fill-rule="evenodd" clip-rule="evenodd" d="M26.1349 39.0961C26.1265 39.0959 26.1181 39.0974 26.1102 39.1003L24.0469 39.8347L24.0527 39.9768C24.0538 39.9764 24.0549 39.976 24.0559 39.9755L26.1442 39.2323L26.1498 39.0976C26.1449 39.0964 26.1399 39.0958 26.1349 39.0957L26.1349 39.0961ZM26.1182 39.8568C26.1155 39.8575 26.1128 39.8583 26.1102 39.8593L24.0782 40.5825L24.0841 40.7246L26.112 40.003L26.1182 39.8568ZM26.086 40.6268L24.1093 41.3299L24.1151 41.4723L26.0799 40.7732L26.086 40.6268ZM26.0536 41.3971L24.1406 42.0776L24.1465 42.2203L26.0475 41.5435L26.0536 41.3971ZM26.0215 42.1672L24.1717 42.8256L24.1776 42.9677L26.0154 42.3138L26.0215 42.1672Z" fill="white"/>
<path d="M25.0859 6.80273V38.7086" stroke="white" stroke-width="0.290821" stroke-linecap="round" stroke-linejoin="round"/>
<path d="M21.2422 37.5293V38.91C21.2422 38.9571 21.2801 38.995 21.3272 38.995H28.841C28.8881 38.995 28.926 38.9571 28.926 38.91V37.5293L25.0841 38.1498L21.2422 37.5293Z" fill="black" stroke="white" stroke-width="0.290821" stroke-linecap="round" stroke-linejoin="round"/>
<path fill-rule="evenodd" clip-rule="evenodd" d="M23.2578 43.0635C23.2578 43.0635 23.7735 44.7634 25.081 44.7634C26.3885 44.7634 26.9042 43.0635 26.9042 43.0635C26.9042 43.0635 26.3127 43.259 25.081 43.259C23.8493 43.259 23.2578 43.0635 23.2578 43.0635Z" fill="black" stroke="white" stroke-width="0.290821" stroke-linecap="round" stroke-linejoin="round"/>
<path d="M34.686 24.096C34.686 26.6433 33.6741 29.0863 31.8728 30.8875C30.0716 32.6888 27.6286 33.7007 25.0813 33.7007C22.534 33.7007 20.091 32.6888 18.2897 30.8875C16.4885 29.0863 15.4766 26.6433 15.4766 24.096C15.4766 22.8347 15.725 21.5857 16.2077 20.4204C16.6904 19.2551 17.3978 18.1963 18.2897 17.3044C19.1816 16.4125 20.2404 15.705 21.4057 15.2223C22.571 14.7396 23.82 14.4912 25.0813 14.4912C26.3426 14.4912 27.5916 14.7396 28.7569 15.2223C29.9221 15.705 30.981 16.4125 31.8728 17.3044C32.7647 18.1963 33.4722 19.2551 33.9549 20.4204C34.4376 21.5857 34.686 22.8347 34.686 24.096Z" fill="black" stroke="white" stroke-width="0.290821"/>
<path d="M33.6963 24.0962C33.6963 26.3807 32.7888 28.5717 31.1734 30.1871C29.558 31.8025 27.367 32.71 25.0825 32.71C22.798 32.71 20.6071 31.8025 18.9917 30.1871C17.3763 28.5717 16.4688 26.3807 16.4688 24.0962C16.4688 21.8117 17.3763 19.6207 18.9917 18.0053C20.6071 16.3899 22.798 15.4824 25.0825 15.4824C27.367 15.4824 29.558 16.3899 31.1734 18.0053C32.7888 19.6207 33.6963 21.8117 33.6963 24.0962Z" fill="white" stroke="white" stroke-width="0.270599"/>
<path d="M25.0859 16.8564C24.7485 17.2393 24.5429 17.7404 24.5429 18.2905C24.5629 19.4983 24.7111 20.7036 24.7239 21.911C24.7507 23.0363 24.4132 24.0931 24.0028 25.1241C23.8661 25.409 23.7181 25.6879 23.5701 25.967L23.1346 25.8794C22.7428 25.801 22.4879 25.4199 22.5662 25.028C22.6348 24.685 22.9366 24.4469 23.2732 24.4453L23.4316 24.4623L23.0781 21.5093C22.9625 20.1944 22.2842 19.0409 21.2852 18.2905C21.1135 18.1615 20.9315 18.0436 20.7422 17.9398V28.4278H23.1629C23.3439 29.4106 23.8847 30.2667 24.6447 30.8547C24.8255 30.9793 24.977 31.1437 25.0859 31.3355C25.1948 31.1437 25.3463 30.9793 25.527 30.8547C26.2871 30.2667 26.8279 29.4106 27.0089 28.4278H29.4296V17.9398C29.2403 18.0436 29.0583 18.1615 28.8866 18.2905C27.8875 19.0409 27.2093 20.1944 27.0937 21.5093L26.7402 24.4623L26.8986 24.4453C27.2352 24.4469 27.537 24.685 27.6056 25.028C27.6839 25.4199 27.429 25.801 27.0372 25.8794L26.6017 25.967C26.4537 25.6879 26.3057 25.409 26.169 25.1241C25.7586 24.0931 25.4211 23.0363 25.4479 21.911C25.4607 20.7036 25.6089 19.4983 25.6289 18.2905C25.6289 17.7404 25.4233 17.2393 25.0859 16.8564ZM21.4661 19.4502C21.9346 20.0001 22.2491 20.6854 22.3428 21.4386L22.6341 23.874C22.2632 24.0586 21.982 24.3975 21.8762 24.8074H21.4661V19.4502ZM28.7056 19.4502V24.8074H28.2956C28.1898 24.3975 27.9086 24.0586 27.5377 23.874L27.829 21.4386C27.9227 20.6854 28.2372 20.0001 28.7056 19.4502ZM25.0859 24.3463C25.2804 24.9825 25.5479 25.5866 25.8806 26.1481C25.5642 26.2442 25.2888 26.4312 25.0859 26.6826C24.883 26.4312 24.6076 26.2442 24.2913 26.1481C24.6239 25.5866 24.8914 24.9825 25.0859 24.3463ZM21.4661 25.5315H21.8762C22.0055 26.0312 22.3955 26.426 22.8914 26.5639L23.2393 26.6431C23.1461 26.9808 23.095 27.3366 23.095 27.7037H21.4661V25.5315ZM28.2956 25.5315H28.7056V27.7037H27.0768C27.0768 27.3366 27.0257 26.9808 26.9325 26.6431L27.2804 26.5639C27.7763 26.426 28.1663 26.0312 28.2956 25.5315ZM23.9462 26.8099C24.3854 26.872 24.7239 27.2474 24.7239 27.7037H23.819C23.819 27.3934 23.8649 27.0942 23.9462 26.8099ZM26.2256 26.8099C26.3068 27.0942 26.3528 27.3934 26.3528 27.7037H25.4479C25.4479 27.2474 25.7864 26.872 26.2256 26.8099ZM23.901 28.4278H24.7239V29.9524C24.3245 29.5348 24.0344 29.0104 23.901 28.4278ZM25.4479 28.4278H26.2708C26.1374 29.0104 25.8472 29.5348 25.4479 29.9524V28.4278Z" fill="black"/>
</g>
<defs>
<clipPath id="clip0_1005_183">
<rect width="48.1931" height="48.1932" fill="white" transform="translate(0.992188)"/>
</clipPath>
</defs>
</svg>
