<svg width="220" height="50" viewBox="0 0 220 50" fill="none" xmlns="http://www.w3.org/2000/svg">
<g clip-path="url(#clip0_1009_65)">
<path d="M72.1711 3.3584H69.9973L67.3933 10.331L64.7667 3.3584H62.5703V12.0172H63.9516V4.99902L66.5782 12.0172H68.1632L70.7898 4.99902V12.0172H72.1711V3.3584Z" fill="white"/>
<path d="M74.5703 4.22461H76.0647V2.85742H74.5703V4.22461ZM74.6382 12.0176H75.9968V5.18163H74.6382V12.0176Z" fill="white"/>
<path d="M81.9104 5.06738C80.8914 5.06738 80.0311 5.52311 79.5102 6.25227L79.4197 5.18131H78.2422V12.0172H79.6008V8.09798C79.6008 7.00423 80.4612 6.22948 81.5254 6.22948C82.4538 6.22948 83.0199 6.8903 83.0199 8.05241V12.0172H84.3786V7.68782C84.3786 6.11556 83.3596 5.06738 81.9104 5.06738Z" fill="white"/>
<path d="M86.4375 4.22461H87.932V2.85742H86.4375V4.22461ZM86.5054 12.0176H87.864V5.18163H86.5054V12.0176Z" fill="white"/>
<path d="M92.3233 12.1312C94.0216 12.1312 95.0858 11.3337 95.0858 10.0804C95.0858 9.00943 94.3838 8.43977 92.5271 7.96126C91.3723 7.66503 91.01 7.43717 91.01 7.00423C91.01 6.52571 91.5308 6.22948 92.3007 6.22948C93.0252 6.22948 93.6366 6.48013 94.1801 6.93587L94.95 5.91048C94.2027 5.36361 93.3196 5.06738 92.3686 5.06738C90.761 5.06738 89.6967 5.86491 89.6967 7.09537C89.6967 8.14355 90.3986 8.71321 92.1648 9.16895C93.4102 9.46517 93.7725 9.71582 93.7725 10.1488C93.7725 10.6728 93.2291 10.9463 92.3686 10.9463C91.4628 10.9463 90.7156 10.6501 90.1496 10.1032L89.4023 11.083C90.1496 11.7666 91.1685 12.1312 92.3233 12.1312Z" fill="white"/>
<path d="M100.454 6.34342V5.18131H98.3704V3.3584H97.1929L97.0118 5.18131H95.6758V6.34342H97.0118V10.2171C97.0118 11.4704 97.7364 12.1312 99.0723 12.1312C99.5251 12.1312 100.001 12.0856 100.454 11.9717V10.7184C100.001 10.8324 99.7063 10.8551 99.344 10.8551C98.6874 10.8551 98.3704 10.6501 98.3704 9.94369V6.34342H100.454Z" fill="white"/>
<path d="M105.708 5.06738C104.689 5.06738 103.829 5.5459 103.331 6.27506L103.24 5.18131H102.062V12.0172H103.421V8.18912C103.421 7.09537 104.236 6.389 105.323 6.389C105.617 6.389 105.934 6.41178 106.229 6.43457V5.13573C106.048 5.09017 105.889 5.06738 105.708 5.06738Z" fill="white"/>
<path d="M112.271 5.18164L110.527 10.8327H109.984L108.014 5.18164H106.52L108.716 10.8327H107.742C107.289 11.2884 107.063 11.8125 107.063 12.4277C107.063 13.6355 107.833 14.4102 108.965 14.4102C110.12 14.4102 110.89 13.6582 111.456 11.9264L113.72 5.18164H112.271ZM109.01 13.2708C108.557 13.2708 108.24 12.9518 108.24 12.4733C108.24 12.2682 108.286 12.0859 108.399 11.9264H110.097L109.961 12.3366C109.758 12.9291 109.418 13.2708 109.01 13.2708Z" fill="white"/>
<path d="M65.2855 29.6311C67.3234 29.6311 68.7272 28.1956 68.7272 26.0993C68.7272 23.9574 67.3686 22.5674 65.2855 22.5674C63.2476 22.5674 61.8438 24.0029 61.8438 26.0993C61.8438 28.2413 63.2022 29.6311 65.2855 29.6311ZM65.2855 28.4691C64.0401 28.4691 63.225 27.5349 63.225 26.0993C63.225 24.6638 64.0401 23.7295 65.2855 23.7295C66.5309 23.7295 67.346 24.6638 67.346 26.0993C67.346 27.5349 66.5309 28.4691 65.2855 28.4691Z" fill="white"/>
<path d="M72.9378 21.4053C73.4359 21.4053 73.8436 21.5648 74.2058 21.8383L74.8398 20.8129C74.2964 20.4483 73.6851 20.2432 72.9831 20.2432C71.6246 20.2432 70.7867 20.9952 70.7867 22.2028V22.6813H69.3828V23.8434H70.7867V29.5173H72.1453V23.8434H74.0926V22.6813H72.1453V22.2257C72.1453 21.7243 72.4397 21.4053 72.9378 21.4053Z" fill="white"/>
<path d="M82.4247 20.8584H79.2773V29.5173H82.4247C85.0966 29.5173 86.6817 27.7399 86.6817 25.1879C86.6817 22.5674 85.1646 20.8584 82.4247 20.8584ZM82.4247 28.264H80.7038V22.1116H82.4247C84.1682 22.1116 85.2098 23.2965 85.2098 25.1879C85.2098 27.0791 84.1682 28.264 82.4247 28.264Z" fill="white"/>
<path d="M88.4258 21.7245H89.9202V20.3574H88.4258V21.7245ZM88.4937 29.5175H89.8523V22.6815H88.4937V29.5175Z" fill="white"/>
<path d="M96.9868 22.6813L96.8962 23.6611C96.3754 22.9775 95.5603 22.5674 94.5639 22.5674C92.8204 22.5674 91.5977 23.9118 91.5977 25.8943C91.5977 27.8994 92.7752 29.221 94.5639 29.221C95.5377 29.221 96.3302 28.8109 96.8735 28.1273V28.7881C96.8735 29.8819 96.3302 30.7478 94.813 30.7478C93.9525 30.7478 93.3412 30.5426 92.7978 29.973L92.0732 30.93C92.6845 31.5453 93.5903 31.9099 94.8357 31.9099C96.9188 31.9099 98.1415 30.6338 98.1415 28.8109L98.1642 22.6813H96.9868ZM94.9263 28.1045C93.7488 28.1045 92.9789 27.2614 92.9789 25.917C92.9789 24.5954 93.7488 23.7295 94.9263 23.7295C96.1263 23.7295 96.8962 24.5954 96.8962 25.917C96.8962 27.2614 96.1263 28.1045 94.9263 28.1045Z" fill="white"/>
<path d="M100.34 21.7245H101.834V20.3574H100.34V21.7245ZM100.408 29.5175H101.766V22.6815H100.408V29.5175Z" fill="white"/>
<path d="M108.016 23.8434V22.6813H105.933V20.8584H104.755L104.574 22.6813H103.238V23.8434H104.574V27.7171C104.574 28.9704 105.299 29.6311 106.635 29.6311C107.088 29.6311 107.563 29.5856 108.016 29.4716V28.2184C107.563 28.3324 107.269 28.3551 106.907 28.3551C106.25 28.3551 105.933 28.15 105.933 27.4436V23.8434H108.016Z" fill="white"/>
<path d="M114.992 28.3324C114.697 28.3324 114.562 28.1956 114.562 27.8994V24.8233C114.562 23.4105 113.565 22.5674 111.935 22.5674C110.757 22.5674 109.784 22.9775 108.991 23.7295L109.829 24.6181C110.373 24.0485 111.097 23.7068 111.867 23.7068C112.727 23.7068 113.294 24.0713 113.294 24.6181C113.294 25.1423 112.795 25.2334 111.776 25.3701C110.463 25.5751 108.855 25.9398 108.855 27.626C108.855 28.8109 109.739 29.6311 111.075 29.6311C112.071 29.6311 112.977 29.1755 113.452 28.4691C113.543 29.2666 113.928 29.5629 114.765 29.5629C114.992 29.5629 115.173 29.54 115.241 29.5173V28.3324H114.992ZM111.301 28.5146C110.599 28.5146 110.191 28.1729 110.191 27.5349C110.191 26.6461 111.075 26.5094 111.935 26.3728C112.592 26.2588 112.999 26.1904 113.248 26.0309V26.9196C113.248 27.7855 112.343 28.5146 111.301 28.5146Z" fill="white"/>
<path d="M116.754 29.517H118.113V20.4023H116.754V29.517Z" fill="white"/>
<path d="M130.59 20.8584H123.027V22.18H126.085V29.5173H127.533V22.18H130.59V20.8584Z" fill="white"/>
<path d="M134.396 22.5674C133.378 22.5674 132.516 23.0459 132.019 23.775L131.928 22.6813H130.75V29.5173H132.109V25.6891C132.109 24.5954 132.924 23.889 134.011 23.889C134.305 23.889 134.623 23.9118 134.916 23.9345V22.6358C134.735 22.5901 134.578 22.5674 134.396 22.5674Z" fill="white"/>
<path d="M141.481 28.3324C141.186 28.3324 141.05 28.1956 141.05 27.8994V24.8233C141.05 23.4105 140.054 22.5674 138.424 22.5674C137.246 22.5674 136.273 22.9775 135.48 23.7295L136.317 24.6181C136.861 24.0485 137.586 23.7068 138.356 23.7068C139.216 23.7068 139.783 24.0713 139.783 24.6181C139.783 25.1423 139.284 25.2334 138.265 25.3701C136.952 25.5751 135.344 25.9398 135.344 27.626C135.344 28.8109 136.228 29.6311 137.564 29.6311C138.56 29.6311 139.465 29.1755 139.941 28.4691C140.031 29.2666 140.416 29.5629 141.254 29.5629C141.481 29.5629 141.661 29.54 141.73 29.5173V28.3324H141.481ZM137.79 28.5146C137.088 28.5146 136.68 28.1729 136.68 27.5349C136.68 26.6461 137.564 26.5094 138.424 26.3728C139.08 26.2588 139.488 26.1904 139.738 26.0309V26.9196C139.738 27.7855 138.831 28.5146 137.79 28.5146Z" fill="white"/>
<path d="M146.915 22.5674C145.896 22.5674 145.036 23.0231 144.515 23.7523L144.424 22.6813H143.246V29.5173H144.605V25.598C144.605 24.5043 145.466 23.7295 146.53 23.7295C147.459 23.7295 148.025 24.3903 148.025 25.5524V29.5173H149.384V25.1879C149.384 23.6155 148.364 22.5674 146.915 22.5674Z" fill="white"/>
<path d="M153.62 29.6311C155.319 29.6311 156.383 28.8336 156.383 27.5804C156.383 26.5094 155.68 25.9398 153.824 25.4613C152.669 25.165 152.307 24.9371 152.307 24.5043C152.307 24.0258 152.828 23.7295 153.598 23.7295C154.322 23.7295 154.934 23.9801 155.477 24.4359L156.247 23.4105C155.499 22.8636 154.617 22.5674 153.665 22.5674C152.058 22.5674 150.994 23.3649 150.994 24.5954C150.994 25.6435 151.695 26.2133 153.462 26.6689C154.707 26.9651 155.069 27.2158 155.069 27.6488C155.069 28.1729 154.527 28.4463 153.665 28.4463C152.76 28.4463 152.013 28.15 151.447 27.6031L150.699 28.583C151.447 29.2666 152.465 29.6311 153.62 29.6311Z" fill="white"/>
<path d="M160.547 21.4053C161.046 21.4053 161.453 21.5648 161.815 21.8383L162.45 20.8129C161.906 20.4483 161.295 20.2432 160.592 20.2432C159.233 20.2432 158.396 20.9952 158.396 22.2028V22.6813H156.992V23.8434H158.396V29.5173H159.755V23.8434H161.702V22.6813H159.755V22.2257C159.755 21.7243 160.048 21.4053 160.547 21.4053Z" fill="white"/>
<path d="M165.642 29.6311C167.679 29.6311 169.083 28.1956 169.083 26.0993C169.083 23.9574 167.724 22.5674 165.642 22.5674C163.603 22.5674 162.199 24.0029 162.199 26.0993C162.199 28.2413 163.558 29.6311 165.642 29.6311ZM165.642 28.4691C164.395 28.4691 163.58 27.5349 163.58 26.0993C163.58 24.6638 164.395 23.7295 165.642 23.7295C166.887 23.7295 167.702 24.6638 167.702 26.0993C167.702 27.5349 166.887 28.4691 165.642 28.4691Z" fill="white"/>
<path d="M174.357 22.5674C173.338 22.5674 172.477 23.0459 171.98 23.775L171.888 22.6813H170.711V29.5173H172.07V25.6891C172.07 24.5954 172.885 23.889 173.972 23.889C174.266 23.889 174.583 23.9118 174.878 23.9345V22.6358C174.697 22.5901 174.538 22.5674 174.357 22.5674Z" fill="white"/>
<path d="M184.301 22.5674C183.237 22.5674 182.353 23.0915 181.878 23.889C181.493 23.0686 180.746 22.5674 179.727 22.5674C178.731 22.5674 177.916 23.0004 177.439 23.7068L177.349 22.6813H176.172V29.5173H177.531V25.598C177.531 24.5043 178.301 23.7295 179.342 23.7295C180.293 23.7295 180.768 24.3903 180.768 25.5524V29.5173H182.127V25.598C182.127 24.5043 182.897 23.7295 183.938 23.7295C184.867 23.7295 185.366 24.3903 185.366 25.5524V29.5173H186.723V25.1879C186.723 23.6155 185.773 22.5674 184.301 22.5674Z" fill="white"/>
<path d="M194.265 28.3324C193.97 28.3324 193.834 28.1956 193.834 27.8994V24.8233C193.834 23.4105 192.838 22.5674 191.208 22.5674C190.03 22.5674 189.056 22.9775 188.264 23.7295L189.101 24.6181C189.645 24.0485 190.37 23.7068 191.14 23.7068C192 23.7068 192.566 24.0713 192.566 24.6181C192.566 25.1423 192.068 25.2334 191.049 25.3701C189.736 25.5751 188.129 25.9398 188.129 27.626C188.129 28.8109 189.011 29.6311 190.348 29.6311C191.344 29.6311 192.249 29.1755 192.725 28.4691C192.815 29.2666 193.2 29.5629 194.038 29.5629C194.265 29.5629 194.446 29.54 194.514 29.5173V28.3324H194.265ZM190.574 28.5146C189.871 28.5146 189.464 28.1729 189.464 27.5349C189.464 26.6461 190.348 26.5094 191.208 26.3728C191.864 26.2588 192.273 26.1904 192.521 26.0309V26.9196C192.521 27.7855 191.615 28.5146 190.574 28.5146Z" fill="white"/>
<path d="M199.903 23.8434V22.6813H197.82V20.8584H196.643L196.461 22.6813H195.125V23.8434H196.461V27.7171C196.461 28.9704 197.185 29.6311 198.521 29.6311C198.974 29.6311 199.45 29.5856 199.903 29.4716V28.2184C199.45 28.3324 199.155 28.3551 198.794 28.3551C198.136 28.3551 197.82 28.15 197.82 27.4436V23.8434H199.903Z" fill="white"/>
<path d="M201.551 21.7245H203.046V20.3574H201.551V21.7245ZM201.62 29.5175H202.978V22.6815H201.62V29.5175Z" fill="white"/>
<path d="M208.164 29.6311C210.201 29.6311 211.605 28.1956 211.605 26.0993C211.605 23.9574 210.248 22.5674 208.164 22.5674C206.126 22.5674 204.723 24.0029 204.723 26.0993C204.723 28.2413 206.08 29.6311 208.164 29.6311ZM208.164 28.4691C206.919 28.4691 206.104 27.5349 206.104 26.0993C206.104 24.6638 206.919 23.7295 208.164 23.7295C209.409 23.7295 210.224 24.6638 210.224 26.0993C210.224 27.5349 209.409 28.4691 208.164 28.4691Z" fill="white"/>
<path d="M216.906 22.5674C215.887 22.5674 215.027 23.0231 214.506 23.7523L214.416 22.6813H213.238V29.5173H214.596V25.598C214.596 24.5043 215.457 23.7295 216.521 23.7295C217.45 23.7295 218.016 24.3903 218.016 25.5524V29.5173H219.375V25.1879C219.375 23.6155 218.356 22.5674 216.906 22.5674Z" fill="white"/>
<path d="M65.2855 47.1311C67.3234 47.1311 68.7272 45.6956 68.7272 43.5993C68.7272 41.4574 67.3686 40.0674 65.2855 40.0674C63.2476 40.0674 61.8438 41.5029 61.8438 43.5993C61.8438 45.7413 63.2022 47.1311 65.2855 47.1311ZM65.2855 45.9691C64.0401 45.9691 63.225 45.0349 63.225 43.5993C63.225 42.1638 64.0401 41.2295 65.2855 41.2295C66.5309 41.2295 67.346 42.1638 67.346 43.5993C67.346 45.0349 66.5309 45.9691 65.2855 45.9691Z" fill="white"/>
<path d="M72.9378 38.9053C73.4359 38.9053 73.8436 39.0648 74.2058 39.3383L74.8398 38.3129C74.2964 37.9483 73.6851 37.7432 72.9831 37.7432C71.6246 37.7432 70.7867 38.4952 70.7867 39.7028V40.1813H69.3828V41.3434H70.7867V47.0173H72.1453V41.3434H74.0926V40.1813H72.1453V39.7257C72.1453 39.2243 72.4397 38.9053 72.9378 38.9053Z" fill="white"/>
<path d="M82.7908 47.1311C85.01 47.1311 86.4138 45.7413 86.4138 43.5993V38.3584H84.9873V43.5765C84.9873 44.9893 84.1495 45.8551 82.7908 45.8551C81.4323 45.8551 80.5945 44.9893 80.5945 43.5765V38.3584H79.168V43.5993C79.168 45.7413 80.5718 47.1311 82.7908 47.1311Z" fill="white"/>
<path d="M94.3171 45.8093C94.1133 45.8093 93.9774 45.6726 93.9774 45.4675V42.961H92.732L94.453 40.181H93.0037L91.3961 42.8926H90.0149V37.9023H88.6562V47.017H90.0149V44.1458H92.6415V45.7637C92.6415 46.584 93.117 47.017 93.9547 47.017H94.5661V45.8093H94.3171Z" fill="white"/>
<path d="M99.7941 40.0674C98.7751 40.0674 97.9147 40.5459 97.4166 41.275L97.3259 40.1813H96.1484V47.0173H97.5071V43.1891C97.5071 42.0954 98.3222 41.389 99.4091 41.389C99.7034 41.389 100.02 41.4118 100.315 41.4345V40.1358C100.134 40.0901 99.9752 40.0674 99.7941 40.0674Z" fill="white"/>
<path d="M106.882 45.8324C106.588 45.8324 106.452 45.6956 106.452 45.3994V42.3233C106.452 40.9105 105.456 40.0674 103.826 40.0674C102.648 40.0674 101.674 40.4775 100.882 41.2295L101.72 42.1181C102.263 41.5485 102.988 41.2068 103.758 41.2068C104.618 41.2068 105.184 41.5713 105.184 42.1181C105.184 42.6423 104.686 42.7334 103.667 42.8701C102.354 43.0751 100.746 43.4398 100.746 45.126C100.746 46.3109 101.629 47.1311 102.965 47.1311C103.961 47.1311 104.867 46.6755 105.343 45.9691C105.433 46.7666 105.818 47.0629 106.656 47.0629C106.882 47.0629 107.064 47.04 107.131 47.0173V45.8324H106.882ZM103.192 46.0146C102.49 46.0146 102.082 45.6729 102.082 45.0349C102.082 44.1461 102.965 44.0094 103.826 43.8728C104.482 43.7588 104.89 43.6904 105.139 43.5309V44.4196C105.139 45.2855 104.233 46.0146 103.192 46.0146Z" fill="white"/>
<path d="M108.691 39.2245H110.186V37.8574H108.691V39.2245ZM108.759 47.0175H110.118V40.1815H108.759V47.0175Z" fill="white"/>
<path d="M116.031 40.0674C115.013 40.0674 114.152 40.5231 113.631 41.2523L113.541 40.1813H112.363V47.0173H113.722V43.098C113.722 42.0043 114.582 41.2295 115.647 41.2295C116.575 41.2295 117.141 41.8903 117.141 43.0524V47.0173H118.5V42.6879C118.5 41.1155 117.481 40.0674 116.031 40.0674Z" fill="white"/>
<path d="M121.374 44.0323H126.604C126.649 43.8728 126.649 43.7588 126.649 43.5993C126.649 41.4574 125.36 40.0674 123.367 40.0674C121.374 40.0674 120.016 41.5029 120.016 43.5993C120.016 45.6273 121.238 47.1311 123.48 47.1311C124.907 47.1311 125.857 46.5843 126.423 45.9008L125.496 45.0804C125.111 45.5818 124.476 45.9691 123.48 45.9691C122.28 45.9691 121.533 45.2171 121.374 44.0323ZM123.367 41.2068C124.386 41.2068 125.088 41.8675 125.268 42.984H121.397C121.601 41.8903 122.303 41.2068 123.367 41.2068Z" fill="white"/>
<path fill-rule="evenodd" clip-rule="evenodd" d="M4.54125 4.56864L4.53993 4.56999C2.73348 6.38371 1.79316 8.70461 1.31369 11.991C0.830119 15.3054 0.828095 19.4958 0.828095 24.9955C0.828095 30.4951 0.830118 34.6856 1.3137 38.0011C1.79318 41.2886 2.73356 43.6123 4.54059 45.4308L4.54125 45.4314C6.34358 47.2493 8.6499 48.1955 11.9156 48.678C15.2091 49.1646 19.3731 49.1666 24.8384 49.1666C30.3035 49.1666 34.4675 49.1646 37.7623 48.678C41.029 48.1955 43.3381 47.2491 45.1451 45.4308C46.9523 43.6121 47.8925 41.2906 48.372 38.0045C48.8556 34.6901 48.8576 30.4998 48.8576 24.9955C48.8576 19.4911 48.8556 15.3009 48.372 11.9864C47.8925 8.70032 46.9523 6.37884 45.1451 4.56025C43.3381 2.74632 41.0313 1.80228 37.7659 1.32091C34.4721 0.835363 30.308 0.833334 24.8384 0.833334C19.3686 0.833334 15.2046 0.835373 11.9122 1.322C8.6479 1.80446 6.3437 2.75064 4.54125 4.56864ZM45.7306 3.97099C49.6858 7.95104 49.6858 14.0345 49.6858 24.9955C49.6858 35.9565 49.6858 42.0399 45.7306 46.02C41.7756 50 35.7215 50 24.8384 50C13.9553 50 7.90106 50 3.95504 46.02C0 42.0399 0 35.9474 0 24.9955C0 14.0435 0 7.95104 3.95504 3.98005C7.90106 0 13.9463 0 24.8384 0C35.7305 0 41.7756 0 45.7306 3.97099Z" fill="white"/>
<path d="M23.8424 40.5226C22.1239 39.204 20.8565 37.2369 20.4484 34.9454H14.9062V10.8425C17.8921 12.3341 20.0187 15.6415 20.2765 19.057L21.1144 25.8231L20.7061 25.7582C19.804 25.7582 19.0306 26.6012 19.0306 27.4444C19.0306 28.2225 19.6321 28.8926 20.4055 29.0656L21.415 29.3034C23.0906 26.1257 24.0358 23.0129 24.0358 19.9432C24.0358 17.1762 23.6706 14.431 23.6276 11.6207C23.6276 10.3669 24.1001 9.22125 24.8735 8.33496C25.6469 9.24287 26.1194 10.3669 26.1194 11.6207C26.1194 14.431 25.7113 17.1979 25.7113 19.9432C25.7113 22.9912 26.6564 26.1257 28.332 29.3034L29.3415 29.0656C30.1149 28.8926 30.7164 28.2225 30.7164 27.4444C30.7164 26.6012 29.943 25.7582 29.0409 25.7582L28.6326 25.8231L29.4705 19.057C29.8786 15.6415 31.8549 12.3341 34.8408 10.8425V34.9454H29.2986C28.8905 37.2152 27.6875 39.2689 25.9046 40.5226C25.4965 40.8252 25.1313 41.1927 24.895 41.6682C24.6158 41.1711 24.2505 40.8252 23.8424 40.5226ZM17.527 26.6229C17.7633 25.715 18.4291 24.9367 19.2455 24.4612L18.5795 18.884C18.3433 17.1546 17.6344 15.5982 16.5604 14.3229V26.6012H17.527V26.6229ZM20.341 33.2592C20.341 32.4162 20.4699 31.638 20.6417 30.8599L19.8684 30.6869C18.7299 30.3194 17.8492 29.4331 17.5485 28.2874H16.6032V33.2592H20.341ZM24.0143 33.2592C24.0143 32.2432 23.241 31.3354 22.2314 31.2272C22.0595 31.8759 21.9306 32.546 21.9306 33.2592H24.0143ZM24.0143 34.9454H22.1669C22.4676 36.264 23.112 37.453 24.0143 38.4906V34.9454ZM26.635 29.7357C25.9261 28.4171 25.2601 27.0336 24.852 25.6069C24.4439 27.0552 23.778 28.4171 23.0691 29.7357C23.778 29.9086 24.3794 30.3842 24.852 30.9246C25.3246 30.3842 25.9261 29.9086 26.635 29.7357ZM27.7735 33.2592C27.7735 32.546 27.6445 31.8759 27.4728 31.2272C26.4631 31.357 25.6898 32.2432 25.6898 33.2592H27.7735ZM27.5371 34.9454H25.6898V38.4906C26.592 37.453 27.2364 36.264 27.5371 34.9454ZM33.1438 33.2592V28.2874H32.1985C31.8978 29.4331 31.0171 30.3194 29.8786 30.6869L29.1053 30.8599C29.2771 31.638 29.406 32.4162 29.406 33.2592H33.1438ZM33.1438 26.6229V14.3445C32.0696 15.5982 31.2964 17.1546 31.1245 18.9056L30.4586 24.4829C31.2964 24.9584 31.9408 25.7366 32.1771 26.6445H33.1438V26.6229Z" fill="white"/>
</g>
<defs>
<clipPath id="clip0_1009_65">
<rect width="220" height="50" fill="white"/>
</clipPath>
</defs>
</svg>
