<svg width="135" height="42" viewBox="0 0 135 42" fill="none" xmlns="http://www.w3.org/2000/svg">
<path fill-rule="evenodd" clip-rule="evenodd" d="M30.5486 40.4665L25.6133 35.5312L47.0507 14.0938V23.9574L30.5486 40.4665Z" fill="white"/>
<path fill-rule="evenodd" clip-rule="evenodd" d="M40.0738 40.4667H47.0474V27.7271L40.0738 34.7007V40.4667ZM7.38376 40.4667H0.410156V27.7271L7.38376 34.7007V40.4667ZM16.9192 40.4667L0.410156 23.9575V14.0939L16.9192 30.6031L47.0544 0.467773V10.3314L16.9192 40.4667Z" fill="white"/>
<path d="M66.4663 11.0003V2.99626H64.0663L62.1223 7.83226L60.1783 2.99626H57.7902V11.0003H59.4943V5.39626L61.7503 11.0003H62.4943L64.7503 5.39626V11.0003H66.4663Z" fill="white"/>
<path d="M70.1199 11.0003V2.99626H68.4159V11.0003H70.1199Z" fill="white"/>
<path d="M79.2328 11.0003V2.99626H77.5288V8.02426L73.8208 2.99626H72.0688V11.0003H73.7728V5.78026L77.5888 11.0003H79.2328Z" fill="white"/>
<path d="M82.875 11.0003V2.99626H81.171V11.0003H82.875Z" fill="white"/>
<path d="M87.668 11.1443C89.828 11.1443 90.872 10.0403 90.872 8.57626C90.872 5.58826 86.276 6.44026 86.276 5.16826C86.276 4.68826 86.684 4.36426 87.416 4.36426C88.232 4.36426 89.096 4.64026 89.744 5.24026L90.692 3.99226C89.9 3.26026 88.844 2.87626 87.572 2.87626C85.688 2.87626 84.536 3.98026 84.536 5.31226C84.536 8.32426 89.144 7.35226 89.144 8.76826C89.144 9.22426 88.688 9.65626 87.752 9.65626C86.648 9.65626 85.772 9.16426 85.208 8.57626L84.284 9.87226C85.028 10.6283 86.132 11.1443 87.668 11.1443Z" fill="white"/>
<path d="M95.791 11.0003V4.49626H98.119V2.99626H91.735V4.49626H94.075V11.0003H95.791Z" fill="white"/>
<path d="M106.051 11.0003L104.251 7.95226C105.115 7.74826 106.003 6.99226 106.003 5.57626C106.003 4.08826 104.983 2.99626 103.315 2.99626H99.5713V11.0003H101.275V8.15626H102.523L104.095 11.0003H106.051ZM103.063 6.65626H101.275V4.49626H103.063C103.747 4.49626 104.263 4.90426 104.263 5.57626C104.263 6.24826 103.747 6.65626 103.063 6.65626Z" fill="white"/>
<path d="M111.367 11.0003V7.72426L114.427 2.99626H112.483L110.515 6.21226L108.523 2.99626H106.579L109.663 7.72426V11.0003H111.367Z" fill="white"/>
<path d="M122.748 11.1443C125.172 11.1443 126.936 9.41626 126.936 7.00426C126.936 4.59226 125.172 2.86426 122.748 2.86426C120.336 2.86426 118.572 4.59226 118.572 7.00426C118.572 9.41626 120.336 11.1443 122.748 11.1443ZM122.748 9.63226C121.272 9.63226 120.324 8.49226 120.324 7.00426C120.324 5.50426 121.272 4.37626 122.748 4.37626C124.224 4.37626 125.184 5.50426 125.184 7.00426C125.184 8.49226 124.224 9.63226 122.748 9.63226Z" fill="white"/>
<path d="M130.196 11.0003V7.68826H134.072V6.18826H130.196V4.49626H134.156V2.99626H128.492V11.0003H130.196Z" fill="white"/>
<path d="M63.4543 26.0003V24.5003H59.4943V22.6883H63.3703V21.1883H59.4943V19.4963H63.4543V17.9963H57.7902V26.0003H63.4543Z" fill="white"/>
<path d="M69.0223 26.1443C70.7863 26.1443 71.7943 25.1723 72.3703 24.1763L70.9063 23.4683C70.5703 24.1283 69.8503 24.6323 69.0223 24.6323C67.5703 24.6323 66.5143 23.5163 66.5143 22.0043C66.5143 20.4923 67.5703 19.3763 69.0223 19.3763C69.8503 19.3763 70.5703 19.8923 70.9063 20.5403L72.3703 19.8203C71.8063 18.8243 70.7863 17.8643 69.0223 17.8643C66.6223 17.8643 64.7623 19.5443 64.7623 22.0043C64.7623 24.4643 66.6223 26.1443 69.0223 26.1443Z" fill="white"/>
<path d="M77.5366 26.1443C79.9606 26.1443 81.7246 24.4163 81.7246 22.0043C81.7246 19.5923 79.9606 17.8643 77.5366 17.8643C75.1246 17.8643 73.3606 19.5923 73.3606 22.0043C73.3606 24.4163 75.1246 26.1443 77.5366 26.1443ZM77.5366 24.6323C76.0606 24.6323 75.1126 23.4923 75.1126 22.0043C75.1126 20.5043 76.0606 19.3763 77.5366 19.3763C79.0126 19.3763 79.9726 20.5043 79.9726 22.0043C79.9726 23.4923 79.0126 24.6323 77.5366 24.6323Z" fill="white"/>
<path d="M90.4444 26.0003V17.9963H88.7404V23.0243L85.0324 17.9963H83.2804V26.0003H84.9844V20.7803L88.8004 26.0003H90.4444Z" fill="white"/>
<path d="M96.1746 26.1443C98.5986 26.1443 100.363 24.4163 100.363 22.0043C100.363 19.5923 98.5986 17.8643 96.1746 17.8643C93.7626 17.8643 91.9986 19.5923 91.9986 22.0043C91.9986 24.4163 93.7626 26.1443 96.1746 26.1443ZM96.1746 24.6323C94.6986 24.6323 93.7506 23.4923 93.7506 22.0043C93.7506 20.5043 94.6986 19.3763 96.1746 19.3763C97.6506 19.3763 98.6106 20.5043 98.6106 22.0043C98.6106 23.4923 97.6506 24.6323 96.1746 24.6323Z" fill="white"/>
<path d="M110.594 26.0003V17.9963H108.194L106.25 22.8323L104.306 17.9963H101.918V26.0003H103.622V20.3963L105.878 26.0003H106.622L108.878 20.3963V26.0003H110.594Z" fill="white"/>
<path d="M116.48 26.0003V22.7243L119.54 17.9963H117.596L115.628 21.2123L113.636 17.9963H111.692L114.776 22.7243V26.0003H116.48Z" fill="white"/>
<path d="M61.5823 41.1443C64.0063 41.1443 65.7703 39.4163 65.7703 37.0043C65.7703 34.5923 64.0063 32.8643 61.5823 32.8643C59.1703 32.8643 57.4062 34.5923 57.4062 37.0043C57.4062 39.4163 59.1703 41.1443 61.5823 41.1443ZM61.5823 39.6323C60.1063 39.6323 59.1583 38.4923 59.1583 37.0043C59.1583 35.5043 60.1063 34.3763 61.5823 34.3763C63.0583 34.3763 64.0183 35.5043 64.0183 37.0043C64.0183 38.4923 63.0583 39.6323 61.5823 39.6323Z" fill="white"/>
<path d="M69.03 41.0003V37.6883H72.906V36.1883H69.03V34.4963H72.99V32.9963H67.326V41.0003H69.03Z" fill="white"/>
<path d="M81.5838 41.1443C84.0198 41.1443 85.1958 39.7883 85.1958 37.7963V32.9963H83.4558V37.7483C83.4558 38.8643 82.8198 39.6323 81.5838 39.6323C80.3478 39.6323 79.6998 38.8643 79.6998 37.7483V32.9963H77.9718V37.8083C77.9718 39.7763 79.1478 41.1443 81.5838 41.1443Z" fill="white"/>
<path d="M93.9846 41.0003L90.5886 36.7523L93.7686 32.9963H91.6686L88.8366 36.5723V32.9963H87.1326V41.0003H88.8366V38.5403L89.4606 37.7963L91.8846 41.0003H93.9846Z" fill="white"/>
<path d="M101.601 41.0003L99.8015 37.9523C100.665 37.7483 101.553 36.9923 101.553 35.5763C101.553 34.0883 100.533 32.9963 98.8655 32.9963H95.1215V41.0003H96.8255V38.1563H98.0735L99.6455 41.0003H101.601ZM98.6135 36.6563H96.8255V34.4963H98.6135C99.2975 34.4963 99.8135 34.9043 99.8135 35.5763C99.8135 36.2483 99.2975 36.6563 98.6135 36.6563Z" fill="white"/>
<path d="M110.656 41.0003L107.572 32.9963H105.436L102.34 41.0003H104.284L104.788 39.6443H108.22L108.712 41.0003H110.656ZM107.752 38.1443H105.256L106.504 34.7003L107.752 38.1443Z" fill="white"/>
<path d="M113.46 41.0003V32.9963H111.756V41.0003H113.46Z" fill="white"/>
<path d="M122.573 41.0003V32.9963H120.869V38.0243L117.161 32.9963H115.409V41.0003H117.113V35.7803L120.929 41.0003H122.573Z" fill="white"/>
<path d="M130.175 41.0003V39.5003H126.215V37.6883H130.091V36.1883H126.215V34.4963H130.175V32.9963H124.511V41.0003H130.175Z" fill="white"/>
</svg>
