<svg width="223" height="43" viewBox="0 0 223 43" fill="none" xmlns="http://www.w3.org/2000/svg">
<g clip-path="url(#clip0_1009_109)">
<path fill-rule="evenodd" clip-rule="evenodd" d="M33.5486 41.4665L28.6133 36.5312L50.0507 15.0938V24.9574L33.5486 41.4665Z" fill="white"/>
<path fill-rule="evenodd" clip-rule="evenodd" d="M43.0738 41.4667H50.0474V28.7271L43.0738 35.7007V41.4667ZM10.3838 41.4667H3.41016V28.7271L10.3838 35.7007V41.4667ZM19.9192 41.4667L3.41016 24.9575V15.0939L19.9192 31.6031L50.0544 1.46777V11.3314L19.9192 41.4667Z" fill="white"/>
<path d="M63.88 11V2.6H62.68L59.74 6.932L56.8 2.6H55.6V11H57.22V5.888L59.464 9.32H60.016L62.26 5.888V11H63.88ZM67.0605 11V2.6H65.4405V11H67.0605ZM68.6247 11H70.2447V5.72L74.8647 11H75.8847V2.6H74.2647V7.88L69.6447 2.6H68.6247V11ZM79.0656 11V2.6H77.4456V11H79.0656ZM85.9698 3.62C85.2138 2.864 84.3018 2.48 83.2458 2.48C82.4418 2.48 81.8178 2.72 81.3618 3.188C80.9178 3.656 80.6898 4.244 80.6898 4.964C80.6898 6.008 81.2898 6.728 82.0218 7.064C82.3938 7.232 82.7658 7.376 83.1378 7.508C83.8698 7.76 84.4698 8.084 84.4698 8.6C84.4698 9.14 83.9898 9.68 83.2098 9.68C82.5858 9.68 81.9978 9.404 81.4338 8.84L80.4378 9.836C81.2898 10.688 82.2738 11.12 83.3778 11.12C84.2298 11.12 84.9138 10.88 85.4058 10.4C85.8978 9.908 86.1498 9.296 86.1498 8.564C86.1738 6.968 84.7578 6.404 83.7018 6.056C82.9698 5.78 82.3698 5.444 82.3698 4.916C82.3698 4.424 82.7418 3.92 83.4258 3.92C83.9658 3.92 84.5898 4.232 84.9738 4.616L85.9698 3.62ZM92.9242 3.92V2.6H86.9842V3.92H89.1442V11H90.7642V3.92H92.9242ZM100.144 11L98.2002 7.412C99.1482 7.028 99.7002 6.212 99.7002 5.12C99.7002 4.352 99.4482 3.74 98.9442 3.284C98.4402 2.828 97.7802 2.6 96.9522 2.6H94.2522V11H95.9322V7.64H96.6282L98.2962 11H100.144ZM96.9522 3.98C97.5882 3.98 98.0202 4.436 98.0202 5.12C98.0202 5.804 97.5882 6.26 96.9522 6.26H95.9322V3.98H96.9522ZM105.26 11V7.652L108.44 2.6H106.58L104.456 6.044L102.332 2.6H100.472L103.64 7.628V11H105.26ZM116.853 2.48C115.569 2.48 114.537 2.876 113.733 3.68C112.929 4.484 112.533 5.516 112.533 6.8C112.533 8.084 112.929 9.116 113.733 9.92C114.537 10.724 115.569 11.12 116.853 11.12C118.137 11.12 119.181 10.724 119.973 9.932C120.777 9.128 121.173 8.084 121.173 6.8C121.173 5.516 120.777 4.472 119.973 3.68C119.181 2.876 118.137 2.48 116.853 2.48ZM114.945 4.724C115.437 4.184 116.073 3.92 116.853 3.92C117.633 3.92 118.269 4.184 118.761 4.724C119.253 5.264 119.493 5.948 119.493 6.8C119.493 7.652 119.253 8.336 118.761 8.876C118.269 9.416 117.633 9.68 116.853 9.68C116.073 9.68 115.437 9.416 114.945 8.876C114.453 8.336 114.213 7.652 114.213 6.8C114.213 5.948 114.453 5.264 114.945 4.724ZM127.11 3.92V2.6H122.61V11H124.23V7.46H126.75V6.14H124.23V3.92H127.11ZM60.22 18.92V17.6H55.6V26H60.28V24.68H57.22V22.46H59.86V21.14H57.22V18.92H60.22ZM65.9393 24.68C65.1353 24.68 64.4753 24.416 63.9713 23.876C63.4673 23.336 63.2153 22.652 63.2153 21.8C63.2153 20.948 63.4673 20.264 63.9713 19.724C64.4753 19.184 65.1353 18.92 65.9393 18.92C66.7793 18.92 67.4513 19.184 67.9553 19.7L68.9753 18.68C68.1713 17.876 67.1393 17.48 65.8553 17.48C64.5713 17.48 63.5393 17.876 62.7353 18.68C61.9313 19.484 61.5353 20.516 61.5353 21.8C61.5353 23.084 61.9313 24.116 62.7353 24.92C63.5393 25.724 64.5713 26.12 65.8553 26.12C67.1393 26.12 68.1713 25.724 68.9753 24.92L67.9553 23.912C67.4393 24.428 66.7673 24.68 65.9393 24.68ZM73.9028 17.48C72.6188 17.48 71.5868 17.876 70.7828 18.68C69.9788 19.484 69.5828 20.516 69.5828 21.8C69.5828 23.084 69.9788 24.116 70.7828 24.92C71.5868 25.724 72.6188 26.12 73.9028 26.12C75.1868 26.12 76.2308 25.724 77.0228 24.932C77.8268 24.128 78.2228 23.084 78.2228 21.8C78.2228 20.516 77.8268 19.472 77.0228 18.68C76.2308 17.876 75.1868 17.48 73.9028 17.48ZM71.9948 19.724C72.4868 19.184 73.1228 18.92 73.9028 18.92C74.6828 18.92 75.3188 19.184 75.8108 19.724C76.3028 20.264 76.5428 20.948 76.5428 21.8C76.5428 22.652 76.3028 23.336 75.8108 23.876C75.3188 24.416 74.6828 24.68 73.9028 24.68C73.1228 24.68 72.4868 24.416 71.9948 23.876C71.5028 23.336 71.2628 22.652 71.2628 21.8C71.2628 20.948 71.5028 20.264 71.9948 19.724ZM79.6605 26H81.2805V20.72L85.9005 26H86.9205V17.6H85.3005V22.88L80.6805 17.6H79.6605V26ZM92.6814 17.48C91.3974 17.48 90.3654 17.876 89.5614 18.68C88.7574 19.484 88.3614 20.516 88.3614 21.8C88.3614 23.084 88.7574 24.116 89.5614 24.92C90.3654 25.724 91.3974 26.12 92.6814 26.12C93.9654 26.12 95.0094 25.724 95.8014 24.932C96.6054 24.128 97.0014 23.084 97.0014 21.8C97.0014 20.516 96.6054 19.472 95.8014 18.68C95.0094 17.876 93.9654 17.48 92.6814 17.48ZM90.7734 19.724C91.2654 19.184 91.9014 18.92 92.6814 18.92C93.4614 18.92 94.0974 19.184 94.5894 19.724C95.0814 20.264 95.3214 20.948 95.3214 21.8C95.3214 22.652 95.0814 23.336 94.5894 23.876C94.0974 24.416 93.4614 24.68 92.6814 24.68C91.9014 24.68 91.2654 24.416 90.7734 23.876C90.2814 23.336 90.0414 22.652 90.0414 21.8C90.0414 20.948 90.2814 20.264 90.7734 19.724ZM106.719 26V17.6H105.519L102.579 21.932L99.6391 17.6H98.4391V26H100.059V20.888L102.303 24.32H102.855L105.099 20.888V26H106.719ZM112.588 26V22.652L115.768 17.6H113.908L111.784 21.044L109.66 17.6H107.8L110.968 22.628V26H112.588ZM59.8 32.48C58.516 32.48 57.484 32.876 56.68 33.68C55.876 34.484 55.48 35.516 55.48 36.8C55.48 38.084 55.876 39.116 56.68 39.92C57.484 40.724 58.516 41.12 59.8 41.12C61.084 41.12 62.128 40.724 62.92 39.932C63.724 39.128 64.12 38.084 64.12 36.8C64.12 35.516 63.724 34.472 62.92 33.68C62.128 32.876 61.084 32.48 59.8 32.48ZM57.892 34.724C58.384 34.184 59.02 33.92 59.8 33.92C60.58 33.92 61.216 34.184 61.708 34.724C62.2 35.264 62.44 35.948 62.44 36.8C62.44 37.652 62.2 38.336 61.708 38.876C61.216 39.416 60.58 39.68 59.8 39.68C59.02 39.68 58.384 39.416 57.892 38.876C57.4 38.336 57.16 37.652 57.16 36.8C57.16 35.948 57.4 35.264 57.892 34.724ZM70.0577 33.92V32.6H65.5577V41H67.1777V37.46H69.6977V36.14H67.1777V33.92H70.0577ZM79.4722 37.88C79.4722 38.948 78.7762 39.68 77.7802 39.68C76.8082 39.68 76.1242 38.948 76.1242 37.88V32.6H74.5042V37.88C74.5042 38.852 74.8042 39.632 75.4042 40.232C76.0042 40.82 76.7962 41.12 77.7802 41.12C78.7642 41.12 79.5562 40.82 80.1682 40.232C80.7802 39.632 81.0922 38.852 81.0922 37.88V32.6H79.4722V37.88ZM89.4852 41L86.1612 36.668L89.1852 32.6H87.1452L84.2772 36.464V32.6H82.6572V41H84.2772V36.872L87.3972 41H89.4852ZM96.4561 41L94.5121 37.412C95.4601 37.028 96.0121 36.212 96.0121 35.12C96.0121 34.352 95.7601 33.74 95.2561 33.284C94.7521 32.828 94.0921 32.6 93.2641 32.6H90.5641V41H92.2441V37.64H92.9401L94.6081 41H96.4561ZM93.2641 33.98C93.9001 33.98 94.3321 34.436 94.3321 35.12C94.3321 35.804 93.9001 36.26 93.2641 36.26H92.2441V33.98H93.2641ZM106.065 41L102.333 32.6H100.821L97.0886 41H98.9726L99.7406 39.2H103.401L104.181 41H106.065ZM102.825 37.76H100.317L101.577 34.712L102.825 37.76ZM108.76 41V32.6H107.14V41H108.76ZM110.324 41H111.944V35.72L116.564 41H117.584V32.6H115.964V37.88L111.344 32.6H110.324V41ZM123.765 33.92V32.6H119.145V41H123.825V39.68H120.765V37.46H123.405V36.14H120.765V33.92H123.765Z" fill="white"/>
</g>
<defs>
<clipPath id="clip0_1009_109">
<rect width="223" height="43" fill="white"/>
</clipPath>
</defs>
</svg>
