<svg width="227" height="49" viewBox="0 0 227 49" fill="none" xmlns="http://www.w3.org/2000/svg">
<path d="M65.7229 17.446V18.5593H67.9949C67.6996 20.0134 66.5863 20.695 65.4048 20.695C63.7917 20.695 62.7692 19.4909 62.7692 17.5142C62.7692 15.583 63.8598 14.3333 65.5184 14.3333C66.6544 14.3333 67.4724 14.8786 67.8586 15.901L69.1764 15.4012C68.5857 13.9016 67.2679 13.0837 65.5411 13.0837C62.9964 13.0837 61.2924 14.8786 61.2924 17.5369C61.2924 20.1952 62.8828 21.9447 65.3139 21.9447C66.5181 21.9447 67.4724 21.4448 68.1085 20.536L68.2221 21.8311H69.29V17.446H65.7229ZM72.0846 18.8547H77.333C77.3784 18.6956 77.3784 18.582 77.3784 18.423C77.3784 16.2873 76.0834 14.9013 74.084 14.9013C72.0846 14.9013 70.7214 16.3327 70.7214 18.423C70.7214 20.4451 71.9483 21.9447 74.1976 21.9447C75.629 21.9447 76.5832 21.3994 77.1512 20.7178L76.2197 19.8998C75.8335 20.3997 75.1973 20.7859 74.1976 20.7859C72.9934 20.7859 72.2436 20.0361 72.0846 18.8547ZM74.084 16.0374C75.1064 16.0374 75.8107 16.6963 75.9925 17.8095H72.1073C72.3118 16.719 73.0161 16.0374 74.084 16.0374ZM82.6496 14.9013C81.6272 14.9013 80.7638 15.3557 80.2412 16.0828L80.1503 15.0149H78.9689V21.8311H80.3321V17.9232C80.3321 16.8326 81.1955 16.0601 82.2633 16.0601C83.1949 16.0601 83.7629 16.719 83.7629 17.8777V21.8311H85.1261V17.5142C85.1261 15.9465 84.1037 14.9013 82.6496 14.9013ZM88.0116 18.8547H93.26C93.3054 18.6956 93.3054 18.582 93.3054 18.423C93.3054 16.2873 92.0104 14.9013 90.011 14.9013C88.0116 14.9013 86.6484 16.3327 86.6484 18.423C86.6484 20.4451 87.8753 21.9447 90.1246 21.9447C91.556 21.9447 92.5102 21.3994 93.0782 20.7178L92.1467 19.8998C91.7604 20.3997 91.1243 20.7859 90.1246 20.7859C88.9204 20.7859 88.1706 20.0361 88.0116 18.8547ZM90.011 16.0374C91.0334 16.0374 91.7377 16.6963 91.9195 17.8095H88.0343C88.2388 16.719 88.9431 16.0374 90.011 16.0374ZM98.5538 14.9013C97.5314 14.9013 96.668 15.3785 96.1682 16.1055L96.0773 15.0149H94.8958V21.8311H96.2591V18.014C96.2591 16.9235 97.077 16.2191 98.1676 16.2191C98.4629 16.2191 98.781 16.2418 99.0764 16.2646V14.9695C98.8946 14.9241 98.7356 14.9013 98.5538 14.9013ZM105.665 20.6496C105.37 20.6496 105.234 20.5133 105.234 20.2179V17.1507C105.234 15.742 104.234 14.9013 102.598 14.9013C101.417 14.9013 100.44 15.3103 99.6444 16.0601L100.485 16.9462C101.03 16.3782 101.757 16.0374 102.53 16.0374C103.393 16.0374 103.961 16.4009 103.961 16.9462C103.961 17.4687 103.461 17.5596 102.439 17.6959C101.121 17.9004 99.5081 18.264 99.5081 19.9453C99.5081 21.1267 100.394 21.9447 101.735 21.9447C102.734 21.9447 103.643 21.4902 104.12 20.7859C104.211 21.5811 104.597 21.8765 105.438 21.8765C105.665 21.8765 105.847 21.8538 105.915 21.8311V20.6496H105.665ZM101.962 20.8314C101.258 20.8314 100.849 20.4906 100.849 19.8544C100.849 18.9683 101.735 18.832 102.598 18.6956C103.257 18.582 103.666 18.5139 103.916 18.3548V19.2409C103.916 20.1043 103.007 20.8314 101.962 20.8314ZM107.437 21.8311H108.801V12.7429H107.437V21.8311ZM117.434 21.9447C119.57 21.9447 120.865 20.945 120.865 19.3545C120.865 17.9232 119.729 17.3097 117.753 16.8099C116.276 16.4236 115.708 16.1055 115.708 15.4694C115.708 14.7877 116.389 14.3333 117.457 14.3333C118.411 14.3333 119.229 14.6741 119.866 15.1967L120.661 14.1061C119.775 13.4245 118.752 13.0837 117.548 13.0837C115.571 13.0837 114.276 14.038 114.276 15.5375C114.276 17.1961 115.844 17.6959 117.48 18.1731C118.911 18.582 119.434 18.8547 119.434 19.4909C119.434 20.2406 118.73 20.695 117.548 20.695C116.526 20.695 115.526 20.3088 114.799 19.6045L113.958 20.695C114.844 21.513 116.094 21.9447 117.434 21.9447ZM126.5 16.1737V15.0149H124.41V13.1973H123.228L123.046 15.0149H121.706V16.1737H123.046V20.0361C123.046 21.2858 123.773 21.9447 125.114 21.9447C125.568 21.9447 126.045 21.8992 126.5 21.7856V20.536C126.045 20.6496 125.75 20.6723 125.387 20.6723C124.728 20.6723 124.41 20.4678 124.41 19.7635V16.1737H126.5ZM133.498 20.6496C133.202 20.6496 133.066 20.5133 133.066 20.2179V17.1507C133.066 15.742 132.066 14.9013 130.431 14.9013C129.249 14.9013 128.272 15.3103 127.477 16.0601L128.318 16.9462C128.863 16.3782 129.59 16.0374 130.362 16.0374C131.226 16.0374 131.794 16.4009 131.794 16.9462C131.794 17.4687 131.294 17.5596 130.271 17.6959C128.954 17.9004 127.341 18.264 127.341 19.9453C127.341 21.1267 128.227 21.9447 129.567 21.9447C130.567 21.9447 131.476 21.4902 131.953 20.7859C132.044 21.5811 132.43 21.8765 133.271 21.8765C133.498 21.8765 133.68 21.8538 133.748 21.8311V20.6496H133.498ZM129.794 20.8314C129.09 20.8314 128.681 20.4906 128.681 19.8544C128.681 18.9683 129.567 18.832 130.431 18.6956C131.089 18.582 131.498 18.5139 131.748 18.3548V19.2409C131.748 20.1043 130.839 20.8314 129.794 20.8314ZM137.86 13.7426C138.36 13.7426 138.769 13.9016 139.132 14.1743L139.769 13.1519C139.223 12.7883 138.61 12.5839 137.906 12.5839C136.542 12.5839 135.702 13.3336 135.702 14.5378V15.0149H134.293V16.1737H135.702V21.8311H137.065V16.1737H139.019V15.0149H137.065V14.5605C137.065 14.0607 137.36 13.7426 137.86 13.7426ZM142.495 13.7426C142.995 13.7426 143.404 13.9016 143.767 14.1743L144.404 13.1519C143.858 12.7883 143.245 12.5839 142.54 12.5839C141.177 12.5839 140.337 13.3336 140.337 14.5378V15.0149H138.928V16.1737H140.337V21.8311H141.7V16.1737H143.654V15.0149H141.7V14.5605C141.7 14.0607 141.995 13.7426 142.495 13.7426ZM151.583 21.9447C153.628 21.9447 155.037 20.5133 155.037 18.423C155.037 16.2873 153.673 14.9013 151.583 14.9013C149.538 14.9013 148.13 16.3327 148.13 18.423C148.13 20.5587 149.493 21.9447 151.583 21.9447ZM151.583 20.7859C150.334 20.7859 149.516 19.8544 149.516 18.423C149.516 16.9916 150.334 16.0601 151.583 16.0601C152.833 16.0601 153.651 16.9916 153.651 18.423C153.651 19.8544 152.833 20.7859 151.583 20.7859ZM159.263 13.7426C159.762 13.7426 160.171 13.9016 160.535 14.1743L161.171 13.1519C160.626 12.7883 160.012 12.5839 159.308 12.5839C157.945 12.5839 157.104 13.3336 157.104 14.5378V15.0149H155.696V16.1737H157.104V21.8311H158.467V16.1737H160.421V15.0149H158.467V14.5605C158.467 14.0607 158.763 13.7426 159.263 13.7426ZM169.419 16.1737V15.0149H167.328V13.1973H166.147L165.965 15.0149H164.625V16.1737H165.965V20.0361C165.965 21.2858 166.692 21.9447 168.033 21.9447C168.487 21.9447 168.964 21.8992 169.419 21.7856V20.536C168.964 20.6496 168.669 20.6723 168.305 20.6723C167.646 20.6723 167.328 20.4678 167.328 19.7635V16.1737H169.419ZM174.69 14.9013C173.736 14.9013 172.918 15.3103 172.395 15.9692V12.7429H171.032V21.8311H172.395V17.9232C172.395 16.8326 173.258 16.0601 174.304 16.0601C175.235 16.0601 175.803 16.719 175.803 17.8777V21.8311H177.166V17.5142C177.166 15.9465 176.167 14.9013 174.69 14.9013ZM180.052 18.8547H185.3C185.346 18.6956 185.346 18.582 185.346 18.423C185.346 16.2873 184.051 14.9013 182.051 14.9013C180.052 14.9013 178.689 16.3327 178.689 18.423C178.689 20.4451 179.915 21.9447 182.165 21.9447C183.596 21.9447 184.55 21.3994 185.118 20.7178L184.187 19.8998C183.801 20.3997 183.164 20.7859 182.165 20.7859C180.961 20.7859 180.211 20.0361 180.052 18.8547ZM182.051 16.0374C183.074 16.0374 183.778 16.6963 183.96 17.8095H180.075C180.279 16.719 180.983 16.0374 182.051 16.0374ZM67.9949 36.8311H69.5172L66.041 28.1973H64.2915L60.8153 36.8311H62.3148L63.0873 34.8317H67.2224L67.9949 36.8311ZM63.5872 33.5593L65.1549 29.5151L66.7226 33.5593H63.5872ZM74.4021 29.9013C73.3797 29.9013 72.5163 30.3785 72.0164 31.1055L71.9256 30.0149H70.7441V36.8311H72.1073V33.014C72.1073 31.9235 72.9252 31.2191 74.0158 31.2191C74.3112 31.2191 74.6293 31.2418 74.9246 31.2646V29.9695C74.7429 29.9241 74.5838 29.9013 74.4021 29.9013ZM84.3763 29.9013C83.3085 29.9013 82.4224 30.4239 81.9452 31.2191C81.559 30.4012 80.8092 29.9013 79.7868 29.9013C78.7871 29.9013 77.9692 30.333 77.492 31.0374L77.4012 30.0149H76.2197V36.8311H77.5829V32.9232C77.5829 31.8326 78.3554 31.0601 79.4006 31.0601C80.3548 31.0601 80.8319 31.719 80.8319 32.8777V36.8311H82.1952V32.9232C82.1952 31.8326 82.9677 31.0601 84.0128 31.0601C84.9443 31.0601 85.4442 31.719 85.4442 32.8777V36.8311H86.8074V32.5142C86.8074 30.9465 85.8531 29.9013 84.3763 29.9013ZM89.6929 33.8547H94.9413C94.9867 33.6956 94.9867 33.582 94.9867 33.423C94.9867 31.2873 93.6917 29.9013 91.6923 29.9013C89.6929 29.9013 88.3297 31.3327 88.3297 33.423C88.3297 35.4451 89.5566 36.9447 91.8059 36.9447C93.2373 36.9447 94.1915 36.3994 94.7595 35.7178L93.828 34.8998C93.4417 35.3997 92.8056 35.7859 91.8059 35.7859C90.6017 35.7859 89.8519 35.0361 89.6929 33.8547ZM91.6923 31.0374C92.7147 31.0374 93.419 31.6963 93.6008 32.8095H89.7156C89.9201 31.719 90.6244 31.0374 91.6923 31.0374ZM101.303 27.7429V30.9238C100.78 30.2649 99.9852 29.9013 99.0537 29.9013C97.3042 29.9013 96.0773 31.3327 96.0773 33.423C96.0773 35.5587 97.2588 36.9447 99.0537 36.9447C100.031 36.9447 100.849 36.513 101.394 35.7632L101.485 36.8311H102.666V27.7429H101.303ZM99.4172 35.7859C98.213 35.7859 97.4632 34.8544 97.4632 33.423C97.4632 31.9916 98.213 31.0601 99.4172 31.0601C100.621 31.0601 101.394 31.9916 101.394 33.423C101.394 34.8544 100.621 35.7859 99.4172 35.7859ZM114.64 29.4924V28.1973H108.664V36.8311H110.096V33.0822H113.617V31.8326H110.096V29.4924H114.64ZM118.457 36.9447C120.502 36.9447 121.91 35.5133 121.91 33.423C121.91 31.2873 120.547 29.9013 118.457 29.9013C116.412 29.9013 115.003 31.3327 115.003 33.423C115.003 35.5587 116.367 36.9447 118.457 36.9447ZM118.457 35.7859C117.207 35.7859 116.389 34.8544 116.389 33.423C116.389 31.9916 117.207 31.0601 118.457 31.0601C119.706 31.0601 120.524 31.9916 120.524 33.423C120.524 34.8544 119.706 35.7859 118.457 35.7859ZM127.204 29.9013C126.182 29.9013 125.318 30.3785 124.819 31.1055L124.728 30.0149H123.546V36.8311H124.909V33.014C124.909 31.9235 125.727 31.2191 126.818 31.2191C127.113 31.2191 127.431 31.2418 127.727 31.2646V29.9695C127.545 29.9241 127.386 29.9013 127.204 29.9013ZM131.589 36.9447C133.043 36.9447 134.248 36.1949 134.634 34.8998L133.339 34.4909C133.043 35.2861 132.407 35.7859 131.589 35.7859C130.34 35.7859 129.567 34.8544 129.567 33.423C129.567 31.9916 130.34 31.0601 131.589 31.0601C132.43 31.0601 133.043 31.5599 133.339 32.3551L134.634 31.9462C134.248 30.6511 133.066 29.9013 131.589 29.9013C129.567 29.9013 128.181 31.3327 128.181 33.423C128.181 35.5133 129.567 36.9447 131.589 36.9447ZM136.838 33.8547H142.086C142.131 33.6956 142.131 33.582 142.131 33.423C142.131 31.2873 140.836 29.9013 138.837 29.9013C136.838 29.9013 135.474 31.3327 135.474 33.423C135.474 35.4451 136.701 36.9447 138.951 36.9447C140.382 36.9447 141.336 36.3994 141.904 35.7178L140.973 34.8998C140.587 35.3997 139.95 35.7859 138.951 35.7859C137.746 35.7859 136.997 35.0361 136.838 33.8547ZM138.837 31.0374C139.859 31.0374 140.564 31.6963 140.746 32.8095H136.86C137.065 31.719 137.769 31.0374 138.837 31.0374ZM145.926 36.9447C147.63 36.9447 148.698 36.1494 148.698 34.8998C148.698 33.832 147.993 33.264 146.13 32.7868C144.972 32.4915 144.608 32.2643 144.608 31.8326C144.608 31.3554 145.131 31.0601 145.903 31.0601C146.63 31.0601 147.244 31.31 147.789 31.7644L148.561 30.742C147.812 30.1967 146.925 29.9013 145.971 29.9013C144.358 29.9013 143.29 30.6966 143.29 31.9235C143.29 32.9686 143.995 33.5366 145.767 33.991C147.016 34.2864 147.38 34.5363 147.38 34.968C147.38 35.4906 146.835 35.7632 145.971 35.7632C145.062 35.7632 144.313 35.4678 143.745 34.9225L142.995 35.8995C143.745 36.5811 144.767 36.9447 145.926 36.9447ZM156.832 36.9447C158.876 36.9447 160.285 35.5133 160.285 33.423C160.285 31.2873 158.922 29.9013 156.832 29.9013C154.787 29.9013 153.378 31.3327 153.378 33.423C153.378 35.5587 154.741 36.9447 156.832 36.9447ZM156.832 35.7859C155.582 35.7859 154.764 34.8544 154.764 33.423C154.764 31.9916 155.582 31.0601 156.832 31.0601C158.081 31.0601 158.899 31.9916 158.899 33.423C158.899 34.8544 158.081 35.7859 156.832 35.7859ZM164.511 28.7426C165.011 28.7426 165.42 28.9016 165.783 29.1743L166.42 28.1519C165.874 27.7883 165.261 27.5839 164.556 27.5839C163.193 27.5839 162.353 28.3336 162.353 29.5378V30.0149H160.944V31.1737H162.353V36.8311H163.716V31.1737H165.67V30.0149H163.716V29.5605C163.716 29.0607 164.011 28.7426 164.511 28.7426ZM174.394 36.9447C176.621 36.9447 178.03 35.5587 178.03 33.423V28.1973H176.598V33.4003C176.598 34.8089 175.758 35.6723 174.394 35.6723C173.031 35.6723 172.191 34.8089 172.191 33.4003V28.1973H170.759V33.423C170.759 35.5587 172.168 36.9447 174.394 36.9447ZM185.959 35.6269C185.755 35.6269 185.618 35.4906 185.618 35.2861V32.7868H184.369L186.095 30.0149H184.641L183.028 32.7187H181.642V27.7429H180.279V36.8311H181.642V33.9683H184.278V35.5814C184.278 36.3994 184.755 36.8311 185.596 36.8311H186.209V35.6269H185.959ZM191.457 29.9013C190.435 29.9013 189.572 30.3785 189.072 31.1055L188.981 30.0149H187.799V36.8311H189.163V33.014C189.163 31.9235 189.981 31.2191 191.071 31.2191C191.367 31.2191 191.685 31.2418 191.98 31.2646V29.9695C191.798 29.9241 191.639 29.9013 191.457 29.9013ZM198.569 35.6496C198.274 35.6496 198.137 35.5133 198.137 35.2179V32.1507C198.137 30.742 197.138 29.9013 195.502 29.9013C194.32 29.9013 193.343 30.3103 192.548 31.0601L193.389 31.9462C193.934 31.3782 194.661 31.0374 195.433 31.0374C196.297 31.0374 196.865 31.4009 196.865 31.9462C196.865 32.4687 196.365 32.5596 195.343 32.6959C194.025 32.9004 192.412 33.264 192.412 34.9453C192.412 36.1267 193.298 36.9447 194.638 36.9447C195.638 36.9447 196.547 36.4902 197.024 35.7859C197.115 36.5811 197.501 36.8765 198.342 36.8765C198.569 36.8765 198.751 36.8538 198.819 36.8311V35.6496H198.569ZM194.865 35.8314C194.161 35.8314 193.752 35.4906 193.752 34.8544C193.752 33.9683 194.638 33.832 195.502 33.6956C196.161 33.582 196.569 33.5139 196.819 33.3548V34.2409C196.819 35.1043 195.911 35.8314 194.865 35.8314ZM200.387 29.0607H201.886V27.6975H200.387V29.0607ZM200.455 36.8311H201.818V30.0149H200.455V36.8311ZM207.748 29.9013C206.725 29.9013 205.862 30.3557 205.34 31.0828L205.249 30.0149H204.067V36.8311H205.43V32.9232C205.43 31.8326 206.294 31.0601 207.362 31.0601C208.293 31.0601 208.861 31.719 208.861 32.8777V36.8311H210.224V32.5142C210.224 30.9465 209.202 29.9013 207.748 29.9013ZM213.11 33.8547H218.358C218.404 33.6956 218.404 33.582 218.404 33.423C218.404 31.2873 217.109 29.9013 215.109 29.9013C213.11 29.9013 211.747 31.3327 211.747 33.423C211.747 35.4451 212.974 36.9447 215.223 36.9447C216.654 36.9447 217.609 36.3994 218.177 35.7178L217.245 34.8998C216.859 35.3997 216.223 35.7859 215.223 35.7859C214.019 35.7859 213.269 35.0361 213.11 33.8547ZM215.109 31.0374C216.132 31.0374 216.836 31.6963 217.018 32.8095H213.133C213.337 31.719 214.041 31.0374 215.109 31.0374Z" fill="white"/>
<g clip-path="url(#clip0_1005_123)">
<path d="M13.6758 14.8701L14.8671 13.6788L34.239 33.0507L33.0476 34.2421L13.6758 14.8701Z" fill="black" stroke="white" stroke-width="0.290821"/>
<path d="M14.6919 9.11832C15.058 9.48444 15.3484 9.91908 15.5466 10.3974C15.7447 10.8758 15.8467 11.3885 15.8467 11.9063C15.8467 12.424 15.7447 12.9367 15.5466 13.4151C15.3484 13.8934 15.058 14.3281 14.6919 14.6942C14.3258 15.0603 13.8911 15.3507 13.4128 15.5489C12.9344 15.747 12.4217 15.849 11.904 15.849C11.3862 15.849 10.8735 15.747 10.3952 15.5489C9.9168 15.3507 9.48216 15.0603 9.11605 14.6942C8.37664 13.9548 7.96125 12.9519 7.96125 11.9063C7.96125 10.8606 8.37664 9.85773 9.11604 9.11832C9.85544 8.37892 10.8583 7.96353 11.904 7.96353C12.9496 7.96353 13.9525 8.37892 14.6919 9.11832Z" fill="black" stroke="white" stroke-width="0.290821" stroke-linecap="round" stroke-linejoin="round"/>
<path d="M39.5121 40.0289C39.5149 40.032 39.5177 40.0351 39.5206 40.0381C39.5549 40.0725 39.5956 40.0998 39.6403 40.1185C39.685 40.1373 39.7328 40.1471 39.7811 40.1473C39.8294 40.1476 39.8771 40.1384 39.9216 40.1202C39.9661 40.1019 40.0065 40.0751 40.0405 40.0412C40.0744 40.0072 40.1012 39.9668 40.1195 39.9223C40.1377 39.8778 40.1469 39.8301 40.1466 39.7818C40.1464 39.7335 40.1366 39.6857 40.1178 39.641C40.0991 39.5963 40.0718 39.5556 40.0374 39.5213C40.0344 39.5184 40.0313 39.5156 40.0282 39.5128L39.5121 40.0289Z" fill="black" stroke="white" stroke-width="0.290821" stroke-linecap="round" stroke-linejoin="round"/>
<path d="M38.9152 40.035C38.928 40.0802 38.9498 40.1186 38.98 40.149C39.0629 40.2319 39.2037 40.2501 39.3714 40.1995C39.5392 40.149 39.7201 40.034 39.8744 39.8796C40.0287 39.7253 40.1438 39.5444 40.1943 39.3767C40.2448 39.2089 40.2266 39.0681 40.1438 38.9852C40.1133 38.9551 40.0748 38.9333 40.0296 38.9206L38.9152 40.035Z" fill="black" stroke="white" stroke-width="0.290821" stroke-linecap="round" stroke-linejoin="round"/>
<path d="M33.0472 34.2419L34.2385 33.0505L39.9568 38.5886L38.5852 39.9602L33.0472 34.2419Z" fill="black" stroke="white" stroke-width="0.290821"/>
<path d="M32.7634 33.9308C32.7634 33.9308 33.1628 33.6133 33.3872 33.389C33.6116 33.1646 33.929 32.7651 33.929 32.7651C34.0282 32.6404 34.1973 32.6266 34.31 32.7393C34.4227 32.852 34.4227 33.0334 34.31 33.1461C34.31 33.1461 33.9946 33.5253 33.7591 33.7608C33.5235 33.9964 33.1443 34.3118 33.1443 34.3118C33.0257 34.4181 32.8502 34.4245 32.7376 34.3118C32.6249 34.1991 32.6507 34.0435 32.7634 33.9308Z" fill="black" stroke="white" stroke-width="0.290821"/>
<path d="M38.5993 39.7667C38.5993 39.7667 38.9987 39.4493 39.2231 39.2249C39.4475 39.0005 39.765 38.6011 39.765 38.6011C39.8641 38.4763 40.0333 38.4626 40.146 38.5753C40.2586 38.6879 40.2586 38.8694 40.146 38.982C40.146 38.982 39.8305 39.3612 39.595 39.5968C39.3594 39.8323 38.9803 40.1477 38.9803 40.1477C38.8616 40.2541 38.6862 40.2604 38.5735 40.1477C38.4608 40.0351 38.4866 39.8794 38.5993 39.7667Z" fill="black" stroke="white" stroke-width="0.290821"/>
<path d="M14.1939 8.69721C13.9914 8.99224 13.7474 9.06485 13.5214 9.00719C13.5332 9.58857 13.1494 9.94076 12.6139 9.8907C12.6461 10.4447 12.2341 10.8142 11.6868 10.7126C11.6868 10.7126 11.7797 11.1005 11.439 11.4412C11.0984 11.7818 10.7104 11.689 10.7104 11.689C10.8121 12.2362 10.4425 12.6482 9.88855 12.616C9.93861 13.1515 9.58642 13.5354 9.00504 13.5236C9.06271 13.7496 8.9901 13.9936 8.69507 14.196" stroke="white" stroke-width="0.290821" stroke-linecap="round" stroke-linejoin="round"/>
<path d="M15.1108 9.61611C14.8158 9.81857 14.7432 10.0626 14.8008 10.2886C14.2195 10.2767 13.8673 10.6606 13.9173 11.1961C13.3633 11.1639 12.9938 11.5759 13.0954 12.1232C13.0954 12.1232 12.7075 12.0303 12.3669 12.371C12.0262 12.7116 12.1191 13.0996 12.1191 13.0996C11.5718 12.9979 11.1598 13.3675 11.192 13.9215C10.6565 13.8714 10.2726 14.2236 10.2845 14.805C10.0585 14.7473 9.81448 14.8199 9.61201 15.1149" stroke="white" stroke-width="0.290821" stroke-linecap="round" stroke-linejoin="round"/>
<path d="M9.00442 13.524C8.37793 12.4208 7.7372 10.7207 9.11759 9.12068C8.28212 10.0213 9.15637 11.7846 9.88792 12.6164" stroke="white" stroke-width="0.290821" stroke-linecap="round" stroke-linejoin="round"/>
<path d="M9.11711 9.12019C8.89202 9.77112 10.2371 11.1506 10.7093 11.6888" stroke="white" stroke-width="0.290821" stroke-linecap="round" stroke-linejoin="round"/>
<path d="M9.11719 9.12109C9.76811 8.89601 11.1476 10.2411 11.6858 10.7133" stroke="white" stroke-width="0.290821" stroke-linecap="round" stroke-linejoin="round"/>
<path d="M13.5204 9.00792C12.4173 8.38143 10.7172 7.7407 9.11719 9.12109C10.0178 8.28562 11.7811 9.15987 12.6129 9.89143" stroke="white" stroke-width="0.290821" stroke-linecap="round" stroke-linejoin="round"/>
<path d="M10.2852 14.8047C11.3883 15.4312 13.0884 16.0719 14.6884 14.6915C13.7878 15.527 12.0245 14.6527 11.1927 13.9212" stroke="white" stroke-width="0.290821" stroke-linecap="round" stroke-linejoin="round"/>
<path d="M14.6897 14.6918C14.0388 14.9169 12.6593 13.5719 12.1211 13.0996" stroke="white" stroke-width="0.290821" stroke-linecap="round" stroke-linejoin="round"/>
<path d="M14.6859 14.6927C14.911 14.0418 13.5659 12.6623 13.0937 12.1241" stroke="white" stroke-width="0.290821" stroke-linecap="round" stroke-linejoin="round"/>
<path d="M14.7973 10.2887C15.4238 11.3918 16.0645 13.0919 14.6841 14.6919C15.5196 13.7913 14.6453 12.028 13.9138 11.1962" stroke="white" stroke-width="0.290821" stroke-linecap="round" stroke-linejoin="round"/>
<path fill-rule="evenodd" clip-rule="evenodd" d="M8.74786 8.93793C8.71492 8.96682 8.68352 8.99937 8.65602 9.03654C8.5977 9.11535 8.55487 9.2118 8.54427 9.33086C8.53453 9.44018 8.51701 9.54655 8.4667 9.64283C8.41134 9.74878 8.41115 9.87294 8.40228 9.99574C8.40209 9.99806 8.40158 10.0003 8.40077 10.0025C8.39266 10.0249 8.40381 10.0489 8.42612 10.0572C8.4267 10.0573 8.42699 10.0576 8.42747 10.0577C8.42786 10.0579 8.42824 10.058 8.42862 10.0581C8.4291 10.0582 8.42988 10.0584 8.43016 10.0585C8.43061 10.0586 8.43106 10.0586 8.43151 10.0587C8.43209 10.0589 8.43344 10.0591 8.43526 10.0594C8.43574 10.0595 8.4352 10.0593 8.43641 10.0594L8.4366 10.0596C8.43814 10.0598 8.43877 10.0597 8.43942 10.0598C8.45041 10.0604 8.46113 10.0568 8.46947 10.0497C8.4707 10.0486 8.47203 10.0477 8.47343 10.0469C8.48876 10.0381 8.87955 9.81393 9.34454 9.34893C9.80818 8.88529 10.0322 8.49629 10.0421 8.47895C10.0421 8.47895 10.0449 8.47501 10.0457 8.47386C10.052 8.46613 10.0555 8.45682 10.0556 8.447L10.0558 8.44681C10.0558 8.44604 10.0558 8.44527 10.0558 8.44456L10.0556 8.4436C10.0556 8.44321 10.0556 8.44283 10.0556 8.44245L10.0554 8.44225L10.0554 8.44186C10.0553 8.44142 10.0553 8.44097 10.0552 8.44052C10.055 8.43801 10.0546 8.43562 10.0539 8.4332L10.0537 8.43301C10.0534 8.43195 10.0531 8.43103 10.0528 8.43017C10.0527 8.42992 10.0525 8.42966 10.0524 8.4294C10.0437 8.40784 10.02 8.39717 9.99814 8.40517C9.99596 8.40599 9.99369 8.40649 9.99138 8.40669C9.86857 8.41555 9.74442 8.41574 9.63846 8.47111C9.54217 8.52142 9.43598 8.53876 9.32668 8.54849C9.09504 8.56911 8.94918 8.7125 8.85751 8.85389C8.85557 8.85689 8.85301 8.85945 8.85 8.8614C8.81545 8.88379 8.78096 8.90896 8.74801 8.93784L8.74786 8.93793Z" fill="black"/>
<path d="M10.0105 8.44594C9.88111 8.45625 9.75378 8.45792 9.65652 8.50874C9.55249 8.5631 9.44006 8.58091 9.32885 8.59081C9.10642 8.61061 8.96878 8.74872 8.88188 8.88743C8.74317 8.97433 8.60507 9.11196 8.58526 9.3344C8.57536 9.44561 8.55755 9.55804 8.50319 9.66207C8.45237 9.75933 8.45071 9.88666 8.44039 10.016M8.44022 10.0164C8.44022 10.0164 8.84195 9.78896 9.31268 9.31823C9.78341 8.8475 10.0108 8.44577 10.0108 8.44577" stroke="white" stroke-width="0.290821" stroke-linecap="round" stroke-linejoin="round"/>
<path d="M8.88462 8.32817C8.92129 8.36485 8.95038 8.40838 8.97022 8.45629C8.99007 8.50421 9.00029 8.55557 9.00029 8.60743C9.00029 8.65929 8.99007 8.71064 8.97023 8.75855C8.95038 8.80647 8.92129 8.85 8.88462 8.88668C8.84795 8.92335 8.80441 8.95243 8.7565 8.97228C8.70859 8.99213 8.65724 9.00234 8.60537 9.00234C8.55351 9.00234 8.50215 8.99212 8.45424 8.97228C8.40633 8.95243 8.36279 8.92334 8.32612 8.88667C8.25206 8.81261 8.21045 8.71216 8.21045 8.60742C8.21045 8.50268 8.25206 8.40224 8.32612 8.32817C8.40018 8.25411 8.50063 8.21251 8.60537 8.21251C8.71011 8.21251 8.81055 8.25411 8.88462 8.32817Z" fill="black" stroke="white" stroke-width="0.290821" stroke-linecap="round" stroke-linejoin="round"/>
<path d="M33.3203 13.6768L34.5116 14.8681L15.1398 34.24L13.9484 33.0487L33.3203 13.6768Z" fill="black" stroke="white" stroke-width="0.290821"/>
<path d="M39.0692 14.6929C38.7031 15.059 38.2684 15.3494 37.7901 15.5476C37.3117 15.7457 36.799 15.8477 36.2812 15.8477C35.7635 15.8477 35.2508 15.7457 34.7724 15.5476C34.2941 15.3494 33.8594 15.059 33.4933 14.6929C33.1272 14.3268 32.8368 13.8921 32.6387 13.4138C32.4405 12.9354 32.3385 12.4227 32.3385 11.905C32.3385 11.3872 32.4405 10.8745 32.6387 10.3961C32.8368 9.91779 33.1272 9.48315 33.4933 9.11703C34.2327 8.37763 35.2356 7.96223 36.2812 7.96223C37.3269 7.96223 38.3298 8.37762 39.0692 9.11703C39.8086 9.85643 40.224 10.8593 40.224 11.905C40.224 12.9506 39.8086 13.9535 39.0692 14.6929Z" fill="black" stroke="white" stroke-width="0.290821" stroke-linecap="round" stroke-linejoin="round"/>
<path d="M8.16445 39.5111C8.16132 39.5139 8.15824 39.5167 8.15521 39.5196C8.12087 39.5539 8.09356 39.5946 8.07482 39.6393C8.05609 39.684 8.04631 39.7318 8.04603 39.7801C8.04575 39.8284 8.05498 39.8761 8.0732 39.9207C8.09141 39.9652 8.11826 40.0055 8.15221 40.0395C8.18616 40.0734 8.22653 40.1003 8.27103 40.1185C8.31554 40.1367 8.3633 40.1459 8.41157 40.1457C8.45985 40.1454 8.5077 40.1356 8.5524 40.1169C8.5971 40.0981 8.63777 40.0708 8.67209 40.0365C8.67496 40.0334 8.67779 40.0304 8.68056 40.0272L8.16445 39.5111Z" fill="black" stroke="white" stroke-width="0.290821" stroke-linecap="round" stroke-linejoin="round"/>
<path d="M8.15742 38.9182C8.11219 38.9309 8.07379 38.9528 8.04341 38.983C7.96052 39.0658 7.94233 39.2066 7.99284 39.3744C8.04335 39.5421 8.15842 39.723 8.31274 39.8774C8.46707 40.0317 8.64799 40.1468 8.81573 40.1973C8.98346 40.2478 9.12425 40.2296 9.20714 40.1467C9.23728 40.1162 9.25904 40.0778 9.27175 40.0325L8.15742 38.9182Z" fill="black" stroke="white" stroke-width="0.290821" stroke-linecap="round" stroke-linejoin="round"/>
<path d="M13.9495 33.0491L15.1409 34.2405L9.60286 39.9588L8.23121 38.5872L13.9495 33.0491Z" fill="black" stroke="white" stroke-width="0.290821"/>
<path d="M14.2606 32.7634C14.2606 32.7634 14.5781 33.1628 14.8024 33.3872C15.0268 33.6116 15.4263 33.929 15.4263 33.929C15.551 34.0282 15.5648 34.1973 15.4521 34.31C15.3394 34.4227 15.158 34.4227 15.0453 34.31C15.0453 34.31 14.6661 33.9946 14.4306 33.7591C14.195 33.5235 13.8796 33.1443 13.8796 33.1443C13.7733 33.0257 13.767 32.8502 13.8796 32.7376C13.9923 32.6249 14.1479 32.6507 14.2606 32.7634Z" fill="black" stroke="white" stroke-width="0.290821"/>
<path d="M8.42466 38.5993C8.42466 38.5993 8.74212 38.9987 8.96651 39.2231C9.1909 39.4475 9.59034 39.765 9.59034 39.765C9.71511 39.8641 9.72881 40.0333 9.61613 40.146C9.50346 40.2586 9.32203 40.2586 9.20936 40.146C9.20936 40.146 8.8302 39.8305 8.59465 39.595C8.3591 39.3594 8.04368 38.9803 8.04368 38.9803C7.93732 38.8616 7.931 38.6862 8.04368 38.5735C8.15635 38.4608 8.31198 38.4866 8.42466 38.5993Z" fill="black" stroke="white" stroke-width="0.290821"/>
<path d="M39.4952 14.1949C39.2001 13.9924 39.1275 13.7484 39.1852 13.5224C38.6038 13.5342 38.2516 13.1503 38.3017 12.6149C37.7477 12.6471 37.3782 12.2351 37.4798 11.6878C37.4798 11.6878 37.0918 11.7807 36.7512 11.44C36.4105 11.0994 36.5034 10.7114 36.5034 10.7114C35.9561 10.813 35.5441 10.4435 35.5763 9.88953C35.0409 9.93959 34.657 9.5874 34.6688 9.00602C34.4428 9.06368 34.1988 8.99107 33.9963 8.69605" stroke="white" stroke-width="0.290821" stroke-linecap="round" stroke-linejoin="round"/>
<path d="M38.5743 15.1128C38.3718 14.8178 38.1279 14.7452 37.9018 14.8028C37.9137 14.2214 37.5298 13.8693 36.9943 13.9193C37.0265 13.3653 36.6145 12.9958 36.0672 13.0974C36.0672 13.0974 36.1601 12.7095 35.8195 12.3688C35.4788 12.0282 35.0909 12.1211 35.0909 12.1211C35.1925 11.5738 34.823 11.1618 34.269 11.194C34.319 10.6585 33.9668 10.2746 33.3855 10.2864C33.4431 10.0604 33.3705 9.81643 33.0755 9.61396" stroke="white" stroke-width="0.290821" stroke-linecap="round" stroke-linejoin="round"/>
<path d="M34.6675 9.00638C35.7706 8.37989 37.4707 7.73916 39.0707 9.11955C38.1701 8.28407 36.4068 9.15833 35.575 9.88989" stroke="white" stroke-width="0.290821" stroke-linecap="round" stroke-linejoin="round"/>
<path d="M39.0702 9.11906C38.4193 8.89398 37.0398 10.239 36.5016 10.7113" stroke="white" stroke-width="0.290821" stroke-linecap="round" stroke-linejoin="round"/>
<path d="M39.0742 9.11914C39.2993 9.77007 37.9543 11.1495 37.482 11.6878" stroke="white" stroke-width="0.290821" stroke-linecap="round" stroke-linejoin="round"/>
<path d="M39.1874 13.5224C39.8139 12.4193 40.4546 10.7191 39.0742 9.11914C39.9097 10.0198 39.0354 11.7831 38.3039 12.6149" stroke="white" stroke-width="0.290821" stroke-linecap="round" stroke-linejoin="round"/>
<path d="M33.3867 10.2861C32.7602 11.3893 32.1195 13.0894 33.4999 14.6894C32.6644 13.7888 33.5387 12.0254 34.2702 11.1937" stroke="white" stroke-width="0.290821" stroke-linecap="round" stroke-linejoin="round"/>
<path d="M33.4976 14.6897C33.2725 14.0388 34.6176 12.6593 35.0898 12.1211" stroke="white" stroke-width="0.290821" stroke-linecap="round" stroke-linejoin="round"/>
<path d="M33.4977 14.6898C34.1486 14.9149 35.5281 13.5698 36.0663 13.0976" stroke="white" stroke-width="0.290821" stroke-linecap="round" stroke-linejoin="round"/>
<path d="M37.9027 14.8031C36.7996 15.4296 35.0995 16.0704 33.4995 14.69C34.4001 15.5254 36.1634 14.6512 36.9952 13.9196" stroke="white" stroke-width="0.290821" stroke-linecap="round" stroke-linejoin="round"/>
<path fill-rule="evenodd" clip-rule="evenodd" d="M39.2535 8.74982C39.2246 8.71688 39.192 8.68548 39.1549 8.65798C39.0761 8.59965 38.9796 8.55682 38.8605 8.54623C38.7512 8.53649 38.6449 8.51896 38.5486 8.46866C38.4426 8.41329 38.3185 8.4131 38.1957 8.40423C38.1934 8.40404 38.1911 8.40353 38.1889 8.40272C38.1665 8.39462 38.1425 8.40576 38.1343 8.42808C38.1341 8.42865 38.1338 8.42894 38.1337 8.42942C38.1336 8.42981 38.1334 8.4302 38.1333 8.43058C38.1332 8.43106 38.133 8.43183 38.1329 8.43212C38.1329 8.43257 38.1328 8.43302 38.1327 8.43346C38.1325 8.43404 38.1323 8.4354 38.132 8.43721C38.1319 8.43769 38.1321 8.43716 38.132 8.43837L38.1318 8.43856C38.1316 8.4401 38.1317 8.44072 38.1316 8.44138C38.131 8.45237 38.1346 8.46309 38.1417 8.47143C38.1428 8.47266 38.1437 8.47398 38.1445 8.47539C38.1533 8.49072 38.3775 8.8815 38.8425 9.3465C39.3061 9.81014 39.6951 10.0341 39.7125 10.0441C39.7125 10.0441 39.7164 10.0468 39.7175 10.0476C39.7253 10.054 39.7346 10.0575 39.7444 10.0576L39.7446 10.0578C39.7454 10.0578 39.7461 10.0578 39.7468 10.0578L39.7478 10.0576C39.7482 10.0576 39.7486 10.0576 39.749 10.0576L39.7492 10.0574L39.7495 10.0574C39.75 10.0573 39.7504 10.0572 39.7509 10.0572C39.7534 10.0569 39.7558 10.0565 39.7582 10.0559L39.7584 10.0557C39.7594 10.0554 39.7604 10.055 39.7612 10.0548C39.7615 10.0546 39.7617 10.0545 39.762 10.0544C39.7836 10.0456 39.7942 10.022 39.7862 10.0001C39.7854 9.99792 39.7849 9.99565 39.7847 9.99334C39.7758 9.87053 39.7757 9.74638 39.7203 9.64042C39.67 9.54413 39.6526 9.43794 39.6429 9.32864C39.6223 9.09699 39.4789 8.95114 39.3375 8.85947C39.3345 8.85752 39.332 8.85496 39.33 8.85196C39.3076 8.81741 39.2824 8.78291 39.2536 8.74997L39.2535 8.74982Z" fill="black"/>
<path d="M39.7435 10.0144C39.7332 9.88502 39.7315 9.75769 39.6807 9.66043C39.6264 9.5564 39.6085 9.44398 39.5986 9.33276C39.5788 9.11033 39.4407 8.97269 39.302 8.88579C39.2151 8.74708 39.0775 8.60897 38.8551 8.58917C38.7438 8.57927 38.6314 8.56146 38.5274 8.5071C38.4301 8.45628 38.3028 8.45461 38.1734 8.4443M38.1731 8.44413C38.1731 8.44413 38.4005 8.84586 38.8712 9.31659C39.342 9.78732 39.7437 10.0148 39.7437 10.0148" stroke="white" stroke-width="0.290821" stroke-linecap="round" stroke-linejoin="round"/>
<path d="M39.8613 8.88852C39.8246 8.9252 39.7811 8.95429 39.7332 8.97413C39.6852 8.99398 39.6339 9.0042 39.582 9.0042C39.5302 9.0042 39.4788 8.99398 39.4309 8.97414C39.383 8.95429 39.3394 8.9252 39.3028 8.88853C39.2661 8.85186 39.237 8.80832 39.2172 8.76041C39.1973 8.71249 39.1871 8.66114 39.1871 8.60928C39.1871 8.55742 39.1973 8.50606 39.2172 8.45815C39.237 8.41024 39.2661 8.3667 39.3028 8.33003C39.3768 8.25597 39.4773 8.21436 39.582 8.21436C39.6868 8.21436 39.7872 8.25597 39.8613 8.33003C39.9353 8.40409 39.9769 8.50454 39.9769 8.60928C39.9769 8.71402 39.9353 8.81446 39.8613 8.88852Z" fill="black" stroke="white" stroke-width="0.290821" stroke-linecap="round" stroke-linejoin="round"/>
<path d="M15.6763 0.0673828L20.7711 20.776L0.0625 15.6812V32.5108L20.7713 27.4157L15.6763 48.1246H32.5058L27.4104 27.4154L48.1196 32.5108V15.6812L27.4107 20.7763L32.5058 0.0673828H15.6763Z" fill="white" stroke="white" stroke-width="0.0830916"/>
<path d="M22.0251 22.0301L16.8475 0.985352H31.3346L26.1569 22.0301L47.2015 16.8524V31.3395L26.1569 26.1619L31.3346 47.2066H16.8475L22.0251 26.1619L0.980469 31.3395V16.8524L22.0251 22.0301Z" fill="black" stroke="white" stroke-width="0.0830916"/>
<path d="M24.0927 3.42969L25.7636 5.18361V38.6738H22.4219V5.18361L24.0927 3.42969Z" fill="black" stroke="white" stroke-width="0.290821" stroke-linecap="round" stroke-linejoin="round"/>
<path d="M23.0117 38.8105H25.1694L24.9824 43.2894H23.1987L23.0117 38.8105Z" fill="black" stroke="white" stroke-width="0.290821" stroke-linecap="round" stroke-linejoin="round"/>
<path fill-rule="evenodd" clip-rule="evenodd" d="M25.1427 39.0961C25.1343 39.0959 25.1259 39.0974 25.118 39.1003L23.0547 39.8347L23.0605 39.9768C23.0616 39.9764 23.0627 39.976 23.0637 39.9755L25.152 39.2323L25.1576 39.0976C25.1527 39.0964 25.1477 39.0958 25.1427 39.0957L25.1427 39.0961ZM25.126 39.8568C25.1233 39.8575 25.1206 39.8583 25.118 39.8593L23.086 40.5825L23.0919 40.7246L25.1199 40.003L25.126 39.8568ZM25.0938 40.6268L23.1171 41.3299L23.123 41.4723L25.0877 40.7732L25.0938 40.6268ZM25.0614 41.3971L23.1485 42.0776L23.1543 42.2203L25.0553 41.5435L25.0614 41.3971ZM25.0293 42.1672L23.1795 42.8256L23.1854 42.9677L25.0232 42.3138L25.0293 42.1672Z" fill="white"/>
<path d="M24.0938 6.80273V38.7086" stroke="white" stroke-width="0.290821" stroke-linecap="round" stroke-linejoin="round"/>
<path d="M20.25 37.5293V38.91C20.25 38.9571 20.2879 38.995 20.335 38.995H27.8488C27.8959 38.995 27.9338 38.9571 27.9338 38.91V37.5293L24.0919 38.1498L20.25 37.5293Z" fill="black" stroke="white" stroke-width="0.290821" stroke-linecap="round" stroke-linejoin="round"/>
<path fill-rule="evenodd" clip-rule="evenodd" d="M22.2656 43.0635C22.2656 43.0635 22.7813 44.7634 24.0888 44.7634C25.3963 44.7634 25.912 43.0635 25.912 43.0635C25.912 43.0635 25.3205 43.259 24.0888 43.259C22.8571 43.259 22.2656 43.0635 22.2656 43.0635Z" fill="black" stroke="white" stroke-width="0.290821" stroke-linecap="round" stroke-linejoin="round"/>
<path d="M33.6938 24.096C33.6938 26.6433 32.6819 29.0863 30.8807 30.8875C29.0794 32.6888 26.6364 33.7007 24.0891 33.7007C21.5418 33.7007 19.0988 32.6888 17.2975 30.8875C15.4963 29.0863 14.4844 26.6433 14.4844 24.096C14.4844 22.8347 14.7328 21.5857 15.2155 20.4204C15.6982 19.2551 16.4057 18.1963 17.2975 17.3044C18.1894 16.4125 19.2482 15.705 20.4135 15.2223C21.5788 14.7396 22.8278 14.4912 24.0891 14.4912C25.3504 14.4912 26.5994 14.7396 27.7647 15.2223C28.93 15.705 29.9888 16.4125 30.8807 17.3044C31.7725 18.1963 32.48 19.2551 32.9627 20.4204C33.4454 21.5857 33.6938 22.8347 33.6938 24.096Z" fill="black" stroke="white" stroke-width="0.290821"/>
<path d="M32.7041 24.0962C32.7041 26.3807 31.7966 28.5717 30.1812 30.1871C28.5658 31.8025 26.3748 32.71 24.0903 32.71C21.8058 32.71 19.6149 31.8025 17.9995 30.1871C16.3841 28.5717 15.4766 26.3807 15.4766 24.0962C15.4766 21.8117 16.3841 19.6207 17.9995 18.0053C19.6149 16.3899 21.8058 15.4824 24.0903 15.4824C26.3748 15.4824 28.5658 16.3899 30.1812 18.0053C31.7966 19.6207 32.7041 21.8117 32.7041 24.0962Z" fill="white" stroke="white" stroke-width="0.270599"/>
<path d="M24.0937 16.8564C23.7563 17.2393 23.5508 17.7404 23.5508 18.2905C23.5707 19.4983 23.7189 20.7036 23.7317 21.911C23.7585 23.0363 23.421 24.0931 23.0106 25.1241C22.8739 25.409 22.7259 25.6879 22.5779 25.967L22.1424 25.8794C21.7506 25.801 21.4957 25.4199 21.574 25.028C21.6426 24.685 21.9444 24.4469 22.281 24.4453L22.4394 24.4623L22.0859 21.5093C21.9703 20.1944 21.2921 19.0409 20.293 18.2905C20.1213 18.1615 19.9394 18.0436 19.75 17.9398V28.4278H22.1707C22.3517 29.4106 22.8925 30.2667 23.6525 30.8547C23.8333 30.9793 23.9848 31.1437 24.0937 31.3355C24.2026 31.1437 24.3541 30.9793 24.5349 30.8547C25.2949 30.2667 25.8357 29.4106 26.0167 28.4278H28.4374V17.9398C28.2481 18.0436 28.0661 18.1615 27.8945 18.2905C26.8954 19.0409 26.2171 20.1944 26.1015 21.5093L25.7481 24.4623L25.9064 24.4453C26.2431 24.4469 26.5448 24.685 26.6134 25.028C26.6917 25.4199 26.4369 25.801 26.045 25.8794L25.6095 25.967C25.4615 25.6879 25.3136 25.409 25.1768 25.1241C24.7664 24.0931 24.4289 23.0363 24.4557 21.911C24.4686 20.7036 24.6167 19.4983 24.6367 18.2905C24.6367 17.7404 24.4311 17.2393 24.0937 16.8564ZM20.474 19.4502C20.9425 20.0001 21.2569 20.6854 21.3506 21.4386L21.6419 23.874C21.271 24.0586 20.9898 24.3975 20.884 24.8074H20.474V19.4502ZM27.7135 19.4502V24.8074H27.3034C27.1976 24.3975 26.9164 24.0586 26.5455 23.874L26.8368 21.4386C26.9306 20.6854 27.245 20.0001 27.7135 19.4502ZM24.0937 24.3463C24.2882 24.9825 24.5557 25.5866 24.8884 26.1481C24.572 26.2442 24.2966 26.4312 24.0937 26.6826C23.8908 26.4312 23.6154 26.2442 23.2991 26.1481C23.6317 25.5866 23.8992 24.9825 24.0937 24.3463ZM20.474 25.5315H20.884C21.0133 26.0312 21.4034 26.426 21.8992 26.5639L22.2471 26.6431C22.1539 26.9808 22.1028 27.3366 22.1028 27.7037H20.474V25.5315ZM27.3034 25.5315H27.7135V27.7037H26.0846C26.0846 27.3366 26.0335 26.9808 25.9404 26.6431L26.2882 26.5639C26.7841 26.426 27.1741 26.0312 27.3034 25.5315ZM22.954 26.8099C23.3932 26.872 23.7317 27.2474 23.7317 27.7037H22.8268C22.8268 27.3934 22.8728 27.0942 22.954 26.8099ZM25.2334 26.8099C25.3147 27.0942 25.3606 27.3934 25.3606 27.7037H24.4557C24.4557 27.2474 24.7942 26.872 25.2334 26.8099ZM22.9088 28.4278H23.7317V29.9524C23.3324 29.5348 23.0422 29.0104 22.9088 28.4278ZM24.4557 28.4278H25.2786C25.1452 29.0104 24.8551 29.5348 24.4557 29.9524V28.4278Z" fill="black"/>
</g>
<defs>
<clipPath id="clip0_1005_123">
<rect width="48.1931" height="48.1932" fill="white"/>
</clipPath>
</defs>
</svg>
