<svg width="198" height="54" viewBox="0 0 198 54" fill="none" xmlns="http://www.w3.org/2000/svg">
<path d="M33.0492 20.5655C33.0492 26.1965 33.0492 31.8275 33.0492 37.4585C33.065 38.3938 32.8802 39.3216 32.5073 40.1795C31.918 41.4978 30.9926 42.5156 29.694 43.1471C28.5286 43.714 27.3342 44.2176 26.1504 44.7462C23.7132 45.8343 21.2739 46.9219 18.8324 48.0091C18.1956 48.2912 17.5562 48.5641 16.9248 48.8567C16.7981 48.9184 16.6587 48.9494 16.5178 48.9471C16.3769 48.9448 16.2386 48.9093 16.114 48.8436C13.3895 47.6228 10.6597 46.4095 7.92458 45.2037C6.6669 44.646 5.41054 44.0857 4.14891 43.5386C3.21026 43.1326 2.3428 42.6316 1.64409 41.8617C0.621601 40.7607 0.0381327 39.3232 0.00410145 37.821C-0.00512681 37.4743 0.00410145 37.1263 0.00410145 36.7782V3.36788C0.00410145 3.20969 0.00410145 3.05149 0.00410145 2.89329C0.018603 2.58348 0.0528776 2.55447 0.377185 2.54129C0.440464 2.54129 0.509017 2.54129 0.567024 2.54129H32.3636C33.0979 2.54129 33.0544 2.5057 33.0544 3.24396L33.0492 20.5655ZM16.4976 46.348C16.5504 46.3256 16.5899 46.3216 16.6044 46.3005C16.9999 45.7112 17.5365 45.2801 18.0757 44.8358C19.994 43.2757 21.3389 41.1219 21.8988 38.7135C22.0596 38.0544 22.0886 38.1506 22.6199 38.1493C24.5328 38.1493 26.443 38.1493 28.3599 38.1493C28.9294 38.1493 28.932 38.1493 28.932 37.5679V8.80862C28.932 8.69788 28.932 8.58714 28.932 8.4764C28.9189 8.3182 28.8529 8.27338 28.7158 8.3327C28.6145 8.37719 28.5167 8.42919 28.4232 8.48826C27.8142 8.85984 27.2362 9.28 26.6948 9.74463C24.0582 12.0438 22.5988 14.9533 22.2271 18.4232C22.1229 19.3961 22.0161 20.3703 21.8988 21.342C21.7274 22.7697 21.5455 24.1948 21.3715 25.6212C21.3319 25.935 21.2924 26.2488 21.2726 26.5625C21.2607 26.7708 21.3227 26.8262 21.5218 26.8011C21.853 26.7603 22.1889 26.8142 22.4907 26.9567C22.8754 27.1195 23.201 27.3964 23.4235 27.7499C23.6461 28.1035 23.7549 28.5167 23.7354 28.934C23.7158 29.3513 23.5689 29.7526 23.3143 30.0838C23.0597 30.415 22.7097 30.6603 22.3114 30.7864C21.9471 30.8898 21.5768 30.9712 21.2027 31.0303C20.8507 31.0936 20.8468 31.0831 20.6754 30.7825C19.8565 29.3007 19.1887 27.7403 18.6821 26.1248C18.1548 24.4796 17.7144 22.8145 17.6274 21.0809C17.5826 20.1502 17.5694 19.2168 17.5879 18.2861C17.605 17.4186 17.6854 16.5511 17.7368 15.6837C17.7777 14.9903 17.8146 14.2955 17.8568 13.6021C17.9161 12.6397 18.0124 11.6799 18.0256 10.7176C18.0348 10.0254 18.1244 9.33595 18.0559 8.63724C17.9661 7.73802 17.6876 6.86787 17.2385 6.08364C17.0647 5.80079 16.8745 5.52831 16.669 5.26759C16.6568 5.24689 16.6398 5.22944 16.6194 5.21674C16.599 5.20404 16.5758 5.19646 16.5519 5.19464C16.5279 5.19283 16.5039 5.19684 16.4818 5.20633C16.4597 5.21582 16.4403 5.2305 16.4251 5.24914C16.3777 5.29233 16.3337 5.33905 16.2933 5.38888C15.4891 6.41454 15.0185 7.56807 14.9934 8.87981C14.9734 10.3501 15.0319 11.8203 15.1688 13.2843C15.2544 14.2744 15.3151 15.2684 15.3652 16.2624C15.4153 17.209 15.4377 18.1569 15.472 19.1047C15.5454 20.877 15.3449 22.6499 14.8774 24.3609C14.5808 25.4261 14.2103 26.4702 13.8715 27.5249C13.4919 28.7114 12.8657 29.7753 12.3185 30.88C12.2959 30.9479 12.2478 31.0044 12.1843 31.0376C12.1209 31.0707 12.0471 31.0781 11.9784 31.058C11.5829 30.971 11.1677 30.917 10.7735 30.8036C10.3374 30.6797 9.95494 30.4141 9.6864 30.0489C9.41786 29.6836 9.27851 29.2394 9.29029 28.7862C9.30207 28.333 9.46432 27.8966 9.75148 27.5458C10.0386 27.195 10.4344 26.9497 10.8763 26.8486C11.1027 26.7744 11.3436 26.755 11.579 26.7919C11.602 26.799 11.6265 26.8002 11.6502 26.7953C11.6738 26.7904 11.6958 26.7797 11.7142 26.764C11.7326 26.7484 11.7468 26.7284 11.7554 26.7058C11.764 26.6833 11.7668 26.6589 11.7635 26.635C11.7625 26.4614 11.7515 26.288 11.7306 26.1156C11.6172 25.1427 11.5012 24.1706 11.3825 23.1995C11.3021 22.5403 11.2204 21.8811 11.1413 21.222C11.0319 20.3123 10.9053 19.404 10.8209 18.4917C10.7365 17.4701 10.5334 16.4619 10.2158 15.4873C9.25748 12.5721 7.28727 10.0964 4.66173 8.50804C4.52067 8.42103 4.31765 8.29183 4.20427 8.33666C4.03157 8.40521 4.11726 8.64646 4.11726 8.81257C4.11726 18.3986 4.11726 27.9837 4.11726 37.5679C4.11726 38.144 4.11726 38.1467 4.68941 38.1467C6.55616 38.1467 8.42246 38.1467 10.2883 38.1467C11.111 38.1467 10.9976 38.0596 11.2112 38.8849C11.8571 41.4135 13.2282 43.4648 15.2755 45.0692C15.696 45.3793 16.0629 45.756 16.3618 46.1845C16.4034 46.2419 16.4488 46.2966 16.4976 46.348Z" fill="white"/>
<path d="M44.3558 13.7866V24.6448C44.3558 24.7852 44.3558 24.9129 44.3558 25.0477C44.3558 25.591 44.3558 25.5938 43.8664 25.598C43.3598 25.598 42.8532 25.598 42.3479 25.598C42.0326 25.598 42.0036 25.5517 41.9904 25.212C41.9904 25.1109 41.9904 25.0098 41.9904 24.9087C41.9904 17.5033 41.9904 10.0965 41.9904 2.68828C41.9904 1.96244 41.9178 2.00034 42.6223 2.00034C43.1131 2.00034 43.6039 2.00034 44.0933 2.00034C44.307 2.00034 44.34 2.04808 44.3572 2.2699C44.3664 2.42012 44.3572 2.57315 44.3572 2.72478L44.3558 13.7866Z" fill="white"/>
<path d="M44.224 36.7538V36.7538L44.3558 36.7538L44.3572 25.2224C44.3572 25.1697 44.3582 25.1168 44.3592 25.064C44.3613 24.9583 44.3633 24.8526 44.3572 24.7482C44.34 24.5169 44.307 24.4672 44.0933 24.4672H42.6223C42.2832 24.4672 42.1242 24.458 42.0504 24.5329C41.9709 24.6136 41.9904 24.7918 41.9904 25.1843V48.3482L44.224 36.7538ZM44.224 36.7538V48.073V48.0739V48.0748V48.0756V48.0765V48.0773V48.0782V48.079V48.0799V48.0807V48.0816V48.0825V48.0833V48.0842V48.085V48.0859V48.0867V48.0876V48.0884V48.0893V48.0901V48.091V48.0918V48.0927V48.0935V48.0944V48.0952V48.0961V48.0969V48.0978V48.0986V48.0995V48.1003V48.1012V48.102V48.1029V48.1037V48.1046V48.1054V48.1063V48.1071V48.108V48.1088V48.1096V48.1105V48.1113V48.1122V48.113V48.1139V48.1147V48.1156V48.1164V48.1172V48.1181V48.1189V48.1198V48.1206V48.1215V48.1223V48.1231V48.124V48.1248V48.1257V48.1265V48.1273V48.1282V48.129V48.1299V48.1307V48.1315V48.1324V48.1332V48.1341V48.1349V48.1357V48.1366V48.1374V48.1382V48.1391V48.1399V48.1408V48.1416V48.1424V48.1433V48.1441V48.1449V48.1458V48.1466V48.1474V48.1483V48.1491V48.1499V48.1508V48.1516V48.1524V48.1533V48.1541V48.1549V48.1558V48.1566V48.1574V48.1583V48.1591V48.1599V48.1608V48.1616V48.1624V48.1633V48.1641V48.1649V48.1657V48.1666V48.1674V48.1682V48.1691V48.1699V48.1707V48.1716V48.1724V48.1732V48.174V48.1749V48.1757V48.1765V48.1773V48.1782V48.179V48.1798V48.1807V48.1815V48.1823V48.1831V48.184V48.1848V48.1856V48.1864V48.1873V48.1881V48.1889V48.1897V48.1906V48.1914V48.1922V48.193V48.1939V48.1947V48.1955V48.1963V48.1971V48.198V48.1988V48.1996V48.2004V48.2013V48.2021V48.2029V48.2037V48.2045V48.2054V48.2062V48.207V48.2078V48.2087V48.2095V48.2103V48.2111V48.2119V48.2128V48.2136V48.2144V48.2152V48.216V48.2169V48.2177V48.2185V48.2193V48.2201V48.2209V48.2218V48.2226V48.2234V48.2242V48.225V48.2259V48.2267V48.2275V48.2283V48.2291V48.2299V48.2308V48.2316V48.2324V48.2332V48.234V48.2348V48.2357V48.2365V48.2373V48.2381V48.2389V48.2397V48.2406V48.2414V48.2422V48.243V48.2438V48.2446V48.2454V48.2463V48.2471V48.2479V48.2487V48.2495V48.2503V48.2511V48.252V48.2528V48.2536V48.2544V48.2552V48.256V48.2568V48.2577V48.2585V48.2593V48.2601V48.2609V48.2617V48.2625V48.2633V48.2642V48.265V48.2658V48.2666V48.2674V48.2682V48.269V48.2698V48.2707V48.2715V48.2723V48.2731V48.2739V48.2747V48.2755V48.2763V48.2771V48.278V48.2788V48.2796V48.2804V48.2812V48.282V48.2828V48.2836V48.2844V48.2853V48.2861V48.2869V48.2877V48.2885V48.2893V48.2901V48.2909V48.2917V48.2925V48.2934V48.2942V48.295V48.2958V48.2966V48.2974V48.2982V48.299V48.2998V48.3006V48.3015V48.3023V48.3031V48.3039V48.3047V48.3055V48.3063V48.3071V48.3079V48.3087V48.3095V48.3104V48.3112V48.312V48.3128V48.3136V48.3144V48.3152V48.316V48.3168V48.3176V48.3184V48.3192V48.3201V48.3209V48.3217V48.3225V48.3233V48.3241V48.3249V48.3257V48.3265V48.3273V48.3281V48.3289V48.3298V48.3306V48.3314V48.3322V48.333V48.3338V48.3346V48.3354V48.3362V48.337V48.3378V48.3386V48.3394V48.3403V48.3411V48.3419V48.3427V48.3435V48.3443V48.3451V48.3459V48.3467V48.3475V48.3483V48.3491V48.35V48.3508V48.3516V48.3524V48.3532V48.354V48.3548V48.3556V48.3564V48.3572V48.358V48.3588V48.3596V48.3605V48.3613V48.3621V48.3629V48.3637V48.3645V48.3653V48.3661V48.3669V48.3677V48.3685V48.3693V48.3702V48.371V48.3718V48.3726V48.3734V48.3742V48.375V48.3758V48.3766V48.3774V48.3782V48.379V48.3799V48.3807V48.3815V48.3823V48.3831V48.3839V48.3847V48.3855V48.3863V48.3871V48.3879V48.3888V48.3896V48.3904V48.3912V48.392V48.3928V48.3936V48.3944V48.3952V48.396V48.3969V48.3977V48.3985V48.3993V48.4001V48.4009V48.4017V48.4025V48.4033V48.4041V48.405V48.4058V48.4066V48.4074V48.4082V48.409V48.4098V48.4106V48.4114V48.4123V48.4131V48.4139V48.4147V48.4155V48.4163V48.4171V48.4179V48.4187V48.4196V48.4204V48.4212V48.422V48.4228V48.4236V48.4244V48.4252V48.4261V48.4269V48.4277V48.4285V48.4293V48.4301V48.4309V48.4317V48.4326V48.4334V48.4342V48.435V48.4358V48.4366V48.4374V48.4383V48.4391V48.4399V48.4407V48.4415V48.4423V48.4431V48.444V48.4448V48.4456V48.4464V48.4472V48.448V48.4488V48.4497V48.4505V48.4513V48.4521V48.4529V48.4537V48.4546V48.4554V48.4562V48.457V48.4578V48.4586V48.4595V48.4603V48.4611V48.4619V48.4627V48.4635V48.4644V48.4652V48.466V48.4668V48.4676V48.4685V48.4693V48.4701V48.4709V48.4717V48.4726V48.4734V48.4742V48.475V48.4758V48.4766V48.4775V48.4783V48.4791V48.4799V48.4808V48.4816V48.4824V48.4832V48.484V48.4849V48.4857V48.4865V48.4873V48.4881V48.489V48.4898V48.4906V48.4914V48.4923V48.4931C44.224 48.6374 44.2239 48.7363 44.217 48.8085C44.2098 48.883 44.1973 48.9017 44.1941 48.9054L44.1941 48.9054C44.1935 48.9061 44.1916 48.9084 44.184 48.9117C44.1748 48.9157 44.1587 48.9205 44.1309 48.9244C44.0728 48.9326 43.9914 48.9338 43.8658 48.935H43.8634H43.8605H43.8575H43.8545H43.8516H43.8486H43.8456H43.8426H43.8397H43.8367H43.8337H43.8308H43.8278H43.8248H43.8219H43.8189H43.8159H43.813H43.81H43.807H43.8041H43.8011H43.7981H43.7952H43.7922H43.7892H43.7862H43.7833H43.7803H43.7773H43.7744H43.7714H43.7684H43.7655H43.7625H43.7595H43.7566H43.7536H43.7506H43.7477H43.7447H43.7417H43.7388H43.7358H43.7328H43.7299H43.7269H43.7239H43.7209H43.718H43.715H43.712H43.7091H43.7061H43.7031H43.7002H43.6972H43.6942H43.6913H43.6883H43.6853H43.6824H43.6794H43.6764H43.6735H43.6705H43.6675H43.6645H43.6616H43.6586H43.6556H43.6527H43.6497H43.6467H43.6438H43.6408H43.6378H43.6349H43.6319H43.6289H43.626H43.623H43.62H43.6171H43.6141H43.6111H43.6082H43.6052H43.6022H43.5993H43.5963H43.5933H43.5903H43.5874H43.5844H43.5814H43.5785H43.5755H43.5725H43.5696H43.5666H43.5636H43.5607H43.5577H43.5547H43.5518H43.5488H43.5458H43.5429H43.5399H43.5369H43.534H43.531H43.528H43.525H43.5221H43.5191H43.5161H43.5132H43.5102H43.5072H43.5043H43.5013H43.4983H43.4954H43.4924H43.4894H43.4865H43.4835H43.4805H43.4776H43.4746H43.4716H43.4687H43.4657H43.4627H43.4598H43.4568H43.4538H43.4509H43.4479H43.4449H43.4419H43.439H43.436H43.433H43.4301H43.4271H43.4241H43.4212H43.4182H43.4152H43.4123H43.4093H43.4063H43.4034H43.4004H43.3974H43.3945H43.3915H43.3885H43.3856H43.3826H43.3796H43.3767H43.3737H43.3707H43.3678H43.3648H43.3618H43.3589H43.3559H43.3529H43.35H43.347H43.344H43.3411H43.3381H43.3351H43.3321H43.3292H43.3262H43.3232H43.3203H43.3173H43.3143H43.3114H43.3084H43.3054H43.3025H43.2995H43.2965H43.2936H43.2906H43.2876H43.2847H43.2817H43.2787H43.2758H43.2728H43.2698H43.2669H43.2639H43.2609H43.258H43.255H43.252H43.2491H43.2461H43.2431H43.2402H43.2372H43.2342H43.2313H43.2283H43.2253H43.2224H43.2194H43.2164H43.2135H43.2105H43.2075H43.2046H43.2016H43.1986H43.1957H43.1927H43.1897H43.1868H43.1838H43.1808H43.1779H43.1749H43.1719H43.169H43.166H43.163H43.1601H43.1571H43.1541H43.1512H43.1482H43.1452H43.1423H43.1393H43.1363H43.1334H43.1304H43.1274H43.1245H43.1215H43.1185H43.1156H43.1126H43.1096H43.1067H43.1037H43.1007H43.0978H43.0948H43.0918H43.0889H43.0859H43.0829H43.08H43.077H43.074H43.0711H43.0681H43.0651H43.0622H43.0592H43.0562H43.0533H43.0503H43.0473H43.0444H43.0414H43.0384H43.0355H43.0325H43.0295H43.0266H43.0236H43.0206H43.0177H43.0147H43.0117H43.0088H43.0058H43.0028H42.9999H42.9969H42.994H42.991H42.988H42.9851H42.9821H42.9791H42.9762H42.9732H42.9702H42.9673H42.9643H42.9613H42.9584H42.9554H42.9524H42.9495H42.9465H42.9435H42.9406H42.9376H42.9346H42.9317H42.9287H42.9257H42.9228H42.9198H42.9168H42.9139H42.9109H42.9079H42.905H42.902H42.8991H42.8961H42.8931H42.8902H42.8872H42.8842H42.8813H42.8783H42.8753H42.8724H42.8694H42.8664H42.8635H42.8605H42.8575H42.8546H42.8516H42.8486H42.8457H42.8427H42.8398H42.8368H42.8338H42.8309H42.8279H42.8249H42.822H42.819H42.816H42.8131H42.8101H42.8071H42.8042H42.8012H42.7982H42.7953H42.7923H42.7894H42.7864H42.7834H42.7805H42.7775H42.7745H42.7716H42.7686H42.7656H42.7627H42.7597H42.7567H42.7538H42.7508H42.7479H42.7449H42.7419H42.739H42.736H42.733H42.7301H42.7271H42.7241H42.7212H42.7182H42.7153H42.7123H42.7093H42.7064H42.7034H42.7004H42.6975H42.6945H42.6915H42.6886H42.6856H42.6826H42.6797H42.6767H42.6738H42.6708H42.6678H42.6649H42.6619H42.6589H42.656H42.653H42.6501H42.6471H42.6441H42.6412H42.6382H42.6352H42.6323H42.6293H42.6263H42.6234H42.6204H42.6175H42.6145H42.6115H42.6086H42.6056H42.6026H42.5997H42.5967H42.5938H42.5908H42.5878H42.5849H42.5819H42.5789H42.576H42.573H42.57H42.5671H42.5641H42.5612H42.5582H42.5552H42.5523H42.5493H42.5463H42.5434H42.5404H42.5375H42.5345H42.5315H42.5286H42.5256H42.5226H42.5197H42.5167H42.5138H42.5108H42.5078H42.5049H42.5019H42.499H42.496H42.493H42.4901H42.4871H42.4841H42.4812H42.4782H42.4753H42.4723H42.4693H42.4664H42.4634H42.4604H42.4575H42.4545H42.4516H42.4486H42.4456H42.4427H42.4397H42.4368H42.4338H42.4308H42.4279H42.4249H42.4219H42.419H42.416H42.4131H42.4101H42.4071H42.4042H42.4012H42.3983H42.3953H42.3923H42.3894H42.3864H42.3835H42.3805H42.3775H42.3746H42.3716H42.3686H42.3657H42.3627H42.3598H42.3568H42.3538H42.3509H42.3479C42.2699 48.935 42.221 48.9317 42.1883 48.9248C42.1731 48.9215 42.1649 48.9181 42.1608 48.916C42.1573 48.9142 42.1564 48.9131 42.1559 48.9126C42.1542 48.9105 42.1451 48.8985 42.1373 48.8539C42.1296 48.8099 42.1255 48.7494 42.1222 48.6618M44.224 36.7538L42.1222 48.6618M42.1222 48.6618V48.6612V48.6606V48.66V48.6594V48.6588V48.6581V48.6575V48.6569V48.6563V48.6557V48.6551V48.6544V48.6538V48.6532V48.6526V48.652V48.6514V48.6507V48.6501V48.6495V48.6489V48.6483V48.6476V48.647V48.6464V48.6458V48.6452V48.6446V48.6439V48.6433V48.6427V48.6421V48.6415V48.6409V48.6402V48.6396V48.639V48.6384V48.6378V48.6371V48.6365V48.6359V48.6353V48.6347V48.6341V48.6334V48.6328V48.6322V48.6316V48.631V48.6304V48.6297V48.6291V48.6285V48.6279V48.6273V48.6267V48.626V48.6254V48.6248V48.6242V48.6236V48.6229V48.6223V48.6217V48.6211V48.6205V48.6199V48.6192V48.6186V48.618V48.6174V48.6168V48.6162V48.6155V48.6149V48.6143V48.6137V48.6131V48.6125V48.6118V48.6112V48.6106V48.61V48.6094V48.6087V48.6081V48.6075V48.6069V48.6063V48.6057V48.605V48.6044V48.6038V48.6032V48.6026V48.602V48.6013V48.6007V48.6001V48.5995V48.5989V48.5982V48.5976V48.597V48.5964V48.5958V48.5952V48.5945V48.5939V48.5933V48.5927V48.5921V48.5915V48.5908V48.5902V48.5896V48.589V48.5884V48.5878V48.5871V48.5865V48.5859V48.5853V48.5847V48.584V48.5834V48.5828V48.5822V48.5816V48.581V48.5803V48.5797V48.5791V48.5785V48.5779V48.5773V48.5766V48.576V48.5754V48.5748V48.5742V48.5736V48.5729V48.5723V48.5717V48.5711V48.5705V48.5698V48.5692V48.5686V48.568V48.5674V48.5668V48.5661V48.5655V48.5649V48.5643V48.5637V48.5631V48.5624V48.5618V48.5612V48.5606V48.56V48.5594V48.5587V48.5581V48.5575V48.5569V48.5563V48.5556V48.555V48.5544V48.5538V48.5532V48.5526V48.5519V48.5513V48.5507V48.5501V48.5495V48.5489V48.5482V48.5476V48.547V48.5464V48.5458V48.5452V48.5445V48.5439V48.5433V48.5427V48.5421V48.5414V48.5408V48.5402V48.5396V48.539V48.5384V48.5377V48.5371V48.5365V48.5359V48.5353V48.5347V48.534V48.5334V48.5328V48.5322V48.5316V48.531V48.5303V48.5297V48.5291V48.5285V48.5279V48.5272V48.5266V48.526V48.5254V48.5248V48.5242V48.5235V48.5229V48.5223V48.5217V48.5211V48.5205V48.5198V48.5192V48.5186V48.518V48.5174V48.5167V48.5161V48.5155V48.5149V48.5143V48.5137V48.513V48.5124V48.5118V48.5112V48.5106V48.51V48.5093V48.5087V48.5081V48.5075V48.5069V48.5063V48.5056V48.505V48.5044V48.5038V48.5032V48.5025V48.5019V48.5013V48.5007V48.5001V48.4995V48.4988V48.4982V48.4976V48.497V48.4964V48.4958V48.4951V48.4945V48.4939V48.4933V48.4927V48.4921V48.4914V48.4908V48.4902V48.4896V48.489V48.4883V48.4877V48.4871V48.4865V48.4859V48.4853V48.4846V48.484V48.4834V48.4828V48.4822V48.4816V48.4809V48.4803V48.4797V48.4791V48.4785V48.4778V48.4772V48.4766V48.476V48.4754V48.4748V48.4741V48.4735V48.4729V48.4723V48.4717V48.4711V48.4704V48.4698V48.4692V48.4686V48.468V48.4674V48.4667V48.4661V48.4655V48.4649V48.4643V48.4636V48.463V48.4624V48.4618V48.4612V48.4606V48.4599V48.4593V48.4587V48.4581V48.4575V48.4569V48.4562V48.4556V48.455V48.4544V48.4538V48.4532V48.4525V48.4519V48.4513V48.4507V48.4501V48.4494V48.4488V48.4482V48.4476V48.447V48.4464V48.4457V48.4451V48.4445V48.4439V48.4433V48.4427V48.442V48.4414V48.4408V48.4402V48.4396V48.439V48.4383V48.4377V48.4371V48.4365V48.4359V48.4352V48.4346V48.434V48.4334V48.4328V48.4322V48.4315V48.4309V48.4303V48.4297V48.4291V48.4285V48.4278V48.4272V48.4266V48.426V48.4254V48.4248V48.4241V48.4235V48.4229V48.4223V48.4217V48.421V48.4204V48.4198V48.4192V48.4186V48.418V48.4173V48.4167V48.4161V48.4155V48.4149V48.4143V48.4136V48.413V48.4124V48.4118V48.4112V48.4105V48.4099V48.4093V48.4087V48.4081V48.4075V48.4068V48.4062V48.4056V48.405V48.4044V48.4038V48.4031V48.4025V48.4019V48.4013V48.4007V48.4001V48.3994V48.3988V48.3982V48.3976V48.397V48.3963V48.3957V48.3951V48.3945V48.3939V48.3933V48.3926V48.392V48.3914V48.3908V48.3902V48.3896V48.3889V48.3883V48.3877V48.3871V48.3865V48.3859V48.3852V48.3846V48.384V48.3834V48.3828V48.3821V48.3815V48.3809V48.3803V48.3797V48.3791V48.3784V48.3778V48.3772V48.3766V48.376V48.3754V48.3747V48.3741V48.3735V48.3729V48.3723V48.3717V48.371V48.3704V48.3698V48.3692V48.3686V48.3679V48.3673V48.3667V48.3661V48.3655V48.3649V48.3642V48.3636V48.363V48.3624V48.3618V48.3612V48.3605V48.3599V48.3593V48.3587V48.3581V48.3575V48.3568V48.3562V48.3556V48.355V48.3544V48.3537V48.3531V48.3525V48.3519V48.3513V48.3507V48.35V48.3494V48.3488V48.3482V48.303V48.2577V48.2125V48.1673V48.122V48.0768V48.0316V47.9863V47.9411V47.8959V47.8506V47.8054V47.7602V47.7149V47.6697V47.6245V47.5792V47.534V47.4887V47.4435V47.3983V47.353V47.3078V47.2626V47.2173V47.1721V47.1269V47.0816V47.0364V46.9912V46.9459V46.9007V46.8555V46.8102V46.765V46.7198V46.6745V46.6293V46.5841V46.5388V46.4936V46.4484V46.4031V46.3579V46.3127V46.2674V46.2222V46.1769V46.1317V46.0865V46.0412V45.996V45.9508V45.9055V45.8603V45.8151V45.7698V45.7246V45.6794V45.6341V45.5889V45.5437V45.4984V45.4532V45.4079V45.3627V45.3175V45.2722V45.227V45.1818V45.1365V45.0913V45.0461V45.0008V44.9556V44.9104V44.8651V44.8199V44.7746V44.7294V44.6842V44.6389V44.5937V44.5485V44.5032V44.458V44.4128V44.3675V44.3223V44.277V44.2318V44.1866V44.1413V44.0961V44.0509V44.0056V43.9604V43.9152V43.8699V43.8247V43.7794V43.7342V43.689V43.6437V43.5985V43.5533V43.508V43.4628V43.4176V43.3723V43.3271V43.2818V43.2366V43.1914V43.1461V43.1009V43.0557V43.0104V42.9652V42.9199V42.8747V42.8295V42.7842V42.739V42.6938V42.6485V42.6033V42.558V42.5128V42.4676V42.4223V42.3771V42.3319V42.2866V42.2414V42.1961V42.1509V42.1057V42.0604V42.0152V41.9699V41.9247V41.8795V41.8342V41.789V41.7438V41.6985V41.6533V41.608V41.5628V41.5176V41.4723V41.4271V41.3818V41.3366V41.2914V41.2461V41.2009V41.1557V41.1104V41.0652V41.0199V40.9747V40.9295V40.8842V40.839V40.7937V40.7485V40.7033V40.658V40.6128V40.5676V40.5223V40.4771V40.4318V40.3866V40.3414V40.2961V40.2509V40.2056V40.1604V40.1152V40.0699V40.0247V39.9794V39.9342V39.889V39.8437V39.7985V39.7532V39.708V39.6628V39.6175V39.5723V39.527V39.4818V39.4366V39.3913V39.3461V39.3008V39.2556V39.2104V39.1651V39.1199V39.0746V39.0294V38.9842V38.9389V38.8937V38.8484V38.8032V38.758V38.7127V38.6675V38.6222V38.577V38.5318V38.4865V38.4413V38.396V38.3508V38.3056V38.2603V38.2151V38.1698V38.1246V38.0793V38.0341V37.9889V37.9436V37.8984V37.8531V37.8079V37.7627V37.7174V37.6722V37.6269V37.5817V37.5365V37.4912V37.446V37.4007V37.3555V37.3102V37.265V37.2198V37.1745V37.1293V37.084V37.0388V36.9936V36.9483V36.9031V36.8578V36.8126V36.7673V36.7221V36.6769V36.6316V36.5864V36.5411V36.4959V36.4506V36.4054V36.3602V36.3149V36.2697V36.2244V36.1792V36.134V36.0887V36.0435V35.9982V35.953V35.9077V35.8625V35.8173V35.772V35.7268V35.6815V35.6363V35.591V35.5458V35.5006V35.4553V35.4101V35.3648V35.3196V35.2743V35.2291V35.1839V35.1386V35.0934V35.0481V35.0029V34.9576V34.9124V34.8672V34.8219V34.7767V34.7314V34.6862V34.6409V34.5957V34.5504V34.5052V34.46V34.4147V34.3695V34.3242V34.279V34.2337V34.1885V34.1433V34.098V34.0528V34.0075V33.9623V33.917V33.8718V33.8265V33.7813V33.7361V33.6908V33.6456V33.6003V33.5551V33.5098V33.4646V33.4193V33.3741V33.3289V33.2836V33.2384V33.1931V33.1479V33.1026V33.0574V33.0121V32.9669V32.9217V32.8764V32.8312V32.7859V32.7407V32.6954V32.6502V32.6049V32.5597V32.5145V32.4692V32.424V32.3787V32.3335V32.2882V32.243V32.1977V32.1525V32.1072V32.062V32.0168V31.9715V31.9263V31.881V31.8358V31.7905V31.7453V31.7V31.6548V31.6095V31.5643V31.519V31.4738V31.4286V31.3833V31.3381V31.2928V31.2476V31.2023V31.1571V31.1118V31.0666V31.0213V30.9761V30.9309V30.8856V30.8404V30.7951V30.7499V30.7046V30.6594V30.6141V30.5689V30.5236V30.4784V30.4331V30.3879V30.3426V30.2974V30.2522V30.2069V30.1617V30.1164V30.0712V30.0259V29.9807V29.9354V29.8902V29.8449V29.7997V29.7544V29.7092V29.6639V29.6187V29.5734V29.5282V29.483V29.4377V29.3925V29.3472V29.302V29.2567V29.2115V29.1662V29.121V29.0757V29.0305V28.9852V28.94V28.8947V28.8495V28.8042V28.759V28.7137V28.6685V28.6232V28.578V28.5328V28.4875V28.4423V28.397V28.3518V28.3065V28.2613V28.216V28.1708V28.1255V28.0803V28.035V27.9898V27.9445V27.8993V27.854V27.8088V27.7635V27.7183V27.673V27.6278V27.5825V27.5373V27.492V27.4468V27.4015V27.3563V27.311V27.2658V27.2205V27.1753V27.13V27.0848V27.0395V26.9943V26.949V26.9038V26.8585V26.8133V26.7681V26.7228V26.6776V26.6323V26.5871V26.5418V26.4966V26.4513V26.4061V26.3608V26.3156V26.2703V26.2251V26.1798V26.1346V26.0893V26.0441V25.9988V25.9536V25.9083V25.8631V25.8178V25.7726V25.7273V25.6821V25.6368V25.5916V25.5463V25.5011V25.4558V25.4106V25.3653V25.3201V25.2748V25.2296V25.1843V48.6618Z" stroke="white" stroke-width="0.263665"/>
<path d="M6.32587 12.7109C6.66712 13.1013 6.96915 13.5244 7.22761 13.9739C8.08296 15.4028 8.60355 17.0069 8.75027 18.6658C8.84123 19.5768 8.96647 20.4838 9.07458 21.3921C9.18795 22.3483 9.30089 23.3046 9.41339 24.2608C9.43316 24.4164 9.46084 24.5719 9.48326 24.7288C9.51177 24.8429 9.50131 24.9633 9.45354 25.0708C9.40576 25.1783 9.32341 25.2667 9.21959 25.322C8.9406 25.4998 8.68121 25.7067 8.44573 25.939C7.99815 26.3473 7.66581 26.866 7.48204 27.4432C7.47209 27.5021 7.45042 27.5583 7.41831 27.6087C7.3862 27.659 7.34431 27.7023 7.29513 27.7361C7.24594 27.77 7.19046 27.7935 7.13199 27.8055C7.07351 27.8175 7.01322 27.8176 6.95471 27.8058C6.78201 27.7939 6.608 27.8058 6.43398 27.7979C6.40217 27.7995 6.37039 27.7943 6.34076 27.7826C6.31112 27.771 6.2843 27.7531 6.2621 27.7303C6.23989 27.7075 6.22281 27.6802 6.21198 27.6502C6.20116 27.6203 6.19684 27.5884 6.19932 27.5566C6.19404 27.4459 6.19141 27.3351 6.19141 27.2244C6.19141 22.547 6.19141 17.8691 6.19141 13.1908C6.19141 13.0379 6.20459 12.8863 6.2125 12.7334L6.32587 12.7109Z" fill="white"/>
<path d="M26.8435 12.7341C26.8435 12.8883 26.862 13.0426 26.862 13.1955C26.862 17.7815 26.862 22.3675 26.862 26.9536C26.862 27.0643 26.862 27.175 26.862 27.2858C26.862 27.7881 26.8475 27.7973 26.3676 27.8052C26.2727 27.8052 26.1765 27.8052 26.0829 27.8052C25.8192 27.8263 25.6874 27.7274 25.5938 27.4703C25.2869 26.5618 24.6624 25.7945 23.8351 25.3096C23.7362 25.2639 23.6566 25.1848 23.6103 25.0861C23.564 24.9875 23.554 24.8757 23.582 24.7704C23.7138 23.8317 23.8101 22.8892 23.9221 21.9479C24.0368 20.9763 24.1647 20.0047 24.2688 19.0317C24.3406 18.2134 24.4804 17.4025 24.6868 16.6073C25.0613 15.2967 25.6774 14.0676 26.5034 12.9832C26.5785 12.8844 26.6682 12.7974 26.7512 12.7051L26.8435 12.7341Z" fill="white"/>
<path d="M6.19668 32.966C6.19668 32.1117 6.19668 31.2522 6.19668 30.4032C6.19668 29.9075 6.21382 29.8983 6.70028 29.8904C7.31857 29.8811 7.30934 29.8904 7.55455 30.4454C8.13329 31.7729 9.15236 32.5705 10.5498 32.9041C10.6882 32.937 10.8293 32.9594 10.965 33.0003C11.1865 33.0688 11.2089 33.115 11.1694 33.347C11.0731 33.9231 10.9703 34.4979 10.8833 35.0767C10.849 35.31 10.8556 35.5486 10.8345 35.7846C10.8161 35.985 10.7686 36.0324 10.5709 36.0483C10.4773 36.0575 10.381 36.0562 10.2861 36.0562C9.09962 36.0562 7.91313 36.0562 6.72664 36.0562C6.21118 36.0562 6.19932 36.039 6.19141 35.5288C6.19404 34.6746 6.19668 33.8203 6.19668 32.966Z" fill="white"/>
<path d="M26.8596 32.9989C26.8596 33.8206 26.8596 34.642 26.8596 35.4628C26.8596 35.5881 26.8596 35.7146 26.8478 35.8412C26.848 35.8689 26.8426 35.8964 26.8319 35.9221C26.8213 35.9477 26.8056 35.9709 26.7858 35.9903C26.766 36.0097 26.7425 36.025 26.7167 36.0352C26.6908 36.0453 26.6632 36.0502 26.6355 36.0495C26.5261 36.0574 26.4154 36.0614 26.3046 36.0614H22.7531C22.674 36.0614 22.5949 36.0614 22.5158 36.0614C22.2811 36.0416 22.2442 36.0099 22.2205 35.7792C22.1914 35.4971 22.1849 35.2124 22.1453 34.9316C22.0688 34.4042 21.9779 33.8769 21.8909 33.3496C21.85 33.103 21.854 33.0859 22.086 33.0081C22.207 32.9726 22.3297 32.9435 22.4538 32.9211C23.9448 32.606 24.9586 31.7135 25.5584 30.3332C25.5901 30.262 25.6138 30.1856 25.6389 30.1117C25.6567 30.0507 25.6944 29.9973 25.746 29.9601C25.7975 29.9228 25.86 29.9038 25.9236 29.9061C25.9553 29.9061 25.9869 29.9061 26.0185 29.9061C26.9519 29.9061 26.8557 29.8283 26.8596 30.6971C26.8623 31.4525 26.8596 32.225 26.8596 32.9989Z" fill="white"/>
<path d="M16.5737 26.7295C16.6515 26.9457 16.724 27.1369 16.7913 27.3293C17.235 28.6136 17.7899 29.8566 18.4497 31.0444C18.7859 31.6455 18.8109 31.5862 18.215 31.8472C17.6373 32.1084 17.1178 32.4827 16.6871 32.948C16.579 33.0601 16.4907 33.0799 16.3747 32.948C15.8773 32.4147 15.2676 31.9986 14.5897 31.7299C14.3115 31.6139 14.3141 31.5981 14.4657 31.3094C14.678 30.9033 14.8942 30.4999 15.1012 30.0912C15.5963 29.1198 16.0129 28.1102 16.347 27.0723C16.3813 26.9694 16.4314 26.8706 16.4788 26.7704C16.4815 26.7664 16.5025 26.7625 16.5737 26.7295Z" fill="white"/>
<path d="M17.5703 42.3552V38.7878C17.5703 38.6784 17.5703 38.5677 17.5703 38.4569C17.5875 38.2051 17.623 38.159 17.888 38.1537C18.4233 38.1441 18.9589 38.1441 19.4951 38.1537C19.8286 38.1537 19.8747 38.2289 19.7825 38.5624C19.4485 39.7825 18.8604 40.9182 18.0568 41.8951C17.9355 42.0468 17.8445 42.2392 17.5703 42.3552Z" fill="white"/>
<path d="M15.4429 42.3565C15.2567 42.2137 15.0924 42.0445 14.9552 41.8542C14.1932 40.9004 13.6261 39.8061 13.2862 38.6335C13.2575 38.5435 13.2359 38.4514 13.2216 38.358C13.2172 38.3345 13.2179 38.3104 13.2238 38.2872C13.2297 38.264 13.2405 38.2424 13.2555 38.2239C13.2706 38.2053 13.2895 38.1902 13.3109 38.1797C13.3324 38.1692 13.3559 38.1634 13.3798 38.1629C13.4106 38.1567 13.4419 38.1532 13.4734 38.1523C14.0429 38.1523 14.6111 38.1458 15.1872 38.1523C15.4245 38.1523 15.4614 38.2051 15.4812 38.4318C15.4878 38.5109 15.4812 38.59 15.4812 38.6691C15.4812 39.759 15.4812 40.8496 15.4812 41.9412C15.4785 42.0625 15.4588 42.1825 15.4429 42.3565Z" fill="white"/>
<path d="M14.1973 36.0601C13.8822 36.0601 13.5671 36.0601 13.252 36.0601C12.9752 36.0522 12.9132 35.9994 12.9277 35.7186C12.9475 35.3416 12.9937 34.9659 13.049 34.5928C13.0893 34.3257 13.1465 34.0615 13.2204 33.8018C13.285 33.5658 13.3615 33.5249 13.6054 33.5988C14.0792 33.7306 14.5052 33.9959 14.8325 34.3632C15.1597 34.7304 15.3744 35.184 15.451 35.6699C15.5037 35.9638 15.4365 36.0456 15.1399 36.0548C14.8433 36.064 14.5097 36.0548 14.1946 36.0548L14.1973 36.0601Z" fill="white"/>
<path d="M18.863 36.0565C18.515 36.0565 18.1669 36.0644 17.8202 36.0565C17.6343 36.0565 17.5737 35.9616 17.5829 35.7783C17.6304 34.8661 18.5704 33.7771 19.4523 33.6084C19.6857 33.5636 19.7793 33.6084 19.8478 33.8338C20.0201 34.4581 20.1118 35.1018 20.1207 35.7493C20.1207 36.0025 20.068 36.0526 19.8109 36.0605C19.4958 36.0723 19.1794 36.0605 18.863 36.0605V36.0565Z" fill="white"/>
<path d="M53.9023 13H55.1973V7.67383H55.2207L57.0078 11.7754H58.0859L59.873 7.67383H59.9023V13H61.1973V4.45703H59.9727L57.5703 10.0234L55.1211 4.45703H53.9023V13ZM62.9961 13H64.291V4.45703H62.9961V13ZM66.0898 13H67.3848V6.92969H67.4082L71.2695 13H72.4941V4.45703H71.1992V10.5273H71.1758L67.3086 4.45703H66.0898V13ZM74.3047 13H75.5996V4.45703H74.3047V13ZM77.5039 10.9258L76.6543 11.8984C77.5645 12.6797 78.6523 13.0703 79.918 13.0703C81.875 13.0469 82.875 12.2188 82.918 10.5859C82.918 9.98047 82.7285 9.44922 82.3496 8.99219C81.9668 8.52734 81.375 8.24023 80.5742 8.13086C80.168 8.08008 79.8477 8.03516 79.6133 7.99609C79.1914 7.91797 78.8848 7.77734 78.6934 7.57422C78.502 7.375 78.4062 7.15234 78.4062 6.90625C78.4141 6.49609 78.5566 6.1875 78.834 5.98047C79.0996 5.78125 79.4316 5.68164 79.8301 5.68164C80.5996 5.69727 81.3047 5.91602 81.9453 6.33789L82.666 5.27148C81.8809 4.70508 80.957 4.41016 79.8945 4.38672C79.0117 4.39453 78.3301 4.625 77.8496 5.07812C77.3535 5.53516 77.1055 6.13672 77.1055 6.88281C77.1055 7.50391 77.3027 8.03125 77.6973 8.46484C78.0801 8.88672 78.6387 9.1582 79.373 9.2793C79.7832 9.33789 80.1602 9.39062 80.5039 9.4375C81.2539 9.56641 81.625 9.94922 81.6172 10.5859C81.6016 11.3633 81.0391 11.7598 79.9297 11.7754C78.9922 11.7676 78.1836 11.4844 77.5039 10.9258ZM85.7363 13H87.0371V5.61133H89.375V4.45703H83.3984V5.61133H85.7363V13ZM91.584 5.61133H93.6113C94.0254 5.61133 94.3418 5.69922 94.5605 5.875C94.8379 6.07422 94.9805 6.39648 94.9883 6.8418C94.9883 7.21289 94.8691 7.52539 94.6309 7.7793C94.3887 8.05273 94.0254 8.19336 93.541 8.20117H91.584V5.61133ZM90.2891 13H91.584V9.34961H93.2363L95 13H96.541L94.5605 9.20898C95.6465 8.79102 96.1973 8.00195 96.2129 6.8418C96.1895 6.05273 95.9062 5.44531 95.3633 5.01953C94.9141 4.64453 94.334 4.45703 93.623 4.45703H90.2891V13ZM98.7383 13H99.957V9.48438L102.529 4.45703H101.158L99.3477 8.24805L97.5371 4.45703H96.166L98.7383 9.48438V13ZM53.6094 26.7285C53.6094 27.7051 53.6387 28.3652 53.6973 28.709C53.7285 28.8926 53.7676 29.0449 53.8145 29.166C53.8652 29.2832 53.9219 29.4062 53.9844 29.5352C54.1914 29.9297 54.5234 30.2773 54.9805 30.5781C55.4297 30.8906 55.9902 31.0547 56.6621 31.0703C57.3418 31.0547 57.9082 30.8906 58.3613 30.5781C58.8105 30.2773 59.1348 29.9297 59.334 29.5352C59.4785 29.3281 59.5781 29.0527 59.6328 28.709C59.6836 28.3652 59.709 27.7051 59.709 26.7285C59.709 25.7363 59.6836 25.0723 59.6328 24.7363C59.5781 24.4004 59.4785 24.1289 59.334 23.9219C59.1348 23.5273 58.8105 23.1758 58.3613 22.8672C57.9082 22.5547 57.3418 22.3945 56.6621 22.3867C55.9902 22.3945 55.4297 22.5547 54.9805 22.8672C54.5234 23.1758 54.1914 23.5273 53.9844 23.9219C53.8555 24.1289 53.7598 24.4004 53.6973 24.7363C53.6387 25.0723 53.6094 25.7363 53.6094 26.7285ZM54.9102 26.7285C54.9102 25.8887 54.9414 25.3164 55.0039 25.0117C55.0586 24.7227 55.1699 24.4863 55.3379 24.3027C55.4746 24.127 55.6543 23.9805 55.877 23.8633C56.0957 23.75 56.3574 23.6895 56.6621 23.6816C56.9707 23.6895 57.2383 23.75 57.4648 23.8633C57.6797 23.9805 57.8516 24.127 57.9805 24.3027C58.1484 24.4863 58.2637 24.7227 58.3262 25.0117C58.3848 25.3164 58.4141 25.8887 58.4141 26.7285C58.4141 27.5684 58.3848 28.1367 58.3262 28.4336C58.2637 28.7305 58.1484 28.9707 57.9805 29.1543C57.8516 29.3301 57.6797 29.4727 57.4648 29.582C57.2383 29.7109 56.9707 29.7754 56.6621 29.7754C56.3574 29.7754 56.0957 29.7109 55.877 29.582C55.6543 29.4727 55.4746 29.3301 55.3379 29.1543C55.1699 28.9707 55.0586 28.7305 55.0039 28.4336C54.9414 28.1367 54.9102 27.5684 54.9102 26.7285ZM61.2266 31H62.5215V27.3496H66.0723V26.2012H62.5215V23.6816H66.6816V22.457H61.2266V31ZM70.6602 28.9258L69.8105 29.8984C70.7207 30.6797 71.8086 31.0703 73.0742 31.0703C75.0312 31.0469 76.0312 30.2188 76.0742 28.5859C76.0742 27.9805 75.8848 27.4492 75.5059 26.9922C75.123 26.5273 74.5312 26.2402 73.7305 26.1309C73.3242 26.0801 73.0039 26.0352 72.7695 25.9961C72.3477 25.918 72.041 25.7773 71.8496 25.5742C71.6582 25.375 71.5625 25.1523 71.5625 24.9062C71.5703 24.4961 71.7129 24.1875 71.9902 23.9805C72.2559 23.7812 72.5879 23.6816 72.9863 23.6816C73.7559 23.6973 74.4609 23.916 75.1016 24.3379L75.8223 23.2715C75.0371 22.7051 74.1133 22.4102 73.0508 22.3867C72.168 22.3945 71.4863 22.625 71.0059 23.0781C70.5098 23.5352 70.2617 24.1367 70.2617 24.8828C70.2617 25.5039 70.459 26.0312 70.8535 26.4648C71.2363 26.8867 71.7949 27.1582 72.5293 27.2793C72.9395 27.3379 73.3164 27.3906 73.6602 27.4375C74.4102 27.5664 74.7812 27.9492 74.7734 28.5859C74.7578 29.3633 74.1953 29.7598 73.0859 29.7754C72.1484 29.7676 71.3398 29.4844 70.6602 28.9258ZM78.8926 31H80.1934V23.6113H82.5312V22.457H76.5547V23.6113H78.8926V31ZM84.7402 23.6113H86.7676C87.1816 23.6113 87.498 23.6992 87.7168 23.875C87.9941 24.0742 88.1367 24.3965 88.1445 24.8418C88.1445 25.2129 88.0254 25.5254 87.7871 25.7793C87.5449 26.0527 87.1816 26.1934 86.6973 26.2012H84.7402V23.6113ZM83.4453 31H84.7402V27.3496H86.3926L88.1562 31H89.6973L87.7168 27.209C88.8027 26.791 89.3535 26.002 89.3691 24.8418C89.3457 24.0527 89.0625 23.4453 88.5195 23.0195C88.0703 22.6445 87.4902 22.457 86.7793 22.457H83.4453V31ZM92.2812 27.9414L93.5176 24.209H93.541L94.7773 27.9414H92.2812ZM95.8086 31H97.1738L94.0684 22.457H92.9844L89.8789 31H91.25L91.9062 29.0898H95.1465L95.8086 31ZM98.6504 31H99.9512V23.6113H102.289V22.457H96.3125V23.6113H98.6504V31ZM103.203 31H108.658V29.7754H104.498V27.2676H108.049V26.1191H104.498V23.6816H108.658V22.457H103.203V31ZM112.654 27.5195H114.395V27.9648C114.387 28.5 114.219 28.9316 113.891 29.2598C113.562 29.6035 113.146 29.7754 112.643 29.7754C112.338 29.7754 112.076 29.7109 111.857 29.582C111.635 29.4727 111.455 29.3301 111.318 29.1543C111.15 28.9707 111.039 28.7305 110.984 28.4336C110.922 28.1367 110.891 27.5684 110.891 26.7285C110.891 25.8887 110.922 25.3164 110.984 25.0117C111.039 24.7227 111.15 24.4863 111.318 24.3027C111.455 24.127 111.635 23.9805 111.857 23.8633C112.076 23.75 112.338 23.6895 112.643 23.6816C113.057 23.6895 113.408 23.8086 113.697 24.0391C113.975 24.2812 114.166 24.5742 114.271 24.918H115.643C115.506 24.2031 115.178 23.6035 114.658 23.1191C114.139 22.6387 113.467 22.3945 112.643 22.3867C111.971 22.3945 111.41 22.5547 110.961 22.8672C110.504 23.1758 110.172 23.5273 109.965 23.9219C109.836 24.1289 109.74 24.4004 109.678 24.7363C109.619 25.0723 109.59 25.7363 109.59 26.7285C109.59 27.7051 109.619 28.3652 109.678 28.709C109.709 28.8926 109.748 29.0449 109.795 29.166C109.846 29.2832 109.902 29.4062 109.965 29.5352C110.172 29.9297 110.504 30.2773 110.961 30.5781C111.41 30.8906 111.971 31.0547 112.643 31.0703C113.514 31.0547 114.236 30.7598 114.811 30.1855C115.381 29.6074 115.674 28.8906 115.689 28.0352V26.2949H112.654V27.5195ZM117.207 31H118.502V22.457H117.207V31ZM124.689 28.6094C124.33 29.3867 123.787 29.7754 123.061 29.7754C122.756 29.7754 122.494 29.7109 122.275 29.582C122.053 29.4727 121.873 29.3301 121.736 29.1543C121.568 28.9707 121.457 28.7305 121.402 28.4336C121.34 28.1367 121.309 27.5684 121.309 26.7285C121.309 25.8887 121.34 25.3164 121.402 25.0117C121.457 24.7227 121.568 24.4863 121.736 24.3027C121.873 24.127 122.053 23.9805 122.275 23.8633C122.494 23.75 122.756 23.6895 123.061 23.6816C123.475 23.6895 123.826 23.8086 124.115 24.0391C124.393 24.2812 124.584 24.5742 124.689 24.918H126.061C125.924 24.2031 125.596 23.6035 125.076 23.1191C124.557 22.6387 123.885 22.3945 123.061 22.3867C122.389 22.3945 121.828 22.5547 121.379 22.8672C120.922 23.1758 120.59 23.5273 120.383 23.9219C120.254 24.1289 120.158 24.4004 120.096 24.7363C120.037 25.0723 120.008 25.7363 120.008 26.7285C120.008 27.7051 120.037 28.3652 120.096 28.709C120.127 28.8926 120.166 29.0449 120.213 29.166C120.264 29.2832 120.32 29.4062 120.383 29.5352C120.59 29.9297 120.922 30.2773 121.379 30.5781C121.828 30.8906 122.389 31.0547 123.061 31.0703C123.803 31.0703 124.445 30.8594 124.988 30.4375C125.516 30.0117 125.873 29.4023 126.061 28.6094H124.689ZM129.863 31H131.158V22.457H129.863V31ZM132.957 31H134.252V24.9297H134.275L138.137 31H139.361V22.457H138.066V28.5273H138.043L134.176 22.457H132.957V31ZM141.172 31H144.072C144.713 31 145.254 30.8594 145.695 30.5781C146.141 30.3164 146.488 29.9844 146.738 29.582C146.832 29.4297 146.912 29.2832 146.979 29.1426C147.041 28.998 147.088 28.834 147.119 28.6504C147.186 28.2871 147.219 27.6465 147.219 26.7285C147.219 25.8652 147.197 25.2578 147.154 24.9062C147.1 24.5547 146.969 24.2188 146.762 23.8984C146.184 22.9453 145.316 22.4648 144.16 22.457H141.172V31ZM142.467 23.6816H144.014C144.67 23.666 145.178 23.9062 145.537 24.4023C145.713 24.6016 145.824 24.8613 145.871 25.1816C145.906 25.502 145.924 26.0332 145.924 26.7754C145.924 27.5371 145.906 28.0566 145.871 28.334C145.832 28.6152 145.74 28.8477 145.596 29.0312C145.268 29.5273 144.74 29.7754 144.014 29.7754H142.467V23.6816ZM148.572 28.1055C148.58 29.0039 148.877 29.7168 149.463 30.2441C150.037 30.7871 150.752 31.0625 151.607 31.0703C152.479 31.0625 153.199 30.7871 153.77 30.2441C154.336 29.7168 154.627 29.0039 154.643 28.1055V22.457H153.348V27.9648C153.34 28.5469 153.176 28.9902 152.855 29.2949C152.527 29.6152 152.111 29.7754 151.607 29.7754C151.104 29.7754 150.691 29.6152 150.371 29.2949C150.043 28.9902 149.875 28.5469 149.867 27.9648V22.457H148.572V28.1055ZM156.395 28.9258L155.545 29.8984C156.455 30.6797 157.543 31.0703 158.809 31.0703C160.766 31.0469 161.766 30.2188 161.809 28.5859C161.809 27.9805 161.619 27.4492 161.24 26.9922C160.857 26.5273 160.266 26.2402 159.465 26.1309C159.059 26.0801 158.738 26.0352 158.504 25.9961C158.082 25.918 157.775 25.7773 157.584 25.5742C157.393 25.375 157.297 25.1523 157.297 24.9062C157.305 24.4961 157.447 24.1875 157.725 23.9805C157.99 23.7812 158.322 23.6816 158.721 23.6816C159.49 23.6973 160.195 23.916 160.836 24.3379L161.557 23.2715C160.771 22.7051 159.848 22.4102 158.785 22.3867C157.902 22.3945 157.221 22.625 156.74 23.0781C156.244 23.5352 155.996 24.1367 155.996 24.8828C155.996 25.5039 156.193 26.0312 156.588 26.4648C156.971 26.8867 157.529 27.1582 158.264 27.2793C158.674 27.3379 159.051 27.3906 159.395 27.4375C160.145 27.5664 160.516 27.9492 160.508 28.5859C160.492 29.3633 159.93 29.7598 158.82 29.7754C157.883 29.7676 157.074 29.4844 156.395 28.9258ZM164.627 31H165.928V23.6113H168.266V22.457H162.289V23.6113H164.627V31ZM170.475 23.6113H172.502C172.916 23.6113 173.232 23.6992 173.451 23.875C173.729 24.0742 173.871 24.3965 173.879 24.8418C173.879 25.2129 173.76 25.5254 173.521 25.7793C173.279 26.0527 172.916 26.1934 172.432 26.2012H170.475V23.6113ZM169.18 31H170.475V27.3496H172.127L173.891 31H175.432L173.451 27.209C174.537 26.791 175.088 26.002 175.104 24.8418C175.08 24.0527 174.797 23.4453 174.254 23.0195C173.805 22.6445 173.225 22.457 172.514 22.457H169.18V31ZM176.504 31H177.799V22.457H176.504V31ZM179.598 31H185.053V29.7754H180.893V27.2676H184.443V26.1191H180.893V23.6816H185.053V22.457H179.598V31ZM186.383 28.9258L185.533 29.8984C186.443 30.6797 187.531 31.0703 188.797 31.0703C190.754 31.0469 191.754 30.2188 191.797 28.5859C191.797 27.9805 191.607 27.4492 191.229 26.9922C190.846 26.5273 190.254 26.2402 189.453 26.1309C189.047 26.0801 188.727 26.0352 188.492 25.9961C188.07 25.918 187.764 25.7773 187.572 25.5742C187.381 25.375 187.285 25.1523 187.285 24.9062C187.293 24.4961 187.436 24.1875 187.713 23.9805C187.979 23.7812 188.311 23.6816 188.709 23.6816C189.479 23.6973 190.184 23.916 190.824 24.3379L191.545 23.2715C190.76 22.7051 189.836 22.4102 188.773 22.3867C187.891 22.3945 187.209 22.625 186.729 23.0781C186.232 23.5352 185.984 24.1367 185.984 24.8828C185.984 25.5039 186.182 26.0312 186.576 26.4648C186.959 26.8867 187.518 27.1582 188.252 27.2793C188.662 27.3379 189.039 27.3906 189.383 27.4375C190.133 27.5664 190.504 27.9492 190.496 28.5859C190.48 29.3633 189.918 29.7598 188.809 29.7754C187.871 29.7676 187.062 29.4844 186.383 28.9258ZM53.6094 44.7285C53.6094 45.7051 53.6387 46.3652 53.6973 46.709C53.7285 46.8926 53.7676 47.0449 53.8145 47.166C53.8652 47.2832 53.9219 47.4062 53.9844 47.5352C54.1914 47.9297 54.5234 48.2773 54.9805 48.5781C55.4297 48.8906 55.9902 49.0547 56.6621 49.0703C57.3418 49.0547 57.9082 48.8906 58.3613 48.5781C58.8105 48.2773 59.1348 47.9297 59.334 47.5352C59.4785 47.3281 59.5781 47.0527 59.6328 46.709C59.6836 46.3652 59.709 45.7051 59.709 44.7285C59.709 43.7363 59.6836 43.0723 59.6328 42.7363C59.5781 42.4004 59.4785 42.1289 59.334 41.9219C59.1348 41.5273 58.8105 41.1758 58.3613 40.8672C57.9082 40.5547 57.3418 40.3945 56.6621 40.3867C55.9902 40.3945 55.4297 40.5547 54.9805 40.8672C54.5234 41.1758 54.1914 41.5273 53.9844 41.9219C53.8555 42.1289 53.7598 42.4004 53.6973 42.7363C53.6387 43.0723 53.6094 43.7363 53.6094 44.7285ZM54.9102 44.7285C54.9102 43.8887 54.9414 43.3164 55.0039 43.0117C55.0586 42.7227 55.1699 42.4863 55.3379 42.3027C55.4746 42.127 55.6543 41.9805 55.877 41.8633C56.0957 41.75 56.3574 41.6895 56.6621 41.6816C56.9707 41.6895 57.2383 41.75 57.4648 41.8633C57.6797 41.9805 57.8516 42.127 57.9805 42.3027C58.1484 42.4863 58.2637 42.7227 58.3262 43.0117C58.3848 43.3164 58.4141 43.8887 58.4141 44.7285C58.4141 45.5684 58.3848 46.1367 58.3262 46.4336C58.2637 46.7305 58.1484 46.9707 57.9805 47.1543C57.8516 47.3301 57.6797 47.4727 57.4648 47.582C57.2383 47.7109 56.9707 47.7754 56.6621 47.7754C56.3574 47.7754 56.0957 47.7109 55.877 47.582C55.6543 47.4727 55.4746 47.3301 55.3379 47.1543C55.1699 46.9707 55.0586 46.7305 55.0039 46.4336C54.9414 46.1367 54.9102 45.5684 54.9102 44.7285ZM61.2266 49H62.5215V45.3496H66.0723V44.2012H62.5215V41.6816H66.6816V40.457H61.2266V49ZM70.3965 46.1055C70.4043 47.0039 70.7012 47.7168 71.2871 48.2441C71.8613 48.7871 72.5762 49.0625 73.4316 49.0703C74.3027 49.0625 75.0234 48.7871 75.5938 48.2441C76.1602 47.7168 76.4512 47.0039 76.4668 46.1055V40.457H75.1719V45.9648C75.1641 46.5469 75 46.9902 74.6797 47.2949C74.3516 47.6152 73.9355 47.7754 73.4316 47.7754C72.9277 47.7754 72.5156 47.6152 72.1953 47.2949C71.8672 46.9902 71.6992 46.5469 71.6914 45.9648V40.457H70.3965V46.1055ZM78.1133 49H79.4082V46.3984L80.9082 44.8223L83.2344 49H84.7695L81.7461 43.8262L84.4824 40.457H82.9473L79.4316 44.8574H79.4082V40.457H78.1133V49ZM86.9668 41.6113H88.9941C89.4082 41.6113 89.7246 41.6992 89.9434 41.875C90.2207 42.0742 90.3633 42.3965 90.3711 42.8418C90.3711 43.2129 90.252 43.5254 90.0137 43.7793C89.7715 44.0527 89.4082 44.1934 88.9238 44.2012H86.9668V41.6113ZM85.6719 49H86.9668V45.3496H88.6191L90.3828 49H91.9238L89.9434 45.209C91.0293 44.791 91.5801 44.002 91.5957 42.8418C91.5723 42.0527 91.2891 41.4453 90.7461 41.0195C90.2969 40.6445 89.7168 40.457 89.0059 40.457H85.6719V49ZM94.5078 45.9414L95.7441 42.209H95.7676L97.0039 45.9414H94.5078ZM98.0352 49H99.4004L96.2949 40.457H95.2109L92.1055 49H93.4766L94.1328 47.0898H97.373L98.0352 49ZM100.32 49H101.615V40.457H100.32V49ZM103.414 49H104.709V42.9297H104.732L108.594 49H109.818V40.457H108.523V46.5273H108.5L104.633 40.457H103.414V49ZM111.629 49H117.084V47.7754H112.924V45.2676H116.475V44.1191H112.924V41.6816H117.084V40.457H111.629V49Z" fill="white"/>
</svg>
