<svg width="168" height="48" viewBox="0 0 168 48" fill="none" xmlns="http://www.w3.org/2000/svg">
<path d="M33.0492 18.5655C33.0492 24.1965 33.0492 29.8275 33.0492 35.4585C33.065 36.3938 32.8802 37.3216 32.5073 38.1795C31.918 39.4978 30.9926 40.5156 29.694 41.1471C28.5286 41.714 27.3342 42.2176 26.1504 42.7462C23.7132 43.8343 21.2739 44.9219 18.8324 46.0091C18.1956 46.2912 17.5562 46.5641 16.9248 46.8567C16.7981 46.9184 16.6587 46.9494 16.5178 46.9471C16.3769 46.9448 16.2386 46.9093 16.114 46.8436C13.3895 45.6228 10.6597 44.4095 7.92458 43.2037C6.6669 42.646 5.41054 42.0857 4.14891 41.5386C3.21026 41.1326 2.3428 40.6316 1.64409 39.8617C0.621601 38.7607 0.0381327 37.3232 0.00410145 35.821C-0.00512681 35.4743 0.00410145 35.1263 0.00410145 34.7782V1.36788C0.00410145 1.20969 0.00410145 1.05149 0.00410145 0.893286C0.018603 0.583479 0.0528776 0.554474 0.377185 0.541291C0.440464 0.541291 0.509017 0.541291 0.567024 0.541291H32.3636C33.0979 0.541291 33.0544 0.505698 33.0544 1.24396L33.0492 18.5655ZM16.4976 44.348C16.5504 44.3256 16.5899 44.3216 16.6044 44.3005C16.9999 43.7112 17.5365 43.2801 18.0757 42.8358C19.994 41.2757 21.3389 39.1219 21.8988 36.7135C22.0596 36.0544 22.0886 36.1506 22.6199 36.1493C24.5328 36.1493 26.443 36.1493 28.3599 36.1493C28.9294 36.1493 28.932 36.1493 28.932 35.5679V6.80862C28.932 6.69788 28.932 6.58714 28.932 6.4764C28.9189 6.3182 28.8529 6.27338 28.7158 6.3327C28.6145 6.37719 28.5167 6.42919 28.4232 6.48826C27.8142 6.85984 27.2362 7.28 26.6948 7.74463C24.0582 10.0438 22.5988 12.9533 22.2271 16.4232C22.1229 17.3961 22.0161 18.3703 21.8988 19.342C21.7274 20.7697 21.5455 22.1948 21.3715 23.6212C21.3319 23.935 21.2924 24.2488 21.2726 24.5625C21.2607 24.7708 21.3227 24.8262 21.5218 24.8011C21.853 24.7603 22.1889 24.8142 22.4907 24.9567C22.8754 25.1195 23.201 25.3964 23.4235 25.7499C23.6461 26.1035 23.7549 26.5167 23.7354 26.934C23.7158 27.3513 23.5689 27.7526 23.3143 28.0838C23.0597 28.415 22.7097 28.6603 22.3114 28.7864C21.9471 28.8898 21.5768 28.9712 21.2027 29.0303C20.8507 29.0936 20.8468 29.0831 20.6754 28.7825C19.8565 27.3007 19.1887 25.7403 18.6821 24.1248C18.1548 22.4796 17.7144 20.8145 17.6274 19.0809C17.5826 18.1502 17.5694 17.2168 17.5879 16.2861C17.605 15.4186 17.6854 14.5511 17.7368 13.6837C17.7777 12.9903 17.8146 12.2955 17.8568 11.6021C17.9161 10.6397 18.0124 9.67993 18.0256 8.71756C18.0348 8.02543 18.1244 7.33595 18.0559 6.63724C17.9661 5.73802 17.6876 4.86787 17.2385 4.08364C17.0647 3.80079 16.8745 3.52831 16.669 3.26759C16.6568 3.24689 16.6398 3.22944 16.6194 3.21674C16.599 3.20404 16.5758 3.19646 16.5519 3.19464C16.5279 3.19283 16.5039 3.19684 16.4818 3.20633C16.4597 3.21582 16.4403 3.2305 16.4251 3.24914C16.3777 3.29233 16.3337 3.33905 16.2933 3.38888C15.4891 4.41454 15.0185 5.56807 14.9934 6.87981C14.9734 8.35006 15.0319 9.82033 15.1688 11.2843C15.2544 12.2744 15.3151 13.2684 15.3652 14.2624C15.4153 15.209 15.4377 16.1569 15.472 17.1047C15.5454 18.877 15.3449 20.6499 14.8774 22.3609C14.5808 23.4261 14.2103 24.4702 13.8715 25.5249C13.4919 26.7114 12.8657 27.7753 12.3185 28.88C12.2959 28.9479 12.2478 29.0044 12.1843 29.0376C12.1209 29.0707 12.0471 29.0781 11.9784 29.058C11.5829 28.971 11.1677 28.917 10.7735 28.8036C10.3374 28.6797 9.95494 28.4141 9.6864 28.0489C9.41786 27.6836 9.27851 27.2394 9.29029 26.7862C9.30207 26.333 9.46432 25.8966 9.75148 25.5458C10.0386 25.195 10.4344 24.9497 10.8763 24.8486C11.1027 24.7744 11.3436 24.755 11.579 24.7919C11.602 24.799 11.6265 24.8002 11.6502 24.7953C11.6738 24.7904 11.6958 24.7797 11.7142 24.764C11.7326 24.7484 11.7468 24.7284 11.7554 24.7058C11.764 24.6833 11.7668 24.6589 11.7635 24.635C11.7625 24.4614 11.7515 24.288 11.7306 24.1156C11.6172 23.1427 11.5012 22.1706 11.3825 21.1995C11.3021 20.5403 11.2204 19.8811 11.1413 19.222C11.0319 18.3123 10.9053 17.404 10.8209 16.4917C10.7365 15.4701 10.5334 14.4619 10.2158 13.4873C9.25748 10.5721 7.28727 8.09639 4.66173 6.50804C4.52067 6.42103 4.31765 6.29183 4.20427 6.33666C4.03157 6.40521 4.11726 6.64646 4.11726 6.81257C4.11726 16.3986 4.11726 25.9837 4.11726 35.5679C4.11726 36.144 4.11726 36.1467 4.68941 36.1467C6.55616 36.1467 8.42246 36.1467 10.2883 36.1467C11.111 36.1467 10.9976 36.0596 11.2112 36.8849C11.8571 39.4135 13.2282 41.4648 15.2755 43.0692C15.696 43.3793 16.0629 43.756 16.3618 44.1845C16.4034 44.2419 16.4488 44.2966 16.4976 44.348Z" fill="white"/>
<path fill-rule="evenodd" clip-rule="evenodd" d="M42.25 0C42.1119 0 42 0.111928 42 0.25V20.25V23.55V46.95C42 47.0881 42.1119 47.2 42.25 47.2H44.15C44.2881 47.2 44.4 47.0881 44.4 46.95V23.55V20.25V0.25C44.4 0.111929 44.2881 0 44.15 0H42.25ZM42.3 23.8H44.1V46.9H42.3V23.8Z" fill="white"/>
<path d="M6.32587 10.7109C6.66712 11.1013 6.96915 11.5244 7.22761 11.9739C8.08296 13.4028 8.60355 15.0069 8.75027 16.6658C8.84123 17.5768 8.96647 18.4838 9.07458 19.3921C9.18795 20.3483 9.30089 21.3046 9.41339 22.2608C9.43316 22.4164 9.46084 22.5719 9.48326 22.7288C9.51177 22.8429 9.50131 22.9633 9.45354 23.0708C9.40576 23.1783 9.32341 23.2667 9.21959 23.322C8.9406 23.4998 8.68121 23.7067 8.44573 23.939C7.99815 24.3473 7.66581 24.866 7.48204 25.4432C7.47209 25.5021 7.45042 25.5583 7.41831 25.6087C7.3862 25.659 7.34431 25.7023 7.29513 25.7361C7.24594 25.77 7.19046 25.7935 7.13199 25.8055C7.07351 25.8175 7.01322 25.8176 6.95471 25.8058C6.78201 25.7939 6.608 25.8058 6.43398 25.7979C6.40217 25.7995 6.37039 25.7943 6.34076 25.7826C6.31112 25.771 6.2843 25.7531 6.2621 25.7303C6.23989 25.7075 6.22281 25.6802 6.21198 25.6502C6.20116 25.6203 6.19684 25.5884 6.19932 25.5566C6.19404 25.4459 6.19141 25.3351 6.19141 25.2244C6.19141 20.547 6.19141 15.8691 6.19141 11.1908C6.19141 11.0379 6.20459 10.8863 6.2125 10.7334L6.32587 10.7109Z" fill="white"/>
<path d="M26.8435 10.7341C26.8435 10.8883 26.862 11.0426 26.862 11.1955C26.862 15.7815 26.862 20.3675 26.862 24.9536C26.862 25.0643 26.862 25.175 26.862 25.2858C26.862 25.7881 26.8475 25.7973 26.3676 25.8052C26.2727 25.8052 26.1765 25.8052 26.0829 25.8052C25.8192 25.8263 25.6874 25.7274 25.5938 25.4703C25.2869 24.5618 24.6624 23.7945 23.8351 23.3096C23.7362 23.2639 23.6566 23.1848 23.6103 23.0861C23.564 22.9875 23.554 22.8757 23.582 22.7704C23.7138 21.8317 23.8101 20.8892 23.9221 19.9479C24.0368 18.9763 24.1647 18.0047 24.2688 17.0317C24.3406 16.2134 24.4804 15.4025 24.6868 14.6073C25.0613 13.2967 25.6774 12.0676 26.5034 10.9832C26.5785 10.8844 26.6682 10.7974 26.7512 10.7051L26.8435 10.7341Z" fill="white"/>
<path d="M6.19668 30.966C6.19668 30.1117 6.19668 29.2522 6.19668 28.4032C6.19668 27.9075 6.21382 27.8983 6.70028 27.8904C7.31857 27.8811 7.30934 27.8904 7.55455 28.4454C8.13329 29.7729 9.15236 30.5705 10.5498 30.9041C10.6882 30.937 10.8293 30.9594 10.965 31.0003C11.1865 31.0688 11.2089 31.115 11.1694 31.347C11.0731 31.9231 10.9703 32.4979 10.8833 33.0767C10.849 33.31 10.8556 33.5486 10.8345 33.7846C10.8161 33.985 10.7686 34.0324 10.5709 34.0483C10.4773 34.0575 10.381 34.0562 10.2861 34.0562C9.09962 34.0562 7.91313 34.0562 6.72664 34.0562C6.21118 34.0562 6.19932 34.039 6.19141 33.5288C6.19404 32.6746 6.19668 31.8203 6.19668 30.966Z" fill="white"/>
<path d="M26.8596 30.9989C26.8596 31.8206 26.8596 32.642 26.8596 33.4628C26.8596 33.5881 26.8596 33.7146 26.8478 33.8412C26.848 33.8689 26.8426 33.8964 26.8319 33.9221C26.8213 33.9477 26.8056 33.9709 26.7858 33.9903C26.766 34.0097 26.7425 34.025 26.7167 34.0352C26.6908 34.0453 26.6632 34.0502 26.6355 34.0495C26.5261 34.0574 26.4154 34.0614 26.3046 34.0614H22.7531C22.674 34.0614 22.5949 34.0614 22.5158 34.0614C22.2811 34.0416 22.2442 34.0099 22.2205 33.7792C22.1914 33.4971 22.1849 33.2124 22.1453 32.9316C22.0688 32.4042 21.9779 31.8769 21.8909 31.3496C21.85 31.103 21.854 31.0859 22.086 31.0081C22.207 30.9726 22.3297 30.9435 22.4538 30.9211C23.9448 30.606 24.9586 29.7135 25.5584 28.3332C25.5901 28.262 25.6138 28.1856 25.6389 28.1117C25.6567 28.0507 25.6944 27.9973 25.746 27.9601C25.7975 27.9228 25.86 27.9038 25.9236 27.9061C25.9553 27.9061 25.9869 27.9061 26.0185 27.9061C26.9519 27.9061 26.8557 27.8283 26.8596 28.6971C26.8623 29.4525 26.8596 30.225 26.8596 30.9989Z" fill="white"/>
<path d="M16.5737 24.7295C16.6515 24.9457 16.724 25.1369 16.7913 25.3293C17.235 26.6136 17.7899 27.8566 18.4497 29.0444C18.7859 29.6455 18.8109 29.5862 18.215 29.8472C17.6373 30.1084 17.1178 30.4827 16.6871 30.948C16.579 31.0601 16.4907 31.0799 16.3747 30.948C15.8773 30.4147 15.2676 29.9986 14.5897 29.7299C14.3115 29.6139 14.3141 29.5981 14.4657 29.3094C14.678 28.9033 14.8942 28.4999 15.1012 28.0912C15.5963 27.1198 16.0129 26.1102 16.347 25.0723C16.3813 24.9694 16.4314 24.8706 16.4788 24.7704C16.4815 24.7664 16.5025 24.7625 16.5737 24.7295Z" fill="white"/>
<path d="M17.5703 40.3552V36.7878C17.5703 36.6784 17.5703 36.5677 17.5703 36.4569C17.5875 36.2051 17.623 36.159 17.888 36.1537C18.4233 36.1441 18.9589 36.1441 19.4951 36.1537C19.8286 36.1537 19.8747 36.2289 19.7825 36.5624C19.4485 37.7825 18.8604 38.9182 18.0568 39.8951C17.9355 40.0468 17.8445 40.2392 17.5703 40.3552Z" fill="white"/>
<path d="M15.4429 40.3565C15.2567 40.2137 15.0924 40.0445 14.9552 39.8542C14.1932 38.9004 13.6261 37.8061 13.2862 36.6335C13.2575 36.5435 13.2359 36.4514 13.2216 36.358C13.2172 36.3345 13.2179 36.3104 13.2238 36.2872C13.2297 36.264 13.2405 36.2424 13.2555 36.2239C13.2706 36.2053 13.2895 36.1902 13.3109 36.1797C13.3324 36.1692 13.3559 36.1634 13.3798 36.1629C13.4106 36.1567 13.4419 36.1532 13.4734 36.1523C14.0429 36.1523 14.6111 36.1458 15.1872 36.1523C15.4245 36.1523 15.4614 36.2051 15.4812 36.4318C15.4878 36.5109 15.4812 36.59 15.4812 36.6691C15.4812 37.759 15.4812 38.8496 15.4812 39.9412C15.4785 40.0625 15.4588 40.1825 15.4429 40.3565Z" fill="white"/>
<path d="M14.1973 34.0601C13.8822 34.0601 13.5671 34.0601 13.252 34.0601C12.9752 34.0522 12.9132 33.9994 12.9277 33.7186C12.9475 33.3416 12.9937 32.9659 13.049 32.5928C13.0893 32.3257 13.1465 32.0615 13.2204 31.8018C13.285 31.5658 13.3615 31.5249 13.6054 31.5988C14.0792 31.7306 14.5052 31.9959 14.8325 32.3632C15.1597 32.7304 15.3744 33.184 15.451 33.6699C15.5037 33.9638 15.4365 34.0456 15.1399 34.0548C14.8433 34.064 14.5097 34.0548 14.1946 34.0548L14.1973 34.0601Z" fill="white"/>
<path d="M18.863 34.0565C18.515 34.0565 18.1669 34.0644 17.8202 34.0565C17.6343 34.0565 17.5737 33.9616 17.5829 33.7783C17.6304 32.8661 18.5704 31.7771 19.4523 31.6084C19.6857 31.5636 19.7793 31.6084 19.8478 31.8338C20.0201 32.4581 20.1118 33.1018 20.1207 33.7493C20.1207 34.0025 20.068 34.0526 19.8109 34.0605C19.4958 34.0723 19.1794 34.0605 18.863 34.0605V34.0565Z" fill="white"/>
<path d="M59.0093 15.0002V5.2695H57.9023L55.948 10.6815L53.98 5.2695H52.873V15.0002H54.0483V8.1805L55.5653 12.6222H56.2896L57.834 8.07117V15.0002H59.0093Z" fill="white"/>
<path d="M61.9493 15.0002V5.2695H60.774V15.0002H61.9493Z" fill="white"/>
<path d="M68.4662 15.0002V5.2695H67.2909L67.3045 11.9252L64.8035 5.2695H63.7102V15.0002H64.8855V8.3445L67.4002 15.0002H68.4662Z" fill="white"/>
<path d="M71.3986 15.0002V5.2695H70.2232V15.0002H71.3986Z" fill="white"/>
<path d="M77.4371 12.3898C77.4371 10.8592 77.1774 10.1758 76.0704 9.72483L74.9771 9.27383C74.1981 8.94583 74.0478 8.65883 74.0478 7.70217C74.0478 7.1965 74.1571 6.80017 74.3894 6.5405C74.5534 6.36283 74.7994 6.23983 75.1411 6.23983C75.5101 6.23983 75.7698 6.36283 75.9338 6.56783C76.1798 6.8685 76.2344 7.22383 76.2344 7.74317H77.4097C77.4097 6.85483 77.2594 6.22617 76.7674 5.74783C76.3984 5.3925 75.8654 5.1875 75.1548 5.1875C74.5124 5.1875 73.9931 5.3925 73.6104 5.74783C73.1184 6.19883 72.8724 6.89583 72.8724 7.74317C72.8724 9.21917 73.2004 9.76583 74.1981 10.1758L75.3051 10.6268C76.0978 10.9548 76.2617 11.2965 76.2617 12.4172C76.2617 13.0595 76.2071 13.4285 75.9474 13.7155C75.7697 13.9068 75.5101 14.0298 75.1138 14.0298C74.7448 14.0298 74.4714 13.9068 74.3074 13.7292C74.0478 13.4558 73.9794 13.1005 73.9794 12.4582H72.8041C72.8041 13.4968 72.9544 14.0572 73.4054 14.5082C73.7881 14.8908 74.3621 15.0958 75.1138 15.0958C75.8928 15.0958 76.4668 14.8635 76.8358 14.5082C77.3004 14.0435 77.4371 13.4012 77.4371 12.3898Z" fill="white"/>
<path d="M82.7123 6.32183V5.2695H78.2706V6.32183H79.9106V15.0002H81.086V6.32183H82.7123Z" fill="white"/>
<path d="M88.6872 15.0002L87.1975 10.5858C88.0449 10.1895 88.3729 9.39683 88.3729 8.04383C88.3729 5.91183 87.5529 5.2695 86.0769 5.2695H83.8765V15.0002H85.0519V10.8182H86.1179L87.4572 15.0002H88.6872ZM87.1975 8.04383C87.1975 9.0825 86.9925 9.7795 86.0905 9.7795H85.0519V6.32183H86.0905C86.9925 6.32183 87.1975 7.01883 87.1975 8.04383Z" fill="white"/>
<path d="M93.8715 5.2695H92.5731L91.4798 9.42417L90.3865 5.2695H89.1018L90.8921 11.0642V15.0002H92.0675V11.0642L93.8715 5.2695Z" fill="white"/>
<path d="M57.3966 24.1348C57.3966 21.7022 57.3693 20.5952 56.6996 19.8572C56.3306 19.4472 55.7976 19.1602 55.0186 19.1602C54.2396 19.1602 53.7203 19.4472 53.3513 19.8572C52.6816 20.5952 52.6406 21.7022 52.6406 24.1348C52.6406 26.5675 52.6816 27.6745 53.3513 28.4125C53.7203 28.8225 54.2396 29.1095 55.0186 29.1095C55.7976 29.1095 56.3306 28.8225 56.6996 28.4125C57.3693 27.6745 57.3966 26.5675 57.3966 24.1348ZM56.2213 24.1348C56.2213 26.4445 56.153 27.2235 55.8113 27.6882C55.6473 27.9068 55.4013 28.0572 55.0186 28.0572C54.636 28.0572 54.39 27.9068 54.226 27.6882C53.8843 27.2235 53.816 26.4445 53.816 24.1348C53.816 21.8252 53.8843 21.0462 54.226 20.5815C54.39 20.3628 54.636 20.2125 55.0186 20.2125C55.4013 20.2125 55.6473 20.3628 55.8113 20.5815C56.153 21.0462 56.2213 21.8252 56.2213 24.1348Z" fill="white"/>
<path d="M62.6772 20.3218V19.2695H58.9189V29.0002H60.0942V24.6405H62.3219V23.5882H60.0942V20.3218H62.6772Z" fill="white"/>
<path d="M70.8707 26.3898C70.8707 24.8592 70.611 24.1758 69.504 23.7248L68.4107 23.2738C67.6317 22.9458 67.4813 22.6588 67.4813 21.7022C67.4813 21.1965 67.5907 20.8002 67.823 20.5405C67.987 20.3628 68.233 20.2398 68.5747 20.2398C68.9437 20.2398 69.2033 20.3628 69.3673 20.5678C69.6133 20.8685 69.668 21.2238 69.668 21.7432H70.8433C70.8433 20.8548 70.693 20.2262 70.201 19.7478C69.832 19.3925 69.299 19.1875 68.5883 19.1875C67.946 19.1875 67.4267 19.3925 67.044 19.7478C66.552 20.1988 66.306 20.8958 66.306 21.7432C66.306 23.2192 66.634 23.7658 67.6317 24.1758L68.7387 24.6268C69.5313 24.9548 69.6953 25.2965 69.6953 26.4172C69.6953 27.0595 69.6407 27.4285 69.381 27.7155C69.2033 27.9068 68.9437 28.0298 68.5473 28.0298C68.1783 28.0298 67.905 27.9068 67.741 27.7292C67.4813 27.4558 67.413 27.1005 67.413 26.4582H66.2377C66.2377 27.4968 66.388 28.0572 66.839 28.5082C67.2217 28.8908 67.7957 29.0958 68.5473 29.0958C69.3263 29.0958 69.9003 28.8635 70.2693 28.5082C70.734 28.0435 70.8707 27.4012 70.8707 26.3898Z" fill="white"/>
<path d="M76.1459 20.3218V19.2695H71.7042V20.3218H73.3442V29.0002H74.5196V20.3218H76.1459Z" fill="white"/>
<path d="M82.1208 29.0002L80.6311 24.5858C81.4785 24.1895 81.8065 23.3968 81.8065 22.0438C81.8065 19.9118 80.9865 19.2695 79.5105 19.2695H77.3101V29.0002H78.4855V24.8182H79.5515L80.8908 29.0002H82.1208ZM80.6311 22.0438C80.6311 23.0825 80.4261 23.7795 79.5241 23.7795H78.4855V20.3218H79.5241C80.4261 20.3218 80.6311 21.0188 80.6311 22.0438Z" fill="white"/>
<path d="M88.3812 29.0002L86.1262 19.2695H84.9919L82.7232 29.0002H83.9532L84.4179 26.7042H86.6729L87.1375 29.0002H88.3812ZM86.4542 25.6518H84.6365L85.5522 21.1692L86.4542 25.6518Z" fill="white"/>
<path d="M92.682 20.3218V19.2695H88.2404V20.3218H89.8804V29.0002H91.0557V20.3218H92.682Z" fill="white"/>
<path d="M97.6046 29.0002V27.9478H95.0216V24.6405H97.2493V23.5882H95.0216V20.3218H97.6046V19.2695H93.8463V29.0002H97.6046Z" fill="white"/>
<path d="M103.439 26.6632V23.7795H101.184V24.7635H102.263V26.7042C102.263 27.4968 101.867 28.0572 101.184 28.0572C100.801 28.0572 100.555 27.9068 100.391 27.6882C100.049 27.2235 99.981 26.4445 99.981 24.1348C99.981 21.8252 100.049 21.0462 100.391 20.5815C100.555 20.3628 100.801 20.2125 101.184 20.2125C102.086 20.2125 102.263 21.0325 102.263 21.6885H103.439C103.425 20.8958 103.206 20.2262 102.755 19.7615C102.386 19.3925 101.867 19.1602 101.184 19.1602C100.405 19.1602 99.8853 19.4472 99.5163 19.8572C98.8467 20.5952 98.8057 21.7022 98.8057 24.1348C98.8057 26.5675 98.8467 27.6745 99.5163 28.4125C99.8853 28.8225 100.405 29.1095 101.184 29.1095C102.455 29.1095 103.439 28.2758 103.439 26.6632Z" fill="white"/>
<path d="M106.139 29.0002V19.2695H104.964V29.0002H106.139Z" fill="white"/>
<path d="M112.301 26.5948H111.125C111.125 27.0185 111.03 27.4285 110.811 27.7018C110.647 27.9068 110.415 28.0572 110.046 28.0572C109.663 28.0572 109.417 27.9068 109.253 27.6882C108.911 27.2235 108.843 26.4445 108.843 24.1348C108.843 21.8252 108.911 21.0462 109.253 20.5815C109.417 20.3628 109.663 20.2125 110.046 20.2125C110.415 20.2125 110.647 20.3492 110.811 20.5542C111.03 20.8275 111.112 21.2512 111.112 21.6748H112.287C112.273 20.8685 112.041 20.1715 111.59 19.7342C111.207 19.3652 110.715 19.1602 110.046 19.1602C109.267 19.1602 108.747 19.4472 108.378 19.8572C107.709 20.5952 107.668 21.7022 107.668 24.1348C107.668 26.5675 107.709 27.6745 108.378 28.4125C108.747 28.8225 109.267 29.1095 110.046 29.1095C110.702 29.1095 111.166 28.9318 111.549 28.5765C112.027 28.1392 112.287 27.4148 112.301 26.5948Z" fill="white"/>
<path d="M117.403 29.0002V19.2695H116.228V29.0002H117.403Z" fill="white"/>
<path d="M123.92 29.0002V19.2695H122.745L122.759 25.9252L120.258 19.2695H119.164V29.0002H120.34V22.3445L122.854 29.0002H123.92Z" fill="white"/>
<path d="M130.283 24.1348C130.283 21.7432 130.269 20.6772 129.6 19.9528C129.231 19.5565 128.711 19.2695 127.932 19.2695H125.677V29.0002H127.932C128.711 29.0002 129.231 28.7132 129.6 28.3168C130.269 27.5925 130.283 26.5265 130.283 24.1348ZM129.108 24.1348C129.108 26.3625 129.067 27.1142 128.711 27.5788C128.547 27.7975 128.274 27.9478 127.891 27.9478H126.853V20.3218H127.891C128.274 20.3218 128.547 20.4722 128.711 20.6908C129.067 21.1555 129.108 21.9072 129.108 24.1348Z" fill="white"/>
<path d="M136.218 26.7862V19.2695H135.042V26.8545C135.042 27.6198 134.55 28.0572 133.963 28.0572C133.375 28.0572 132.897 27.6198 132.897 26.8545V19.2695H131.721V26.7862C131.721 27.4968 131.954 28.0708 132.35 28.4672C132.774 28.8908 133.334 29.1095 133.963 29.1095C134.591 29.1095 135.165 28.8908 135.589 28.4672C135.985 28.0708 136.218 27.4968 136.218 26.7862Z" fill="white"/>
<path d="M142.167 26.3898C142.167 24.8592 141.907 24.1758 140.8 23.7248L139.707 23.2738C138.928 22.9458 138.778 22.6588 138.778 21.7022C138.778 21.1965 138.887 20.8002 139.119 20.5405C139.283 20.3628 139.529 20.2398 139.871 20.2398C140.24 20.2398 140.5 20.3628 140.664 20.5678C140.91 20.8685 140.964 21.2238 140.964 21.7432H142.14C142.14 20.8548 141.989 20.2262 141.497 19.7478C141.128 19.3925 140.595 19.1875 139.885 19.1875C139.242 19.1875 138.723 19.3925 138.34 19.7478C137.848 20.1988 137.602 20.8958 137.602 21.7432C137.602 23.2192 137.93 23.7658 138.928 24.1758L140.035 24.6268C140.828 24.9548 140.992 25.2965 140.992 26.4172C140.992 27.0595 140.937 27.4285 140.677 27.7155C140.5 27.9068 140.24 28.0298 139.844 28.0298C139.475 28.0298 139.201 27.9068 139.037 27.7292C138.778 27.4558 138.709 27.1005 138.709 26.4582H137.534C137.534 27.4968 137.684 28.0572 138.135 28.5082C138.518 28.8908 139.092 29.0958 139.844 29.0958C140.623 29.0958 141.197 28.8635 141.566 28.5082C142.03 28.0435 142.167 27.4012 142.167 26.3898Z" fill="white"/>
<path d="M147.442 20.3218V19.2695H143V20.3218H144.64V29.0002H145.816V20.3218H147.442Z" fill="white"/>
<path d="M153.417 29.0002L151.927 24.5858C152.775 24.1895 153.103 23.3968 153.103 22.0438C153.103 19.9118 152.283 19.2695 150.807 19.2695H148.606V29.0002H149.782V24.8182H150.848L152.187 29.0002H153.417ZM151.927 22.0438C151.927 23.0825 151.722 23.7795 150.82 23.7795H149.782V20.3218H150.82C151.722 20.3218 151.927 21.0188 151.927 22.0438Z" fill="white"/>
<path d="M156.001 29.0002V19.2695H154.826V29.0002H156.001Z" fill="white"/>
<path d="M161.52 29.0002V27.9478H158.937V24.6405H161.165V23.5882H158.937V20.3218H161.52V19.2695H157.762V29.0002H161.52Z" fill="white"/>
<path d="M167.231 26.3898C167.231 24.8592 166.972 24.1758 165.865 23.7248L164.771 23.2738C163.992 22.9458 163.842 22.6588 163.842 21.7022C163.842 21.1965 163.951 20.8002 164.184 20.5405C164.348 20.3628 164.594 20.2398 164.935 20.2398C165.304 20.2398 165.564 20.3628 165.728 20.5678C165.974 20.8685 166.029 21.2238 166.029 21.7432H167.204C167.204 20.8548 167.054 20.2262 166.562 19.7478C166.193 19.3925 165.66 19.1875 164.949 19.1875C164.307 19.1875 163.787 19.3925 163.405 19.7478C162.913 20.1988 162.667 20.8958 162.667 21.7432C162.667 23.2192 162.995 23.7658 163.992 24.1758L165.099 24.6268C165.892 24.9548 166.056 25.2965 166.056 26.4172C166.056 27.0595 166.001 27.4285 165.742 27.7155C165.564 27.9068 165.304 28.0298 164.908 28.0298C164.539 28.0298 164.266 27.9068 164.102 27.7292C163.842 27.4558 163.774 27.1005 163.774 26.4582H162.598C162.598 27.4968 162.749 28.0572 163.2 28.5082C163.582 28.8908 164.156 29.0958 164.908 29.0958C165.687 29.0958 166.261 28.8635 166.63 28.5082C167.095 28.0435 167.231 27.4012 167.231 26.3898Z" fill="white"/>
<path d="M57.3966 37.1348C57.3966 34.7022 57.3693 33.5952 56.6996 32.8572C56.3306 32.4472 55.7976 32.1602 55.0186 32.1602C54.2396 32.1602 53.7203 32.4472 53.3513 32.8572C52.6816 33.5952 52.6406 34.7022 52.6406 37.1348C52.6406 39.5675 52.6816 40.6745 53.3513 41.4125C53.7203 41.8225 54.2396 42.1095 55.0186 42.1095C55.7976 42.1095 56.3306 41.8225 56.6996 41.4125C57.3693 40.6745 57.3966 39.5675 57.3966 37.1348ZM56.2213 37.1348C56.2213 39.4445 56.153 40.2235 55.8113 40.6882C55.6473 40.9068 55.4013 41.0572 55.0186 41.0572C54.636 41.0572 54.39 40.9068 54.226 40.6882C53.8843 40.2235 53.816 39.4445 53.816 37.1348C53.816 34.8252 53.8843 34.0462 54.226 33.5815C54.39 33.3628 54.636 33.2125 55.0186 33.2125C55.4013 33.2125 55.6473 33.3628 55.8113 33.5815C56.153 34.0462 56.2213 34.8252 56.2213 37.1348Z" fill="white"/>
<path d="M62.6772 33.3218V32.2695H58.9189V42.0002H60.0942V37.6405H62.3219V36.5882H60.0942V33.3218H62.6772Z" fill="white"/>
<path d="M71.0073 39.7862V32.2695H69.832V39.8545C69.832 40.6198 69.34 41.0572 68.7523 41.0572C68.1647 41.0572 67.6863 40.6198 67.6863 39.8545V32.2695H66.511V39.7862C66.511 40.4968 66.7433 41.0708 67.1397 41.4672C67.5633 41.8908 68.1237 42.1095 68.7523 42.1095C69.381 42.1095 69.955 41.8908 70.3787 41.4672C70.775 41.0708 71.0073 40.4968 71.0073 39.7862Z" fill="white"/>
<path d="M77.6946 42.0002L75.4396 36.2875L77.4076 32.2695H76.2049L73.8543 37.2032V32.2695H72.6789V42.0002H73.8543V39.2805L74.7016 37.5995L76.4236 42.0002H77.6946Z" fill="white"/>
<path d="M83.4955 42.0002L82.0058 37.5858C82.8531 37.1895 83.1811 36.3968 83.1811 35.0438C83.1811 32.9118 82.3611 32.2695 80.8851 32.2695H78.6848V42.0002H79.8601V37.8182H80.9261L82.2655 42.0002H83.4955ZM82.0058 35.0438C82.0058 36.0825 81.8008 36.7795 80.8988 36.7795H79.8601V33.3218H80.8988C81.8008 33.3218 82.0058 34.0188 82.0058 35.0438Z" fill="white"/>
<path d="M89.7559 42.0002L87.5009 32.2695H86.3665L84.0979 42.0002H85.3279L85.7925 39.7042H88.0475L88.5122 42.0002H89.7559ZM87.8289 38.6518H86.0112L86.9269 34.1692L87.8289 38.6518Z" fill="white"/>
<path d="M91.8719 42.0002V32.2695H90.6965V42.0002H91.8719Z" fill="white"/>
<path d="M98.3887 42.0002V32.2695H97.2134L97.2271 38.9252L94.7261 32.2695H93.6327V42.0002H94.8081V35.3445L97.3227 42.0002H98.3887Z" fill="white"/>
<path d="M103.904 42.0002V40.9478H101.321V37.6405H103.549V36.5882H101.321V33.3218H103.904V32.2695H100.146V42.0002H103.904Z" fill="white"/>
</svg>
