<svg width="227" height="49" viewBox="0 0 227 49" fill="none" xmlns="http://www.w3.org/2000/svg">
<path d="M67.7223 5.19731H61.9513V13.8311H63.3827V6.5151H67.7223V5.19731ZM68.5402 10.8547H73.7886C73.8341 10.6956 73.8341 10.582 73.8341 10.423C73.8341 8.28728 72.539 6.90134 70.5396 6.90134C68.5402 6.90134 67.177 8.33273 67.177 10.423C67.177 12.4451 68.4039 13.9447 70.6532 13.9447C72.0846 13.9447 73.0389 13.3994 73.6069 12.7178L72.6753 11.8998C72.2891 12.3997 71.6529 12.7859 70.6532 12.7859C69.449 12.7859 68.6993 12.0361 68.5402 10.8547ZM70.5396 8.03736C71.562 8.03736 72.2664 8.69625 72.4481 9.80955H68.5629C68.7674 8.71897 69.4718 8.03736 70.5396 8.03736ZM80.1049 7.01494V9.74139H76.7877V7.01494H75.4245V13.8311H76.7877V10.9683H80.1049V13.8311H81.4681V7.01494H80.1049ZM84.4672 10.8547H89.7156C89.761 10.6956 89.761 10.582 89.761 10.423C89.761 8.28728 88.466 6.90134 86.4666 6.90134C84.4672 6.90134 83.104 8.33273 83.104 10.423C83.104 12.4451 84.3309 13.9447 86.5802 13.9447C88.0116 13.9447 88.9658 13.3994 89.5338 12.7178L88.6023 11.8998C88.2161 12.3997 87.5799 12.7859 86.5802 12.7859C85.376 12.7859 84.6262 12.0361 84.4672 10.8547ZM86.4666 8.03736C87.489 8.03736 88.1933 8.69625 88.3751 9.80955H84.4899C84.6944 8.71897 85.3987 8.03736 86.4666 8.03736ZM94.964 6.90134C93.987 6.90134 93.1691 7.33303 92.6238 8.0828L92.5329 7.01494H91.3515V16.1031H92.7147V12.9222C93.2373 13.5811 94.0325 13.9447 94.964 13.9447C96.7135 13.9447 97.9404 12.5133 97.9404 10.423C97.9404 8.28728 96.7589 6.90134 94.964 6.90134ZM94.6005 12.7859C93.3963 12.7859 92.6238 11.8544 92.6238 10.423C92.6238 8.99162 93.3963 8.06008 94.6005 8.06008C95.8047 8.06008 96.5544 8.99162 96.5544 10.423C96.5544 11.8544 95.8047 12.7859 94.6005 12.7859ZM104.984 12.6496C104.688 12.6496 104.552 12.5133 104.552 12.2179V9.15066C104.552 7.742 103.552 6.90134 101.916 6.90134C100.735 6.90134 99.758 7.31031 98.9628 8.06008L99.8034 8.94618C100.349 8.37817 101.076 8.03736 101.848 8.03736C102.712 8.03736 103.28 8.40089 103.28 8.94618C103.28 9.46874 102.78 9.55963 101.757 9.69595C100.44 9.90043 98.8265 10.264 98.8265 11.9453C98.8265 13.1267 99.7126 13.9447 101.053 13.9447C102.053 13.9447 102.962 13.4902 103.439 12.7859C103.53 13.5811 103.916 13.8765 104.756 13.8765C104.984 13.8765 105.165 13.8538 105.234 13.8311V12.6496H104.984ZM101.28 12.8314C100.576 12.8314 100.167 12.4906 100.167 11.8544C100.167 10.9683 101.053 10.832 101.916 10.6956C102.575 10.582 102.984 10.5139 103.234 10.3548V11.2409C103.234 12.1043 102.325 12.8314 101.28 12.8314ZM112.64 7.01494H107.119V10.5366C107.119 12.4224 106.938 12.5814 106.347 12.5814H105.983V13.8311C106.142 13.8538 106.37 13.8765 106.62 13.8765C107.937 13.8765 108.46 13.1494 108.46 10.6729V8.21912H111.277V13.8311H112.64V7.01494ZM118.002 9.58235H116.139V7.01494H114.776V13.8311H118.002C119.502 13.8311 120.456 12.9904 120.456 11.6953C120.456 10.4003 119.525 9.58235 118.002 9.58235ZM117.866 12.695H116.139V10.6956H117.866C118.661 10.6956 119.07 11.0592 119.07 11.6953C119.07 12.3315 118.661 12.695 117.866 12.695ZM126.636 7.01494V9.74139H123.319V7.01494H121.956V13.8311H123.319V10.9683H126.636V13.8311H127.999V7.01494H126.636ZM134.793 7.01494L131.476 11.9225V7.01494H130.135V13.8311H131.544L134.861 8.87801V13.8311H136.201V7.01494H134.793ZM141.359 6.37877C142.54 6.37877 143.313 5.78804 143.427 4.76563L142.359 4.58386C142.291 5.15187 141.927 5.46996 141.359 5.46996C140.791 5.46996 140.427 5.15187 140.359 4.58386L139.291 4.76563C139.405 5.78804 140.178 6.37877 141.359 6.37877ZM142.995 7.01494L139.678 11.9225V7.01494H138.337V13.8311H139.746L143.063 8.87801V13.8311H144.404V7.01494H142.995ZM158.081 7.01494V12.6269H155.491V7.01494H154.128V12.6269H151.538V7.01494H150.175V13.8311H159.444V7.01494H158.081ZM167.01 7.01494H160.739V8.21912H163.193V13.8311H164.556V8.21912H167.01V7.01494ZM173.667 12.6496C173.372 12.6496 173.236 12.5133 173.236 12.2179V9.15066C173.236 7.742 172.236 6.90134 170.6 6.90134C169.419 6.90134 168.442 7.31031 167.646 8.06008L168.487 8.94618C169.032 8.37817 169.759 8.03736 170.532 8.03736C171.395 8.03736 171.963 8.40089 171.963 8.94618C171.963 9.46874 171.463 9.55963 170.441 9.69595C169.123 9.90043 167.51 10.264 167.51 11.9453C167.51 13.1267 168.396 13.9447 169.737 13.9447C170.736 13.9447 171.645 13.4902 172.122 12.7859C172.213 13.5811 172.6 13.8765 173.44 13.8765C173.667 13.8765 173.849 13.8538 173.917 13.8311V12.6496H173.667ZM169.964 12.8314C169.26 12.8314 168.851 12.4906 168.851 11.8544C168.851 10.9683 169.737 10.832 170.6 10.6956C171.259 10.582 171.668 10.5139 171.918 10.3548V11.2409C171.918 12.1043 171.009 12.8314 169.964 12.8314ZM181.597 10.7865C181.574 8.99162 180.347 7.71928 178.666 7.71928C177.553 7.71928 176.689 8.12824 176.189 8.83257C176.303 7.71928 176.871 7.10583 178.075 6.8559L180.052 6.44693C180.847 6.26517 181.301 5.81076 181.37 5.03827L181.392 4.81107L180.097 4.58386L180.052 4.78835C180.006 5.06099 179.87 5.19731 179.62 5.24276L178.007 5.58356C175.917 6.01525 174.962 7.40119 174.962 10.0368C174.962 12.4224 176.257 13.9447 178.302 13.9447C180.256 13.9447 181.619 12.6269 181.597 10.7865ZM178.302 12.7859C177.166 12.7859 176.394 11.9453 176.394 10.7411C176.394 9.53691 177.144 8.78713 178.302 8.78713C179.461 8.78713 180.188 9.55963 180.188 10.8092C180.188 12.0134 179.461 12.7859 178.302 12.7859ZM66.5408 24.3779C67.3133 24.0371 67.745 23.3782 67.745 22.5375C67.745 21.038 66.5181 20.0837 64.6323 20.0837C62.9964 20.0837 61.6559 20.9471 61.1107 22.3103L62.4057 22.8102C62.7692 21.9013 63.4963 21.3333 64.6096 21.3333C65.7002 21.3333 66.3136 21.8559 66.3136 22.6738C66.3136 23.4009 65.7002 23.8099 64.8822 23.8099H63.7235V25.014H64.8595C65.9501 25.014 66.609 25.4912 66.609 26.2637C66.609 27.1497 65.8365 27.695 64.6323 27.695C63.4963 27.695 62.6329 27.1043 62.2467 26.1728L61.0425 26.8089C61.5878 28.104 62.8828 28.9447 64.6096 28.9447C66.6771 28.9447 68.0404 27.9222 68.0404 26.3773C68.0404 25.4003 67.4951 24.7187 66.5408 24.3779ZM75.8562 25.7865C75.8335 23.9916 74.6066 22.7193 72.9252 22.7193C71.812 22.7193 70.9486 23.1282 70.4487 23.8326C70.5623 22.7193 71.1303 22.1058 72.3345 21.8559L74.3112 21.4469C75.1064 21.2652 75.5608 20.8108 75.629 20.0383L75.6517 19.8111L74.3566 19.5839L74.3112 19.7883C74.2658 20.061 74.1294 20.1973 73.8795 20.2428L72.2664 20.5836C70.1761 21.0152 69.2218 22.4012 69.2218 25.0368C69.2218 27.4224 70.5169 28.9447 72.5617 28.9447C74.5157 28.9447 75.8789 27.6269 75.8562 25.7865ZM72.5617 27.7859C71.4257 27.7859 70.6532 26.9453 70.6532 25.7411C70.6532 24.5369 71.403 23.7871 72.5617 23.7871C73.7205 23.7871 74.4475 24.5596 74.4475 25.8092C74.4475 27.0134 73.7205 27.7859 72.5617 27.7859ZM81.0364 21.9013C80.0594 21.9013 79.2415 22.333 78.6962 23.0828L78.6053 22.0149H77.4239V31.1031H78.7871V27.9222C79.3097 28.5811 80.1049 28.9447 81.0364 28.9447C82.7859 28.9447 84.0128 27.5133 84.0128 25.423C84.0128 23.2873 82.8313 21.9013 81.0364 21.9013ZM80.6729 27.7859C79.4687 27.7859 78.6962 26.8544 78.6962 25.423C78.6962 23.9916 79.4687 23.0601 80.6729 23.0601C81.8771 23.0601 82.6268 23.9916 82.6268 25.423C82.6268 26.8544 81.8771 27.7859 80.6729 27.7859ZM88.6023 28.9447C90.6471 28.9447 92.0558 27.5133 92.0558 25.423C92.0558 23.2873 90.6926 21.9013 88.6023 21.9013C86.5575 21.9013 85.1488 23.3327 85.1488 25.423C85.1488 27.5587 86.512 28.9447 88.6023 28.9447ZM88.6023 27.7859C87.3527 27.7859 86.5348 26.8544 86.5348 25.423C86.5348 23.9916 87.3527 23.0601 88.6023 23.0601C89.8519 23.0601 90.6699 23.9916 90.6699 25.423C90.6699 26.8544 89.8519 27.7859 88.6023 27.7859ZM96.7135 21.3788C97.8949 21.3788 98.6674 20.788 98.781 19.7656L97.7132 19.5839C97.645 20.1519 97.2815 20.47 96.7135 20.47C96.1455 20.47 95.7819 20.1519 95.7138 19.5839L94.6459 19.7656C94.7595 20.788 95.532 21.3788 96.7135 21.3788ZM98.3493 22.0149L95.0322 26.9225V22.0149H93.6917V28.8311H95.1003L98.4175 23.878V28.8311H99.758V22.0149H98.3493ZM106.574 22.0149V24.7414H103.257V22.0149H101.894V28.8311H103.257V25.9683H106.574V28.8311H107.937V22.0149H106.574ZM114.731 22.0149L111.414 26.9225V22.0149H110.073V28.8311H111.482L114.799 23.878V28.8311H116.139V22.0149H114.731ZM124.432 28.8311L121.842 25.3548L124.319 22.0149H122.774L121.002 24.4233L119.252 22.0149H117.639L120.115 25.3548L117.503 28.8311H119.093L120.956 26.2864L122.796 28.8311H124.432ZM133.112 28.9447C134.884 28.9447 136.224 27.9904 136.724 26.4L135.384 25.9228C135.043 27.1043 134.248 27.695 133.089 27.695C131.476 27.695 130.476 26.4909 130.476 24.5142C130.476 22.583 131.521 21.3333 133.089 21.3333C134.248 21.3333 135.043 21.9241 135.384 23.1055L136.724 22.6284C136.224 20.9925 134.884 20.0837 133.112 20.0837C130.68 20.0837 128.999 21.8786 128.999 24.5142C128.999 27.1952 130.612 28.9447 133.112 28.9447ZM142.881 22.0149L139.564 26.9225V22.0149H138.224V28.8311H139.632L142.949 23.878V28.8311H144.29V22.0149H142.881ZM152.31 22.0149H146.789V25.5366C146.789 27.4224 146.607 27.5814 146.017 27.5814H145.653V28.8311C145.812 28.8538 146.039 28.8765 146.289 28.8765C147.607 28.8765 148.13 28.1494 148.13 25.6729V23.2191H150.947V28.8311H152.31V22.0149ZM67.4269 36.1973L65.7456 41.0822H65.0413L62.4739 36.1973H60.8607L63.5645 41.0822H62.6329C62.0876 41.4912 61.7923 42.1273 61.7923 42.8544C61.7923 44.104 62.6556 44.9447 63.9507 44.9447C65.1549 44.9447 66.0183 44.1949 66.5408 42.7635L68.9492 36.1973H67.4269ZM63.9961 43.7405C63.4509 43.7405 63.11 43.377 63.11 42.8317C63.11 42.5817 63.2009 42.3545 63.36 42.1728H65.3594L65.1776 42.6953C64.905 43.3997 64.5642 43.7405 63.9961 43.7405ZM76.0834 43.6269C75.8789 43.6269 75.7426 43.4906 75.7426 43.2861V40.7868H74.493L76.2197 38.0149H74.7656L73.1525 40.7187H71.7665V35.7429H70.4033V44.8311H71.7665V41.9683H74.4021V43.5814C74.4021 44.3994 74.8792 44.8311 75.7199 44.8311H76.3333V43.6269H76.0834ZM81.5363 37.9013C80.5593 37.9013 79.7414 38.333 79.1961 39.0828L79.1052 38.0149H77.9237V47.1031H79.287V43.9222C79.8095 44.5811 80.6047 44.9447 81.5363 44.9447C83.2857 44.9447 84.5126 43.5133 84.5126 41.423C84.5126 39.2873 83.3312 37.9013 81.5363 37.9013ZM81.1727 43.7859C79.9686 43.7859 79.1961 42.8544 79.1961 41.423C79.1961 39.9916 79.9686 39.0601 81.1727 39.0601C82.3769 39.0601 83.1267 39.9916 83.1267 41.423C83.1267 42.8544 82.3769 43.7859 81.1727 43.7859ZM91.556 43.6496C91.2606 43.6496 91.1243 43.5133 91.1243 43.2179V40.1507C91.1243 38.742 90.1246 37.9013 88.4887 37.9013C87.3072 37.9013 86.3303 38.3103 85.5351 39.0601L86.3757 39.9462C86.921 39.3782 87.648 39.0374 88.4205 39.0374C89.2839 39.0374 89.8519 39.4009 89.8519 39.9462C89.8519 40.4687 89.3521 40.5596 88.3297 40.6959C87.0119 40.9004 85.3987 41.264 85.3987 42.9453C85.3987 44.1267 86.2848 44.9447 87.6253 44.9447C88.625 44.9447 89.5338 44.4902 90.011 43.7859C90.1018 44.5811 90.4881 44.8765 91.3287 44.8765C91.556 44.8765 91.7377 44.8538 91.8059 44.8311V43.6496H91.556ZM87.8525 43.8314C87.1482 43.8314 86.7392 43.4906 86.7392 42.8544C86.7392 41.9683 87.6253 41.832 88.4887 41.6956C89.1476 41.582 89.5566 41.5139 89.8065 41.3548V42.2409C89.8065 43.1043 88.8977 43.8314 87.8525 43.8314ZM92.2148 37.0607H93.6917V35.6975H92.2148V37.0607ZM94.555 37.0607H96.0319V35.6975H94.555V37.0607ZM93.4417 44.8311H94.805V38.0149H93.4417V44.8311ZM101.735 38.0149V40.7414H98.4175V38.0149H97.0543V44.8311H98.4175V41.9683H101.735V44.8311H103.098V38.0149H101.735ZM109.891 38.0149L106.574 42.9225V38.0149H105.234V44.8311H106.642L109.959 39.878V44.8311H111.3V38.0149H109.891Z" fill="white"/>
<g clip-path="url(#clip0_525_314)">
<path d="M13.6758 14.8701L14.8671 13.6788L34.239 33.0507L33.0476 34.2421L13.6758 14.8701Z" fill="black" stroke="white" stroke-width="0.290821"/>
<path d="M14.6919 9.11832C15.058 9.48444 15.3484 9.91908 15.5466 10.3974C15.7447 10.8758 15.8467 11.3885 15.8467 11.9063C15.8467 12.424 15.7447 12.9367 15.5466 13.4151C15.3484 13.8934 15.058 14.3281 14.6919 14.6942C14.3258 15.0603 13.8911 15.3507 13.4128 15.5489C12.9344 15.747 12.4217 15.849 11.904 15.849C11.3862 15.849 10.8735 15.747 10.3952 15.5489C9.9168 15.3507 9.48216 15.0603 9.11605 14.6942C8.37664 13.9548 7.96125 12.9519 7.96125 11.9063C7.96125 10.8606 8.37664 9.85773 9.11604 9.11832C9.85544 8.37892 10.8583 7.96353 11.904 7.96353C12.9496 7.96353 13.9525 8.37892 14.6919 9.11832Z" fill="black" stroke="white" stroke-width="0.290821" stroke-linecap="round" stroke-linejoin="round"/>
<path d="M39.5121 40.0289C39.5149 40.032 39.5177 40.0351 39.5206 40.0381C39.5549 40.0725 39.5956 40.0998 39.6403 40.1185C39.685 40.1373 39.7328 40.1471 39.7811 40.1473C39.8294 40.1476 39.8771 40.1384 39.9216 40.1202C39.9661 40.1019 40.0065 40.0751 40.0405 40.0412C40.0744 40.0072 40.1012 39.9668 40.1195 39.9223C40.1377 39.8778 40.1469 39.8301 40.1466 39.7818C40.1464 39.7335 40.1366 39.6857 40.1178 39.641C40.0991 39.5963 40.0718 39.5556 40.0374 39.5213C40.0344 39.5184 40.0313 39.5156 40.0282 39.5128L39.5121 40.0289Z" fill="black" stroke="white" stroke-width="0.290821" stroke-linecap="round" stroke-linejoin="round"/>
<path d="M38.9152 40.035C38.928 40.0802 38.9498 40.1186 38.98 40.149C39.0629 40.2319 39.2037 40.2501 39.3714 40.1995C39.5392 40.149 39.7201 40.034 39.8744 39.8796C40.0287 39.7253 40.1438 39.5444 40.1943 39.3767C40.2448 39.2089 40.2266 39.0681 40.1438 38.9852C40.1133 38.9551 40.0748 38.9333 40.0296 38.9206L38.9152 40.035Z" fill="black" stroke="white" stroke-width="0.290821" stroke-linecap="round" stroke-linejoin="round"/>
<path d="M33.0472 34.2419L34.2385 33.0505L39.9568 38.5886L38.5852 39.9602L33.0472 34.2419Z" fill="black" stroke="white" stroke-width="0.290821"/>
<path d="M32.7634 33.9308C32.7634 33.9308 33.1628 33.6133 33.3872 33.389C33.6116 33.1646 33.929 32.7651 33.929 32.7651C34.0282 32.6404 34.1973 32.6266 34.31 32.7393C34.4227 32.852 34.4227 33.0334 34.31 33.1461C34.31 33.1461 33.9946 33.5253 33.7591 33.7608C33.5235 33.9964 33.1443 34.3118 33.1443 34.3118C33.0257 34.4181 32.8502 34.4245 32.7376 34.3118C32.6249 34.1991 32.6507 34.0435 32.7634 33.9308Z" fill="black" stroke="white" stroke-width="0.290821"/>
<path d="M38.5993 39.7667C38.5993 39.7667 38.9987 39.4493 39.2231 39.2249C39.4475 39.0005 39.765 38.6011 39.765 38.6011C39.8641 38.4763 40.0333 38.4626 40.146 38.5753C40.2586 38.6879 40.2586 38.8694 40.146 38.982C40.146 38.982 39.8305 39.3612 39.595 39.5968C39.3594 39.8323 38.9803 40.1477 38.9803 40.1477C38.8616 40.2541 38.6862 40.2604 38.5735 40.1477C38.4608 40.0351 38.4866 39.8794 38.5993 39.7667Z" fill="black" stroke="white" stroke-width="0.290821"/>
<path d="M14.1939 8.69721C13.9914 8.99224 13.7474 9.06485 13.5214 9.00719C13.5332 9.58857 13.1494 9.94076 12.6139 9.8907C12.6461 10.4447 12.2341 10.8142 11.6868 10.7126C11.6868 10.7126 11.7797 11.1005 11.439 11.4412C11.0984 11.7818 10.7104 11.689 10.7104 11.689C10.8121 12.2362 10.4425 12.6482 9.88855 12.616C9.93861 13.1515 9.58642 13.5354 9.00504 13.5236C9.06271 13.7496 8.9901 13.9936 8.69507 14.196" stroke="white" stroke-width="0.290821" stroke-linecap="round" stroke-linejoin="round"/>
<path d="M15.1108 9.61611C14.8158 9.81857 14.7432 10.0626 14.8008 10.2886C14.2195 10.2767 13.8673 10.6606 13.9173 11.1961C13.3633 11.1639 12.9938 11.5759 13.0954 12.1232C13.0954 12.1232 12.7075 12.0303 12.3669 12.371C12.0262 12.7116 12.1191 13.0996 12.1191 13.0996C11.5718 12.9979 11.1598 13.3675 11.192 13.9215C10.6565 13.8714 10.2726 14.2236 10.2845 14.805C10.0585 14.7473 9.81448 14.8199 9.61201 15.1149" stroke="white" stroke-width="0.290821" stroke-linecap="round" stroke-linejoin="round"/>
<path d="M9.00442 13.524C8.37793 12.4208 7.7372 10.7207 9.11759 9.12068C8.28212 10.0213 9.15637 11.7846 9.88792 12.6164" stroke="white" stroke-width="0.290821" stroke-linecap="round" stroke-linejoin="round"/>
<path d="M9.11711 9.12019C8.89202 9.77112 10.2371 11.1506 10.7093 11.6888" stroke="white" stroke-width="0.290821" stroke-linecap="round" stroke-linejoin="round"/>
<path d="M9.11719 9.12109C9.76811 8.89601 11.1476 10.2411 11.6858 10.7133" stroke="white" stroke-width="0.290821" stroke-linecap="round" stroke-linejoin="round"/>
<path d="M13.5204 9.00792C12.4173 8.38143 10.7172 7.7407 9.11719 9.12109C10.0178 8.28562 11.7811 9.15987 12.6129 9.89143" stroke="white" stroke-width="0.290821" stroke-linecap="round" stroke-linejoin="round"/>
<path d="M10.2852 14.8047C11.3883 15.4312 13.0884 16.0719 14.6884 14.6915C13.7878 15.527 12.0245 14.6527 11.1927 13.9212" stroke="white" stroke-width="0.290821" stroke-linecap="round" stroke-linejoin="round"/>
<path d="M14.6897 14.6918C14.0388 14.9169 12.6593 13.5719 12.1211 13.0996" stroke="white" stroke-width="0.290821" stroke-linecap="round" stroke-linejoin="round"/>
<path d="M14.6859 14.6927C14.911 14.0418 13.5659 12.6623 13.0937 12.1241" stroke="white" stroke-width="0.290821" stroke-linecap="round" stroke-linejoin="round"/>
<path d="M14.7973 10.2887C15.4238 11.3918 16.0645 13.0919 14.6841 14.6919C15.5196 13.7913 14.6453 12.028 13.9138 11.1962" stroke="white" stroke-width="0.290821" stroke-linecap="round" stroke-linejoin="round"/>
<path fill-rule="evenodd" clip-rule="evenodd" d="M8.74786 8.93793C8.71492 8.96682 8.68352 8.99937 8.65602 9.03654C8.5977 9.11535 8.55487 9.2118 8.54427 9.33086C8.53453 9.44018 8.51701 9.54655 8.4667 9.64283C8.41134 9.74878 8.41115 9.87294 8.40228 9.99574C8.40209 9.99806 8.40158 10.0003 8.40077 10.0025C8.39266 10.0249 8.40381 10.0489 8.42612 10.0572C8.4267 10.0573 8.42699 10.0576 8.42747 10.0577C8.42786 10.0579 8.42824 10.058 8.42862 10.0581C8.4291 10.0582 8.42988 10.0584 8.43016 10.0585C8.43061 10.0586 8.43106 10.0586 8.43151 10.0587C8.43209 10.0589 8.43344 10.0591 8.43526 10.0594C8.43574 10.0595 8.4352 10.0593 8.43641 10.0594L8.4366 10.0596C8.43814 10.0598 8.43877 10.0597 8.43942 10.0598C8.45041 10.0604 8.46113 10.0568 8.46947 10.0497C8.4707 10.0486 8.47203 10.0477 8.47343 10.0469C8.48876 10.0381 8.87955 9.81393 9.34454 9.34893C9.80818 8.88529 10.0322 8.49629 10.0421 8.47895C10.0421 8.47895 10.0449 8.47501 10.0457 8.47386C10.052 8.46613 10.0555 8.45682 10.0556 8.447L10.0558 8.44681C10.0558 8.44604 10.0558 8.44527 10.0558 8.44456L10.0556 8.4436C10.0556 8.44321 10.0556 8.44283 10.0556 8.44245L10.0554 8.44225L10.0554 8.44186C10.0553 8.44142 10.0553 8.44097 10.0552 8.44052C10.055 8.43801 10.0546 8.43562 10.0539 8.4332L10.0537 8.43301C10.0534 8.43195 10.0531 8.43103 10.0528 8.43017C10.0527 8.42992 10.0525 8.42966 10.0524 8.4294C10.0437 8.40784 10.02 8.39717 9.99814 8.40517C9.99596 8.40599 9.99369 8.40649 9.99138 8.40669C9.86857 8.41555 9.74442 8.41574 9.63846 8.47111C9.54217 8.52142 9.43598 8.53876 9.32668 8.54849C9.09504 8.56911 8.94918 8.7125 8.85751 8.85389C8.85557 8.85689 8.85301 8.85945 8.85 8.8614C8.81545 8.88379 8.78096 8.90896 8.74801 8.93784L8.74786 8.93793Z" fill="black"/>
<path d="M10.0105 8.44594C9.88111 8.45625 9.75378 8.45792 9.65652 8.50874C9.55249 8.5631 9.44006 8.58091 9.32885 8.59081C9.10642 8.61061 8.96878 8.74872 8.88188 8.88743C8.74317 8.97433 8.60507 9.11196 8.58526 9.3344C8.57536 9.44561 8.55755 9.55804 8.50319 9.66207C8.45237 9.75933 8.45071 9.88666 8.44039 10.016M8.44022 10.0164C8.44022 10.0164 8.84195 9.78896 9.31268 9.31823C9.78341 8.8475 10.0108 8.44577 10.0108 8.44577" stroke="white" stroke-width="0.290821" stroke-linecap="round" stroke-linejoin="round"/>
<path d="M8.88462 8.32817C8.92129 8.36485 8.95038 8.40838 8.97022 8.45629C8.99007 8.50421 9.00029 8.55557 9.00029 8.60743C9.00029 8.65929 8.99007 8.71064 8.97023 8.75855C8.95038 8.80647 8.92129 8.85 8.88462 8.88668C8.84795 8.92335 8.80441 8.95243 8.7565 8.97228C8.70859 8.99213 8.65724 9.00234 8.60537 9.00234C8.55351 9.00234 8.50215 8.99212 8.45424 8.97228C8.40633 8.95243 8.36279 8.92334 8.32612 8.88667C8.25206 8.81261 8.21045 8.71216 8.21045 8.60742C8.21045 8.50268 8.25206 8.40224 8.32612 8.32817C8.40018 8.25411 8.50063 8.21251 8.60537 8.21251C8.71011 8.21251 8.81055 8.25411 8.88462 8.32817Z" fill="black" stroke="white" stroke-width="0.290821" stroke-linecap="round" stroke-linejoin="round"/>
<path d="M33.3203 13.6768L34.5116 14.8681L15.1398 34.24L13.9484 33.0487L33.3203 13.6768Z" fill="black" stroke="white" stroke-width="0.290821"/>
<path d="M39.0692 14.6929C38.7031 15.059 38.2684 15.3494 37.7901 15.5476C37.3117 15.7457 36.799 15.8477 36.2812 15.8477C35.7635 15.8477 35.2508 15.7457 34.7724 15.5476C34.2941 15.3494 33.8594 15.059 33.4933 14.6929C33.1272 14.3268 32.8368 13.8921 32.6387 13.4138C32.4405 12.9354 32.3385 12.4227 32.3385 11.905C32.3385 11.3872 32.4405 10.8745 32.6387 10.3961C32.8368 9.91779 33.1272 9.48315 33.4933 9.11703C34.2327 8.37763 35.2356 7.96223 36.2812 7.96223C37.3269 7.96223 38.3298 8.37762 39.0692 9.11703C39.8086 9.85643 40.224 10.8593 40.224 11.905C40.224 12.9506 39.8086 13.9535 39.0692 14.6929Z" fill="black" stroke="white" stroke-width="0.290821" stroke-linecap="round" stroke-linejoin="round"/>
<path d="M8.16445 39.5111C8.16132 39.5139 8.15824 39.5167 8.15521 39.5196C8.12087 39.5539 8.09356 39.5946 8.07482 39.6393C8.05609 39.684 8.04631 39.7318 8.04603 39.7801C8.04575 39.8284 8.05498 39.8761 8.0732 39.9207C8.09141 39.9652 8.11826 40.0055 8.15221 40.0395C8.18616 40.0734 8.22653 40.1003 8.27103 40.1185C8.31554 40.1367 8.3633 40.1459 8.41157 40.1457C8.45985 40.1454 8.5077 40.1356 8.5524 40.1169C8.5971 40.0981 8.63777 40.0708 8.67209 40.0365C8.67496 40.0334 8.67779 40.0304 8.68056 40.0272L8.16445 39.5111Z" fill="black" stroke="white" stroke-width="0.290821" stroke-linecap="round" stroke-linejoin="round"/>
<path d="M8.15742 38.9182C8.11219 38.9309 8.07379 38.9528 8.04341 38.983C7.96052 39.0658 7.94233 39.2066 7.99284 39.3744C8.04335 39.5421 8.15842 39.723 8.31274 39.8774C8.46707 40.0317 8.64799 40.1468 8.81573 40.1973C8.98346 40.2478 9.12425 40.2296 9.20714 40.1467C9.23728 40.1162 9.25904 40.0778 9.27175 40.0325L8.15742 38.9182Z" fill="black" stroke="white" stroke-width="0.290821" stroke-linecap="round" stroke-linejoin="round"/>
<path d="M13.9495 33.0491L15.1409 34.2405L9.60286 39.9588L8.23121 38.5872L13.9495 33.0491Z" fill="black" stroke="white" stroke-width="0.290821"/>
<path d="M14.2606 32.7634C14.2606 32.7634 14.5781 33.1628 14.8024 33.3872C15.0268 33.6116 15.4263 33.929 15.4263 33.929C15.551 34.0282 15.5648 34.1973 15.4521 34.31C15.3394 34.4227 15.158 34.4227 15.0453 34.31C15.0453 34.31 14.6661 33.9946 14.4306 33.7591C14.195 33.5235 13.8796 33.1443 13.8796 33.1443C13.7733 33.0257 13.767 32.8502 13.8796 32.7376C13.9923 32.6249 14.1479 32.6507 14.2606 32.7634Z" fill="black" stroke="white" stroke-width="0.290821"/>
<path d="M8.42466 38.5993C8.42466 38.5993 8.74212 38.9987 8.96651 39.2231C9.1909 39.4475 9.59034 39.765 9.59034 39.765C9.71511 39.8641 9.72881 40.0333 9.61613 40.146C9.50346 40.2586 9.32203 40.2586 9.20936 40.146C9.20936 40.146 8.8302 39.8305 8.59465 39.595C8.3591 39.3594 8.04368 38.9803 8.04368 38.9803C7.93732 38.8616 7.931 38.6862 8.04368 38.5735C8.15635 38.4608 8.31198 38.4866 8.42466 38.5993Z" fill="black" stroke="white" stroke-width="0.290821"/>
<path d="M39.4952 14.1949C39.2001 13.9924 39.1275 13.7484 39.1852 13.5224C38.6038 13.5342 38.2516 13.1503 38.3017 12.6149C37.7477 12.6471 37.3782 12.2351 37.4798 11.6878C37.4798 11.6878 37.0918 11.7807 36.7512 11.44C36.4105 11.0994 36.5034 10.7114 36.5034 10.7114C35.9561 10.813 35.5441 10.4435 35.5763 9.88953C35.0409 9.93959 34.657 9.5874 34.6688 9.00602C34.4428 9.06368 34.1988 8.99107 33.9963 8.69605" stroke="white" stroke-width="0.290821" stroke-linecap="round" stroke-linejoin="round"/>
<path d="M38.5743 15.1128C38.3718 14.8178 38.1279 14.7452 37.9018 14.8028C37.9137 14.2214 37.5298 13.8693 36.9943 13.9193C37.0265 13.3653 36.6145 12.9958 36.0672 13.0974C36.0672 13.0974 36.1601 12.7095 35.8195 12.3688C35.4788 12.0282 35.0909 12.1211 35.0909 12.1211C35.1925 11.5738 34.823 11.1618 34.269 11.194C34.319 10.6585 33.9668 10.2746 33.3855 10.2864C33.4431 10.0604 33.3705 9.81643 33.0755 9.61396" stroke="white" stroke-width="0.290821" stroke-linecap="round" stroke-linejoin="round"/>
<path d="M34.6675 9.00638C35.7706 8.37989 37.4707 7.73916 39.0707 9.11955C38.1701 8.28407 36.4068 9.15833 35.575 9.88989" stroke="white" stroke-width="0.290821" stroke-linecap="round" stroke-linejoin="round"/>
<path d="M39.0702 9.11906C38.4193 8.89398 37.0398 10.239 36.5016 10.7113" stroke="white" stroke-width="0.290821" stroke-linecap="round" stroke-linejoin="round"/>
<path d="M39.0742 9.11914C39.2993 9.77007 37.9543 11.1495 37.482 11.6878" stroke="white" stroke-width="0.290821" stroke-linecap="round" stroke-linejoin="round"/>
<path d="M39.1874 13.5224C39.8139 12.4193 40.4546 10.7191 39.0742 9.11914C39.9097 10.0198 39.0354 11.7831 38.3039 12.6149" stroke="white" stroke-width="0.290821" stroke-linecap="round" stroke-linejoin="round"/>
<path d="M33.3867 10.2861C32.7602 11.3893 32.1195 13.0894 33.4999 14.6894C32.6644 13.7888 33.5387 12.0254 34.2702 11.1937" stroke="white" stroke-width="0.290821" stroke-linecap="round" stroke-linejoin="round"/>
<path d="M33.4976 14.6897C33.2725 14.0388 34.6176 12.6593 35.0898 12.1211" stroke="white" stroke-width="0.290821" stroke-linecap="round" stroke-linejoin="round"/>
<path d="M33.4977 14.6898C34.1486 14.9149 35.5281 13.5698 36.0663 13.0976" stroke="white" stroke-width="0.290821" stroke-linecap="round" stroke-linejoin="round"/>
<path d="M37.9027 14.8031C36.7996 15.4296 35.0995 16.0704 33.4995 14.69C34.4001 15.5254 36.1634 14.6512 36.9952 13.9196" stroke="white" stroke-width="0.290821" stroke-linecap="round" stroke-linejoin="round"/>
<path fill-rule="evenodd" clip-rule="evenodd" d="M39.2535 8.74982C39.2246 8.71688 39.192 8.68548 39.1549 8.65798C39.0761 8.59965 38.9796 8.55682 38.8605 8.54623C38.7512 8.53649 38.6449 8.51896 38.5486 8.46866C38.4426 8.41329 38.3185 8.4131 38.1957 8.40423C38.1934 8.40404 38.1911 8.40353 38.1889 8.40272C38.1665 8.39462 38.1425 8.40576 38.1343 8.42808C38.1341 8.42865 38.1338 8.42894 38.1337 8.42942C38.1336 8.42981 38.1334 8.4302 38.1333 8.43058C38.1332 8.43106 38.133 8.43183 38.1329 8.43212C38.1329 8.43257 38.1328 8.43302 38.1327 8.43346C38.1325 8.43404 38.1323 8.4354 38.132 8.43721C38.1319 8.43769 38.1321 8.43716 38.132 8.43837L38.1318 8.43856C38.1316 8.4401 38.1317 8.44072 38.1316 8.44138C38.131 8.45237 38.1346 8.46309 38.1417 8.47143C38.1428 8.47266 38.1437 8.47398 38.1445 8.47539C38.1533 8.49072 38.3775 8.8815 38.8425 9.3465C39.3061 9.81014 39.6951 10.0341 39.7125 10.0441C39.7125 10.0441 39.7164 10.0468 39.7175 10.0476C39.7253 10.054 39.7346 10.0575 39.7444 10.0576L39.7446 10.0578C39.7454 10.0578 39.7461 10.0578 39.7468 10.0578L39.7478 10.0576C39.7482 10.0576 39.7486 10.0576 39.749 10.0576L39.7492 10.0574L39.7495 10.0574C39.75 10.0573 39.7504 10.0572 39.7509 10.0572C39.7534 10.0569 39.7558 10.0565 39.7582 10.0559L39.7584 10.0557C39.7594 10.0554 39.7604 10.055 39.7612 10.0548C39.7615 10.0546 39.7617 10.0545 39.762 10.0544C39.7836 10.0456 39.7942 10.022 39.7862 10.0001C39.7854 9.99792 39.7849 9.99565 39.7847 9.99334C39.7758 9.87053 39.7757 9.74638 39.7203 9.64042C39.67 9.54413 39.6526 9.43794 39.6429 9.32864C39.6223 9.09699 39.4789 8.95114 39.3375 8.85947C39.3345 8.85752 39.332 8.85496 39.33 8.85196C39.3076 8.81741 39.2824 8.78291 39.2536 8.74997L39.2535 8.74982Z" fill="black"/>
<path d="M39.7435 10.0144C39.7332 9.88502 39.7315 9.75769 39.6807 9.66043C39.6264 9.5564 39.6085 9.44398 39.5986 9.33276C39.5788 9.11033 39.4407 8.97269 39.302 8.88579C39.2151 8.74708 39.0775 8.60897 38.8551 8.58917C38.7438 8.57927 38.6314 8.56146 38.5274 8.5071C38.4301 8.45628 38.3028 8.45461 38.1734 8.4443M38.1731 8.44413C38.1731 8.44413 38.4005 8.84586 38.8712 9.31659C39.342 9.78732 39.7437 10.0148 39.7437 10.0148" stroke="white" stroke-width="0.290821" stroke-linecap="round" stroke-linejoin="round"/>
<path d="M39.8613 8.88852C39.8246 8.9252 39.7811 8.95429 39.7332 8.97413C39.6852 8.99398 39.6339 9.0042 39.582 9.0042C39.5302 9.0042 39.4788 8.99398 39.4309 8.97414C39.383 8.95429 39.3394 8.9252 39.3028 8.88853C39.2661 8.85186 39.237 8.80832 39.2172 8.76041C39.1973 8.71249 39.1871 8.66114 39.1871 8.60928C39.1871 8.55742 39.1973 8.50606 39.2172 8.45815C39.237 8.41024 39.2661 8.3667 39.3028 8.33003C39.3768 8.25597 39.4773 8.21436 39.582 8.21436C39.6868 8.21436 39.7872 8.25597 39.8613 8.33003C39.9353 8.40409 39.9769 8.50454 39.9769 8.60928C39.9769 8.71402 39.9353 8.81446 39.8613 8.88852Z" fill="black" stroke="white" stroke-width="0.290821" stroke-linecap="round" stroke-linejoin="round"/>
<path d="M15.6763 0.0673828L20.7711 20.776L0.0625 15.6812V32.5108L20.7713 27.4157L15.6763 48.1246H32.5058L27.4104 27.4154L48.1196 32.5108V15.6812L27.4107 20.7763L32.5058 0.0673828H15.6763Z" fill="white" stroke="white" stroke-width="0.0830916"/>
<path d="M22.0251 22.0301L16.8475 0.985352H31.3346L26.1569 22.0301L47.2015 16.8524V31.3395L26.1569 26.1619L31.3346 47.2066H16.8475L22.0251 26.1619L0.980469 31.3395V16.8524L22.0251 22.0301Z" fill="black" stroke="white" stroke-width="0.0830916"/>
<path d="M24.0927 3.42969L25.7636 5.18361V38.6738H22.4219V5.18361L24.0927 3.42969Z" fill="black" stroke="white" stroke-width="0.290821" stroke-linecap="round" stroke-linejoin="round"/>
<path d="M23.0117 38.8105H25.1694L24.9824 43.2894H23.1987L23.0117 38.8105Z" fill="black" stroke="white" stroke-width="0.290821" stroke-linecap="round" stroke-linejoin="round"/>
<path fill-rule="evenodd" clip-rule="evenodd" d="M25.1427 39.0961C25.1343 39.0959 25.1259 39.0974 25.118 39.1003L23.0547 39.8347L23.0605 39.9768C23.0616 39.9764 23.0627 39.976 23.0637 39.9755L25.152 39.2323L25.1576 39.0976C25.1527 39.0964 25.1477 39.0958 25.1427 39.0957L25.1427 39.0961ZM25.126 39.8568C25.1233 39.8575 25.1206 39.8583 25.118 39.8593L23.086 40.5825L23.0919 40.7246L25.1199 40.003L25.126 39.8568ZM25.0938 40.6268L23.1171 41.3299L23.123 41.4723L25.0877 40.7732L25.0938 40.6268ZM25.0614 41.3971L23.1485 42.0776L23.1543 42.2203L25.0553 41.5435L25.0614 41.3971ZM25.0293 42.1672L23.1795 42.8256L23.1854 42.9677L25.0232 42.3138L25.0293 42.1672Z" fill="white"/>
<path d="M24.0938 6.80273V38.7086" stroke="white" stroke-width="0.290821" stroke-linecap="round" stroke-linejoin="round"/>
<path d="M20.25 37.5293V38.91C20.25 38.9571 20.2879 38.995 20.335 38.995H27.8488C27.8959 38.995 27.9338 38.9571 27.9338 38.91V37.5293L24.0919 38.1498L20.25 37.5293Z" fill="black" stroke="white" stroke-width="0.290821" stroke-linecap="round" stroke-linejoin="round"/>
<path fill-rule="evenodd" clip-rule="evenodd" d="M22.2656 43.0635C22.2656 43.0635 22.7813 44.7634 24.0888 44.7634C25.3963 44.7634 25.912 43.0635 25.912 43.0635C25.912 43.0635 25.3205 43.259 24.0888 43.259C22.8571 43.259 22.2656 43.0635 22.2656 43.0635Z" fill="black" stroke="white" stroke-width="0.290821" stroke-linecap="round" stroke-linejoin="round"/>
<path d="M33.6938 24.096C33.6938 26.6433 32.6819 29.0863 30.8807 30.8875C29.0794 32.6888 26.6364 33.7007 24.0891 33.7007C21.5418 33.7007 19.0988 32.6888 17.2975 30.8875C15.4963 29.0863 14.4844 26.6433 14.4844 24.096C14.4844 22.8347 14.7328 21.5857 15.2155 20.4204C15.6982 19.2551 16.4057 18.1963 17.2975 17.3044C18.1894 16.4125 19.2482 15.705 20.4135 15.2223C21.5788 14.7396 22.8278 14.4912 24.0891 14.4912C25.3504 14.4912 26.5994 14.7396 27.7647 15.2223C28.93 15.705 29.9888 16.4125 30.8807 17.3044C31.7725 18.1963 32.48 19.2551 32.9627 20.4204C33.4454 21.5857 33.6938 22.8347 33.6938 24.096Z" fill="black" stroke="white" stroke-width="0.290821"/>
<path d="M32.7041 24.0962C32.7041 26.3807 31.7966 28.5717 30.1812 30.1871C28.5658 31.8025 26.3748 32.71 24.0903 32.71C21.8058 32.71 19.6149 31.8025 17.9995 30.1871C16.3841 28.5717 15.4766 26.3807 15.4766 24.0962C15.4766 21.8117 16.3841 19.6207 17.9995 18.0053C19.6149 16.3899 21.8058 15.4824 24.0903 15.4824C26.3748 15.4824 28.5658 16.3899 30.1812 18.0053C31.7966 19.6207 32.7041 21.8117 32.7041 24.0962Z" fill="white" stroke="white" stroke-width="0.270599"/>
<path d="M24.0937 16.8564C23.7563 17.2393 23.5508 17.7404 23.5508 18.2905C23.5707 19.4983 23.7189 20.7036 23.7317 21.911C23.7585 23.0363 23.421 24.0931 23.0106 25.1241C22.8739 25.409 22.7259 25.6879 22.5779 25.967L22.1424 25.8794C21.7506 25.801 21.4957 25.4199 21.574 25.028C21.6426 24.685 21.9444 24.4469 22.281 24.4453L22.4394 24.4623L22.0859 21.5093C21.9703 20.1944 21.2921 19.0409 20.293 18.2905C20.1213 18.1615 19.9394 18.0436 19.75 17.9398V28.4278H22.1707C22.3517 29.4106 22.8925 30.2667 23.6525 30.8547C23.8333 30.9793 23.9848 31.1437 24.0937 31.3355C24.2026 31.1437 24.3541 30.9793 24.5349 30.8547C25.2949 30.2667 25.8357 29.4106 26.0167 28.4278H28.4374V17.9398C28.2481 18.0436 28.0661 18.1615 27.8945 18.2905C26.8954 19.0409 26.2171 20.1944 26.1015 21.5093L25.7481 24.4623L25.9064 24.4453C26.2431 24.4469 26.5448 24.685 26.6134 25.028C26.6917 25.4199 26.4369 25.801 26.045 25.8794L25.6095 25.967C25.4615 25.6879 25.3136 25.409 25.1768 25.1241C24.7664 24.0931 24.4289 23.0363 24.4557 21.911C24.4686 20.7036 24.6167 19.4983 24.6367 18.2905C24.6367 17.7404 24.4311 17.2393 24.0937 16.8564ZM20.474 19.4502C20.9425 20.0001 21.2569 20.6854 21.3506 21.4386L21.6419 23.874C21.271 24.0586 20.9898 24.3975 20.884 24.8074H20.474V19.4502ZM27.7135 19.4502V24.8074H27.3034C27.1976 24.3975 26.9164 24.0586 26.5455 23.874L26.8368 21.4386C26.9306 20.6854 27.245 20.0001 27.7135 19.4502ZM24.0937 24.3463C24.2882 24.9825 24.5557 25.5866 24.8884 26.1481C24.572 26.2442 24.2966 26.4312 24.0937 26.6826C23.8908 26.4312 23.6154 26.2442 23.2991 26.1481C23.6317 25.5866 23.8992 24.9825 24.0937 24.3463ZM20.474 25.5315H20.884C21.0133 26.0312 21.4034 26.426 21.8992 26.5639L22.2471 26.6431C22.1539 26.9808 22.1028 27.3366 22.1028 27.7037H20.474V25.5315ZM27.3034 25.5315H27.7135V27.7037H26.0846C26.0846 27.3366 26.0335 26.9808 25.9404 26.6431L26.2882 26.5639C26.7841 26.426 27.1741 26.0312 27.3034 25.5315ZM22.954 26.8099C23.3932 26.872 23.7317 27.2474 23.7317 27.7037H22.8268C22.8268 27.3934 22.8728 27.0942 22.954 26.8099ZM25.2334 26.8099C25.3147 27.0942 25.3606 27.3934 25.3606 27.7037H24.4557C24.4557 27.2474 24.7942 26.872 25.2334 26.8099ZM22.9088 28.4278H23.7317V29.9524C23.3324 29.5348 23.0422 29.0104 22.9088 28.4278ZM24.4557 28.4278H25.2786C25.1452 29.0104 24.8551 29.5348 24.4557 29.9524V28.4278Z" fill="black"/>
</g>
<defs>
<clipPath id="clip0_525_314">
<rect width="48.1931" height="48.1932" fill="white"/>
</clipPath>
</defs>
</svg>
