<svg width="165" height="47" viewBox="0 0 165 47" fill="none" xmlns="http://www.w3.org/2000/svg">
<path d="M33.0492 18.5655C33.0492 24.1965 33.0492 29.8275 33.0492 35.4585C33.065 36.3938 32.8802 37.3216 32.5073 38.1795C31.918 39.4978 30.9926 40.5156 29.694 41.1471C28.5286 41.714 27.3342 42.2176 26.1504 42.7462C23.7132 43.8343 21.2739 44.9219 18.8324 46.0091C18.1956 46.2912 17.5562 46.5641 16.9248 46.8567C16.7981 46.9184 16.6587 46.9494 16.5178 46.9471C16.3769 46.9448 16.2386 46.9093 16.114 46.8436C13.3895 45.6228 10.6597 44.4095 7.92458 43.2037C6.6669 42.646 5.41054 42.0857 4.14891 41.5386C3.21026 41.1326 2.3428 40.6316 1.64409 39.8617C0.621601 38.7607 0.0381327 37.3232 0.00410145 35.821C-0.00512681 35.4743 0.00410145 35.1263 0.00410145 34.7782V1.36788C0.00410145 1.20969 0.00410145 1.05149 0.00410145 0.893286C0.018603 0.583479 0.0528776 0.554474 0.377185 0.541291C0.440464 0.541291 0.509017 0.541291 0.567023 0.541291H32.3636C33.0979 0.541291 33.0544 0.505698 33.0544 1.24396L33.0492 18.5655ZM16.4976 44.348C16.5504 44.3256 16.5899 44.3216 16.6044 44.3005C16.9999 43.7112 17.5365 43.2801 18.0757 42.8358C19.994 41.2757 21.3389 39.1219 21.8988 36.7135C22.0596 36.0544 22.0886 36.1506 22.6199 36.1493C24.5328 36.1493 26.443 36.1493 28.3599 36.1493C28.9294 36.1493 28.932 36.1493 28.932 35.5679V6.80862C28.932 6.69788 28.932 6.58714 28.932 6.4764C28.9189 6.3182 28.8529 6.27338 28.7158 6.3327C28.6145 6.37719 28.5167 6.42919 28.4232 6.48826C27.8142 6.85984 27.2362 7.28 26.6948 7.74463C24.0582 10.0438 22.5988 12.9533 22.2271 16.4232C22.1229 17.3961 22.0161 18.3703 21.8988 19.342C21.7274 20.7697 21.5455 22.1948 21.3715 23.6212C21.3319 23.935 21.2924 24.2488 21.2726 24.5625C21.2607 24.7708 21.3227 24.8262 21.5218 24.8011C21.853 24.7603 22.1889 24.8142 22.4907 24.9567C22.8754 25.1195 23.201 25.3964 23.4235 25.7499C23.6461 26.1035 23.7549 26.5167 23.7354 26.934C23.7158 27.3513 23.5689 27.7526 23.3143 28.0838C23.0597 28.415 22.7097 28.6603 22.3114 28.7864C21.9471 28.8898 21.5768 28.9712 21.2027 29.0303C20.8507 29.0936 20.8468 29.0831 20.6754 28.7825C19.8565 27.3007 19.1887 25.7403 18.6821 24.1248C18.1548 22.4796 17.7144 20.8145 17.6274 19.0809C17.5826 18.1502 17.5694 17.2168 17.5879 16.2861C17.605 15.4186 17.6854 14.5511 17.7368 13.6837C17.7777 12.9903 17.8146 12.2955 17.8568 11.6021C17.9161 10.6397 18.0124 9.67993 18.0256 8.71756C18.0348 8.02543 18.1244 7.33595 18.0559 6.63724C17.9661 5.73802 17.6876 4.86787 17.2385 4.08364C17.0647 3.80079 16.8745 3.52831 16.669 3.26759C16.6568 3.24689 16.6398 3.22944 16.6194 3.21674C16.599 3.20404 16.5758 3.19646 16.5519 3.19464C16.5279 3.19283 16.5039 3.19684 16.4818 3.20633C16.4597 3.21582 16.4403 3.2305 16.4251 3.24914C16.3777 3.29233 16.3337 3.33905 16.2933 3.38888C15.4891 4.41454 15.0185 5.56807 14.9934 6.87981C14.9734 8.35006 15.0319 9.82033 15.1688 11.2843C15.2545 12.2744 15.3151 13.2684 15.3652 14.2624C15.4153 15.209 15.4377 16.1569 15.472 17.1048C15.5454 18.877 15.3449 20.6499 14.8774 22.3609C14.5808 23.4261 14.2103 24.4702 13.8715 25.5249C13.4919 26.7114 12.8657 27.7753 12.3185 28.88C12.2959 28.9479 12.2478 29.0044 12.1843 29.0376C12.1209 29.0707 12.0471 29.0781 11.9784 29.058C11.5829 28.971 11.1677 28.917 10.7735 28.8036C10.3374 28.6797 9.95494 28.4141 9.6864 28.0489C9.41786 27.6836 9.27851 27.2394 9.29029 26.7862C9.30207 26.333 9.46432 25.8966 9.75148 25.5458C10.0386 25.195 10.4344 24.9497 10.8763 24.8486C11.1027 24.7744 11.3436 24.755 11.579 24.7919C11.602 24.799 11.6265 24.8002 11.6502 24.7953C11.6738 24.7904 11.6958 24.7797 11.7142 24.764C11.7326 24.7484 11.7468 24.7284 11.7554 24.7058C11.764 24.6833 11.7668 24.6589 11.7635 24.635C11.7625 24.4614 11.7515 24.288 11.7306 24.1156C11.6172 23.1427 11.5012 22.1706 11.3825 21.1995C11.3021 20.5403 11.2204 19.8811 11.1413 19.222C11.0319 18.3123 10.9053 17.404 10.8209 16.4917C10.7365 15.4701 10.5334 14.4619 10.2158 13.4873C9.25748 10.5721 7.28727 8.09639 4.66173 6.50804C4.52067 6.42103 4.31765 6.29183 4.20427 6.33666C4.03157 6.40521 4.11726 6.64646 4.11726 6.81257C4.11726 16.3986 4.11726 25.9837 4.11726 35.5679C4.11726 36.144 4.11726 36.1467 4.68942 36.1467C6.55616 36.1467 8.42246 36.1467 10.2883 36.1467C11.111 36.1467 10.9976 36.0596 11.2112 36.8849C11.8571 39.4135 13.2282 41.4648 15.2755 43.0692C15.696 43.3793 16.0629 43.756 16.3618 44.1845C16.4034 44.2419 16.4488 44.2966 16.4976 44.348Z" fill="white"/>
<path d="M44.3558 11.7866V22.6448C44.3558 22.7852 44.3558 22.9129 44.3558 23.0477C44.3558 23.591 44.3558 23.5938 43.8664 23.598C43.3598 23.598 42.8532 23.598 42.3479 23.598C42.0326 23.598 42.0036 23.5517 41.9904 23.212C41.9904 23.1109 41.9904 23.0098 41.9904 22.9087C41.9904 15.5033 41.9904 8.0965 41.9904 0.688281C41.9904 -0.0375645 41.9178 0.00033894 42.6223 0.00033894C43.1131 0.00033894 43.6039 0.00033894 44.0933 0.00033894C44.307 0.00033894 44.34 0.0480754 44.3572 0.269901C44.3664 0.420124 44.3572 0.573154 44.3572 0.724781L44.3558 11.7866Z" fill="white"/>
<path d="M58.0027 3.34826C57.9368 3.57369 57.8709 3.79781 57.8049 4.02456C57.3277 5.72784 56.85 7.43155 56.3719 9.13571C56.2401 9.61558 56.2032 9.6314 55.7246 9.60503C55.6548 9.60615 55.587 9.58192 55.5336 9.53684C55.4803 9.49175 55.4451 9.42886 55.4346 9.35983C55.2764 8.78108 55.1116 8.20365 54.9495 7.62623C54.583 6.31757 54.2152 5.00935 53.846 3.70157C53.8082 3.551 53.7434 3.40853 53.6549 3.28102C53.6812 4.14716 53.7181 5.01462 53.7287 5.88076C53.7432 6.97233 53.7366 8.06391 53.7392 9.15417C53.7473 9.24892 53.742 9.34434 53.7234 9.43761C53.7063 9.49825 53.6351 9.58394 53.5824 9.58658C53.3306 9.60372 53.0774 9.59845 52.8243 9.59581C52.7083 9.59581 52.6622 9.51671 52.6609 9.40992C52.6595 9.30314 52.6609 9.18844 52.6609 9.0777C52.6609 6.56234 52.6609 4.04785 52.6609 1.53424C52.6609 0.977906 52.62 1.00691 53.1618 1.00691C53.4584 1.00691 53.7537 1.0425 54.0504 1.06228C54.1321 1.33253 54.2231 1.60015 54.2943 1.87305C54.7794 3.75386 55.2628 5.63599 55.7444 7.51944C55.7734 7.63414 55.8156 7.74488 55.8762 7.9334C55.9369 7.73828 55.9791 7.62227 56.0081 7.5023C56.5143 5.54415 57.0201 3.58643 57.5255 1.62916C57.5571 1.50655 57.5848 1.38395 57.6204 1.26266C57.6903 1.02932 57.7061 1.01218 57.9473 1.00691C58.2321 0.998999 58.5168 0.998999 58.8016 1.00691C59.0653 1.00691 59.0784 1.02932 59.0929 1.31671C59.0929 1.41163 59.0929 1.50655 59.0929 1.60147V9.05002C59.0929 9.64854 59.118 9.59845 58.5656 9.59976C57.9513 9.59976 58.0001 9.63536 58.008 9.03288C58.0291 7.31906 58.0594 5.61842 58.0844 3.91118C58.0844 3.72134 58.0844 3.53282 58.0844 3.3443L58.0027 3.34826Z" fill="white"/>
<path d="M74.5564 32.6672C74.6249 32.4616 74.6645 32.36 74.6882 32.2559C75.2063 30.252 75.7178 28.2482 76.2412 26.2456C76.3888 25.6801 76.2834 25.7183 76.928 25.7183C77.1337 25.7183 77.3393 25.7183 77.545 25.7183C77.7045 25.7183 77.7744 25.7961 77.7731 25.9503C77.7731 26.0453 77.7731 26.1402 77.7731 26.2351C77.7731 28.7496 77.7731 31.2641 77.7731 33.7786C77.7731 34.3942 77.7876 34.3441 77.2049 34.3454C76.6617 34.3454 76.6775 34.3705 76.6894 33.8287C76.7131 32.0893 76.7395 30.3505 76.7685 28.612C76.7775 28.4173 76.7607 28.2223 76.7184 28.032C76.6789 28.144 76.634 28.2535 76.6024 28.3668C76.0927 30.1773 75.5838 31.9874 75.0758 33.797C75.0586 33.8577 75.0428 33.9183 75.0244 33.9789C74.9136 34.3481 74.9136 34.3481 74.5419 34.3454C74.207 34.3454 74.2004 34.3454 74.1002 33.9895C73.594 32.1953 73.0943 30.3997 72.5855 28.6054C72.5314 28.4156 72.5248 28.2034 72.3653 28.0148C72.3653 28.3629 72.3653 28.674 72.3653 28.9838C72.3838 30.644 72.4031 32.3042 72.4233 33.9644C72.4233 34.0119 72.4233 34.0594 72.4233 34.1068C72.4233 34.2584 72.3614 34.3441 72.2005 34.3428C71.979 34.3428 71.7576 34.3428 71.5414 34.3428C71.5177 34.3452 71.4938 34.3426 71.4712 34.3351C71.4486 34.3277 71.4279 34.3155 71.4103 34.2994C71.3927 34.2834 71.3788 34.2638 71.3693 34.242C71.3599 34.2201 71.3552 34.1965 71.3555 34.1727C71.3555 34.0778 71.3555 33.9829 71.3555 33.888C71.3555 31.3252 71.3555 28.7632 71.3555 26.2021C71.3555 26.1072 71.3555 26.0123 71.3555 25.9174C71.3555 25.7856 71.4359 25.7223 71.5664 25.7223C71.867 25.7223 72.1676 25.7144 72.4681 25.7223C72.741 25.7223 72.7489 25.7328 72.8215 26.0004C72.981 26.5963 73.1339 27.1869 73.2868 27.7894C73.6718 29.2897 74.0567 30.7895 74.4417 32.2889C74.4614 32.3772 74.4931 32.4668 74.5564 32.6672Z" fill="white"/>
<path d="M156.304 19.439C156.368 19.3151 156.436 19.1938 156.493 19.0685C157.308 17.3222 158.122 15.5745 158.936 13.8256C158.972 13.7216 159.021 13.6221 159.079 13.5289C159.144 13.4674 159.22 13.4179 159.302 13.3826C159.318 13.3792 159.334 13.3792 159.35 13.3826C160.404 13.3971 160.222 13.2284 160.225 14.1986C160.234 16.6178 160.225 19.0382 160.225 21.4573C160.225 22.0677 160.263 22.0058 159.65 22.0084C159.123 22.0084 159.144 22.0295 159.144 21.4811V15.8914L159.083 15.8703C159.017 15.9876 158.952 16.101 158.888 16.2223C158.06 17.9994 157.227 19.7725 156.416 21.5562C156.265 21.8884 156.096 22.0414 155.711 22.0163C155.062 21.9754 155.102 22.0704 155.102 21.3862V13.9376C155.102 13.3114 155.102 13.3826 155.674 13.3786C155.753 13.3786 155.832 13.3786 155.911 13.3786C156.183 13.3905 156.2 13.4076 156.212 13.6832C156.212 13.7939 156.212 13.9047 156.212 14.0154V19.4205L156.304 19.439Z" fill="white"/>
<path d="M107.042 19.4456C107.112 19.3137 107.185 19.1753 107.248 19.0382C108.064 17.2918 108.88 15.5446 109.695 13.7965C109.726 13.707 109.767 13.6212 109.817 13.5408C109.869 13.4667 109.945 13.413 110.032 13.3892C110.284 13.3707 110.537 13.3813 110.79 13.3892C110.814 13.3878 110.838 13.3915 110.86 13.4C110.882 13.4086 110.902 13.4218 110.919 13.4388C110.935 13.4558 110.948 13.4762 110.956 13.4986C110.964 13.5209 110.967 13.5448 110.965 13.5685C110.965 13.6792 110.965 13.7899 110.965 13.9007C110.965 16.431 110.965 18.9613 110.965 21.4916C110.965 22.044 110.977 22.0189 110.45 22.0097C109.841 22.0097 109.883 22.0651 109.883 21.4507C109.883 19.758 109.883 18.0657 109.883 16.3739V15.8716C109.703 15.9428 109.688 16.101 109.635 16.2157C108.803 17.9914 107.979 19.7751 107.15 21.5456C106.904 22.073 107.008 22.0071 106.416 22.0084C105.849 22.0084 105.84 22.0809 105.84 21.4507C105.84 18.9529 105.84 16.4543 105.84 13.9547C105.84 13.3232 105.833 13.3839 106.403 13.3826C106.972 13.3813 106.954 13.3483 106.954 13.9099C106.954 15.5868 106.954 17.2633 106.954 18.9393V19.4126L107.042 19.4456Z" fill="white"/>
<path d="M80.3724 31.7864C80.4423 31.6546 80.5174 31.5227 80.5807 31.3909C81.3963 29.6454 82.2115 27.8986 83.0262 26.1505C83.0671 26.0649 83.1079 25.9792 83.1462 25.8869C83.1652 25.8335 83.2014 25.788 83.2492 25.7575C83.2969 25.7269 83.3534 25.7131 83.4098 25.7181C83.6313 25.7181 83.8515 25.7181 84.069 25.7181C84.2232 25.7181 84.3089 25.7761 84.3076 25.9383C84.3076 26.049 84.3076 26.1598 84.3076 26.2705C84.3076 28.785 84.3076 31.2991 84.3076 33.8127C84.3076 34.394 84.3287 34.34 83.7605 34.34C83.1923 34.34 83.2253 34.365 83.2253 33.7942V28.2124C83.0407 28.2981 83.0209 28.4616 82.9616 28.5855C82.1381 30.3433 81.3168 32.1045 80.4977 33.8693C80.4634 33.9419 80.4265 34.0117 80.4001 34.0856C80.3775 34.1701 80.3249 34.2434 80.2521 34.292C80.1793 34.3405 80.0913 34.3608 80.0046 34.3492C79.0686 34.3255 79.1807 34.4811 79.1793 33.5582C79.1793 31.1391 79.1793 28.7186 79.1793 26.2995C79.1793 25.6404 79.1622 25.7168 79.7726 25.7129C80.3118 25.7129 80.2907 25.6905 80.2907 26.2297V31.7666L80.3724 31.7864Z" fill="white"/>
<path d="M86.4442 44.194C86.5062 44.0727 86.5761 43.9541 86.6315 43.8302C87.4541 42.0724 88.2758 40.3107 89.0967 38.545C89.1363 38.4593 89.1798 38.3749 89.214 38.2813C89.2329 38.2283 89.2693 38.1832 89.3173 38.1537C89.3652 38.1242 89.4219 38.112 89.4777 38.1192H89.5726C90.5416 38.135 90.3794 37.9768 90.3821 38.901C90.3913 41.3359 90.3821 43.7708 90.3821 46.2071C90.3821 46.7516 90.423 46.7147 89.864 46.7134C89.2378 46.7134 89.3024 46.7542 89.3024 46.1517C89.3024 44.4915 89.3024 42.8313 89.3024 41.1711V40.6227C89.1112 40.6715 89.1033 40.8349 89.0506 40.9444C88.2315 42.6898 87.4167 44.4375 86.6064 46.1873C86.5609 46.2723 86.5217 46.3604 86.4891 46.451C86.4192 46.6712 86.2663 46.7371 86.0514 46.7147C85.9196 46.7054 85.7983 46.7147 85.673 46.7147C85.267 46.7147 85.2617 46.7068 85.2617 46.2796C85.2617 43.9866 85.2617 41.6936 85.2617 39.4006C85.2617 39.0526 85.2617 38.7045 85.2617 38.3565C85.2617 38.2049 85.3263 38.1192 85.4871 38.1205C85.7073 38.1205 85.9288 38.1205 86.1463 38.1205C86.3111 38.1205 86.3678 38.2088 86.3638 38.3604C86.3638 38.4923 86.3638 38.6136 86.3638 38.7401C86.3638 40.4328 86.3638 42.1251 86.3638 43.817V44.1743L86.4442 44.194Z" fill="white"/>
<path d="M139.808 3.50571C139.738 3.63755 139.663 3.76938 139.599 3.90121C138.808 5.59131 138.021 7.28228 137.238 8.97413C137.2 9.04308 137.168 9.11493 137.141 9.18902C137.049 9.51201 136.847 9.62143 136.508 9.60561C135.79 9.57133 135.849 9.68866 135.849 8.94645C135.849 6.49524 135.849 4.04403 135.849 1.59282C135.849 0.94552 135.82 1.01144 136.445 1.0088C137.009 1.0088 136.962 1.0088 136.962 1.52427C136.962 3.217 136.962 4.90929 136.962 6.60115V7.06651L137.026 7.08892C137.096 6.95709 137.171 6.82526 137.234 6.69343C138.01 5.03233 138.783 3.37037 139.556 1.70752C139.615 1.57568 139.688 1.45308 139.734 1.31993C139.758 1.22052 139.819 1.1337 139.904 1.07624C139.988 1.01878 140.091 0.99475 140.193 1.0088C141.116 1.0378 140.968 0.876969 140.971 1.78398C140.978 4.21893 140.971 6.65388 140.971 9.09015C140.971 9.64648 141.009 9.60957 140.463 9.60957C139.814 9.60957 139.89 9.65439 139.89 9.01368C139.89 7.33677 139.89 5.6603 139.89 3.98427V3.53076L139.808 3.50571Z" fill="white"/>
<path d="M109.586 5.1225C110.67 5.70784 110.826 6.63727 110.737 7.67215C110.724 7.7664 110.706 7.85975 110.681 7.95164C110.472 8.92324 109.793 9.51912 108.795 9.589C108.45 9.61273 108.1 9.60086 107.752 9.60218C107.295 9.60218 106.836 9.60218 106.377 9.60218C106.022 9.60218 106.022 9.59295 106.013 9.21987C106.013 9.15659 106.013 9.08803 106.013 9.03003C106.013 6.54718 106.013 4.06521 106.013 1.58412C106.013 0.956592 105.951 1.01064 106.612 1.00801C107.148 1.00801 107.686 0.998779 108.224 1.00801C108.476 1.00886 108.727 1.03849 108.973 1.09634C109.859 1.32441 110.377 1.93084 110.474 2.83653C110.501 3.07199 110.508 3.30918 110.496 3.54579C110.488 3.80734 110.425 4.06433 110.311 4.30007C110.198 4.53582 110.036 4.74506 109.836 4.91421L109.586 5.1225ZM107.113 7.17119C107.113 7.59832 107.113 8.02414 107.113 8.45128C107.113 8.5963 107.176 8.69254 107.338 8.69254C107.764 8.69254 108.192 8.70572 108.617 8.67672C108.817 8.67238 109.01 8.60684 109.171 8.48896C109.333 8.37107 109.454 8.20653 109.519 8.01755C109.633 7.72112 109.686 7.40429 109.672 7.08677C109.659 6.76925 109.581 6.45784 109.442 6.1719C109.379 6.02523 109.273 5.90064 109.139 5.81383C109.005 5.72703 108.848 5.68189 108.688 5.68411C108.246 5.67488 107.805 5.67488 107.362 5.68411C107.154 5.68411 107.119 5.72103 107.114 5.93987C107.105 6.34987 107.113 6.76119 107.113 7.17119ZM107.846 4.73492C108.018 4.73492 108.192 4.74283 108.365 4.73492C108.588 4.73324 108.804 4.65685 108.978 4.51798C109.152 4.37911 109.275 4.18579 109.326 3.96897C109.435 3.60478 109.446 3.21816 109.358 2.84839C109.226 2.27228 108.907 1.98225 108.312 1.92556C108.032 1.90051 107.747 1.90843 107.463 1.91106C107.143 1.91106 107.117 1.93875 107.113 2.26437C107.105 2.84707 107.113 3.42978 107.113 4.01248C107.113 4.85884 107.022 4.72569 107.843 4.73492H107.846Z" fill="white"/>
<path d="M107.77 29.8468C107.826 29.8871 107.883 29.9241 107.943 29.9576C108.422 30.183 108.684 30.589 108.829 31.0729C109.02 31.6973 109.005 32.3664 108.787 32.9818C108.685 33.3073 108.496 33.5988 108.24 33.8249C107.985 34.0509 107.672 34.2029 107.337 34.2645C107.153 34.3095 106.964 34.3352 106.775 34.341C106.033 34.3502 105.291 34.3489 104.548 34.341C104.235 34.341 104.223 34.3212 104.211 34.0259C104.211 33.9152 104.211 33.8044 104.211 33.6937V26.3519C104.211 26.2583 104.211 26.1634 104.211 26.0685C104.221 25.735 104.229 25.7218 104.563 25.7191C105.21 25.7191 105.858 25.7073 106.505 25.7191C106.757 25.7261 107.008 25.765 107.251 25.8351C108.058 26.0724 108.524 26.6261 108.656 27.4514C108.698 27.7483 108.708 28.049 108.684 28.3479C108.671 28.6014 108.604 28.8491 108.487 29.0743C108.369 29.2995 108.205 29.4969 108.005 29.653C107.93 29.715 107.859 29.7756 107.77 29.8468ZM106.112 33.4063C106.318 33.4063 106.522 33.4063 106.726 33.4063C107.254 33.3852 107.621 33.115 107.765 32.6061C107.905 32.1177 107.892 31.5982 107.727 31.1177C107.577 30.6629 107.267 30.4137 106.784 30.4032C106.376 30.3939 105.966 30.3939 105.557 30.4032C105.342 30.4032 105.313 30.4401 105.293 30.651C105.284 30.7828 105.293 30.9028 105.293 31.0294C105.293 31.7373 105.293 32.4466 105.301 33.1545C105.301 33.3799 105.334 33.4023 105.545 33.4182C105.739 33.4103 105.925 33.4037 106.116 33.4037L106.112 33.4063ZM105.301 28.0433C105.301 28.4388 105.301 28.8343 105.301 29.2298C105.301 29.4474 105.342 29.4816 105.552 29.4843C105.883 29.4843 106.211 29.4988 106.546 29.4751C107.073 29.4368 107.387 29.1626 107.528 28.6643C107.64 28.2669 107.637 27.8455 107.517 27.4501C107.466 27.2326 107.343 27.0383 107.169 26.898C106.995 26.7576 106.78 26.6792 106.556 26.6749C106.227 26.6538 105.897 26.6604 105.562 26.6657C105.342 26.6657 105.312 26.696 105.306 26.9096C105.299 27.2893 105.305 27.661 105.305 28.0407L105.301 28.0433Z" fill="white"/>
<path d="M96.6134 30.0226V33.7232C96.6134 33.8339 96.6134 33.9447 96.6134 34.0554C96.6002 34.3098 96.5817 34.3428 96.3497 34.3415C95.3979 34.3415 95.5178 34.4733 95.5165 33.5729C95.5165 31.453 95.5165 29.3332 95.5165 27.2146C95.5165 26.5897 95.5495 26.6635 94.947 26.6583C94.599 26.6583 94.2523 26.6583 93.9042 26.6583C93.3571 26.6583 93.4046 26.6227 93.4032 27.1856C93.4032 28.0241 93.4217 28.8625 93.3914 29.6997C93.3624 30.4906 93.2912 31.2816 93.2121 32.0621C93.1627 32.5197 93.0286 32.964 92.8166 33.3725C92.5028 33.9868 92.0045 34.3283 91.3058 34.3481C91.0421 34.3481 91.0171 34.323 91.0039 34.0501C91.0039 34.0027 91.0039 33.9552 91.0039 33.9077C91.0039 33.503 91.0039 33.503 91.3888 33.3804C91.5121 33.3469 91.6254 33.2841 91.719 33.1973C91.8127 33.1106 91.884 33.0024 91.9267 32.8821C92.0392 32.6043 92.1154 32.3132 92.1535 32.0159C92.2207 31.2131 92.2669 30.4076 92.2853 29.6034C92.3064 28.6384 92.2853 27.6734 92.2853 26.7031C92.2853 26.45 92.3011 26.1982 92.3064 25.9451C92.3064 25.7934 92.3736 25.7091 92.5345 25.713C92.6452 25.713 92.756 25.713 92.8667 25.713H96.0399C96.1506 25.713 96.2614 25.713 96.3721 25.713C96.5224 25.713 96.612 25.7737 96.6107 25.9358C96.6107 26.0677 96.6107 26.1889 96.6107 26.3155C96.6134 27.5521 96.6142 28.7878 96.6134 30.0226Z" fill="white"/>
<path d="M57.8157 30.0794V33.78C57.8157 33.9118 57.8157 34.0331 57.8157 34.1596C57.8166 34.1834 57.8127 34.2071 57.8041 34.2292C57.7955 34.2514 57.7825 34.2715 57.7658 34.2884C57.7491 34.3054 57.7291 34.3187 57.7071 34.3276C57.6851 34.3365 57.6615 34.3408 57.6378 34.3403C57.6061 34.3422 57.5744 34.3422 57.5428 34.3403C56.6042 34.331 56.736 34.4602 56.7334 33.5967C56.7334 31.4874 56.7334 29.3899 56.7334 27.2872C56.7334 27.1765 56.7334 27.0657 56.7334 26.955C56.7215 26.6729 56.7136 26.6571 56.4328 26.6557C55.6585 26.6505 54.8838 26.6505 54.1086 26.6557C53.8107 26.6557 53.7988 26.6781 53.7856 26.9853C53.7856 27.1106 53.7856 27.2371 53.7856 27.3637C53.7856 29.4994 53.7856 31.6342 53.7856 33.7681C53.7856 34.4115 53.8001 34.335 53.2293 34.3416C53.1502 34.3416 53.0711 34.3416 52.992 34.3416C52.7283 34.3297 52.7046 34.3113 52.6914 34.0357C52.6914 33.9566 52.6914 33.8775 52.6914 33.7984V26.3064C52.6914 26.2273 52.6914 26.1482 52.6914 26.0691C52.702 25.7355 52.7099 25.7197 53.0434 25.7197C54.5287 25.7197 56.0149 25.7197 57.502 25.7197C57.8065 25.7197 57.8236 25.7382 57.825 26.0467C57.825 27.3914 57.825 28.7347 57.825 30.0794H57.8157Z" fill="white"/>
<path d="M136.947 17.7128V21.4147C136.947 21.5465 136.947 21.6678 136.947 21.7944C136.951 21.822 136.948 21.8501 136.939 21.8766C136.931 21.903 136.916 21.9272 136.896 21.9471C136.877 21.9671 136.853 21.9823 136.827 21.9917C136.801 22.0011 136.773 22.0044 136.745 22.0014C136.509 22.0014 136.272 22.0014 136.034 22.0014C136.011 22.0025 135.987 21.9986 135.964 21.99C135.942 21.9814 135.922 21.9683 135.905 21.9514C135.888 21.9346 135.875 21.9144 135.866 21.8921C135.857 21.8698 135.853 21.846 135.854 21.8221C135.845 21.681 135.845 21.5386 135.843 21.3963C135.843 19.2447 135.843 17.0937 135.843 14.943C135.843 14.2364 135.909 14.3274 135.199 14.3208C134.819 14.3208 134.439 14.3208 134.06 14.3208C133.741 14.3208 133.734 14.33 133.731 14.6346C133.731 15.2937 133.731 15.9634 133.722 16.6265C133.706 17.4017 133.681 18.1756 133.639 18.9494C133.618 19.4882 133.519 20.021 133.345 20.5314C133.246 20.8143 133.113 21.0842 132.95 21.3356C132.811 21.5394 132.625 21.7068 132.407 21.8236C132.19 21.9404 131.948 22.0032 131.701 22.0066C131.379 22.0277 131.344 21.9935 131.332 21.6823C131.332 21.6032 131.332 21.5241 131.332 21.445C131.332 21.1326 131.332 21.126 131.65 21.0588C131.775 21.038 131.894 20.9858 131.994 20.907C132.094 20.8282 132.172 20.7253 132.222 20.6079C132.336 20.3484 132.419 20.0763 132.468 19.7971C132.538 19.344 132.577 18.8869 132.587 18.4287C132.609 17.1104 132.608 15.8039 132.62 14.4909C132.62 14.1903 132.637 13.891 132.646 13.5904C132.644 13.5628 132.647 13.535 132.657 13.5089C132.666 13.4827 132.681 13.4591 132.701 13.4395C132.72 13.4199 132.744 13.405 132.77 13.3958C132.797 13.3865 132.824 13.3832 132.852 13.3861H133.137H136.458H136.742C136.77 13.3828 136.798 13.3857 136.824 13.3947C136.851 13.4037 136.874 13.4185 136.894 13.438C136.914 13.4575 136.929 13.4812 136.938 13.5074C136.948 13.5336 136.951 13.5615 136.948 13.5891C136.948 13.721 136.948 13.8422 136.948 13.9688L136.947 17.7128Z" fill="white"/>
<path d="M153.239 5.30707C153.239 4.05905 153.239 2.8106 153.239 1.5617C153.239 1.42987 153.239 1.30858 153.239 1.18202C153.238 1.1583 153.242 1.13466 153.251 1.11272C153.26 1.09078 153.274 1.07106 153.292 1.05491C153.309 1.03876 153.33 1.02656 153.352 1.01915C153.375 1.01173 153.399 1.00928 153.422 1.01196C153.66 1.01196 153.897 1.01196 154.133 1.01196C154.157 1.00978 154.18 1.01279 154.203 1.0208C154.225 1.0288 154.246 1.0416 154.263 1.05829C154.279 1.07499 154.293 1.09518 154.301 1.11746C154.309 1.13974 154.313 1.16358 154.311 1.1873C154.311 1.29804 154.311 1.40877 154.311 1.51951V4.27086C154.311 4.40269 154.311 4.52398 154.311 4.65054C154.308 4.67414 154.31 4.69807 154.318 4.7206C154.326 4.74312 154.338 4.76367 154.355 4.78073C154.371 4.79779 154.391 4.81093 154.414 4.8192C154.436 4.82747 154.46 4.83065 154.484 4.82851C154.658 4.82851 154.832 4.82851 155.011 4.82851C155.658 4.82851 156.307 4.82851 156.954 4.82851C157.231 4.82851 157.245 4.81269 157.247 4.52925C157.247 3.59719 157.247 2.66382 157.247 1.73177C157.247 0.889355 157.115 1.01723 158.022 1.00405H158.117C158.249 1.00405 158.326 1.05942 158.33 1.19784C158.334 1.33627 158.338 1.45096 158.338 1.5762V9.06693C158.338 9.64568 158.366 9.59426 157.791 9.59426H157.696C157.251 9.59426 157.247 9.59427 157.245 9.15526C157.245 8.20739 157.245 7.25951 157.245 6.31163C157.245 6.20089 157.245 6.09015 157.245 5.97941C157.245 5.84758 157.193 5.77112 157.052 5.7698H156.911C156.151 5.7698 155.393 5.7698 154.635 5.7698C154.321 5.7698 154.313 5.77903 154.312 6.08883C154.312 7.06967 154.312 8.04918 154.312 9.0287C154.312 9.63381 154.373 9.59558 153.754 9.59558C153.188 9.59558 153.227 9.63777 153.227 9.04584C153.235 7.80222 153.239 6.55596 153.239 5.30707Z" fill="white"/>
<path d="M104.452 17.7411V21.3928C104.452 21.5247 104.452 21.646 104.452 21.7725C104.452 21.9228 104.389 22.0072 104.227 22.0059C103.193 21.9953 103.375 22.1377 103.365 21.2149C103.354 20.3606 103.365 19.5076 103.365 18.6534C103.365 18.5426 103.365 18.4319 103.365 18.3211C103.366 18.2976 103.363 18.274 103.354 18.2519C103.346 18.2298 103.333 18.2098 103.316 18.1932C103.3 18.1766 103.28 18.1637 103.257 18.1555C103.235 18.1474 103.212 18.1441 103.188 18.1458C103.077 18.1458 102.967 18.1458 102.856 18.1458C102.239 18.1458 101.623 18.1458 101.01 18.1458C100.397 18.1458 100.439 18.0825 100.437 18.7417C100.437 19.6645 100.437 20.5755 100.437 21.493C100.437 22.0283 100.462 22.0072 99.9094 22.0045C99.3228 22.0045 99.3478 22.0612 99.3478 21.4363V13.9443C99.3478 13.3234 99.3241 13.3814 99.9107 13.3787C100.462 13.3787 100.438 13.359 100.438 13.8929V16.6429C100.438 16.7747 100.438 16.896 100.438 17.0226C100.438 17.1491 100.488 17.2335 100.631 17.2348H100.725C101.516 17.2348 102.307 17.2348 103.098 17.2348C103.349 17.2348 103.37 17.2124 103.371 16.9606C103.371 15.964 103.371 14.9686 103.371 13.972C103.371 13.3326 103.321 13.3774 103.954 13.3774C104.464 13.3774 104.466 13.322 104.466 13.8982L104.452 17.7411Z" fill="white"/>
<path d="M134.494 5.35238V9.00546C134.494 9.1373 134.494 9.25726 134.494 9.38382C134.494 9.51038 134.442 9.59607 134.303 9.59739C134.066 9.59739 133.829 9.59739 133.591 9.59739C133.568 9.59939 133.544 9.5962 133.521 9.58803C133.499 9.57986 133.479 9.56692 133.462 9.55009C133.445 9.53327 133.432 9.51298 133.424 9.49064C133.416 9.4683 133.413 9.44444 133.415 9.42074C133.415 9.27836 133.415 9.13598 133.415 8.9936V2.54303C133.415 2.4112 133.415 2.28991 133.415 2.16467C133.402 1.95506 133.373 1.91946 133.151 1.91814C132.344 1.91814 131.538 1.91814 130.732 1.91814C130.525 1.91814 130.484 1.9656 130.468 2.1673C130.458 2.30968 130.468 2.45206 130.468 2.59444C130.468 4.74419 130.468 6.89438 130.468 9.04501C130.468 9.66726 130.5 9.59739 129.899 9.60135C129.34 9.60135 129.371 9.61849 129.371 9.09379C129.371 6.56436 129.371 4.03494 129.371 1.50551V1.45804C129.371 1.01113 129.371 1.00718 129.81 1.00586H134.125C134.498 1.01509 134.5 1.01509 134.508 1.36708C134.508 1.47782 134.508 1.58856 134.508 1.6993L134.494 5.35238Z" fill="white"/>
<path d="M116.93 5.35912C116.93 5.83372 116.939 6.30831 116.93 6.78159C116.928 7.33678 116.8 7.88429 116.557 8.38336C116.068 9.34178 115.264 9.79133 114.205 9.75442C113.147 9.71751 112.428 9.17435 112.021 8.20934C111.811 7.66275 111.709 7.08087 111.719 6.49551C111.703 5.72122 111.703 4.94692 111.719 4.17262C111.71 3.6023 111.808 3.03538 112.008 2.50099C112.313 1.76272 112.799 1.20112 113.604 1.00468C115.003 0.663238 116.097 1.24989 116.618 2.41925C116.825 2.89983 116.932 3.41739 116.933 3.9406C116.933 4.4152 116.933 4.88979 116.933 5.36307L116.93 5.35912ZM115.876 5.33802H115.849C115.849 5.22728 115.849 5.11655 115.849 5.00581C115.829 4.46925 115.822 3.93269 115.782 3.39745C115.759 3.0487 115.642 2.71261 115.444 2.42453C115.317 2.2331 115.143 2.07746 114.939 1.97244C114.734 1.86741 114.506 1.81651 114.276 1.82457C114.047 1.83263 113.823 1.8994 113.626 2.0185C113.43 2.1376 113.267 2.30507 113.153 2.50494C112.966 2.81904 112.863 3.17669 112.857 3.54246C112.845 4.72896 112.836 5.91545 112.865 7.09404C112.885 7.42442 112.968 7.74787 113.11 8.04719C113.199 8.27801 113.357 8.47587 113.562 8.61403C113.768 8.75218 114.011 8.82398 114.258 8.81973C114.839 8.83555 115.278 8.60352 115.528 8.0841C115.66 7.81545 115.746 7.52606 115.781 7.2285C115.839 6.60098 115.845 5.9695 115.874 5.33802H115.876Z" fill="white"/>
<path d="M109.899 30.0662C109.899 29.498 109.883 28.9285 109.899 28.3603C109.922 27.8536 110.057 27.3583 110.295 26.9101C111.175 25.1963 113.614 25.2411 114.54 26.7348C114.824 27.1751 114.993 27.6795 115.031 28.2021C115.066 28.7373 115.067 29.2752 115.071 29.8131C115.071 30.3975 115.067 30.982 115.06 31.5664C115.06 32.0903 114.941 32.6072 114.712 33.0786C114.213 34.0779 113.394 34.5287 112.287 34.4694C111.241 34.4167 110.557 33.8643 110.16 32.9217C109.997 32.5429 109.908 32.1367 109.896 31.7246C109.883 31.1723 109.896 30.6199 109.896 30.0662H109.899ZM113.986 30.1031C113.986 29.6298 113.986 29.1552 113.986 28.6819C113.986 28.6345 113.986 28.587 113.986 28.5396C113.983 28.1113 113.881 27.6895 113.688 27.3069C113.592 27.0969 113.441 26.9172 113.25 26.7872C113.059 26.6573 112.836 26.5822 112.606 26.57C111.917 26.5265 111.44 26.802 111.206 27.4559C111.075 27.8113 111.001 28.1849 110.985 28.5633C110.958 29.5731 110.97 30.5843 110.985 31.5954C110.989 32.0063 111.082 32.4114 111.26 32.7819C111.403 33.0941 111.661 33.339 111.98 33.4655C112.3 33.592 112.655 33.5903 112.973 33.4609C113.167 33.389 113.341 33.2721 113.481 33.12C113.621 32.9678 113.723 32.7847 113.779 32.5855C113.883 32.2383 113.949 31.8806 113.974 31.519C114.006 31.0536 113.981 30.5777 113.981 30.1031H113.986Z" fill="white"/>
<path d="M83.9072 42.4409V46.094C83.9072 46.2259 83.9072 46.3458 83.9072 46.4724C83.9072 46.624 83.8558 46.715 83.691 46.7137C82.6469 46.7137 82.8393 46.8547 82.8262 45.9372C82.8156 45.1145 82.8262 44.2932 82.8262 43.4706C82.8262 43.3598 82.8262 43.2491 82.8262 43.1383C82.813 42.9221 82.7932 42.8931 82.5704 42.8918C81.7491 42.8918 80.9278 42.8918 80.1051 42.8918C79.9456 42.8918 79.8757 42.9643 79.8757 43.1199C79.8757 43.4192 79.8757 43.7197 79.8757 44.0203C79.8757 44.8113 79.8757 45.6023 79.8757 46.3933C79.8757 46.7044 79.8612 46.7189 79.5528 46.7189C78.6603 46.7189 78.7934 46.8257 78.7908 45.978C78.7855 43.5426 78.7855 41.1081 78.7908 38.6745C78.7908 38.0984 78.7433 38.1234 79.3181 38.1261C79.8929 38.1287 79.8797 38.0602 79.8784 38.6864C79.8784 39.5872 79.8784 40.4881 79.8784 41.3889C79.8784 41.4997 79.8784 41.6104 79.8784 41.7211C79.8784 41.8754 79.9443 41.9558 80.1051 41.9518C80.237 41.9518 80.3583 41.9518 80.4848 41.9518C81.144 41.9518 81.8124 41.9518 82.4755 41.9518C82.8196 41.9518 82.8275 41.9439 82.8288 41.6117C82.8288 40.8365 82.8288 40.0627 82.8288 39.2875C82.8288 38.9711 82.8288 38.6547 82.8288 38.3383C82.8288 38.2065 82.8868 38.1313 83.0239 38.1313C83.2612 38.1313 83.4985 38.1313 83.7358 38.1313C83.8492 38.1313 83.9019 38.2078 83.9045 38.3185C83.9072 38.4293 83.9045 38.5703 83.9045 38.6969L83.9072 42.4409Z" fill="white"/>
<path d="M65.0127 30.0317C65.0127 29.478 64.9929 28.9243 65.0127 28.3732C65.0356 27.8162 65.1939 27.2732 65.4741 26.7912C66.3798 25.2435 68.6209 25.2975 69.5438 26.5697C69.8684 27.0202 70.0743 27.5453 70.1423 28.0964C70.1706 28.3149 70.1851 28.5351 70.1858 28.7555C70.1858 29.6098 70.1858 30.4693 70.1858 31.3157C70.1964 31.8226 70.1156 32.3272 69.9472 32.8054C69.3579 34.3716 67.9262 34.7302 66.6738 34.3294C66.0146 34.1198 65.5914 33.636 65.3159 33.019C65.1242 32.6011 65.0197 32.1485 65.0087 31.6888C64.9982 31.1351 65.0087 30.5827 65.0087 30.0303L65.0127 30.0317ZM69.0995 30.0554C69.0995 29.5505 69.0995 29.0442 69.0995 28.5393C69.0998 28.1284 69.0069 27.7227 68.8279 27.3528C68.7201 27.1043 68.5378 26.8955 68.3061 26.7552C68.0744 26.6149 67.8048 26.5501 67.5346 26.5697C66.9401 26.5869 66.567 26.894 66.3337 27.4148C66.1865 27.7472 66.1085 28.106 66.1043 28.4694C66.0893 29.5241 66.0893 30.5823 66.1043 31.644C66.1079 32.0411 66.2012 32.4323 66.3772 32.7883C66.4532 32.9625 66.5674 33.1174 66.7114 33.2416C66.8554 33.3657 67.0255 33.4559 67.209 33.5055C67.5082 33.5962 67.8297 33.5801 68.1183 33.4598C68.4069 33.3396 68.6448 33.1227 68.791 32.8463C68.9988 32.4532 69.1062 32.0148 69.1034 31.5701C69.1021 31.0665 69.0929 30.5616 69.0929 30.058L69.0995 30.0554Z" fill="white"/>
<path d="M68.0963 5.31317C68.0963 6.59282 68.0963 7.87292 68.0963 9.15345C68.0963 9.59773 68.0963 9.59905 67.6573 9.603C67.5004 9.603 67.3422 9.603 67.184 9.59509C67.1603 9.59576 67.1367 9.59138 67.1148 9.58224C67.0929 9.57311 67.0732 9.55942 67.057 9.5421C67.0408 9.52477 67.0285 9.5042 67.0208 9.48174C67.0131 9.45929 67.0104 9.43547 67.0126 9.41185C67.0126 9.28002 67.0126 9.15873 67.0126 9.03217V6.28214C67.0126 6.1714 67.0126 6.06066 67.0126 5.95124C67.0144 5.92748 67.0108 5.90362 67.0022 5.8814C66.9936 5.85918 66.9802 5.83915 66.9629 5.82275C66.9456 5.80635 66.9249 5.79399 66.9023 5.78657C66.8796 5.77916 66.8556 5.77686 66.832 5.77986H66.6435C65.9158 5.77986 65.1933 5.77986 64.463 5.77986C64.0872 5.77986 64.0833 5.78777 64.082 6.18722C64.082 7.1351 64.082 8.08297 64.082 9.03085C64.082 9.14159 64.082 9.25233 64.082 9.36307C64.082 9.51336 64.0266 9.603 63.8645 9.603C62.823 9.603 63.0062 9.74539 63.0023 8.82651C62.993 6.4087 63.0023 3.99089 63.0023 1.57571C63.0023 0.957418 62.9535 1.01674 63.5639 1.0141C64.1202 1.0141 64.0912 0.991691 64.0912 1.52298V4.31915C64.0912 4.41407 64.0912 4.50899 64.0912 4.60391C64.0912 4.75684 64.1426 4.83989 64.3087 4.83989C65.1459 4.83989 65.983 4.83989 66.8201 4.83989C66.8476 4.84434 66.8757 4.84225 66.9021 4.8338C66.9286 4.82535 66.9527 4.81077 66.9725 4.79124C66.9923 4.77172 67.0072 4.7478 67.016 4.72143C67.0248 4.69507 67.0272 4.667 67.0231 4.6395C67.0231 4.49844 67.0231 4.35606 67.0231 4.21368C67.0231 3.31283 67.0231 2.41197 67.0231 1.51111C67.0153 1.40106 67.0202 1.29047 67.0377 1.18153C67.0648 1.11396 67.1166 1.05927 67.1827 1.0286C67.2429 1.01067 67.3064 1.00617 67.3685 1.01542C68.2439 1.03256 68.1042 0.88359 68.1108 1.71809C68.1213 2.91909 68.1108 4.12008 68.1108 5.32108L68.0963 5.31317Z" fill="white"/>
<path d="M103.015 30.0417C103.015 30.548 103.015 31.0542 103.015 31.5591C103.016 32.1309 102.875 32.694 102.605 33.1978C102.091 34.1206 101.287 34.5161 100.248 34.47C99.2419 34.4239 98.5643 33.9058 98.1517 33.0198C97.9613 32.618 97.8583 32.1803 97.8498 31.7358C97.8379 30.6152 97.8353 29.4946 97.8498 28.3714C97.8637 27.9131 97.977 27.4633 98.182 27.0531C98.6104 26.1619 99.3223 25.6715 100.311 25.6385C101.3 25.6056 102.084 26.0235 102.586 26.9015C102.827 27.3129 102.962 27.7768 102.982 28.2528C103.003 28.8526 102.982 29.4524 102.982 30.0523L103.015 30.0417ZM101.926 30.0655C101.926 29.5605 101.934 29.0543 101.926 28.5494C101.93 28.1048 101.823 27.6663 101.615 27.2733C101.496 27.0386 101.309 26.8455 101.078 26.7192C100.847 26.5928 100.583 26.5392 100.322 26.5653C99.7706 26.5917 99.4159 26.8791 99.1826 27.3563C99.0283 27.6697 98.9446 28.013 98.9374 28.3622C98.9198 29.4828 98.9198 30.6042 98.9374 31.7266C98.9445 32.1078 99.0407 32.482 99.2182 32.8195C99.3416 33.0594 99.5336 33.2571 99.7699 33.3874C100.006 33.5176 100.276 33.5746 100.545 33.551C100.813 33.5274 101.069 33.4242 101.279 33.2547C101.489 33.0852 101.643 32.8571 101.723 32.5993C101.833 32.2539 101.9 31.8961 101.922 31.5341C101.951 31.0463 101.926 30.5559 101.926 30.0655Z" fill="white"/>
<path d="M63.7247 46.6692C63.3252 46.7415 62.9169 46.7513 62.5144 46.6982C62.4353 46.6903 62.3496 46.5663 62.2995 46.4727C61.9924 45.9204 61.6958 45.3614 61.3952 44.8051C61.0946 44.2487 60.7808 43.6634 60.4724 43.0912C60.4209 42.999 60.3484 42.8684 60.2667 42.8539C60.0799 42.8282 59.8905 42.8282 59.7038 42.8539C59.6721 42.8539 59.6313 42.9515 59.6247 43.0082C59.6154 43.1345 59.6128 43.2612 59.6168 43.3879V46.1418C59.6168 46.2526 59.6168 46.3633 59.6168 46.4741C59.6168 46.6244 59.5667 46.7166 59.4006 46.7153C58.3564 46.7087 58.541 46.8564 58.5384 45.9375C58.5278 43.5184 58.5384 41.0979 58.5384 38.6775C58.5384 38.0671 58.487 38.1264 59.1066 38.1238C59.6616 38.1238 59.6207 38.1053 59.622 38.6392C59.622 39.6043 59.622 40.5693 59.622 41.5396C59.622 41.9219 59.651 41.9351 60.0268 41.9272C60.0973 41.9294 60.1667 41.9099 60.2257 41.8712C60.2847 41.8325 60.3303 41.7765 60.3563 41.7109C60.5488 41.3484 60.7518 40.9872 60.9404 40.6246C61.3359 39.8877 61.7419 39.1534 62.1268 38.4085C62.1646 38.3142 62.2325 38.2351 62.3201 38.1835C62.4077 38.132 62.5099 38.111 62.6107 38.1238C62.9073 38.1396 63.2052 38.1238 63.5651 38.1238C63.4689 38.3057 63.4109 38.431 63.341 38.5483C62.7188 39.595 62.0961 40.6413 61.473 41.6872C61.4084 41.7966 61.353 41.9113 61.2792 42.0128C61.2338 42.0688 61.209 42.1386 61.209 42.2106C61.209 42.2826 61.2338 42.3524 61.2792 42.4083C61.3569 42.527 61.4229 42.6535 61.4941 42.7762C62.1453 43.8976 62.7957 45.0195 63.4452 46.1418C63.5348 46.3 63.6179 46.4662 63.7247 46.6692Z" fill="white"/>
<path d="M117.296 13.378C117.204 13.5968 117.149 13.7419 117.083 13.8803C116.555 14.9956 116.046 16.1214 115.501 17.2209C115.425 17.3559 115.387 17.5084 115.39 17.6629C115.393 17.8174 115.437 17.9683 115.518 18.1002C116.082 19.2327 116.627 20.3744 117.176 21.5134C117.242 21.6452 117.298 21.7955 117.374 21.9735C117 22.0091 116.624 22.0184 116.248 22.0012C116.2 22.0013 116.154 21.9862 116.116 21.9579C116.077 21.9297 116.049 21.8899 116.035 21.8443C115.983 21.7283 115.932 21.6136 115.883 21.4962L114.893 19.1312C114.832 18.9862 114.761 18.8451 114.699 18.7014C114.519 18.7264 114.515 18.8754 114.47 18.9809C114.115 19.8259 113.767 20.6736 113.415 21.5213C113.373 21.6406 113.321 21.7561 113.26 21.8667C113.241 21.8998 113.215 21.9286 113.184 21.9513C113.154 21.974 113.119 21.9901 113.082 21.9985C112.707 22.0227 112.331 22.0187 111.957 21.9867C112.03 21.81 112.074 21.6808 112.134 21.5569C112.693 20.3704 113.245 19.1839 113.82 17.9974C113.881 17.8901 113.913 17.7688 113.913 17.6454C113.913 17.522 113.881 17.4007 113.82 17.2934C113.274 16.1702 112.749 15.0378 112.218 13.9066C112.147 13.7537 112.086 13.5955 111.995 13.3793C112.407 13.3793 112.752 13.3701 113.097 13.3859C113.186 13.4056 113.263 13.4591 113.312 13.5349C113.368 13.6311 113.412 13.7332 113.444 13.8394C113.76 14.6146 114.077 15.3898 114.395 16.1649C114.458 16.3205 114.526 16.4721 114.628 16.6857C114.71 16.5222 114.772 16.422 114.818 16.3073C115.174 15.4451 115.538 14.5869 115.872 13.7181C115.975 13.4545 116.119 13.3477 116.4 13.3701C116.681 13.3925 116.936 13.378 117.296 13.378Z" fill="white"/>
<path d="M75.2476 46.6434C75.187 46.6817 75.1738 46.6975 75.1606 46.6975L74.218 46.683C74.1258 46.4022 74.0242 46.124 73.9438 45.8393C73.8397 45.4754 73.7448 45.1076 73.6643 44.7371C73.6609 44.7026 73.6506 44.669 73.6342 44.6384C73.6177 44.6078 73.5953 44.5808 73.5684 44.5589C73.5414 44.5369 73.5104 44.5205 73.4771 44.5106C73.4438 44.5007 73.4089 44.4975 73.3743 44.5012C72.7151 44.5012 72.0468 44.5012 71.3823 44.5012C71.203 44.5012 71.1345 44.5934 71.0976 44.749C70.9934 45.1801 70.884 45.6086 70.7759 46.037C70.7574 46.1135 70.7377 46.1899 70.7166 46.2664C70.5847 46.7621 70.6441 46.7133 70.1154 46.716C69.9295 46.716 69.7423 46.708 69.5195 46.7028C69.5551 46.5248 69.5749 46.3877 69.6118 46.2559C70.3228 43.6842 71.0343 41.1122 71.7462 38.5397C71.7673 38.4646 71.795 38.3894 71.8134 38.3129C71.8231 38.2589 71.8515 38.2101 71.8938 38.1751C71.936 38.1401 71.9893 38.1212 72.0441 38.1218C72.872 38.0308 72.9076 38.0506 73.1331 38.8719C73.8063 41.3231 74.4791 43.7748 75.1514 46.2269C75.1896 46.3626 75.216 46.5011 75.2476 46.6434ZM73.3611 43.5533C73.0434 42.3523 72.7402 41.2093 72.4383 40.0663C72.4383 40.0544 72.4159 40.0439 72.4027 40.0373C72.3828 40.0323 72.3625 40.0288 72.3421 40.0268C72.0441 41.1829 71.7449 42.3417 71.4337 43.552C72.0824 43.5678 72.6782 43.5638 73.3611 43.5533Z" fill="white"/>
<path d="M152.33 9.60011H151.421C151.267 9.60011 151.204 9.51705 151.168 9.37467C151.029 8.80779 150.883 8.24223 150.732 7.67799C150.658 7.39982 150.652 7.39323 150.392 7.39059C149.761 7.38532 149.129 7.38532 148.496 7.39059C148.232 7.39059 148.222 7.39982 148.149 7.67535C148.018 8.16445 147.902 8.65487 147.776 9.14397C147.756 9.25291 147.724 9.3594 147.681 9.46168C147.665 9.49477 147.641 9.52375 147.612 9.54654C147.583 9.56934 147.549 9.58538 147.513 9.59352C147.216 9.6067 146.919 9.60011 146.59 9.60011C146.618 9.43664 146.627 9.31403 146.658 9.19802C147.377 6.59564 148.097 3.99371 148.816 1.39221C148.834 1.33156 148.86 1.27224 148.873 1.21028C148.904 1.05735 149.005 1.02044 149.146 1.00989C149.969 0.949251 149.971 0.946612 150.201 1.75738C150.878 4.22441 151.555 6.691 152.23 9.15715C152.256 9.27448 152.282 9.39577 152.33 9.60011ZM149.499 2.92147L149.403 2.90565C149.25 3.48439 149.088 4.0605 148.95 4.64188C148.811 5.22326 148.595 5.80069 148.533 6.42426H150.402C150.098 5.23513 149.8 4.07764 149.502 2.92147H149.499Z" fill="white"/>
<path d="M74.5201 22.0027C74.176 22.0027 73.8939 22.0027 73.6131 22.0027C73.4575 22.0027 73.3929 21.9157 73.3587 21.776C73.2361 21.2856 73.1134 20.7951 72.9829 20.3074C72.8155 19.6877 72.9447 19.7655 72.271 19.7603C71.7806 19.7603 71.2915 19.7603 70.8011 19.7603C70.4188 19.7603 70.4162 19.7603 70.3239 20.1202C70.1921 20.6409 70.0602 21.163 69.9284 21.6811C69.844 21.9988 69.8374 21.9988 69.5118 22.0054C69.2771 22.0054 69.0425 22.0054 68.7656 22.0054C68.8012 21.8208 68.817 21.6837 68.854 21.5519C69.5659 18.9609 70.2786 16.373 70.9923 13.7882C71.0108 13.6967 71.0414 13.608 71.0832 13.5246C71.1007 13.4919 71.1249 13.4632 71.1542 13.4405C71.1835 13.4178 71.2173 13.4015 71.2533 13.3927C71.5052 13.3756 71.7581 13.3756 72.01 13.3927C72.0812 13.3927 72.159 13.489 72.2065 13.5602C72.2409 13.6313 72.264 13.7074 72.275 13.7856C72.9922 16.4056 73.7098 19.0255 74.4278 21.6455C74.4555 21.7325 74.4766 21.8234 74.5201 22.0027ZM71.604 15.2252C71.393 16.0347 71.1953 16.7967 70.9975 17.56C70.9066 17.9106 70.8117 18.2613 70.7339 18.6146C70.693 18.7913 70.7339 18.8453 70.9237 18.848C71.397 18.848 71.8716 18.848 72.3449 18.848C72.5637 18.848 72.5888 18.8111 72.5334 18.5843C72.2697 17.5296 72.0003 16.475 71.7253 15.4203C71.6914 15.3514 71.6507 15.2861 71.604 15.2252Z" fill="white"/>
<path d="M124.879 22.0058C124.926 21.8001 124.951 21.663 124.988 21.5299C125.699 18.9591 126.41 16.3888 127.121 13.819C127.135 13.725 127.162 13.6336 127.202 13.5474C127.247 13.4775 127.334 13.3931 127.406 13.3918C127.688 13.3826 127.97 13.405 128.252 13.4156C128.333 13.6344 128.43 13.848 128.492 14.0747C129.174 16.5549 129.852 19.036 130.527 21.518C130.658 22.0058 130.658 22.0124 130.144 22.0071C129.505 22.0071 129.572 22.1112 129.401 21.431C129.289 20.988 129.178 20.5438 129.063 20.1008C128.978 19.7725 128.976 19.7673 128.657 19.7646C128.057 19.7646 127.457 19.7646 126.858 19.7646C126.553 19.7646 126.547 19.7646 126.47 20.0573C126.329 20.5912 126.199 21.1278 126.059 21.6617C125.969 22.0018 125.965 22.0031 125.615 22.0084C125.394 22.0084 125.173 22.0058 124.879 22.0058ZM127.81 15.2929H127.715C127.417 16.4596 127.094 17.621 126.804 18.8523C127.418 18.8616 127.982 18.8682 128.546 18.8523C128.711 18.8457 128.691 18.7126 128.662 18.6032C128.383 17.4967 128.099 16.3932 127.81 15.2929Z" fill="white"/>
<path d="M63.8685 17.7063V14.0044C63.8685 13.8726 63.8685 13.7513 63.8685 13.6247C63.8817 13.4191 63.9107 13.3821 64.1322 13.3808C64.9548 13.3808 65.7788 13.3492 66.5988 13.39C67.7022 13.4467 68.4444 14.1402 68.6725 15.2713C68.7773 15.7849 68.7665 16.3154 68.6408 16.8243C68.3693 17.9277 67.5994 18.5539 66.4682 18.5869C66.0899 18.5974 65.7102 18.5869 65.3305 18.5869C64.9759 18.5869 64.964 18.5988 64.9614 18.9666C64.9614 19.7576 64.9614 20.5486 64.9614 21.3396C64.9614 22.1042 65.0234 21.9895 64.3022 21.9987C64.239 22.002 64.1756 22.002 64.1124 21.9987C63.9054 21.9829 63.8711 21.9565 63.8672 21.7351C63.8672 21.2288 63.8672 20.7226 63.8672 20.2163L63.8685 17.7063ZM65.8789 14.3221C65.6733 14.3221 65.469 14.3221 65.2633 14.3221C64.9812 14.3287 64.9654 14.3379 64.964 14.6148C64.964 15.5139 64.964 16.413 64.964 17.3108C64.964 17.3582 64.964 17.4057 64.964 17.4531C64.9619 17.4807 64.9661 17.5084 64.9762 17.5341C64.9862 17.5598 65.002 17.5829 65.0223 17.6017C65.0426 17.6205 65.0669 17.6344 65.0933 17.6425C65.1197 17.6505 65.1477 17.6525 65.175 17.6482C65.6482 17.6482 66.1215 17.6588 66.5935 17.6351C66.7528 17.627 66.9069 17.5763 67.0399 17.4881C67.1728 17.4 67.2795 17.2777 67.3489 17.1341C67.5466 16.7815 67.6498 16.3838 67.6484 15.9795C67.647 15.5753 67.5411 15.1783 67.341 14.827C67.2605 14.6712 67.1375 14.5414 66.9864 14.4525C66.8352 14.3636 66.662 14.3193 66.4867 14.3247C66.2929 14.3195 66.0886 14.3221 65.8842 14.3221H65.8789Z" fill="white"/>
<path d="M64.6385 42.4211C64.6385 41.1907 64.6385 39.9602 64.6385 38.7298C64.6385 38.598 64.6385 38.478 64.6385 38.3514C64.6385 38.188 64.7255 38.1286 64.8758 38.13C64.9536 38.13 65.0327 38.13 65.1118 38.13C65.7908 38.13 66.471 38.1458 67.1499 38.13C68.3733 38.097 69.2118 38.8366 69.4451 40.0231C69.5563 40.5679 69.5368 41.1312 69.3885 41.667C69.105 42.6914 68.3457 43.2859 67.2791 43.311C66.852 43.3202 66.4262 43.311 65.999 43.3176C65.7908 43.3176 65.7433 43.3637 65.7354 43.5641C65.7235 43.8805 65.7354 44.1969 65.7354 44.512C65.7354 45.1606 65.7354 45.8079 65.7354 46.4552C65.7354 46.6991 65.7037 46.7281 65.4572 46.7268C64.5014 46.7268 64.6544 46.8441 64.6478 45.9885C64.6306 44.7902 64.6385 43.605 64.6385 42.4211ZM65.7327 40.7205C65.7327 40.8154 65.7327 40.909 65.7327 41.0039C65.7327 41.3836 65.7327 41.762 65.7327 42.1403C65.7327 42.3407 65.7868 42.3855 65.9964 42.3882C66.4064 42.3882 66.8164 42.3948 67.2264 42.3882C67.442 42.3889 67.6525 42.3229 67.8291 42.1992C68.0056 42.0755 68.1396 41.9002 68.2125 41.6974C68.3444 41.3921 68.4133 41.0632 68.4149 40.7306C68.4164 40.3981 68.3508 40.0686 68.2217 39.7621C68.1497 39.5506 68.0128 39.3672 67.8306 39.238C67.6483 39.1088 67.43 39.0403 67.2066 39.0423C66.8111 39.0291 66.4156 39.0304 66.0201 39.0423C65.767 39.0423 65.7327 39.0818 65.7275 39.3586C65.7275 39.8056 65.7327 40.263 65.7327 40.7205Z" fill="white"/>
<path d="M88.7383 5.25776V1.60863C88.7383 1.49789 88.7383 1.38715 88.7383 1.27641C88.7501 1.04307 88.7739 1.02198 89.0244 1.01275C89.0876 1.01275 89.1562 1.01275 89.2142 1.01275C89.8931 1.01275 90.5721 1.02725 91.251 1.01275C92.4915 0.979789 93.3208 1.74178 93.5449 2.9085C93.6543 3.45305 93.6344 4.01566 93.4869 4.55114C93.2008 5.57679 92.4401 6.17136 91.3776 6.19377C90.9517 6.20168 90.5246 6.19377 90.0988 6.19377C89.8918 6.19377 89.8457 6.24123 89.8351 6.44558C89.8246 6.80812 89.8351 7.17197 89.8351 7.53451C89.8351 8.11985 89.8351 8.70387 89.8351 9.28789C89.8351 9.5911 89.818 9.59901 89.5042 9.6056C89.3302 9.6056 89.1575 9.6056 88.9769 9.6056C88.8279 9.6056 88.737 9.5476 88.7396 9.38412C88.7396 9.25229 88.7396 9.13232 88.7396 9.00576L88.7383 5.25776ZM89.8404 3.55976C89.8404 3.9535 89.8404 4.34899 89.8404 4.74625C89.8404 4.85567 89.8404 4.96641 89.8496 5.07715C89.8486 5.1049 89.8536 5.13254 89.8644 5.15813C89.8752 5.18371 89.8915 5.20661 89.9121 5.22522C89.9328 5.24382 89.9572 5.25768 89.9838 5.26581C90.0103 5.27394 90.0383 5.27614 90.0658 5.27226C90.5075 5.27226 90.9504 5.28676 91.3841 5.26172C91.8574 5.23535 92.1751 4.9585 92.3386 4.52609C92.5838 3.91832 92.5786 3.23823 92.3241 2.63429C92.2521 2.42272 92.1147 2.23949 91.9318 2.11107C91.7488 1.98264 91.5298 1.91565 91.3064 1.91976C90.9109 1.90921 90.5154 1.91053 90.1199 1.91976C89.8813 1.91976 89.8391 1.96195 89.8338 2.19397C89.8312 2.65011 89.8404 3.10757 89.8404 3.55976Z" fill="white"/>
<path d="M160.841 2.75586C160.841 3.1975 160.841 3.64046 160.841 4.0821C160.841 4.52374 160.84 4.51451 161.298 4.51847C161.614 4.51847 161.929 4.51847 162.246 4.51847C163.579 4.49737 164.399 5.46239 164.498 6.61461C164.556 7.10114 164.515 7.59437 164.378 8.06476C164.073 8.98759 163.34 9.56502 162.368 9.59139C161.595 9.6138 160.821 9.60062 160.046 9.59139C159.746 9.59139 159.732 9.57425 159.73 9.25917C159.73 8.26383 159.73 7.2685 159.73 6.27316V1.57992C159.73 1.46918 159.73 1.35844 159.73 1.2477C159.744 1.03545 159.767 1.0104 159.994 1.00117C160.221 0.991943 160.405 1.00117 160.61 1.00117C160.641 0.996207 160.673 0.998748 160.704 1.00859C160.734 1.01842 160.761 1.03528 160.784 1.05778C160.806 1.08028 160.823 1.10778 160.833 1.13804C160.843 1.1683 160.845 1.20045 160.841 1.23188V2.27468V2.75586ZM160.841 7.02065C160.841 7.49525 160.841 7.96984 160.841 8.44312C160.841 8.6501 160.887 8.68833 161.104 8.69097C161.483 8.69097 161.862 8.69756 162.241 8.68174C162.456 8.68008 162.667 8.61306 162.844 8.48951C163.021 8.36595 163.156 8.19166 163.232 7.98962C163.473 7.44835 163.499 6.83578 163.306 6.27579C163.125 5.72342 162.765 5.45712 162.177 5.43075C161.829 5.41493 161.481 5.4202 161.134 5.43075C160.871 5.43075 160.847 5.46107 160.842 5.74319C160.837 6.16769 160.842 6.59088 160.842 7.02065H160.841Z" fill="white"/>
<path d="M59.1917 30.0352V26.4309C59.1917 26.3201 59.1917 26.2094 59.1917 26.0987C59.2009 25.7322 59.2075 25.7216 59.5608 25.7177C60.1448 25.7177 60.7301 25.7177 61.3155 25.7177C61.5521 25.7106 61.7889 25.7168 62.0247 25.7361C63.0108 25.8548 63.6344 26.4098 63.9192 27.3511C64.1098 27.9757 64.1135 28.6425 63.9297 29.2692C63.6384 30.2975 62.8856 30.8868 61.8204 30.9251C61.4579 30.9382 61.094 30.9251 60.7301 30.9251C60.2687 30.9251 60.2793 30.9132 60.2793 31.3588C60.2793 32.134 60.2793 32.9078 60.2793 33.683C60.2793 34.4265 60.3571 34.3329 59.6201 34.3422C59.5423 34.3422 59.4632 34.3422 59.3841 34.3422C59.3605 34.3433 59.3368 34.3395 59.3147 34.331C59.2925 34.3226 59.2724 34.3097 59.2554 34.2931C59.2385 34.2765 59.2251 34.2567 59.2162 34.2347C59.2073 34.2128 59.203 34.1892 59.2035 34.1655C59.2035 34.0337 59.1956 33.9124 59.1956 33.7858C59.1921 32.5308 59.1908 31.2806 59.1917 30.0352ZM60.2766 28.2752C60.2766 28.763 60.2766 29.2521 60.2766 29.7412C60.2766 29.9561 60.3057 29.9811 60.5284 29.9851C60.9239 29.9851 61.3194 29.9851 61.7149 29.9851C61.9378 30.0012 62.1599 29.9439 62.3472 29.822C62.5345 29.7002 62.6768 29.5204 62.7525 29.3101C62.8953 28.9837 62.9656 28.6301 62.9583 28.2739C62.951 27.9176 62.8664 27.5672 62.7103 27.2469C62.6313 27.064 62.4983 26.9095 62.3292 26.8042C62.16 26.6989 61.9627 26.6478 61.7637 26.6576C61.3682 26.6576 60.9727 26.651 60.5772 26.6576C60.2912 26.6576 60.2793 26.6735 60.2753 26.949C60.2714 27.3919 60.2766 27.8336 60.2766 28.2752Z" fill="white"/>
<path d="M147.48 17.6074C147.612 17.6983 147.683 17.7537 147.761 17.8064C148.156 18.0804 148.428 18.4975 148.521 18.9692C148.635 19.4512 148.631 19.9538 148.509 20.4339C148.295 21.2473 147.78 21.7983 146.969 22.0251C146.158 22.2518 145.338 22.1886 144.624 21.6494C144.033 21.2051 143.801 20.5947 143.789 19.8709C143.789 19.6626 143.825 19.6323 144.038 19.6191C144.133 19.6191 144.228 19.6191 144.323 19.6191C144.795 19.6191 144.792 19.6191 144.9 20.0647C144.934 20.2192 144.985 20.3692 145.053 20.5116C145.288 20.9717 145.656 21.2407 146.19 21.2209C146.724 21.2011 147.135 20.9572 147.342 20.4497C147.456 20.1789 147.512 19.8876 147.509 19.5939C147.505 19.3002 147.441 19.0104 147.321 18.7425C147.245 18.566 147.121 18.4151 146.962 18.3076C146.803 18.2 146.616 18.1405 146.424 18.136C146.174 18.1149 145.919 18.1294 145.666 18.1189C145.451 18.111 145.403 18.078 145.403 17.871C145.403 17.0866 145.33 17.1908 146.029 17.1815H146.124C146.9 17.1657 147.291 16.8177 147.372 16.0491C147.419 15.7187 147.39 15.382 147.288 15.0643C147.099 14.537 146.732 14.2641 146.198 14.2338C145.593 14.1995 145.234 14.6029 145.064 15.005C145.019 15.1234 144.984 15.2456 144.961 15.3702C144.886 15.6984 144.887 15.6984 144.583 15.709C144.504 15.709 144.425 15.709 144.345 15.709C143.873 15.709 143.811 15.7485 143.9 15.1513C143.977 14.6376 144.236 14.1688 144.63 13.83C145.024 13.4913 145.527 13.3052 146.046 13.3057C146.393 13.3051 146.737 13.3581 147.068 13.4625C147.735 13.6682 148.158 14.1388 148.361 14.8046C148.506 15.2744 148.531 15.7727 148.435 16.2548C148.321 16.8164 147.981 17.2475 147.48 17.6074Z" fill="white"/>
<path d="M124.319 5.24718C124.386 5.29728 124.434 5.33815 124.487 5.37243C124.727 5.52664 124.931 5.73299 125.081 5.97623C125.231 6.21948 125.325 6.4934 125.355 6.77776C125.432 7.24822 125.4 7.73013 125.259 8.18573C125.113 8.67799 124.792 9.09986 124.356 9.37223C123.486 9.92329 122.164 9.92856 121.302 9.17316C120.774 8.71175 120.584 8.1185 120.584 7.43693C120.579 7.40547 120.582 7.37329 120.592 7.34314C120.603 7.31299 120.62 7.28578 120.643 7.26386C120.666 7.24194 120.694 7.22595 120.725 7.21729C120.756 7.20863 120.788 7.20754 120.819 7.21413C120.914 7.21413 121.009 7.21413 121.104 7.21413C121.589 7.21413 121.585 7.21413 121.694 7.70191C121.729 7.85585 121.783 8.00473 121.855 8.14487C122.108 8.62078 122.495 8.86731 123.051 8.82512C123.29 8.81798 123.522 8.73963 123.716 8.60012C123.91 8.46061 124.058 8.26628 124.141 8.04204C124.351 7.5223 124.351 6.94155 124.141 6.42181C124.087 6.25473 123.987 6.10624 123.852 5.9932C123.718 5.88017 123.555 5.80714 123.381 5.78242C123.087 5.73496 122.785 5.73628 122.485 5.71783C122.222 5.70333 122.21 5.69805 122.209 5.44493C122.209 4.72117 122.152 4.81873 122.79 4.8095H122.837C123.638 4.82137 124.086 4.49706 124.174 3.55314C124.209 3.23743 124.17 2.91803 124.061 2.61976C123.988 2.39135 123.844 2.19229 123.649 2.05165C123.455 1.91101 123.221 1.83614 122.981 1.83799C122.463 1.8169 122.111 2.09111 121.897 2.53934C121.825 2.71377 121.778 2.89749 121.756 3.08513C121.756 3.12058 121.747 3.15548 121.732 3.18744C121.717 3.21939 121.695 3.24766 121.667 3.27031C121.64 3.29296 121.608 3.30946 121.574 3.31868C121.54 3.3279 121.504 3.32963 121.469 3.32375C121.279 3.32375 121.089 3.32375 120.901 3.32375C120.712 3.32375 120.675 3.27233 120.671 3.10095C120.668 2.58212 120.851 2.07939 121.188 1.68494C121.526 1.29049 121.993 1.03077 122.507 0.953397C122.851 0.908511 123.201 0.916512 123.543 0.977126C124.557 1.16565 125.191 1.93423 125.276 3.01262C125.346 3.87349 125.112 4.60648 124.393 5.1404C124.371 5.14831 124.36 5.18127 124.319 5.24718Z" fill="white"/>
<path d="M149.725 17.7065C149.725 16.4761 149.725 15.2426 149.725 14.006C149.725 13.8742 149.725 13.7516 149.725 13.6263C149.739 13.422 149.771 13.3837 149.989 13.3824C150.574 13.3745 151.159 13.3824 151.745 13.3824C152.439 13.3824 153.135 13.3824 153.831 13.3824C154.087 13.3824 154.112 13.4088 154.115 13.6527C154.115 14.4015 154.178 14.3118 153.512 14.3184C152.721 14.3184 151.93 14.3184 151.139 14.3184C150.816 14.3184 150.809 14.3263 150.807 14.6282C150.802 15.3401 150.802 16.0516 150.807 16.7626C150.807 17.0671 150.816 17.0737 151.136 17.0764C151.832 17.0764 152.526 17.0764 153.222 17.0764C153.671 17.0764 153.671 17.0764 153.673 17.5167C153.673 17.5483 153.673 17.58 153.673 17.6116C153.673 18.0071 153.673 18.0071 153.278 18.0137C152.619 18.0137 151.949 18.0137 151.286 18.0137C151.175 18.0053 151.064 18.0101 150.955 18.0282C150.898 18.0427 150.815 18.1258 150.815 18.1772C150.806 19.0789 150.807 19.9806 150.807 20.8811C150.807 20.9971 150.874 21.0511 150.987 21.0551H151.365C152.156 21.0551 152.947 21.0551 153.738 21.0551C154.115 21.0551 154.12 21.0617 154.123 21.4163C154.123 22.0346 154.162 21.9924 153.572 21.9924H150.298C150.203 21.9924 150.109 21.9924 150.014 21.9924C149.75 21.9805 149.726 21.9647 149.722 21.68C149.714 21.2687 149.722 20.8573 149.722 20.446L149.725 17.7065Z" fill="white"/>
<path d="M80.0671 17.6444C80.0671 16.4139 80.0671 15.18 80.0671 13.9425C80.0671 13.8107 80.0671 13.6894 80.075 13.5641C80.0741 13.5405 80.078 13.5169 80.0866 13.4948C80.0952 13.4727 80.1083 13.4526 80.125 13.4358C80.1417 13.419 80.1617 13.4058 80.1837 13.397C80.2057 13.3883 80.2293 13.3841 80.253 13.3849C80.3479 13.3849 80.4428 13.3849 80.5377 13.3849H83.9996C84.0945 13.3849 84.1908 13.3849 84.2844 13.3849C84.3082 13.3848 84.3318 13.3896 84.3537 13.3991C84.3755 13.4086 84.3952 13.4225 84.4114 13.44C84.4276 13.4575 84.4401 13.4781 84.4479 13.5006C84.4558 13.5231 84.4589 13.547 84.4571 13.5707C84.4571 13.634 84.4571 13.7026 84.4571 13.7606C84.4571 14.3433 84.5006 14.3169 83.9297 14.3169C83.1071 14.3169 82.2858 14.3169 81.4632 14.3169C81.1534 14.3169 81.1468 14.3261 81.1455 14.6412C81.1455 15.3689 81.1455 16.0962 81.1455 16.823C81.1455 17.0406 81.1771 17.0709 81.3933 17.0735C82.0525 17.0735 82.7208 17.0735 83.3853 17.0735C83.496 17.0735 83.6068 17.0735 83.7175 17.0735C83.9812 17.0841 84.0049 17.1012 84.0062 17.3372C84.0062 18.1124 84.0734 18.0043 83.3655 18.0109C82.7182 18.0109 82.0696 18.0109 81.421 18.0109C81.1573 18.0109 81.1468 18.0267 81.1441 18.2745C81.1389 19.0972 81.1389 19.9198 81.1441 20.7424C81.1441 21.0377 81.1547 21.0456 81.4816 21.047C82.2884 21.047 83.0939 21.047 83.9007 21.047C84.0326 21.047 84.1539 21.047 84.2804 21.047C84.3041 21.0466 84.3276 21.0511 84.3495 21.0601C84.3714 21.0692 84.3912 21.0827 84.4077 21.0998C84.4241 21.1169 84.4369 21.1371 84.4451 21.1593C84.4534 21.1816 84.457 21.2052 84.4558 21.2289C84.4558 21.2764 84.4558 21.3238 84.4558 21.3713C84.4558 22.0304 84.5085 21.9803 83.8889 21.9803H80.5838C80.4731 21.9803 80.3624 21.9803 80.2516 21.9803C80.228 21.9813 80.2043 21.9773 80.1823 21.9686C80.1602 21.9599 80.1403 21.9467 80.1236 21.9298C80.107 21.9129 80.0941 21.8927 80.0857 21.8706C80.0773 21.8484 80.0737 21.8247 80.075 21.801C80.075 21.6692 80.0671 21.5479 80.0671 21.4214C80.0662 20.1681 80.0662 18.9091 80.0671 17.6444Z" fill="white"/>
<path d="M83.3899 5.29422C83.3899 4.04445 83.3899 2.79468 83.3899 1.5449C83.3828 1.41905 83.3876 1.2928 83.4044 1.16786C83.4164 1.13429 83.4358 1.10384 83.4611 1.07875C83.4864 1.05365 83.5171 1.03455 83.5507 1.02285C83.6439 1.00361 83.7394 0.99828 83.8342 1.00703H87.3449C87.4392 0.998255 87.5342 1.00359 87.627 1.02285C87.693 1.05311 87.7446 1.10799 87.7707 1.17577C87.7878 1.25276 87.7923 1.33202 87.7839 1.41044C87.7918 1.9114 87.7918 1.91403 87.3053 1.91535C86.4827 1.91535 85.6601 1.91535 84.8374 1.91535C84.4854 1.91535 84.4762 1.92458 84.4749 2.24625C84.4696 2.97397 84.4696 3.70169 84.4749 4.4294C84.4749 4.68384 84.496 4.7023 84.7491 4.70493C85.4597 4.70493 86.1716 4.70493 86.8835 4.70493C87.3673 4.70493 87.337 4.69043 87.3396 5.17953C87.3396 5.24281 87.3396 5.31136 87.3396 5.36937C87.3251 5.5803 87.308 5.60667 87.0759 5.60799C86.4273 5.61458 85.78 5.60799 85.1314 5.60799C84.9732 5.60799 84.815 5.60799 84.6568 5.60799C84.6331 5.60583 84.6091 5.60886 84.5867 5.61685C84.5642 5.62484 84.5437 5.63762 84.5267 5.65429C84.5097 5.67096 84.4964 5.69113 84.4879 5.7134C84.4794 5.73568 84.4759 5.75954 84.4775 5.78332C84.4775 5.86242 84.4775 5.94152 84.4775 6.02062C84.4775 6.76416 84.4775 7.50769 84.4775 8.24991C84.4775 8.67837 84.4775 8.681 84.9323 8.68232C85.7391 8.68232 86.5446 8.68232 87.3515 8.68232C87.797 8.68232 87.797 8.68233 87.7984 9.12265C87.7984 9.58406 87.7984 9.5867 87.3264 9.58802C86.1733 9.58802 85.0189 9.58802 83.8632 9.58802C83.7683 9.58802 83.6733 9.58802 83.5784 9.58802C83.5547 9.59017 83.5307 9.58714 83.5083 9.57915C83.4858 9.57115 83.4654 9.55838 83.4483 9.54171C83.4313 9.52504 83.418 9.50487 83.4096 9.4826C83.4011 9.46032 83.3975 9.43646 83.3991 9.41268C83.3991 9.28084 83.3991 9.15956 83.3991 9.03432C83.3921 7.7907 83.389 6.544 83.3899 5.29422Z" fill="white"/>
<path d="M85.5086 30.0423C85.5086 29.5532 85.4994 29.0628 85.5086 28.5724C85.5158 28.0338 85.6338 27.5025 85.8553 27.0115C86.5712 25.4611 88.165 25.4005 89.1801 25.8962C89.4512 26.0302 89.6832 26.2318 89.8538 26.4815C90.2018 26.9785 90.3178 27.5454 90.3521 28.1373C90.36 28.2876 90.3046 28.3799 90.1385 28.3799C89.9329 28.3799 89.7285 28.3799 89.5229 28.3799C89.3634 28.3799 89.3093 28.2982 89.2922 28.1479C89.2702 27.9118 89.2301 27.6778 89.1722 27.4478C89.0404 26.968 88.7438 26.6463 88.223 26.5777C87.668 26.5039 87.2303 26.6793 86.9403 27.1776C86.7055 27.6106 86.5865 28.097 86.5949 28.5895C86.5751 29.569 86.5791 30.5499 86.5949 31.5294C86.5867 32.0063 86.7006 32.4774 86.9258 32.8978C87.0532 33.1465 87.2622 33.3439 87.5178 33.4569C87.7734 33.57 88.0601 33.5918 88.3298 33.5187C88.5032 33.4928 88.6661 33.4197 88.8007 33.3074C88.9354 33.1951 89.0365 33.0479 89.0931 32.882C89.1767 32.5951 89.2398 32.3025 89.2816 32.0066C89.3251 31.7641 89.3251 31.7535 89.5783 31.743C89.7101 31.743 89.8314 31.743 89.9579 31.743C90.3534 31.7509 90.3758 31.7706 90.3429 32.1385C90.3175 32.5338 90.2201 32.9211 90.0555 33.2814C89.9112 33.6092 89.68 33.8912 89.387 34.0971C89.094 34.303 88.7503 34.4248 88.3931 34.4495C88.0633 34.4846 87.7302 34.4712 87.4043 34.4099C86.7096 34.2676 86.2271 33.8233 85.9041 33.205C85.6454 32.6955 85.5099 32.1324 85.5086 31.561C85.498 31.0561 85.5086 30.5499 85.5086 30.0436V30.0423Z" fill="white"/>
<path d="M116.071 30.0447C116.071 29.5543 116.061 29.0639 116.071 28.5748C116.076 28.02 116.2 27.4728 116.436 26.9704C117.179 25.4292 118.79 25.4055 119.782 25.9157C120.119 26.0958 120.392 26.3764 120.563 26.7186C120.778 27.143 120.896 27.61 120.909 28.0857C120.923 28.3322 120.886 28.3678 120.654 28.3783C120.466 28.3862 120.276 28.3783 120.086 28.3783C119.927 28.3783 119.871 28.2992 119.854 28.1476C119.832 27.912 119.791 27.6784 119.733 27.4489C119.601 26.9664 119.306 26.6434 118.786 26.5762C118.234 26.5037 117.774 26.6645 117.51 27.1787C117.365 27.4409 117.269 27.7272 117.225 28.0237C117.092 29.3761 117.092 30.7383 117.225 32.0907C117.257 32.423 117.375 32.7411 117.568 33.0136C117.741 33.2623 117.997 33.4411 118.29 33.5175C118.583 33.5939 118.894 33.5629 119.166 33.4302C119.289 33.3742 119.399 33.2923 119.487 33.1898C119.576 33.0874 119.641 32.967 119.679 32.8369C119.755 32.5481 119.814 32.2549 119.854 31.9589C119.876 31.7994 119.948 31.7374 120.097 31.7387C120.246 31.7401 120.413 31.7387 120.57 31.7387C120.907 31.748 120.932 31.7678 120.913 32.0868C120.895 32.5144 120.79 32.9338 120.604 33.3194C120.485 33.5797 120.309 33.8098 120.089 33.9924C119.869 34.1751 119.61 34.3055 119.332 34.3741C117.871 34.7327 116.865 34.1276 116.371 32.9898C116.174 32.5226 116.072 32.0205 116.073 31.5133C116.073 31.0229 116.073 30.5325 116.073 30.0434L116.071 30.0447Z" fill="white"/>
<path d="M94.5214 5.33093C94.5214 4.84051 94.5214 4.35009 94.5214 3.86099C94.525 3.3692 94.6216 2.88254 94.8061 2.42665C95.4455 0.861798 96.8917 0.664049 98.0558 1.10833C98.4121 1.24921 98.7135 1.50116 98.9153 1.82681C99.2039 2.30433 99.3583 2.85087 99.3622 3.4088C99.3728 3.61842 99.328 3.65401 99.117 3.67247C98.9852 3.68038 98.8639 3.67247 98.7373 3.67247C98.3194 3.67906 98.3128 3.63556 98.2852 3.25456C98.2612 3.03516 98.2134 2.819 98.1428 2.6099C97.8791 1.71607 96.6162 1.59479 96.0981 2.25C95.8724 2.5375 95.7281 2.88034 95.6802 3.2427C95.6326 3.53931 95.6052 3.83883 95.5984 4.13916C95.5879 4.94509 95.5879 5.75147 95.5984 6.55829C95.5983 6.85854 95.6288 7.15803 95.6894 7.45211C95.7475 7.72952 95.848 7.99632 95.9873 8.24311C96.2998 8.77044 96.8047 8.9405 97.4691 8.77044C97.6253 8.73249 97.7685 8.6538 97.8843 8.5424C98.0001 8.431 98.0843 8.29088 98.1283 8.13632C98.2024 7.87903 98.2588 7.61694 98.297 7.35192C98.3498 7.03156 98.3405 7.02893 98.6767 7.02102C98.8349 7.02102 98.9931 7.02102 99.1513 7.02102C99.3095 7.02102 99.3754 7.10935 99.3688 7.26095C99.3438 7.88848 99.2133 8.48832 98.8085 8.98928C98.2693 9.65635 97.5311 9.83169 96.7216 9.74732C95.8647 9.65899 95.2715 9.18044 94.8918 8.41581C94.6517 7.91503 94.5269 7.36678 94.5266 6.81141C94.5148 6.31044 94.5214 5.82134 94.5214 5.33093Z" fill="white"/>
<path d="M71.9035 5.32574C71.9035 4.83532 71.9035 4.3449 71.9035 3.85449C71.8997 3.25075 72.0446 2.65537 72.3254 2.12089C72.4821 1.83551 72.6953 1.58506 72.9521 1.38482C73.2088 1.18457 73.5036 1.03874 73.8186 0.956207C74.1335 0.873676 74.462 0.856183 74.7839 0.904791C75.1058 0.953398 75.4145 1.06709 75.691 1.23893C76.3014 1.62256 76.5875 2.21449 76.6785 2.89474C76.7945 3.7688 76.7998 3.65937 75.9903 3.66201C75.7266 3.66201 75.7095 3.63037 75.6647 3.36143C75.6331 3.11135 75.586 2.86346 75.5236 2.61921C75.4627 2.40521 75.3364 2.2156 75.1624 2.07685C74.9885 1.93811 74.7755 1.85718 74.5533 1.84536C74.3331 1.80815 74.1068 1.83597 73.9022 1.92542C73.6975 2.01486 73.5234 2.16205 73.4011 2.34896C73.1426 2.7326 73.0048 3.18488 73.0056 3.64751C72.9885 4.76941 72.9924 5.88867 73.0056 7.01583C73.0084 7.41392 73.1118 7.80483 73.3062 8.15223C73.6806 8.8193 74.1921 8.89577 74.7471 8.79426C74.9222 8.76793 75.086 8.69178 75.2191 8.5749C75.3521 8.45802 75.4486 8.30535 75.4973 8.13509C75.5723 7.86216 75.6273 7.58414 75.662 7.30323C75.7069 7.03956 75.7174 7.01847 75.9916 7.01056C76.1656 7.01056 76.3397 7.01056 76.519 7.01056C76.6982 7.01056 76.7404 7.09889 76.7378 7.24918C76.7299 7.86484 76.606 8.44754 76.2105 8.94191C75.6831 9.62216 74.9528 9.81728 74.1394 9.74345C73.3049 9.66699 72.6971 9.22931 72.3056 8.48841C72.0394 7.96424 71.9037 7.38353 71.9101 6.79567C71.8982 6.30657 71.9035 5.81616 71.9035 5.32574Z" fill="white"/>
<path d="M52.4415 17.7239C52.4415 17.2493 52.4415 16.7747 52.4415 16.3001C52.4379 15.7608 52.5447 15.2265 52.7553 14.73C53.3999 13.2798 54.8132 13.0359 55.9667 13.4894C56.3832 13.6564 56.7241 13.9702 56.9251 14.3714C57.1507 14.8092 57.2678 15.2948 57.2665 15.7873C57.2665 15.9903 57.2283 16.0285 57.0187 16.0404C56.908 16.047 56.7972 16.0404 56.6865 16.0404C56.2422 16.0404 56.2462 16.0404 56.1895 15.6146C56.1675 15.4267 56.1313 15.2407 56.0814 15.0582C56.0319 14.8399 55.9148 14.6427 55.7468 14.4947C55.5787 14.3468 55.3682 14.2557 55.1454 14.2343C54.6339 14.1684 54.208 14.3068 53.9141 14.7616C53.6736 15.1377 53.5447 15.5742 53.5423 16.0206C53.5238 17.1438 53.5278 18.2618 53.5423 19.3903C53.5461 19.7881 53.648 20.1789 53.8389 20.528C53.9488 20.7589 54.1291 20.9491 54.3539 21.0711C54.5787 21.1931 54.8365 21.2406 55.09 21.2069C55.5791 21.1634 55.9258 20.9129 56.0669 20.4383C56.1297 20.1778 56.1763 19.9136 56.2066 19.6473C56.2422 19.4351 56.2659 19.4127 56.4703 19.3982C57.2876 19.3388 57.3733 19.4285 57.2046 20.234C57.1463 20.4958 57.0605 20.7508 56.9488 20.9947C56.8135 21.2825 56.6082 21.5318 56.3516 21.7197C55.6331 22.28 53.9971 22.3921 53.1587 21.3559C52.7501 20.8656 52.5102 20.2568 52.4745 19.6196C52.4375 18.9895 52.4665 18.3554 52.4665 17.7226L52.4415 17.7239Z" fill="white"/>
<path d="M97.9632 17.6972V21.4426C97.9632 21.5744 97.9632 21.6957 97.9553 21.821C97.9564 21.8447 97.9526 21.8684 97.944 21.8906C97.9355 21.9127 97.9224 21.9329 97.9057 21.9497C97.889 21.9666 97.8689 21.9798 97.8468 21.9885C97.8247 21.9972 97.801 22.0012 97.7773 22.0003C97.7298 22.0003 97.6824 22.0003 97.6349 22.0003C96.7609 21.9871 96.8795 22.1189 96.8729 21.2567C96.8729 20.4657 96.8729 19.6747 96.8729 18.8837C96.8729 18.7743 96.8729 18.6636 96.8729 18.5528C96.8729 18.4421 96.7846 18.396 96.6752 18.421C96.5987 18.4395 96.5249 18.4671 96.4484 18.4869C96.0173 18.5921 95.5732 18.6338 95.1301 18.6108C93.9133 18.5594 93.1658 17.8726 93.0208 16.6597C92.9926 16.4243 92.9777 16.1875 92.976 15.9505C92.976 15.2399 92.976 14.5293 92.976 13.8174C92.9681 13.723 92.9743 13.6279 92.9944 13.5353C93.0129 13.4746 93.0841 13.3876 93.1355 13.385C93.3873 13.3678 93.6404 13.3731 93.8935 13.385C93.9174 13.3845 93.9412 13.3891 93.9631 13.3984C93.9851 13.4078 94.0049 13.4217 94.0211 13.4393C94.0373 13.4569 94.0496 13.4777 94.0571 13.5004C94.0647 13.5231 94.0673 13.5471 94.0649 13.5709C94.0649 13.7027 94.0649 13.824 94.0649 13.9492C94.0649 14.6769 94.057 15.3994 94.0754 16.1297C94.0869 16.4138 94.1311 16.6956 94.2073 16.9695C94.2457 17.1329 94.3294 17.2822 94.4488 17.4002C94.5682 17.5182 94.7184 17.6001 94.8823 17.6366C95.5203 17.7922 96.136 17.655 96.7411 17.4586C96.7744 17.4416 96.8035 17.4174 96.8263 17.3878C96.8491 17.3582 96.8651 17.3238 96.8729 17.2872C96.8886 17.1618 96.893 17.0351 96.8861 16.9089C96.8861 15.9294 96.8861 14.9485 96.8861 13.969C96.8861 13.8372 96.8861 13.7159 96.8861 13.5906C96.8861 13.4654 96.9481 13.381 97.0865 13.381H97.7457C97.9078 13.381 97.9671 13.4707 97.9658 13.6197C97.9658 13.7304 97.9658 13.8411 97.9658 13.9519L97.9632 17.6972Z" fill="white"/>
<path d="M140.701 18.0757C140.745 17.9439 140.794 17.812 140.833 17.6802C141.208 16.3909 141.582 15.1016 141.955 13.8122C141.982 13.7213 142.009 13.6316 142.037 13.5407C142.048 13.4942 142.075 13.4532 142.114 13.4246C142.152 13.3959 142.199 13.3815 142.247 13.3838C142.278 13.3838 142.31 13.3838 142.341 13.3838C143.442 13.3983 143.32 13.2414 143.001 14.2394C142.377 16.2287 141.735 18.2128 141.101 20.1995C140.963 20.6538 140.768 21.0884 140.52 21.4928C140.208 21.9832 139.81 22.206 139.05 22.1217C139.022 22.1228 138.994 22.1181 138.968 22.108C138.942 22.0978 138.919 22.0824 138.899 22.0627C138.88 22.043 138.864 22.0194 138.854 21.9935C138.845 21.9675 138.84 21.9398 138.841 21.912C138.841 21.7868 138.833 21.6602 138.841 21.5337C138.849 21.2463 138.852 21.2212 139.127 21.2278C139.543 21.2357 139.771 21.0222 139.903 20.661C139.936 20.5713 139.965 20.4817 140.004 20.3973C140.187 20.0018 140.161 19.63 140.004 19.2108C139.345 17.4495 138.731 15.6737 138.099 13.9032C137.915 13.3838 137.916 13.3759 138.452 13.3825C139.243 13.3891 139.076 13.277 139.316 14.0139C139.726 15.2756 140.12 16.5425 140.521 17.8068C140.549 17.8951 140.583 17.9808 140.613 18.0704L140.701 18.0757Z" fill="white"/>
<path d="M52.2695 38.1939C52.3381 38.1597 52.3658 38.1333 52.3935 38.1333C52.7085 38.1333 53.0605 38.0489 53.3308 38.1597C53.6287 38.2836 53.6037 38.6962 53.6999 38.9876C54.0835 40.1582 54.4474 41.3355 54.8192 42.5088C54.8521 42.6117 54.8917 42.7105 54.9629 42.9043C55.0367 42.6973 55.0868 42.5774 55.1237 42.4535C55.4753 41.223 55.829 39.9926 56.1849 38.7621C56.2232 38.6303 56.2667 38.4906 56.3023 38.3535C56.3103 38.2821 56.346 38.2169 56.4018 38.1717C56.4575 38.1265 56.5288 38.1052 56.6002 38.1122C56.8968 38.1201 57.1948 38.1122 57.523 38.1122C57.5067 38.2329 57.4838 38.3526 57.4545 38.4708C56.7505 40.6829 56.0531 42.8977 55.3294 45.1033C55.1828 45.5195 54.989 45.9176 54.7519 46.2898C54.4448 46.7934 53.9398 46.9068 53.3861 46.8422C53.1924 46.8198 53.1541 46.7657 53.1423 46.564C53.1423 46.4533 53.1423 46.3425 53.1423 46.2318C53.1515 45.9431 53.1594 45.9088 53.4283 45.9246C53.8542 45.951 54.069 45.7269 54.2048 45.3696C54.2206 45.3248 54.2431 45.2826 54.2589 45.2378C54.5225 44.543 54.5225 44.543 54.2694 43.8364C53.6454 42.0962 53.0232 40.356 52.4027 38.6158C52.3565 38.4826 52.3157 38.3337 52.2695 38.1939Z" fill="white"/>
<path d="M77.1619 18.1669V21.4403C77.1619 21.5722 77.1619 21.6934 77.154 21.82C77.1554 21.8438 77.1519 21.8676 77.1436 21.8899C77.1353 21.9122 77.1225 21.9326 77.1058 21.9496C77.0891 21.9666 77.0691 21.98 77.047 21.9887C77.0248 21.9975 77.0011 22.0016 76.9773 22.0006C76.9299 22.0032 76.8823 22.0032 76.8349 22.0006C75.9358 21.9861 76.0782 22.1245 76.0756 21.261C76.069 19.2216 76.0756 17.1808 76.0756 15.14C76.0756 15.0082 76.0756 14.8869 76.0756 14.7604C76.0677 14.3174 76.0663 14.3161 75.6326 14.3134C75.1989 14.3108 74.7783 14.3134 74.3512 14.3134C74.1376 14.3134 74.1007 14.2752 74.0981 14.0616C74.0902 13.2706 74.0335 13.3827 74.7309 13.3801C75.9965 13.3801 77.2607 13.3801 78.5263 13.3801C78.6371 13.3801 78.7478 13.3801 78.8585 13.3801C79.1288 13.3919 79.1538 13.4091 79.1552 13.6859C79.1552 14.378 79.2119 14.3148 78.5646 14.3174C78.2323 14.3174 77.9054 14.3174 77.5679 14.3174C77.1724 14.3174 77.1724 14.3174 77.1724 14.7023C77.1724 15.3193 77.1724 15.935 77.1724 16.548L77.1619 18.1669Z" fill="white"/>
<path d="M59.8841 18.1509V14.8301C59.8841 14.7352 59.8841 14.6402 59.8841 14.5453C59.8841 14.3832 59.8116 14.3186 59.6547 14.3199C59.2447 14.3199 58.8334 14.3199 58.4221 14.3199C57.8579 14.3199 57.9014 14.3489 57.8948 13.7622C57.8948 13.6989 57.8948 13.6304 57.8948 13.5724C57.8935 13.5487 57.8971 13.525 57.9053 13.5028C57.9134 13.4805 57.926 13.4601 57.9423 13.4429C57.9586 13.4256 57.9782 13.4118 57.9999 13.4024C58.0216 13.3929 58.0451 13.388 58.0688 13.3878C58.1637 13.3878 58.2586 13.3878 58.3536 13.3878H62.4812C62.5761 13.3878 62.6711 13.3878 62.7647 13.3878C62.7883 13.3869 62.8118 13.3908 62.8339 13.3994C62.856 13.4079 62.876 13.4208 62.8929 13.4373C62.9098 13.4538 62.9232 13.4736 62.9322 13.4955C62.9412 13.5174 62.9456 13.5408 62.9453 13.5645C62.9505 13.6278 62.9532 13.691 62.9532 13.7543C62.9532 14.3739 62.9809 14.3186 62.3903 14.3199C62.0264 14.3199 61.6625 14.3199 61.2987 14.3199C60.9704 14.3199 60.9691 14.3304 60.9612 14.6771C60.9612 14.7721 60.9612 14.867 60.9612 14.9619V21.3202C60.9612 21.4151 60.9612 21.51 60.9612 21.605C60.9533 22.0005 60.9533 22.0005 60.5657 22.0005C59.7866 22.0005 59.8802 22.0901 59.8775 21.3255C59.8815 20.2708 59.8841 19.2109 59.8841 18.1509Z" fill="white"/>
<path d="M123.564 30.4785V27.1576C123.564 26.6409 123.603 26.6567 123.086 26.6567H122.091C121.996 26.6567 121.901 26.6567 121.806 26.6567C121.646 26.6567 121.576 26.5763 121.579 26.422C121.579 26.3917 121.579 26.3601 121.579 26.3284C121.579 25.6693 121.529 25.7207 122.149 25.7207H126.085H126.417C126.579 25.7207 126.641 25.8064 126.639 25.958C126.639 26.0054 126.639 26.0529 126.639 26.1003C126.653 26.654 126.653 26.6554 126.111 26.6567C125.701 26.6567 125.29 26.6567 124.879 26.6567C124.723 26.6567 124.646 26.7252 124.647 26.8834C124.647 27.0153 124.647 27.1365 124.647 27.2631C124.647 29.3979 124.647 31.5323 124.647 33.6662C124.647 33.7981 124.647 33.9193 124.647 34.0459C124.634 34.3096 124.611 34.3425 124.337 34.3412C123.441 34.3412 123.572 34.4519 123.567 33.6082C123.559 32.5628 123.564 31.5226 123.564 30.4785Z" fill="white"/>
<path d="M145.019 5.73068V9.00276C145.019 9.1346 145.019 9.25588 145.019 9.38244C145.019 9.509 144.965 9.59469 144.826 9.59733H144.116C144.092 9.59969 144.068 9.59685 144.045 9.58902C144.023 9.58118 144.002 9.56853 143.985 9.55196C143.968 9.53539 143.955 9.5153 143.947 9.49308C143.938 9.47085 143.935 9.44704 143.936 9.42331C143.936 9.29148 143.936 9.17019 143.936 9.04363C143.936 6.86136 143.936 4.67997 143.936 2.49946C143.936 1.84952 143.945 1.91807 143.334 1.91544C142.954 1.91544 142.574 1.91544 142.196 1.91544C142.044 1.91544 141.96 1.86007 141.959 1.69528C141.959 0.88846 141.893 1.0137 142.582 1.00975C143.878 1.00975 145.175 1.00975 146.471 1.00975C146.597 1.00287 146.723 1.00728 146.848 1.02293C146.909 1.0348 146.96 1.10862 147.008 1.16267C147.025 1.18113 147.018 1.22332 147.018 1.25496C147.018 1.99717 147.088 1.91412 146.415 1.91412C146.036 1.91412 145.657 1.91412 145.277 1.91412C145.062 1.91412 145.033 1.94444 145.032 2.16856C145.032 2.95955 145.032 3.75055 145.032 4.54155L145.019 5.73068Z" fill="white"/>
<path d="M79.3418 5.73176C79.3418 4.59273 79.3418 3.45369 79.3418 2.31598C79.3418 1.92048 79.3352 1.92048 78.9463 1.92048C78.5191 1.92048 78.092 1.92048 77.6662 1.92048C77.3748 1.92048 77.3551 1.9007 77.3537 1.63308C77.3537 0.951508 77.2825 1.01611 77.9549 1.01479C79.2508 1.01479 80.548 1.01479 81.8439 1.01479C81.9547 1.01479 82.0654 1.01479 82.1762 1.01479C82.3278 1.01479 82.4121 1.06884 82.4135 1.23363C82.4135 2.04176 82.4781 1.90993 81.7886 1.92048C81.426 1.92707 81.0622 1.92048 80.6983 1.92048C80.4557 1.92048 80.4347 1.95212 80.4241 2.20392C80.4241 2.31466 80.4241 2.42539 80.4241 2.53613V9.08295C80.4241 9.64455 80.4531 9.61028 79.9166 9.61028C79.2772 9.61028 79.3418 9.6551 79.3404 9.01307C79.3396 7.91623 79.34 6.82246 79.3418 5.73176Z" fill="white"/>
<path d="M102.022 5.75326V2.48117C102.022 2.38625 102.022 2.29001 102.022 2.19641C102.01 1.94197 101.997 1.92219 101.751 1.91824C101.387 1.91033 101.023 1.91824 100.659 1.91824C99.9747 1.91033 100.03 2.02503 100.041 1.2248C100.036 1.19741 100.039 1.16943 100.047 1.143C100.055 1.11657 100.07 1.09239 100.089 1.07229C100.108 1.0522 100.131 1.03673 100.157 1.02707C100.183 1.0174 100.211 1.01378 100.238 1.0165C100.381 1.0165 100.523 1.0165 100.664 1.0165H104.507C104.639 1.0165 104.759 1.0165 104.885 1.0165C105.012 1.0165 105.094 1.07319 105.095 1.21162C105.095 1.22744 105.095 1.24326 105.095 1.25908C105.095 2.02239 105.157 1.91165 104.493 1.91824C104.145 1.91824 103.798 1.91824 103.45 1.91824C103.127 1.91824 103.116 1.93801 103.106 2.27682C103.106 2.38756 103.106 2.49831 103.106 2.60905C103.106 4.75968 103.106 6.90987 103.106 9.05962C103.106 9.65023 103.143 9.60277 102.578 9.60409C101.981 9.60409 102.029 9.63836 102.029 9.07676C102.023 7.96936 102.02 6.86153 102.022 5.75326Z" fill="white"/>
<path d="M122.192 18.1805V21.4512C122.192 21.562 122.192 21.6727 122.192 21.7834C122.192 21.8942 122.137 21.997 121.999 21.9983C121.761 21.9983 121.524 21.9983 121.288 21.9983C121.264 21.999 121.24 21.9946 121.218 21.9854C121.196 21.9762 121.176 21.9624 121.16 21.945C121.143 21.9276 121.131 21.9069 121.123 21.8843C121.115 21.8617 121.112 21.8376 121.114 21.8138C121.114 21.703 121.114 21.5923 121.114 21.4816C121.114 18.953 121.114 16.4244 121.114 13.8959C121.114 13.3527 121.093 13.3791 121.632 13.3791H124.808C124.887 13.3791 124.966 13.3791 125.045 13.3791C125.195 13.3791 125.282 13.4384 125.282 13.6006C125.282 14.4377 125.352 14.3099 124.635 14.3151C123.94 14.3217 123.246 14.3151 122.55 14.3151C122.219 14.3151 122.208 14.3244 122.207 14.6671C122.207 15.8365 122.207 17.0058 122.207 18.1765L122.192 18.1805Z" fill="white"/>
<path d="M85.4811 17.6785V13.974C85.4811 13.8422 85.4811 13.7209 85.4811 13.5944C85.4811 13.4348 85.5681 13.3702 85.7211 13.3742C85.783 13.3742 85.8529 13.3742 85.9096 13.3742H89.1856C89.2489 13.3742 89.3174 13.3742 89.3741 13.3742C89.5837 13.3887 89.6167 13.4111 89.618 13.6379C89.618 14.4209 89.6918 14.3076 88.9826 14.3128C88.2733 14.3181 87.5601 14.3128 86.8495 14.3128C86.5859 14.3128 86.578 14.3326 86.5674 14.5765C86.5608 14.7083 86.5674 14.8296 86.5674 14.9562V21.3092C86.5674 21.4041 86.5674 21.499 86.5674 21.594C86.5595 21.9895 86.5595 21.9974 86.1719 21.9895C85.4033 21.9895 85.4864 22.0844 85.4838 21.3145C85.4785 20.1122 85.4811 18.8953 85.4811 17.6785Z" fill="white"/>
<path d="M127.583 30.0308C127.583 28.7828 127.583 27.5334 127.583 26.2828C127.583 26.151 127.583 26.0297 127.593 25.9044C127.592 25.8806 127.596 25.8568 127.605 25.8346C127.613 25.8124 127.627 25.7922 127.643 25.7751C127.66 25.7581 127.68 25.7447 127.702 25.7357C127.724 25.7266 127.748 25.7221 127.772 25.7225H127.819C128.865 25.7225 128.684 25.5907 128.688 26.4977C128.696 28.8865 128.688 31.274 128.688 33.6615C128.688 33.7722 128.688 33.8829 128.688 33.9937C128.679 34.3312 128.672 34.3391 128.34 34.3457C128.15 34.3457 127.96 34.3457 127.772 34.3457C127.748 34.3466 127.724 34.3426 127.702 34.3339C127.68 34.3253 127.66 34.3121 127.643 34.2953C127.626 34.2785 127.612 34.2583 127.604 34.2362C127.595 34.214 127.591 34.1902 127.591 34.1664C127.582 34.0346 127.582 33.9133 127.582 33.7867C127.582 32.5308 127.582 31.2788 127.583 30.0308Z" fill="white"/>
<path d="M91.7739 17.7394V21.4399C91.7739 21.5717 91.7739 21.693 91.7673 21.8196C91.7684 21.8434 91.7646 21.8671 91.7561 21.8894C91.7476 21.9116 91.7345 21.9318 91.7178 21.9488C91.7011 21.9658 91.6811 21.9791 91.659 21.9879C91.6368 21.9968 91.6132 22.0009 91.5894 22.0002C91.5577 22.0022 91.526 22.0022 91.4944 22.0002C90.5545 21.9883 90.6692 22.132 90.6678 21.2211C90.6678 18.8019 90.6678 16.3815 90.6678 13.9624C90.6678 13.2966 90.6586 13.3783 91.2624 13.3744C91.8003 13.3744 91.7766 13.3467 91.7766 13.8938L91.7739 17.7394Z" fill="white"/>
<path d="M61.5902 5.35119C61.5902 6.56844 61.5902 7.78526 61.5902 9.00163C61.5902 9.11237 61.5902 9.22311 61.5902 9.33385C61.5783 9.55665 61.552 9.59752 61.3516 9.59752C60.3404 9.59752 60.4894 9.74253 60.4868 8.81575C60.4802 6.41376 60.4868 4.01177 60.4868 1.60846C60.4868 0.949295 60.4472 1.00994 61.0629 1.0073C61.639 1.0073 61.5902 0.984888 61.5902 1.55704C61.592 2.82088 61.592 4.08559 61.5902 5.35119Z" fill="white"/>
<path d="M77.2834 42.4169V46.1583C77.2834 46.2901 77.2834 46.4114 77.2834 46.538C77.2853 46.5616 77.282 46.5853 77.2736 46.6075C77.2653 46.6297 77.2521 46.6497 77.2351 46.6662C77.2181 46.6827 77.1977 46.6953 77.1753 46.703C77.1529 46.7106 77.129 46.7133 77.1055 46.7107C76.8682 46.7107 76.6322 46.7107 76.3949 46.7107C76.3714 46.7132 76.3475 46.7106 76.3251 46.703C76.3027 46.6954 76.2822 46.683 76.265 46.6667C76.2478 46.6504 76.2344 46.6306 76.2256 46.6086C76.2169 46.5866 76.213 46.5629 76.2143 46.5393C76.2143 46.4285 76.2077 46.3178 76.2077 46.2071C76.2077 43.6829 76.2077 41.1574 76.2077 38.6306C76.2077 38.1033 76.1668 38.1191 76.7245 38.1218C77.3454 38.1218 77.2861 38.0611 77.2874 38.6755C77.2865 39.9226 77.2852 41.1697 77.2834 42.4169Z" fill="white"/>
<path d="M70.6408 5.31665V9.00796C70.6408 9.13321 70.6408 9.25977 70.6408 9.38633C70.6408 9.51289 70.588 9.59594 70.4483 9.59594C70.211 9.59594 69.975 9.59594 69.7377 9.59594C69.714 9.59685 69.6904 9.59263 69.6684 9.58355C69.6465 9.57448 69.6268 9.56077 69.6106 9.54337C69.5945 9.52597 69.5823 9.50528 69.5748 9.48273C69.5674 9.46017 69.565 9.43628 69.5677 9.41269C69.5677 9.30195 69.5677 9.19121 69.5677 9.08047C69.5677 6.57214 69.5677 4.06248 69.5677 1.55151C69.5677 0.980674 69.5149 1.00441 70.095 1.00704C70.704 1.00704 70.6447 0.952992 70.646 1.57524C70.6434 2.82238 70.6408 4.06951 70.6408 5.31665Z" fill="white"/>
<path d="M157.79 12.5448C156.975 12.5448 156.459 12.2007 156.266 11.5653C156.235 11.4597 156.216 11.3509 156.21 11.241C156.195 10.9878 156.237 10.9457 156.5 10.9338C156.593 10.9338 156.688 10.9338 156.783 10.9338C156.814 10.9296 156.845 10.9316 156.876 10.9398C156.906 10.948 156.934 10.9621 156.959 10.9814C156.983 11.0007 157.004 11.0248 157.019 11.0522C157.034 11.0795 157.043 11.1097 157.047 11.1408C157.062 11.2338 157.084 11.3256 157.114 11.415C157.155 11.5302 157.229 11.6301 157.329 11.7014C157.428 11.7726 157.547 11.8118 157.669 11.8135C157.791 11.8152 157.911 11.7795 158.012 11.711C158.113 11.6426 158.191 11.5448 158.234 11.4308C158.24 11.4157 158.246 11.4012 158.254 11.3873C158.335 11.2555 158.232 11.0274 158.41 10.9707C158.594 10.9335 158.782 10.9229 158.969 10.9391C159.101 10.9391 159.157 11.0182 159.165 11.1487C159.203 11.763 158.717 12.38 158.08 12.5118C157.984 12.529 157.887 12.54 157.79 12.5448Z" fill="white"/>
<path d="M75.607 37.2875C75.5292 37.2875 75.4501 37.2875 75.3723 37.2875C75.1087 37.2743 75.0757 37.2572 75.0784 36.983C75.0863 36.0245 74.9373 36.1709 75.8918 36.163C76.1923 36.163 76.2042 36.1814 76.2108 36.4899C76.2108 36.6942 76.2108 36.8986 76.2108 37.1016C76.2127 37.1254 76.2095 37.1492 76.2015 37.1717C76.1934 37.1941 76.1806 37.2145 76.164 37.2316C76.1474 37.2487 76.1274 37.2621 76.1052 37.2708C76.083 37.2795 76.0593 37.2834 76.0355 37.2822C75.8944 37.2822 75.7533 37.2822 75.6123 37.2822L75.607 37.2875Z" fill="white"/>
<path d="M77.356 36.6928C77.356 36.615 77.356 36.5359 77.356 36.4581C77.3692 36.1944 77.3876 36.1694 77.6579 36.1602C77.8306 36.1602 78.0033 36.1602 78.1747 36.1602C78.4594 36.1694 78.4779 36.1826 78.4858 36.4476C78.4858 36.6664 78.4858 36.8852 78.4858 37.1067C78.4868 37.1302 78.4828 37.1537 78.4742 37.1756C78.4655 37.1974 78.4524 37.2173 78.4356 37.2338C78.4189 37.2503 78.3988 37.2631 78.3768 37.2714C78.3548 37.2797 78.3313 37.2834 78.3078 37.2821C78.1984 37.2886 78.0877 37.29 77.9783 37.2886C77.2954 37.2847 77.3586 37.3427 77.356 36.6928Z" fill="white"/>
<path d="M6.32587 10.7109C6.66712 11.1013 6.96915 11.5244 7.22761 11.9739C8.08296 13.4028 8.60355 15.0069 8.75027 16.6658C8.84123 17.5768 8.96647 18.4838 9.07458 19.3921C9.18795 20.3483 9.30089 21.3046 9.41339 22.2608C9.43316 22.4164 9.46084 22.5719 9.48326 22.7288C9.51177 22.8429 9.50131 22.9633 9.45354 23.0708C9.40576 23.1783 9.32341 23.2667 9.21959 23.322C8.9406 23.4998 8.68121 23.7067 8.44573 23.939C7.99815 24.3473 7.66581 24.866 7.48204 25.4432C7.47209 25.5021 7.45042 25.5583 7.41831 25.6087C7.3862 25.659 7.34431 25.7023 7.29513 25.7361C7.24594 25.77 7.19046 25.7935 7.13199 25.8055C7.07351 25.8175 7.01322 25.8176 6.95471 25.8058C6.78201 25.7939 6.608 25.8058 6.43398 25.7979C6.40217 25.7995 6.37039 25.7943 6.34076 25.7826C6.31112 25.771 6.2843 25.7531 6.2621 25.7303C6.23989 25.7075 6.22281 25.6802 6.21198 25.6502C6.20116 25.6203 6.19684 25.5884 6.19932 25.5566C6.19404 25.4459 6.19141 25.3351 6.19141 25.2244C6.19141 20.547 6.19141 15.8691 6.19141 11.1908C6.19141 11.0379 6.20459 10.8863 6.2125 10.7334L6.32587 10.7109Z" fill="white"/>
<path d="M26.8435 10.7341C26.8435 10.8883 26.862 11.0426 26.862 11.1955C26.862 15.7815 26.862 20.3675 26.862 24.9536C26.862 25.0643 26.862 25.175 26.862 25.2858C26.862 25.7881 26.8475 25.7973 26.3676 25.8052C26.2727 25.8052 26.1765 25.8052 26.0829 25.8052C25.8192 25.8263 25.6874 25.7274 25.5938 25.4703C25.2869 24.5618 24.6624 23.7945 23.8351 23.3096C23.7362 23.2639 23.6566 23.1848 23.6103 23.0861C23.564 22.9875 23.554 22.8757 23.582 22.7704C23.7138 21.8318 23.8101 20.8892 23.9221 19.9479C24.0368 18.9763 24.1647 18.0047 24.2688 17.0317C24.3406 16.2134 24.4804 15.4025 24.6868 14.6073C25.0613 13.2967 25.6774 12.0676 26.5034 10.9832C26.5785 10.8844 26.6682 10.7974 26.7512 10.7051L26.8435 10.7341Z" fill="white"/>
<path d="M6.19668 30.966C6.19668 30.1117 6.19668 29.2522 6.19668 28.4032C6.19668 27.9075 6.21382 27.8983 6.70028 27.8904C7.31857 27.8811 7.30934 27.8904 7.55455 28.4454C8.13329 29.7729 9.15236 30.5705 10.5498 30.9041C10.6882 30.937 10.8293 30.9594 10.965 31.0003C11.1865 31.0688 11.2089 31.115 11.1694 31.347C11.0731 31.9231 10.9703 32.4979 10.8833 33.0767C10.849 33.31 10.8556 33.5486 10.8345 33.7846C10.8161 33.985 10.7686 34.0324 10.5709 34.0483C10.4773 34.0575 10.381 34.0562 10.2861 34.0562C9.09962 34.0562 7.91313 34.0562 6.72664 34.0562C6.21118 34.0562 6.19932 34.039 6.19141 33.5288C6.19404 32.6746 6.19668 31.8203 6.19668 30.966Z" fill="white"/>
<path d="M26.8596 30.9989C26.8596 31.8206 26.8596 32.642 26.8596 33.4628C26.8596 33.5881 26.8596 33.7146 26.8478 33.8412C26.848 33.8689 26.8426 33.8964 26.8319 33.9221C26.8213 33.9477 26.8056 33.9709 26.7858 33.9903C26.766 34.0097 26.7425 34.025 26.7167 34.0352C26.6908 34.0453 26.6632 34.0502 26.6355 34.0495C26.5261 34.0574 26.4154 34.0614 26.3046 34.0614H22.7531C22.674 34.0614 22.5949 34.0614 22.5158 34.0614C22.2811 34.0416 22.2442 34.0099 22.2205 33.7792C22.1914 33.4971 22.1849 33.2124 22.1453 32.9316C22.0688 32.4042 21.9779 31.8769 21.8909 31.3496C21.85 31.103 21.854 31.0859 22.086 31.0081C22.207 30.9726 22.3297 30.9435 22.4538 30.9211C23.9448 30.606 24.9586 29.7135 25.5584 28.3332C25.5901 28.262 25.6138 28.1856 25.6389 28.1117C25.6567 28.0507 25.6944 27.9973 25.746 27.9601C25.7975 27.9228 25.86 27.9038 25.9236 27.9061C25.9553 27.9061 25.9869 27.9061 26.0185 27.9061C26.9519 27.9061 26.8557 27.8283 26.8596 28.6971C26.8623 29.4525 26.8596 30.225 26.8596 30.9989Z" fill="white"/>
<path d="M16.5737 24.7295C16.6515 24.9457 16.724 25.1369 16.7913 25.3293C17.235 26.6136 17.7899 27.8566 18.4497 29.0444C18.7859 29.6455 18.8109 29.5862 18.215 29.8472C17.6373 30.1084 17.1178 30.4827 16.6871 30.948C16.579 31.0601 16.4907 31.0799 16.3747 30.948C15.8773 30.4147 15.2676 29.9986 14.5897 29.7299C14.3115 29.6139 14.3141 29.5981 14.4657 29.3094C14.678 28.9033 14.8942 28.4999 15.1012 28.0912C15.5963 27.1198 16.0129 26.1102 16.347 25.0723C16.3813 24.9694 16.4314 24.8706 16.4788 24.7704C16.4815 24.7664 16.5025 24.7625 16.5737 24.7295Z" fill="white"/>
<path d="M17.5703 40.3552V36.7878C17.5703 36.6784 17.5703 36.5677 17.5703 36.4569C17.5875 36.2051 17.623 36.159 17.888 36.1537C18.4233 36.1441 18.9589 36.1441 19.4951 36.1537C19.8286 36.1537 19.8747 36.2289 19.7825 36.5624C19.4485 37.7825 18.8604 38.9182 18.0568 39.8951C17.9355 40.0468 17.8445 40.2392 17.5703 40.3552Z" fill="white"/>
<path d="M15.4429 40.3565C15.2567 40.2137 15.0924 40.0445 14.9552 39.8542C14.1932 38.9004 13.6261 37.8061 13.2862 36.6335C13.2575 36.5435 13.2359 36.4514 13.2216 36.358C13.2172 36.3345 13.2179 36.3104 13.2238 36.2872C13.2297 36.264 13.2405 36.2424 13.2555 36.2239C13.2706 36.2053 13.2895 36.1902 13.3109 36.1797C13.3324 36.1692 13.3559 36.1634 13.3798 36.1629C13.4106 36.1567 13.4419 36.1532 13.4734 36.1523C14.0429 36.1523 14.6111 36.1458 15.1872 36.1523C15.4245 36.1523 15.4614 36.2051 15.4812 36.4318C15.4878 36.5109 15.4812 36.59 15.4812 36.6691C15.4812 37.759 15.4812 38.8496 15.4812 39.9412C15.4785 40.0625 15.4588 40.1825 15.4429 40.3565Z" fill="white"/>
<path d="M14.1973 34.0601C13.8822 34.0601 13.5671 34.0601 13.252 34.0601C12.9752 34.0522 12.9132 33.9994 12.9277 33.7186C12.9475 33.3416 12.9937 32.9659 13.049 32.5928C13.0893 32.3257 13.1465 32.0615 13.2204 31.8018C13.285 31.5658 13.3615 31.5249 13.6054 31.5988C14.0792 31.7306 14.5052 31.9959 14.8325 32.3632C15.1597 32.7304 15.3744 33.184 15.451 33.6699C15.5037 33.9638 15.4365 34.0456 15.1399 34.0548C14.8433 34.064 14.5097 34.0548 14.1946 34.0548L14.1973 34.0601Z" fill="white"/>
<path d="M18.863 34.0565C18.515 34.0565 18.1669 34.0644 17.8202 34.0565C17.6343 34.0565 17.5737 33.9616 17.5829 33.7783C17.6304 32.8661 18.5704 31.7771 19.4523 31.6084C19.6857 31.5636 19.7793 31.6084 19.8478 31.8338C20.0201 32.4581 20.1118 33.1018 20.1207 33.7493C20.1207 34.0025 20.068 34.0526 19.8109 34.0605C19.4958 34.0723 19.1794 34.0605 18.863 34.0605V34.0565Z" fill="white"/>
</svg>
