<svg width="155" height="38" viewBox="0 0 155 38" fill="none" xmlns="http://www.w3.org/2000/svg">
<path d="M7.44438 21.4423V15.4854H12.6064C14.7152 15.4854 15.4726 16.2756 15.4726 18.4639C15.4726 20.6521 14.0793 21.4423 12.4568 21.4423H7.44438ZM7.44438 32.2947V26.3378H13.1348C14.7946 26.3378 15.7719 27.128 15.7719 29.3163C15.7719 31.5045 15.0191 32.2947 12.9056 32.2947H7.43971H7.44438ZM-1 37.0827H13.7753C18.6381 37.0827 21.654 34.7448 21.654 29.9989C21.654 26.7212 20.3354 24.7247 17.5814 23.8924V23.177C19.9567 22.2325 21.3126 20.3482 21.3126 17.5241C21.3126 12.9278 18.409 10.7021 13.0974 10.7021H-1V15.7519H2.01585V32.0329H-1V37.0827Z" fill="black"/>
<path d="M33.1431 22.5738V15.4901H39.1C41.4004 15.4901 42.228 16.472 42.228 19.0343C42.228 21.5966 41.4004 22.5785 39.1 22.5785H33.1431V22.5738ZM27.6023 37.0827H33.1431V27.2823H37.5149L43.2801 37.0827H49.5736L43.5793 26.8709V25.5523C46.2164 24.6078 47.9886 22.312 47.9886 18.6556C47.9886 13.3019 45.2392 10.7021 39.5068 10.7021H27.5977V37.0827H27.6023Z" fill="black"/>
<path d="M59.9353 25.4401V21.7089L64.4193 16.2055H65.2843L69.9554 21.9333V25.4401H59.9306H59.9353ZM75.5008 37.0874V19.6749L67.5848 10.3281H62.3106L54.3945 19.6749V37.0874H59.9353V30.4899H69.9601V37.0874H75.5008Z" fill="black"/>
<path d="M81.5117 10.7021V27.7359L89.6148 37.2697H95.2303L103.371 27.6611V10.7021H97.7178V25.7767L92.972 31.6167H92.1023L87.1647 25.5523V10.7021H81.5117Z" fill="black"/>
<path d="M110.066 10.7021V37.0827H128.344V32.0329H115.49V26.4173H125.328V21.3675H115.49V15.7519H127.965V10.7021H110.066Z" fill="black"/>
<path d="M143.082 0L135.731 4.33441V10.4035L141.31 7.12115H142.025V21.3307H134.562V26.3805H154.233V21.3307H147.453V0H143.082Z" fill="black"/>
</svg>
